<?xml version="1.0" encoding="UTF-8"?>
<svg width="74px" height="63px" viewBox="0 0 74 63" version="1.1" xmlns="http://www.w3.org/2000/svg" xmlns:xlink="http://www.w3.org/1999/xlink">
    <!-- Generator: Sketch 50.2 (55047) - http://www.bohemiancoding.com/sketch -->
    <title>Shape</title>
    <desc>Created with Sketch.</desc>
    <defs></defs>
    <g id="Page-1" stroke="none" stroke-width="1" fill="none" fill-rule="evenodd">
        <g id="00_Desktop_1_Homepage-(1)" transform="translate(-302.000000, -152.000000)" fill="#F4F4F4" fill-rule="nonzero">
            <g id="Allergies" transform="translate(127.000000, 93.000000)">
                <g id="Shape">
                    <path d="M249,100.370741 C249,105.300601 245.38477,109.244489 240.783567,109.244489 C236.182365,109.244489 232.567134,105.300601 232.567134,100.370741 C232.567134,92.4829659 240.783567,82.9519038 240.783567,82.9519038 C240.783567,82.9519038 249,92.4829659 249,100.370741 Z M226.97996,78.0220441 L226.97996,78.0220441 L242.098196,62.5751503 C242.755511,61.9178357 242.755511,60.9318637 242.098196,60.2745491 C241.440882,59.6172345 240.45491,59.6172345 239.797595,60.2745491 L224.350701,75.7214429 L218.106212,74.4068136 C214.819639,73.749499 211.533066,74.7354709 209.232465,77.0360721 L205.945892,80.3226453 L211.861723,86.238477 C212.519038,86.8957916 212.519038,87.8817635 211.861723,88.5390782 C211.204409,89.1963928 210.218437,89.1963928 209.561122,88.5390782 L203.645291,82.6232465 L199.044088,87.2244489 L202.659319,90.8396794 C203.316633,91.496994 203.316633,92.4829659 202.659319,93.1402806 C202.002004,93.7975952 201.016032,93.7975952 200.358717,93.1402806 L196.743487,89.5250501 L192.142285,94.1262525 L198.058116,100.042084 C198.715431,100.699399 198.715431,101.685371 198.058116,102.342685 C197.400802,103 196.41483,103 195.757515,102.342685 L189.841683,96.4268537 L185.240481,101.028056 L188.855711,104.643287 C189.513026,105.300601 189.513026,106.286573 188.855711,106.943888 C188.198397,107.601202 187.212425,107.601202 186.55511,106.943888 L182.93988,103.328657 L177.024048,109.244489 C175.052104,111.216433 175.052104,114.174349 177.024048,116.146293 L180.639279,119.761523 L173.408818,126.991984 L169.793587,123.376754 C169.136273,122.719439 168.150301,122.719439 167.492986,123.376754 C166.835671,124.034068 166.835671,125.02004 167.492986,125.677355 L176.695391,134.87976 C177.352705,135.537074 178.338677,135.537074 178.995992,134.87976 C179.653307,134.222445 179.653307,133.236473 178.995992,132.579158 L175.709419,129.292585 L182.93988,122.062124 L186.55511,125.677355 C188.527054,127.649299 191.48497,127.649299 193.456914,125.677355 L225.665331,93.4689379 C227.965932,91.1683367 228.951904,87.8817635 228.294589,84.5951904 L226.97996,78.0220441 Z"></path>
                </g>
            </g>
        </g>
    </g>
</svg>