<?xml version="1.0" encoding="UTF-8"?>
<svg width="23px" height="23px" viewBox="0 0 23 23" version="1.1" xmlns="http://www.w3.org/2000/svg" xmlns:xlink="http://www.w3.org/1999/xlink">
    <!-- Generator: Sketch 50.2 (55047) - http://www.bohemiancoding.com/sketch -->
    <title>Shape</title>
    <desc>Created with Sketch.</desc>
    <defs></defs>
    <g id="Page-1" stroke="none" stroke-width="1" fill="none" fill-rule="evenodd">
        <g id="Doctor---My-Schedule---5-Reschedule" transform="translate(-729.000000, -384.000000)" fill="#01BBAE" fill-rule="nonzero">
            <g id="Group-11" transform="translate(243.000000, 107.000000)">
                <g id="hospital-copy" transform="translate(486.000000, 274.000000)">
                    <path d="M21.62,3 L1.38,3 C0.644,3 0,3.644 0,4.38 L0,24.62 C0,25.356 0.644,26 1.38,26 L21.62,26 C22.356,26 23,25.356 23,24.62 L23,4.38 C23,3.644 22.356,3 21.62,3 Z M20.24,19.56 C20.24,20.112 19.872,20.48 19.32,20.48 L15.824,20.48 C15.732,20.48 15.64,20.572 15.64,20.664 L15.64,22.32 C15.64,22.872 15.272,23.24 14.72,23.24 L8.28,23.24 C7.728,23.24 7.36,22.872 7.36,22.32 L7.36,20.664 C7.36,20.572 7.268,20.48 7.176,20.48 L3.68,20.48 C3.128,20.48 2.76,20.112 2.76,19.56 L2.76,6.68 C2.76,6.128 3.128,5.76 3.68,5.76 L19.32,5.76 C19.872,5.76 20.24,6.128 20.24,6.68 L20.24,19.56 Z M15.64,17.26 C15.64,17.536 15.456,17.72 15.18,17.72 L7.82,17.72 C7.544,17.72 7.36,17.536 7.36,17.26 C7.36,15.512 8.464,13.948 10.028,13.396 C9.476,12.844 9.2,12.108 9.2,11.28 C9.2,9.716 10.212,8.52 11.5,8.52 C12.788,8.52 13.8,9.716 13.8,11.28 C13.8,12.108 13.432,12.936 12.972,13.396 C14.536,13.948 15.64,15.512 15.64,17.26 Z" id="Shape"></path>
                </g>
            </g>
        </g>
    </g>
</svg>