<?xml version="1.0" encoding="UTF-8"?>
<svg width="25px" height="25px" viewBox="0 0 25 25" version="1.1" xmlns="http://www.w3.org/2000/svg" xmlns:xlink="http://www.w3.org/1999/xlink">
    <!-- Generator: Sketch 50.2 (55047) - http://www.bohemiancoding.com/sketch -->
    <title>Shape</title>
    <desc>Created with Sketch.</desc>
    <defs></defs>
    <g id="Symbols" stroke="none" stroke-width="1" fill="none" fill-rule="evenodd">
        <g id="icons/appointment" transform="translate(-5.000000, -5.000000)" fill="#FFFFFF" fill-rule="nonzero">
            <path d="M13.2,11.5 L10.8,11.5 L12,9.1 L13.2,11.5 Z M8.6,17 L6.5,17 C5.7,17 5,16.3 5,15.5 L5,6.5 C5,5.7 5.7,5 6.5,5 L17.5,5 C18.3,5 19,5.7 19,6.5 L19,15.5 C19,16.3 18.3,17 17.5,17 L15.4,17 L15,17 L14.7,17.3 L13.1,18.9 C12.8,19.2 12.4,19.3 12,19.3 C11.6,19.3 11.2,19.1 10.9,18.9 L9.3,17.3 L9,17 L8.6,17 Z M8.8,14.5 C8.9,14.5 8.9,14.6 9,14.6 C9.2,14.6 9.4,14.5 9.4,14.3 L10.3,12.6 L13.7,12.6 L14.6,14.3 C14.7,14.5 14.9,14.6 15,14.6 C15.1,14.6 15.2,14.6 15.2,14.5 C15.4,14.4 15.5,14.1 15.4,13.8 L12.4,7.8 L12.4,7.8 C12.4,7.8 12.4,7.7 12.3,7.7 C12.3,7.7 12.2,7.7 12.2,7.6 L12.2,7.6 L12.2,7.6 L12.1,7.6 L12,7.6 L11.9,7.6 L11.8,7.6 L11.8,7.6 L11.8,7.6 C11.8,7.6 11.7,7.6 11.7,7.7 C11.7,7.7 11.7,7.8 11.6,7.8 L11.6,7.8 L8.6,13.8 C8.4,14.1 8.5,14.4 8.8,14.5 Z M30,10.5 L30,28.5 C30,29.3 29.3,30 28.5,30 L8.5,30 C7.7,30 7,29.3 7,28.5 L7,18 L8.6,18 L10.2,19.6 C10.7,20.1 11.3,20.3 12,20.3 C12.7,20.3 13.3,20 13.8,19.6 L15.4,18 L17.5,18 C18.9,18 20,16.9 20,15.5 L20,9 L28.5,9 C29.3,9 30,9.7 30,10.5 Z M26,25.5 C26,25.2 25.8,25 25.5,25 L11.5,25 C11.2,25 11,25.2 11,25.5 C11,25.8 11.2,26 11.5,26 L25.5,26 C25.8,26 26,25.8 26,25.5 Z M26,22.5 C26,22.2 25.8,22 25.5,22 L11.5,22 C11.2,22 11,22.2 11,22.5 C11,22.8 11.2,23 11.5,23 L25.5,23 C25.8,23 26,22.8 26,22.5 Z M26,19.5 C26,19.2 25.8,19 25.5,19 L17.5,19 C17.2,19 17,19.2 17,19.5 C17,19.8 17.2,20 17.5,20 L25.5,20 C25.8,20 26,19.8 26,19.5 Z" id="Shape"></path>
        </g>
    </g>
</svg>