<?xml version="1.0" encoding="UTF-8"?>
<svg width="29px" height="27px" viewBox="0 0 29 27" version="1.1" xmlns="http://www.w3.org/2000/svg" xmlns:xlink="http://www.w3.org/1999/xlink">
    <!-- Generator: Sketch 50.2 (55047) - http://www.bohemiancoding.com/sketch -->
    <title>Shape</title>
    <desc>Created with Sketch.</desc>
    <defs></defs>
    <g id="Page-1" stroke="none" stroke-width="1" fill="none" fill-rule="evenodd">
        <g id="00_Desktop_1_Homepage-(1)" transform="translate(-157.000000, -739.000000)" fill="#389AD8" fill-rule="nonzero">
            <g id="Set-New-Appointment" transform="translate(125.000000, 704.000000)">
                <path d="M61,38 L61,42 L32,42 L32,38 C32,37.4 32.464,37 33.16,37 L38.96,37 L38.96,35.5 C38.96,35.2 39.192,35 39.54,35 C39.888,35 40.12,35.2 40.12,35.5 L40.12,37 L52.88,37 L52.88,35.5 C52.88,35.2 53.112,35 53.46,35 C53.808,35 54.04,35.2 54.04,35.5 L54.04,37 L59.84,37 C60.536,37 61,37.4 61,38 Z M32,44 L61,44 L61,60.875 C61,61.55 60.536,62 59.84,62 L33.16,62 C32.464,62 32,61.55 32,60.875 L32,44 Z M42,52.5 C42,52.8 42.2,53 42.5,53 L45,53 L45,55.5 C45,55.8 45.2,56 45.5,56 C45.8,56 46,55.8 46,55.5 L46,53 L48.5,53 C48.8,53 49,52.8 49,52.5 C49,52.2 48.8,52 48.5,52 L46,52 L46,49.5 C46,49.2 45.8,49 45.5,49 C45.2,49 45,49.2 45,49.5 L45,52 L42.5,52 C42.2,52 42,52.2 42,52.5 Z" id="Shape"></path>
            </g>
        </g>
    </g>
</svg>