<?xml version="1.0" encoding="UTF-8"?>
<svg width="16px" height="17px" viewBox="0 0 16 17" version="1.1" xmlns="http://www.w3.org/2000/svg" xmlns:xlink="http://www.w3.org/1999/xlink">
    <!-- Generator: Sketch 50.2 (55047) - http://www.bohemiancoding.com/sketch -->
    <title>Shape</title>
    <desc>Created with Sketch.</desc>
    <defs></defs>
    <g id="Page-1" stroke="none" stroke-width="1" fill="none" fill-rule="evenodd">
        <g id="Doctor---Search-Patient---7-Edit-MR" transform="translate(-51.000000, -499.000000)" fill="#49AEF4" fill-rule="nonzero">
            <g id="Group-11" transform="translate(34.000000, 485.000000)">
                <path d="M31.5955257,22.4981227 C31.7654881,22.6680851 31.7654881,22.9230288 31.5955257,23.0929912 L24.96699,29.6365457 C23.1823842,31.4211514 20.2080413,31.4211514 18.3384543,29.6365457 C16.5538486,27.8519399 16.5538486,24.877597 18.3384543,23.0929912 L26.4966521,15.0197747 C27.8563517,13.6600751 29.9808824,13.6600751 31.340582,15.0197747 C32.7002816,16.3794743 32.7002816,18.504005 31.340582,19.7787234 L23.862234,27.2570713 C23.0124218,28.1068836 21.6527222,28.1068836 20.8878911,27.2570713 C20.1230601,26.4072591 20.0380788,25.1325407 20.8878911,24.2827284 L28.1112954,17.1443054 C28.2812578,16.9743429 28.5362015,16.9743429 28.706164,17.1443054 C28.8761264,17.3142678 28.8761264,17.5692115 28.706164,17.739174 L21.4827597,24.877597 C20.9728723,25.3874844 20.9728723,26.1523154 21.4827597,26.6622028 C21.9926471,27.1720901 22.7574781,27.1720901 23.2673655,26.6622028 L30.7457134,19.1838548 C31.7654881,18.1640801 31.7654881,16.5494368 30.7457134,15.6146433 C29.7259387,14.5948686 28.1112954,14.5948686 27.1765019,15.6146433 L19.0183041,23.6878598 C17.4886421,25.1325407 17.4886421,27.5969962 19.0183041,29.0416771 C20.5479662,30.4863579 22.9274406,30.4863579 24.4571026,29.0416771 L31.0856383,22.4981227 C31.1706195,22.3281602 31.4255632,22.3281602 31.5955257,22.4981227 Z" id="Shape"></path>
            </g>
        </g>
    </g>
</svg>