<?xml version="1.0" encoding="UTF-8"?>
<svg width="16px" height="17px" viewBox="0 0 16 17" version="1.1" xmlns="http://www.w3.org/2000/svg" xmlns:xlink="http://www.w3.org/1999/xlink">
    <!-- Generator: Sketch 50.2 (55047) - http://www.bohemiancoding.com/sketch -->
    <title>Shape</title>
    <desc>Created with Sketch.</desc>
    <defs></defs>
    <g id="Page-1" stroke="none" stroke-width="1" fill="none" fill-rule="evenodd">
        <g id="Doctor---Search-Patient---6.2-Add-MR" transform="translate(-898.000000, -111.000000)" fill="#49AEF4" fill-rule="nonzero">
            <g id="Group-15" transform="translate(35.000000, 100.000000)">
                <g id="Group-11" transform="translate(849.000000, 0.000000)">
                    <path d="M28.5955257,19.4981227 C28.7654881,19.6680851 28.7654881,19.9230288 28.5955257,20.0929912 L21.96699,26.6365457 C20.1823842,28.4211514 17.2080413,28.4211514 15.3384543,26.6365457 C13.5538486,24.8519399 13.5538486,21.877597 15.3384543,20.0929912 L23.4966521,12.0197747 C24.8563517,10.6600751 26.9808824,10.6600751 28.340582,12.0197747 C29.7002816,13.3794743 29.7002816,15.504005 28.340582,16.7787234 L20.862234,24.2570713 C20.0124218,25.1068836 18.6527222,25.1068836 17.8878911,24.2570713 C17.1230601,23.4072591 17.0380788,22.1325407 17.8878911,21.2827284 L25.1112954,14.1443054 C25.2812578,13.9743429 25.5362015,13.9743429 25.706164,14.1443054 C25.8761264,14.3142678 25.8761264,14.5692115 25.706164,14.739174 L18.4827597,21.877597 C17.9728723,22.3874844 17.9728723,23.1523154 18.4827597,23.6622028 C18.9926471,24.1720901 19.7574781,24.1720901 20.2673655,23.6622028 L27.7457134,16.1838548 C28.7654881,15.1640801 28.7654881,13.5494368 27.7457134,12.6146433 C26.7259387,11.5948686 25.1112954,11.5948686 24.1765019,12.6146433 L16.0183041,20.6878598 C14.4886421,22.1325407 14.4886421,24.5969962 16.0183041,26.0416771 C17.5479662,27.4863579 19.9274406,27.4863579 21.4571026,26.0416771 L28.0856383,19.4981227 C28.1706195,19.3281602 28.4255632,19.3281602 28.5955257,19.4981227 Z" id="Shape"></path>
                </g>
            </g>
        </g>
    </g>
</svg>