<?xml version="1.0" encoding="UTF-8"?>
<svg width="12px" height="13px" viewBox="0 0 12 13" version="1.1" xmlns="http://www.w3.org/2000/svg" xmlns:xlink="http://www.w3.org/1999/xlink">
    <!-- Generator: Sketch 50.2 (55047) - http://www.bohemiancoding.com/sketch -->
    <title>Attach</title>
    <desc>Created with Sketch.</desc>
    <defs></defs>
    <g id="Page-1" stroke="none" stroke-width="1" fill="none" fill-rule="evenodd">
        <g id="00_Desktop_1_Homepage-hover-menu-5" transform="translate(-1100.000000, -679.000000)" fill="#FF8686">
            <g id="Health-History" transform="translate(455.000000, 573.000000)">
                <g id="table" transform="translate(0.000000, 43.000000)">
                    <g id="List-1" transform="translate(0.000000, 53.000000)">
                        <g id="Group-8" transform="translate(645.000000, 7.000000)">
                            <path d="M0.928180758,14.6810015 C-0.176636634,13.5777331 -0.484763775,11.6513711 1.0643419,10.1043857 C1.97191172,9.19798302 5.60732432,5.5675019 7.42207896,3.75469653 C8.0663098,3.11129417 8.88635663,2.86290498 9.67136859,3.072972 C10.4423923,3.27919399 11.0743032,3.91003591 11.2807907,4.67993989 C11.4911282,5.46445499 11.2424192,6.2831909 10.5983167,6.92659326 L4.51829187,12.9987991 C4.17115154,13.345493 3.77909473,13.5506897 3.38485625,13.5923442 C2.9945961,13.6333579 2.62191754,13.5078817 2.36114521,13.2475729 C1.88811038,12.7752745 1.82073564,11.8863026 2.60703093,11.101403 L6.87756274,6.83610679 C7.05299373,6.66090141 7.33725096,6.66090141 7.51268195,6.83610679 C7.68811293,7.01131218 7.68811293,7.29533202 7.51268195,7.47040924 L3.24215014,11.7355773 C2.87293657,12.1041879 2.8390567,12.4561367 2.99626442,12.6131422 C3.06517916,12.6819683 3.16977042,12.712985 3.29027495,12.70004 C3.47520257,12.6805585 3.68579675,12.5612343 3.88304432,12.3642404 L9.96306913,6.29216265 C10.3801509,5.8756173 10.5400536,5.38550363 10.4130041,4.91230811 C10.2878795,4.44616182 9.90570435,4.06447811 9.43895783,3.9395145 C8.96528133,3.81262838 8.47440823,3.97232546 8.05706984,4.38899898 C6.2423152,6.20154801 2.6069026,9.8325418 1.69933277,10.7386882 C0.51482069,11.921677 0.79843626,13.282819 1.56317163,14.0465709 C2.32790701,14.8103228 3.6906734,15.09383 4.87557048,13.9107131 L11.2333075,7.56102387 C11.4087385,7.38581849 11.6929958,7.38581849 11.8684268,7.56102387 C12.0438577,7.73622926 12.0438577,8.0202491 11.8684268,8.19532632 L5.51068969,14.5450155 C4.76135426,15.2937718 3.92269917,15.6079111 3.13165556,15.6079111 C2.2879955,15.6079111 1.49836355,15.2504511 0.928180758,14.6810015 Z" id="Attach"></path>
                        </g>
                    </g>
                </g>
            </g>
        </g>
    </g>
</svg>