<?xml version="1.0" encoding="UTF-8"?>
<svg width="51px" height="51px" viewBox="0 0 51 51" version="1.1" xmlns="http://www.w3.org/2000/svg" xmlns:xlink="http://www.w3.org/1999/xlink">
    <!-- Generator: Sketch 50.2 (55047) - http://www.bohemiancoding.com/sketch -->
    <title>Shape</title>
    <desc>Created with Sketch.</desc>
    <defs></defs>
    <g id="Page-1" stroke="none" stroke-width="1" fill="none" fill-rule="evenodd">
        <g id="00_Desktop_8_Profile" transform="translate(-852.000000, -228.000000)" fill="#353638" fill-rule="nonzero">
            <g id="content" transform="translate(216.000000, 154.000000)">
                <g id="Appointment-" transform="translate(623.000000, 74.000000)">
                    <path d="M29.728,13.26 L24.832,13.26 L27.28,8.364 L29.728,13.26 Z M20.344,24.48 L16.06,24.48 C14.428,24.48 13,23.052 13,21.42 L13,3.06 C13,1.428 14.428,0 16.06,0 L38.5,0 C40.132,0 41.56,1.428 41.56,3.06 L41.56,21.42 C41.56,23.052 40.132,24.48 38.5,24.48 L34.216,24.48 L33.4,24.48 L32.788,25.092 L29.524,28.356 C28.912,28.968 28.096,29.172 27.28,29.172 C26.464,29.172 25.648,28.764 25.036,28.356 L21.772,25.092 L21.16,24.48 L20.344,24.48 Z M20.752,19.38 C20.956,19.38 20.956,19.584 21.16,19.584 C21.568,19.584 21.976,19.38 21.976,18.972 L23.812,15.504 L30.748,15.504 L32.584,18.972 C32.788,19.38 33.196,19.584 33.4,19.584 C33.604,19.584 33.808,19.584 33.808,19.38 C34.216,19.176 34.42,18.564 34.216,17.952 L28.096,5.712 L28.096,5.712 C28.096,5.712 28.096,5.508 27.892,5.508 C27.892,5.508 27.688,5.508 27.688,5.304 L27.688,5.304 L27.688,5.304 L27.484,5.304 L27.28,5.304 L27.076,5.304 L26.872,5.304 L26.872,5.304 L26.872,5.304 C26.872,5.304 26.668,5.304 26.668,5.508 C26.668,5.508 26.668,5.712 26.464,5.712 L26.464,5.712 L20.344,17.952 C19.936,18.564 20.14,19.176 20.752,19.38 Z M64,11.22 L64,47.94 C64,49.572 62.572,51 60.94,51 L20.14,51 C18.508,51 17.08,49.572 17.08,47.94 L17.08,26.52 L20.344,26.52 L23.608,29.784 C24.628,30.804 25.852,31.212 27.28,31.212 C28.708,31.212 29.932,30.6 30.952,29.784 L34.216,26.52 L38.5,26.52 C41.356,26.52 43.6,24.276 43.6,21.42 L43.6,8.16 L60.94,8.16 C62.572,8.16 64,9.588 64,11.22 Z M55.84,41.82 C55.84,41.208 55.432,40.8 54.82,40.8 L26.26,40.8 C25.648,40.8 25.24,41.208 25.24,41.82 C25.24,42.432 25.648,42.84 26.26,42.84 L54.82,42.84 C55.432,42.84 55.84,42.432 55.84,41.82 Z M55.84,35.7 C55.84,35.088 55.432,34.68 54.82,34.68 L26.26,34.68 C25.648,34.68 25.24,35.088 25.24,35.7 C25.24,36.312 25.648,36.72 26.26,36.72 L54.82,36.72 C55.432,36.72 55.84,36.312 55.84,35.7 Z M55.84,29.58 C55.84,28.968 55.432,28.56 54.82,28.56 L38.5,28.56 C37.888,28.56 37.48,28.968 37.48,29.58 C37.48,30.192 37.888,30.6 38.5,30.6 L54.82,30.6 C55.432,30.6 55.84,30.192 55.84,29.58 Z" id="Shape"></path>
                </g>
            </g>
        </g>
    </g>
</svg>