<?xml version="1.0" encoding="UTF-8"?>
<svg width="65px" height="64px" viewBox="0 0 65 64" version="1.1" xmlns="http://www.w3.org/2000/svg" xmlns:xlink="http://www.w3.org/1999/xlink">
    <!-- Generator: Sketch 50.2 (55047) - http://www.bohemiancoding.com/sketch -->
    <title>Shape</title>
    <desc>Created with Sketch.</desc>
    <defs></defs>
    <g id="Page-1" stroke="none" stroke-width="1" fill="none" fill-rule="evenodd">
        <g id="0-Desktop_Teleconsultation-Popup-1" transform="translate(-749.000000, -329.000000)" fill="#01BBAE" fill-rule="nonzero">
            <g id="form" transform="translate(353.000000, 203.000000)">
                <g id="PhoneCall" transform="translate(335.000000, 126.000000)">
                    <path d="M121.370411,49.7810581 C122.974096,51.3847432 122.974096,54.0575517 121.370411,55.393956 L116.826637,59.9377304 C112.282862,64.4815048 105.066279,65.2833474 99.4533816,61.5414155 C92.7713604,56.9976411 83.9510923,50.5829007 79.140037,45.7718454 C74.3289818,40.9607901 67.9142414,32.1405221 63.370467,25.4585009 C59.6285351,20.1128839 60.4303776,12.896301 64.974152,8.08524568 L69.5179265,3.54147125 C71.1216116,1.93778616 73.7944201,1.93778616 75.1308243,3.54147125 L82.8819689,11.2926159 C84.485654,12.896301 84.485654,15.5691095 82.8819689,16.9055137 L79.6745987,20.1128839 C78.8727562,20.9147264 78.6054754,22.2511307 79.4073179,23.3202541 C81.2782838,26.2603434 84.7529349,31.8732413 88.7621476,35.882454 C92.7713604,39.8916667 98.3842582,43.6335986 101.324348,45.2372837 C102.393471,45.7718454 103.729875,45.7718454 104.531718,44.9700029 L107.739088,41.7626327 C109.342773,40.1589476 112.015581,40.1589476 113.351986,41.7626327 L121.370411,49.7810581 Z M111.213739,30.8041179 C111.48102,31.0713987 111.748301,31.0713987 112.282862,31.0713987 C112.817424,31.0713987 113.084705,31.0713987 113.351986,30.8041179 C115.757513,28.3985902 117.361198,24.9239392 117.361198,21.4492881 C117.361198,17.9746371 116.024794,14.4999861 113.351986,12.0944584 C110.679177,9.68893078 107.471807,8.08524568 103.997156,8.08524568 C100.522505,8.08524568 97.0478539,9.42164993 94.6423263,12.0944584 C94.1077646,12.6290201 94.1077646,13.4308627 94.6423263,13.9654244 C95.176888,14.4999861 95.9787305,14.4999861 96.5132922,13.9654244 C98.651539,11.8271776 101.324348,10.7580542 103.997156,10.7580542 C106.669965,10.7580542 109.610054,11.8271776 111.48102,13.9654244 C113.619267,16.1036712 114.68839,18.7764796 114.68839,21.4492881 C114.68839,24.1220966 113.619267,27.062186 111.48102,28.9331519 C110.679177,29.4677136 110.679177,30.2695562 111.213739,30.8041179 Z M90.3658327,8.08524568 C97.5824156,0.86866276 109.610054,0.86866276 116.826637,8.08524568 C124.04322,15.3018286 124.04322,27.3294668 116.826637,34.5460497 C116.292075,35.0806114 116.292075,35.882454 116.826637,36.4170157 C117.093918,36.6842965 117.361198,36.6842965 117.89576,36.6842965 C118.430322,36.6842965 118.697603,36.6842965 118.964884,36.4170157 C127.25059,28.1313094 127.25059,14.4999861 118.964884,6.21427974 C110.679177,-2.07142658 97.0478539,-2.07142658 88.7621476,6.21427974 C88.2275859,6.74884144 88.2275859,7.55068399 88.7621476,8.08524568 C89.2967093,8.61980738 90.0985519,8.61980738 90.3658327,8.08524568 Z" id="Shape"></path>
                </g>
            </g>
        </g>
    </g>
</svg>