<?xml version="1.0" encoding="UTF-8"?>
<svg width="17px" height="16px" viewBox="0 0 17 16" version="1.1" xmlns="http://www.w3.org/2000/svg" xmlns:xlink="http://www.w3.org/1999/xlink">
    <!-- Generator: Sketch 50.2 (55047) - http://www.bohemiancoding.com/sketch -->
    <title>mic</title>
    <desc>Created with Sketch.</desc>
    <defs></defs>
    <g id="Page-1" stroke="none" stroke-width="1" fill="none" fill-rule="evenodd">
        <g id="00_Desktop_1_Homepage-hover-menu-1" transform="translate(-161.000000, -327.000000)" fill="#023532" fill-rule="nonzero">
            <g id="Profile" transform="translate(125.000000, 94.000000)">
                <g id="birthday" transform="translate(36.000000, 233.000000)">
                    <g id="mic">
                        <path d="M16.6666667,2 L16.6666667,4.66666667 L0,4.66666667 L0,2 C0,1.6 0.266666667,1.33333333 0.666666667,1.33333333 L4,1.33333333 L4,0.333333333 C4,0.133333333 4.13333333,0 4.33333333,0 C4.53333333,0 4.66666667,0.133333333 4.66666667,0.333333333 L4.66666667,1.33333333 L12,1.33333333 L12,0.333333333 C12,0.133333333 12.1333333,0 12.3333333,0 C12.5333333,0 12.6666667,0.133333333 12.6666667,0.333333333 L12.6666667,1.33333333 L16,1.33333333 C16.4,1.33333333 16.6666667,1.6 16.6666667,2 Z M0,5.33333333 L16.6666667,5.33333333 L16.6666667,15.3333333 C16.6666667,15.7333333 16.4,16 16,16 L0.666666667,16 C0.266666667,16 0,15.7333333 0,15.3333333 L0,5.33333333 Z M5.33333333,9.66666667 C5.33333333,10.8666667 8,13.3333333 8.33333333,13.3333333 L8.33333333,13.3333333 L8.33333333,13.3333333 C8.66666667,13.3333333 11.3333333,10.8666667 11.3333333,9.66666667 C11.3333333,8.73333333 10.6,8 9.66666667,8 C9.13333333,8 8.66666667,8.26666667 8.33333333,8.66666667 C8,8.26666667 7.53333333,8 7,8 C6.06666667,8 5.33333333,8.73333333 5.33333333,9.66666667 Z" id="Shape"></path>
                    </g>
                </g>
            </g>
        </g>
    </g>
</svg>