<?xml version="1.0" encoding="UTF-8"?>
<svg width="21px" height="25px" viewBox="0 0 21 25" version="1.1" xmlns="http://www.w3.org/2000/svg" xmlns:xlink="http://www.w3.org/1999/xlink">
    <!-- Generator: Sketch 50.2 (55047) - http://www.bohemiancoding.com/sketch -->
    <title>Shape</title>
    <desc>Created with Sketch.</desc>
    <defs></defs>
    <g id="Symbols" stroke="none" stroke-width="1" fill="none" fill-rule="evenodd">
        <g id="icons/billing" transform="translate(-7.000000, -5.000000)" fill="#FFFFFF" fill-rule="nonzero">
            <g id="icons/homepage">
                <path d="M28,25.975 L28,27.975 C28,29.075 27.1,29.975 26,29.975 L9.5,29.975 C10.9,29.975 12,28.875 12,27.475 L12,25.975 L28,25.975 Z M9,28.975 C7.9,28.975 7,28.075 7,26.975 L7,5.475 C7,5.275 7.1,5.075 7.3,5.075 C7.5,4.975 7.7,4.975 7.8,5.075 L10.5,6.875 L13.2,5.075 C13.4,4.975 13.6,4.975 13.8,5.075 L16.5,6.875 L19.2,5.075 C19.4,4.975 19.6,4.975 19.8,5.075 L22.5,6.875 L25.2,5.075 C25.4,4.975 25.6,4.975 25.7,5.075 C25.8,5.175 26,5.375 26,5.475 L26,24.975 L11,24.975 L11,26.975 C11,28.075 10.1,28.975 9,28.975 Z M19,17.475 L19,18.475 C19,18.775 18.8,18.975 18.5,18.975 L13.5,18.975 C13.2,18.975 13,19.175 13,19.475 C13,19.775 13.2,19.975 13.5,19.975 L16,19.975 L16,20.475 C16,20.775 16.2,20.975 16.5,20.975 C16.8,20.975 17,20.775 17,20.475 L17,19.975 L18.5,19.975 C19.3,19.975 20,19.275 20,18.475 L20,17.475 C20,16.675 19.3,15.975 18.5,15.975 L14.5,15.975 C14.2,15.975 14,15.775 14,15.475 L14,14.475 C14,14.175 14.2,13.975 14.5,13.975 L19.5,13.975 C19.8,13.975 20,13.775 20,13.475 C20,13.175 19.8,12.975 19.5,12.975 L17,12.975 L17,12.475 C17,12.175 16.8,11.975 16.5,11.975 C16.2,11.975 16,12.175 16,12.475 L16,12.975 L14.5,12.975 C13.7,12.975 13,13.675 13,14.475 L13,15.475 C13,16.275 13.7,16.975 14.5,16.975 L18.5,16.975 C18.8,16.975 19,17.175 19,17.475 Z" id="Shape"></path>
            </g>
        </g>
    </g>
</svg>