<?xml version="1.0" encoding="UTF-8"?>
<svg width="19px" height="17px" viewBox="0 0 19 17" version="1.1" xmlns="http://www.w3.org/2000/svg" xmlns:xlink="http://www.w3.org/1999/xlink">
    <!-- Generator: Sketch 50.2 (55047) - http://www.bohemiancoding.com/sketch -->
    <title>Shape</title>
    <desc>Created with Sketch.</desc>
    <defs></defs>
    <g id="Page-1" stroke="none" stroke-width="1" fill="none" fill-rule="evenodd">
        <g id="0-Desktop_Hospital-Appointment-1" transform="translate(-527.000000, -246.000000)" fill="#01BBAE" fill-rule="nonzero">
            <g id="List-1" transform="translate(503.000000, 157.000000)">
                <g id="praticing" transform="translate(24.000000, 89.000000)">
                    <path d="M17.3695652,2.95652174 L13.3043478,2.95652174 L13.3043478,1.84782609 C13.3043478,0.813043478 12.4913043,0 11.4565217,0 L7.02173913,0 C5.98695652,0 5.17391304,0.813043478 5.17391304,1.84782609 L5.17391304,2.95652174 L1.10869565,2.95652174 C0.517391304,2.95652174 0,3.47391304 0,4.06521739 L0,15.8913043 C0,16.4826087 0.517391304,17 1.10869565,17 L17.3695652,17 C17.9608696,17 18.4782609,16.4826087 18.4782609,15.8913043 L18.4782609,4.06521739 C18.4782609,3.47391304 17.9608696,2.95652174 17.3695652,2.95652174 Z M5.91304348,1.84782609 C5.91304348,1.25652174 6.43043478,0.739130435 7.02173913,0.739130435 L11.4565217,0.739130435 C12.0478261,0.739130435 12.5652174,1.25652174 12.5652174,1.84782609 L12.5652174,2.95652174 L5.91304348,2.95652174 L5.91304348,1.84782609 Z M11.826087,10.7173913 C11.826087,10.9391304 11.6782609,11.0869565 11.4565217,11.0869565 L10.3478261,11.0869565 L10.3478261,12.1956522 C10.3478261,12.4173913 10.2,12.5652174 9.97826087,12.5652174 L8.5,12.5652174 C8.27826087,12.5652174 8.13043478,12.4173913 8.13043478,12.1956522 L8.13043478,11.0869565 L7.02173913,11.0869565 C6.8,11.0869565 6.65217391,10.9391304 6.65217391,10.7173913 L6.65217391,9.23913043 C6.65217391,9.0173913 6.8,8.86956522 7.02173913,8.86956522 L8.13043478,8.86956522 L8.13043478,7.76086957 C8.13043478,7.53913043 8.27826087,7.39130435 8.5,7.39130435 L9.97826087,7.39130435 C10.2,7.39130435 10.3478261,7.53913043 10.3478261,7.76086957 L10.3478261,8.86956522 L11.4565217,8.86956522 C11.6782609,8.86956522 11.826087,9.0173913 11.826087,9.23913043 L11.826087,10.7173913 Z" id="Shape"></path>
                </g>
            </g>
        </g>
    </g>
</svg>