<?xml version="1.0" encoding="UTF-8"?>
<svg width="18px" height="17px" viewBox="0 0 18 17" version="1.1" xmlns="http://www.w3.org/2000/svg" xmlns:xlink="http://www.w3.org/1999/xlink">
    <!-- Generator: Sketch 50.2 (55047) - http://www.bohemiancoding.com/sketch -->
    <title>Shape</title>
    <desc>Created with Sketch.</desc>
    <defs></defs>
    <g id="Page-1" stroke="none" stroke-width="1" fill="none" fill-rule="evenodd">
        <g id="Doctor---Search-Patient---3-Medical-Record" transform="translate(-68.000000, -547.000000)" fill="#49AEF4" fill-rule="nonzero">
            <g id="Group-11" transform="translate(47.000000, 536.000000)">
                <path d="M34.3399209,14.7055336 L24.7055336,14.7055336 L24.7055336,12.1116601 C24.7055336,11.5187747 25.2243083,11 25.8171937,11 L33.2282609,11 C33.8211462,11 34.3399209,11.5187747 34.3399209,12.1116601 L34.3399209,14.7055336 Z M38.0454545,17.6699605 L38.0454545,24.7104743 C38.0454545,25.3033597 37.5266798,25.8221344 36.9337945,25.8221344 L35.8221344,25.8221344 L35.8221344,22.8577075 L36.1926877,22.8577075 C36.4150198,22.8577075 36.5632411,22.7094862 36.5632411,22.4871542 C36.5632411,22.2648221 36.4150198,22.1166008 36.1926877,22.1166008 L22.8527668,22.1166008 C22.6304348,22.1166008 22.4822134,22.2648221 22.4822134,22.4871542 C22.4822134,22.7094862 22.6304348,22.8577075 22.8527668,22.8577075 L23.2233202,22.8577075 L23.2233202,25.8221344 L22.1116601,25.8221344 C21.5187747,25.8221344 21,25.3033597 21,24.7104743 L21,17.6699605 C21,16.4100791 21.9634387,15.4466403 23.2233202,15.4466403 L35.8221344,15.4466403 C37.0820158,15.4466403 38.0454545,16.4100791 38.0454545,17.6699605 Z M25.4466403,19.5227273 C25.4466403,19.3003953 25.298419,19.1521739 25.076087,19.1521739 L23.5938735,19.1521739 C23.3715415,19.1521739 23.2233202,19.3003953 23.2233202,19.5227273 C23.2233202,19.7450593 23.3715415,19.8932806 23.5938735,19.8932806 L25.076087,19.8932806 C25.298419,19.8932806 25.4466403,19.7450593 25.4466403,19.5227273 Z M23.9644269,26.9337945 C23.9644269,27.1561265 24.1126482,27.3043478 24.3349802,27.3043478 L34.7104743,27.3043478 C34.9328063,27.3043478 35.0810277,27.1561265 35.0810277,26.9337945 L35.0810277,22.8577075 L23.9644269,22.8577075 L23.9644269,26.9337945 Z" id="Shape"></path>
            </g>
        </g>
    </g>
</svg>