<?xml version="1.0" encoding="UTF-8"?>
<svg width="25px" height="24px" viewBox="0 0 25 24" version="1.1" xmlns="http://www.w3.org/2000/svg" xmlns:xlink="http://www.w3.org/1999/xlink">
    <!-- Generator: Sketch 50.2 (55047) - http://www.bohemiancoding.com/sketch -->
    <title>Shape</title>
    <desc>Created with Sketch.</desc>
    <defs></defs>
    <g id="Page-1" stroke="none" stroke-width="1" fill="none" fill-rule="evenodd">
        <g id="Login-Doctor" transform="translate(-69.000000, -734.000000)" fill="#353638" fill-rule="nonzero">
            <g id="Group-5" transform="translate(69.000000, 727.000000)">
                <path d="M22.6938438,25.6880812 C23.2966851,26.2909226 23.2966851,27.2956581 22.6938438,27.7980259 L20.9857933,29.5060763 C19.2777429,31.2141268 16.5649569,31.5155474 14.4550123,30.1089177 C11.9431734,28.4008672 8.62754607,25.9895019 6.81902208,24.1809779 C5.01049809,22.3724539 2.59913277,19.0568266 0.891082331,16.5449877 C-0.51554744,14.5355166 -0.214126775,11.8227306 1.49392366,10.0142067 L3.2019741,8.30615622 C3.80481543,7.70331489 4.80955098,7.70331489 5.31191875,8.30615622 L8.22565185,11.2198893 C8.82849318,11.8227306 8.82849318,12.8274662 8.22565185,13.329834 L7.01996919,14.5355166 C6.71854853,14.8369373 6.61807497,15.3393051 6.91949564,15.7411993 C7.62281052,16.8464084 8.92896674,18.9563531 10.4360701,20.4634564 C11.9431734,21.9705597 14.053118,23.3771895 15.1583272,23.9800308 C15.5602214,24.1809779 16.0625891,24.1809779 16.3640098,23.8795573 L17.5696925,22.6738746 C18.1725338,22.0710333 19.1772694,22.0710333 19.6796371,22.6738746 L22.6938438,25.6880812 Z M24.1004736,7.40189422 L24.1004736,7.30142067 C24.1004736,7.30142067 24.1004736,7.20094711 24,7.20094711 C24,7.20094711 24,7.20094711 24,7.10047356 L24,7.10047356 C24,7.10047356 23.8995264,7.10047356 23.8995264,7 C23.8995264,7 23.8995264,7 23.7990529,7 C23.7990529,7 23.7990529,7 23.6985793,7 L23.5981058,7 L23.5981058,7 L17.5696925,7 C17.2682718,7 17.0673247,7.20094711 17.0673247,7.50236778 C17.0673247,7.80378844 17.2682718,8.00473555 17.5696925,8.00473555 L22.2919496,8.00473555 L12.2445941,17.1478291 C12.0436469,17.3487762 12.0436469,17.6501968 12.2445941,17.8511439 C12.3450676,17.9516175 12.4455412,18.0520911 12.6464883,18.0520911 C12.7469618,18.0520911 12.8474354,18.0520911 12.9479089,17.9516175 L23.1962116,8.70805044 L23.1962116,13.6312546 C23.1962116,13.9326753 23.3971587,14.1336224 23.6985793,14.1336224 C24,14.1336224 24.2009471,13.9326753 24.2009471,13.6312546 L24.1004736,7.40189422 C24.1004736,7.50236778 24.1004736,7.50236778 24.1004736,7.40189422 Z" id="Shape"></path>
            </g>
        </g>
    </g>
</svg>