<?xml version="1.0" encoding="UTF-8"?>
<svg width="21px" height="21px" viewBox="0 0 21 21" version="1.1" xmlns="http://www.w3.org/2000/svg" xmlns:xlink="http://www.w3.org/1999/xlink">
    <!-- Generator: Sketch 50.2 (55047) - http://www.bohemiancoding.com/sketch -->
    <title>Shape</title>
    <desc>Created with Sketch.</desc>
    <defs></defs>
    <g id="Page-1" stroke="none" stroke-width="1" fill="none" fill-rule="evenodd">
        <g id="0-Desktop_Hospital-Appointment-1" transform="translate(-1169.000000, -369.000000)" fill="#FF8686">
            <g id="List" transform="translate(502.000000, 356.000000)">
                <g id="bg">
                    <path d="M677.5,13 C671.704,13 667,17.704 667,23.5 C667,29.296 671.704,34 677.5,34 C683.296,34 688,29.296 688,23.5 C688,17.704 683.296,13 677.5,13 Z M681.196,26.524 C681.364,26.692 681.364,26.944 681.196,27.112 C681.028,27.28 680.776,27.28 680.608,27.112 L677.584,24.088 L674.56,27.112 C674.476,27.196 674.392,27.196 674.224,27.196 C674.056,27.196 673.972,27.196 673.888,27.112 C673.72,26.944 673.72,26.692 673.888,26.524 L676.912,23.5 L673.888,20.476 C673.72,20.308 673.72,20.056 673.888,19.888 C673.972,19.804 674.056,19.804 674.224,19.804 C674.392,19.804 674.476,19.804 674.56,19.888 L677.584,22.912 L680.608,19.888 C680.776,19.72 681.028,19.72 681.196,19.888 C681.364,20.056 681.364,20.308 681.196,20.476 L678.172,23.5 L681.196,26.524 Z" id="Shape"></path>
                </g>
            </g>
        </g>
    </g>
</svg>