<?xml version="1.0" encoding="UTF-8"?>
<svg width="47px" height="51px" viewBox="0 0 47 51" version="1.1" xmlns="http://www.w3.org/2000/svg" xmlns:xlink="http://www.w3.org/1999/xlink">
    <!-- Generator: Sketch 50.2 (55047) - http://www.bohemiancoding.com/sketch -->
    <title>Shape</title>
    <desc>Created with Sketch.</desc>
    <defs></defs>
    <g id="Page-1" stroke="none" stroke-width="1" fill="none" fill-rule="evenodd">
        <g id="00_Desktop_8_Profile" transform="translate(-1000.000000, -228.000000)" fill="#353638" fill-rule="nonzero">
            <g id="content" transform="translate(216.000000, 154.000000)">
                <g id="Medical-History" transform="translate(762.000000, 74.000000)">
                    <path d="M65.7478261,4.06956522 L38.2782609,4.06956522 L38.2782609,25.4347826 C38.2782609,27.0626087 36.853913,28.4869565 35.226087,28.4869565 C34.6156522,28.4869565 34.2086957,28.2834783 33.5982609,28.08 L29.1217391,24.8243478 L28.1043478,25.6382609 L28.1043478,47.8173913 C28.1043478,49.4452174 29.5286957,50.8695652 31.1565217,50.8695652 L65.7478261,50.8695652 C67.3756522,50.8695652 68.8,49.4452174 68.8,47.8173913 L68.8,7.12173913 C68.8,5.49391304 67.3756522,4.06956522 65.7478261,4.06956522 Z M43.3652174,14.2434783 L57.6086957,14.2434783 C58.2191304,14.2434783 58.626087,14.6504348 58.626087,15.2608696 C58.626087,15.8713043 58.2191304,16.2782609 57.6086957,16.2782609 L43.3652174,16.2782609 C42.7547826,16.2782609 42.3478261,15.8713043 42.3478261,15.2608696 C42.3478261,14.6504348 42.7547826,14.2434783 43.3652174,14.2434783 Z M43.3652174,22.3826087 L57.6086957,22.3826087 C58.2191304,22.3826087 58.626087,22.7895652 58.626087,23.4 C58.626087,24.0104348 58.2191304,24.4173913 57.6086957,24.4173913 L43.3652174,24.4173913 C42.7547826,24.4173913 42.3478261,24.0104348 42.3478261,23.4 C42.3478261,22.7895652 42.7547826,22.3826087 43.3652174,22.3826087 Z M38.2782609,31.5391304 C38.2782609,30.9286957 38.6852174,30.5217391 39.2956522,30.5217391 L57.6086957,30.5217391 C58.2191304,30.5217391 58.626087,30.9286957 58.626087,31.5391304 C58.626087,32.1495652 58.2191304,32.5565217 57.6086957,32.5565217 L39.2956522,32.5565217 C38.6852174,32.5565217 38.2782609,32.1495652 38.2782609,31.5391304 Z M61.6782609,44.7652174 L55.573913,44.7652174 C54.9634783,44.7652174 54.5565217,44.3582609 54.5565217,43.7478261 C54.5565217,43.1373913 54.9634783,42.7304348 55.573913,42.7304348 L61.6782609,42.7304348 C62.2886957,42.7304348 62.6956522,43.1373913 62.6956522,43.7478261 C62.6956522,44.3582609 62.2886957,44.7652174 61.6782609,44.7652174 Z M29.1217391,22.3826087 L23.6278261,26.2486957 C23.4243478,26.2486957 23.2208696,26.4521739 23.0173913,26.4521739 C22.4069565,26.4521739 22,26.0452174 22,25.4347826 L22,3.05217391 C22,1.42434783 23.4243478,0 25.0521739,0 L33.1913043,0 C34.8191304,0 36.2434783,1.42434783 36.2434783,3.05217391 L36.2434783,25.4347826 C36.2434783,26.0452174 35.8365217,26.4521739 35.226087,26.4521739 C35.0226087,26.4521739 34.8191304,26.4521739 34.6156522,26.2486957 L29.1217391,22.3826087 Z" id="Shape"></path>
                </g>
            </g>
        </g>
    </g>
</svg>