<?xml version="1.0" encoding="UTF-8"?>
<svg width="16px" height="15px" viewBox="0 0 16 15" version="1.1" xmlns="http://www.w3.org/2000/svg" xmlns:xlink="http://www.w3.org/1999/xlink">
    <!-- Generator: Sketch 52.1 (67048) - http://www.bohemiancoding.com/sketch -->
    <title>Shape</title>
    <desc>Created with Sketch.</desc>
    <g id="Page-1" stroke="none" stroke-width="1" fill="none" fill-rule="evenodd">
        <g id="Doctor---Search-Patient---8-Add-Billing" transform="translate(-1079.000000, -123.000000)" fill="#F44949" fill-rule="nonzero">
            <g id="Group-11" transform="translate(162.000000, 95.000000)">
                <g id="illustration__2x">
                    <path d="M931.888223,41.9182171 C932.119946,42.1492248 932.119946,42.4957364 931.888223,42.7267442 C931.6565,42.9577519 931.308915,42.9577519 931.077191,42.7267442 L924.588939,36.2585271 L918.100686,42.7267442 C917.984824,42.8422481 917.868962,42.8422481 917.637239,42.8422481 C917.405516,42.8422481 917.289654,42.8422481 917.173792,42.7267442 C916.942069,42.4957364 916.942069,42.1492248 917.173792,41.9182171 L923.662045,35.45 L917.173792,28.9817829 C916.942069,28.7507752 916.942069,28.4042636 917.173792,28.1732558 C917.289654,28.0577519 917.405516,28.0577519 917.637239,28.0577519 C917.868962,28.0577519 917.984824,28.0577519 918.100686,28.1732558 L924.588939,34.6414729 L931.077191,28.1732558 C931.308915,27.9422481 931.6565,27.9422481 931.888223,28.1732558 C932.119946,28.4042636 932.119946,28.7507752 931.888223,28.9817829 L925.39997,35.45 L931.888223,41.9182171 Z" id="Shape"></path>
                </g>
            </g>
        </g>
    </g>
</svg>