<?xml version="1.0" encoding="UTF-8"?>
<svg width="25px" height="24px" viewBox="0 0 25 24" version="1.1" xmlns="http://www.w3.org/2000/svg" xmlns:xlink="http://www.w3.org/1999/xlink">
    <!-- Generator: Sketch 50.2 (55047) - http://www.bohemiancoding.com/sketch -->
    <title>Shape</title>
    <desc>Created with Sketch.</desc>
    <defs></defs>
    <g id="Page-1" stroke="none" stroke-width="1" fill="none" fill-rule="evenodd">
        <g id="00_Desktop_6.2_Reset-Password" transform="translate(-870.000000, -216.000000)" fill="#FFFFFF" fill-rule="nonzero">
            <path d="M893.807364,238.325194 C894.177907,238.695736 894.177907,239.25155 893.807364,239.622093 C893.436822,239.992636 892.881008,239.992636 892.510465,239.622093 L882.135271,229.246899 L871.760078,239.622093 C871.574806,239.807364 871.389535,239.807364 871.018992,239.807364 C870.64845,239.807364 870.463178,239.807364 870.277907,239.622093 C869.907364,239.25155 869.907364,238.695736 870.277907,238.325194 L880.653101,227.95 L870.277907,217.574806 C869.907364,217.204264 869.907364,216.64845 870.277907,216.277907 C870.463178,216.092636 870.64845,216.092636 871.018992,216.092636 C871.389535,216.092636 871.574806,216.092636 871.760078,216.277907 L882.135271,226.653101 L892.510465,216.277907 C892.881008,215.907364 893.436822,215.907364 893.807364,216.277907 C894.177907,216.64845 894.177907,217.204264 893.807364,217.574806 L883.432171,227.95 L893.807364,238.325194 Z" id="Shape"></path>
        </g>
    </g>
</svg>