<?xml version="1.0" encoding="UTF-8"?>
<svg width="18px" height="22px" viewBox="0 0 18 22" version="1.1" xmlns="http://www.w3.org/2000/svg" xmlns:xlink="http://www.w3.org/1999/xlink">
    <!-- Generator: Sketch 52.1 (67048) - http://www.bohemiancoding.com/sketch -->
    <title>Shape</title>
    <desc>Created with Sketch.</desc>
    <g id="Page-1" stroke="none" stroke-width="1" fill="none" fill-rule="evenodd">
        <g id="00_Desktop_3.1.1_Health-History-Detail-Lab-0" transform="translate(-963.000000, -571.000000)" fill="#737373" fill-rule="nonzero">
            <g id="btn-Follow-up-Copy-2" transform="translate(940.000000, 560.000000)">
                <path d="M26.4285714,30.7142857 L38.4285714,30.7142857 L38.4285714,31.1428571 C38.4285714,31.8285714 37.8285714,32.4285714 37.1428571,32.4285714 L24.2857143,32.4285714 C23.6,32.4285714 23,31.8285714 23,31.1428571 L23,14.8571429 C23,14.1714286 23.6,13.5714286 24.2857143,13.5714286 L24.7142857,13.5714286 L24.7142857,29 C24.7142857,29.9428571 25.4857143,30.7142857 26.4285714,30.7142857 Z M36.2857143,16.1428571 L40.7428571,16.1428571 L35.8571429,11.2571429 L35.8571429,15.7142857 C35.8571429,15.9714286 36.0285714,16.1428571 36.2857143,16.1428571 Z M41,17 L41,28.5714286 C41,29.2571429 40.4,29.8571429 39.7142857,29.8571429 L26.8571429,29.8571429 C26.1714286,29.8571429 25.5714286,29.2571429 25.5714286,28.5714286 L25.5714286,12.2857143 C25.5714286,11.6 26.1714286,11 26.8571429,11 L35,11 L35,15.7142857 C35,16.4 35.6,17 36.2857143,17 L41,17 Z M35.7714286,23.0857143 C35.6,22.9142857 35.3428571,22.9142857 35.1714286,23.0857143 L33.3714286,24.8857143 L33.3714286,19.0571429 C33.3714286,18.8 33.2,18.6285714 32.9428571,18.6285714 C32.6857143,18.6285714 32.5142857,18.8 32.5142857,19.0571429 L32.5142857,24.8857143 L30.7142857,23.0857143 C30.5428571,22.9142857 30.2857143,22.9142857 30.1142857,23.0857143 C29.9428571,23.2571429 29.9428571,23.5142857 30.1142857,23.6857143 L32.6857143,26.2571429 C32.7714286,26.3428571 32.8571429,26.3428571 33.0285714,26.3428571 C33.2,26.3428571 33.2857143,26.3428571 33.3714286,26.2571429 L35.9428571,23.6857143 C35.8571429,23.6 35.8571429,23.2571429 35.7714286,23.0857143 Z" id="Shape"></path>
            </g>
        </g>
    </g>
</svg>