<?xml version="1.0" encoding="UTF-8"?>
<svg width="24px" height="24px" viewBox="0 0 24 24" version="1.1" xmlns="http://www.w3.org/2000/svg" xmlns:xlink="http://www.w3.org/1999/xlink">
    <!-- Generator: Sketch 50.2 (55047) - http://www.bohemiancoding.com/sketch -->
    <title>Shape</title>
    <desc>Created with Sketch.</desc>
    <defs></defs>
    <g id="Page-1" stroke="none" stroke-width="1" fill="none" fill-rule="evenodd">
        <g id="00_Desktop_2.2_MyAppointment-Detail" transform="translate(-673.000000, -220.000000)" fill="#01BBAE" fill-rule="nonzero">
            <g id="content" transform="translate(242.000000, 157.000000)">
                <g id="hospital" transform="translate(431.000000, 59.000000)">
                    <path d="M22.56,27.04 L21.12,27.04 L21.12,15.04 C21.12,14.272 20.448,13.6 19.68,13.6 L17.28,13.6 L17.28,27.04 L16.32,27.04 L16.32,8.32 C16.32,7.552 15.648,6.88 14.88,6.88 L13.152,6.88 C12.576,5.248 10.944,4 9.12,4 C7.296,4 5.664,5.248 5.088,6.88 L3.36,6.88 C2.592,6.88 1.92,7.552 1.92,8.32 L1.92,27.04 L0.48,27.04 C0.192,27.04 0,27.232 0,27.52 C0,27.808 0.192,28 0.48,28 L22.56,28 C22.848,28 23.04,27.808 23.04,27.52 C23.04,27.232 22.848,27.04 22.56,27.04 Z M12.48,27.04 L5.76,27.04 L5.76,21.28 C5.76,20.704 6.144,20.32 6.72,20.32 L11.52,20.32 C12.096,20.32 12.48,20.704 12.48,21.28 L12.48,27.04 Z M12,18.4 L6.24,18.4 C5.952,18.4 5.76,18.208 5.76,17.92 C5.76,17.632 5.952,17.44 6.24,17.44 L12,17.44 C12.288,17.44 12.48,17.632 12.48,17.92 C12.48,18.208 12.288,18.4 12,18.4 Z M12,15.52 L6.24,15.52 C5.952,15.52 5.76,15.328 5.76,15.04 C5.76,14.752 5.952,14.56 6.24,14.56 L12,14.56 C12.288,14.56 12.48,14.752 12.48,15.04 C12.48,15.328 12.288,15.52 12,15.52 Z M9.12,11.68 C7.296,11.68 5.76,10.144 5.76,8.32 C5.76,6.496 7.296,4.96 9.12,4.96 C10.944,4.96 12.48,6.496 12.48,8.32 C12.48,10.144 10.944,11.68 9.12,11.68 Z M10.56,8.32 C10.56,8.608 10.368,8.8 10.08,8.8 L9.6,8.8 L9.6,9.28 C9.6,9.568 9.408,9.76 9.12,9.76 C8.832,9.76 8.64,9.568 8.64,9.28 L8.64,8.8 L8.16,8.8 C7.872,8.8 7.68,8.608 7.68,8.32 C7.68,8.032 7.872,7.84 8.16,7.84 L8.64,7.84 L8.64,7.36 C8.64,7.072 8.832,6.88 9.12,6.88 C9.408,6.88 9.6,7.072 9.6,7.36 L9.6,7.84 L10.08,7.84 C10.368,7.84 10.56,8.032 10.56,8.32 Z" id="Shape"></path>
                </g>
            </g>
        </g>
    </g>
</svg>