<?xml version="1.0" encoding="UTF-8"?>
<svg width="19px" height="19px" viewBox="0 0 19 19" version="1.1" xmlns="http://www.w3.org/2000/svg" xmlns:xlink="http://www.w3.org/1999/xlink">
    <!-- Generator: Sketch 50.2 (55047) - http://www.bohemiancoding.com/sketch -->
    <title>mic</title>
    <desc>Created with Sketch.</desc>
    <defs></defs>
    <g id="Page-1" stroke="none" stroke-width="1" fill="none" fill-rule="evenodd">
        <g id="00_Desktop_8_Profile" transform="translate(-489.000000, -380.000000)" fill="#023532" fill-rule="nonzero">
            <g id="content" transform="translate(216.000000, 154.000000)">
                <g id="Etnicity" transform="translate(273.000000, 226.000000)">
                    <g id="mic">
                        <path d="M6.84,3.04 C6.84,1.748 7.828,0.76 9.12,0.76 C10.412,0.76 11.4,1.748 11.4,3.04 C11.4,4.332 10.412,5.32 9.12,5.32 C7.828,5.32 6.84,4.332 6.84,3.04 Z M14.44,4.56 C15.732,4.56 16.72,3.572 16.72,2.28 C16.72,0.988 15.732,0 14.44,0 C13.148,0 12.16,0.988 12.16,2.28 C12.16,3.572 13.148,4.56 14.44,4.56 Z M3.8,4.56 C5.092,4.56 6.08,3.572 6.08,2.28 C6.08,0.988 5.092,0 3.8,0 C2.508,0 1.52,0.988 1.52,2.28 C1.52,3.572 2.508,4.56 3.8,4.56 Z M4.56,12.54 L4.56,9.88 C4.56,8.436 5.244,7.144 6.308,6.308 C5.624,5.7 4.788,5.32 3.8,5.32 C1.672,5.32 0,6.992 0,9.12 L0,11.02 C0,11.628 0.532,12.16 1.14,12.16 L1.52,12.16 L1.52,15.58 C1.52,16.188 2.052,16.72 2.66,16.72 L4.94,16.72 C5.548,16.72 6.08,16.188 6.08,15.58 L6.08,14.44 C5.244,14.212 4.56,13.452 4.56,12.54 Z M14.44,5.32 C13.452,5.32 12.616,5.7 11.932,6.308 C12.996,7.144 13.68,8.436 13.68,9.88 L13.68,12.54 C13.68,13.452 12.996,14.212 12.16,14.44 L12.16,15.58 C12.16,16.188 12.692,16.72 13.3,16.72 L15.58,16.72 C16.188,16.72 16.72,16.188 16.72,15.58 L16.72,12.16 L17.1,12.16 C17.708,12.16 18.24,11.628 18.24,11.02 L18.24,9.12 C18.24,6.992 16.568,5.32 14.44,5.32 Z M12.92,12.54 L12.92,9.88 C12.92,7.752 11.248,6.08 9.12,6.08 C6.992,6.08 5.32,7.752 5.32,9.88 L5.32,12.54 C5.32,13.148 5.852,13.68 6.46,13.68 L6.84,13.68 L6.84,17.86 C6.84,18.468 7.372,19 7.98,19 L10.26,19 C10.868,19 11.4,18.468 11.4,17.86 L11.4,13.68 L11.78,13.68 C12.388,13.68 12.92,13.148 12.92,12.54 Z" id="Shape"></path>
                    </g>
                </g>
            </g>
        </g>
    </g>
</svg>