<?xml version="1.0" encoding="UTF-8"?>
<svg width="16px" height="19px" viewBox="0 0 16 19" version="1.1" xmlns="http://www.w3.org/2000/svg" xmlns:xlink="http://www.w3.org/1999/xlink">
    <!-- Generator: Sketch 50.2 (55047) - http://www.bohemiancoding.com/sketch -->
    <title>Group 11</title>
    <desc>Created with Sketch.</desc>
    <defs></defs>
    <g id="Page-1" stroke="none" stroke-width="1" fill="none" fill-rule="evenodd">
        <g id="00-Desktop_Notification_hover_not-Yet-Opened" transform="translate(-334.000000, -307.000000)" fill="#01BBAE" fill-rule="nonzero">
            <g id="Notif" transform="translate(297.000000, 141.000000)">
                <g id="3" transform="translate(1.000000, 163.000000)">
                    <g id="Group-11" transform="translate(36.000000, 3.000000)">
                        <path d="M3.11111111,17.4545455 L14,17.4545455 L14,17.8409091 C14,18.4590909 13.4555556,19 12.8333333,19 L1.16666667,19 C0.544444444,19 0,18.4590909 0,17.8409091 L0,3.15909091 C0,2.54090909 0.544444444,2 1.16666667,2 L1.55555556,2 L1.55555556,15.9090909 C1.55555556,16.7590909 2.25555556,17.4545455 3.11111111,17.4545455 Z M11.4385965,5 L16,5 L11,0 L11,4.56140351 C11,4.8245614 11.1754386,5 11.4385965,5 Z M16,5.40909091 L16,15.8409091 C16,16.4590909 15.4555556,17 14.8333333,17 L3.16666667,17 C2.54444444,17 2,16.4590909 2,15.8409091 L2,1.15909091 C2,0.540909091 2.54444444,0 3.16666667,0 L10.5555556,0 L10.5555556,4.25 C10.5555556,4.86818182 11.1,5.40909091 11.7222222,5.40909091 L16,5.40909091 Z M13,9.875 C13,8.825 12.1444444,8 11.0555556,8 C10.4333333,8 9.88888889,8.3 9.5,8.75 C9.11111111,8.3 8.56666667,8 7.94444444,8 C6.85555556,8 6,8.825 6,9.875 C6,11.225 9.11111111,14 9.5,14 L9.5,14 L9.5,14 C9.88888889,14 13,11.225 13,9.875 Z" id="Shape"></path>
                    </g>
                </g>
            </g>
        </g>
    </g>
</svg>