<?xml version="1.0" encoding="UTF-8"?>
<svg width="17px" height="24px" viewBox="0 0 17 24" version="1.1" xmlns="http://www.w3.org/2000/svg" xmlns:xlink="http://www.w3.org/1999/xlink">
    <!-- Generator: Sketch 50.2 (55047) - http://www.bohemiancoding.com/sketch -->
    <title>Shape</title>
    <desc>Created with Sketch.</desc>
    <defs></defs>
    <g id="Symbols" stroke="none" stroke-width="1" fill="none" fill-rule="evenodd">
        <g id="icons/history" transform="translate(-9.000000, -5.000000)" fill="#FFFFFF" fill-rule="nonzero">
            <g id="icons/homepage">
                <path d="M14,7.5 L14,5.5 C14,5.2 14.2,5 14.5,5 L20.5,5 C20.8,5 21,5.2 21,5.5 L21,7.5 C21,7.8 20.8,8 20.5,8 L14.5,8 C14.2,8 14,7.8 14,7.5 Z M26,8.5 L26,27.5 C26,28.3 25.3,29 24.5,29 L10.5,29 C9.7,29 9,28.3 9,27.5 L9,8.5 C9,7.7 9.7,7 10.5,7 L13,7 L13,7.5 C13,8.3 13.7,9 14.5,9 L20.5,9 C21.3,9 22,8.3 22,7.5 L22,7 L24.5,7 C25.3,7 26,7.7 26,8.5 Z M21,17.5 C21,17.2 20.8,17 20.5,17 L19,17 L19,15.5 C19,15.2 18.8,15 18.5,15 L16.5,15 C16.2,15 16,15.2 16,15.5 L16,17 L14.5,17 C14.2,17 14,17.2 14,17.5 L14,19.5 C14,19.8 14.2,20 14.5,20 L16,20 L16,21.5 C16,21.8 16.2,22 16.5,22 L18.5,22 C18.8,22 19,21.8 19,21.5 L19,20 L20.5,20 C20.8,20 21,19.8 21,19.5 L21,17.5 Z" id="Shape"></path>
            </g>
        </g>
    </g>
</svg>