<?xml version="1.0" encoding="UTF-8"?>
<svg width="26px" height="23px" viewBox="0 0 26 23" version="1.1" xmlns="http://www.w3.org/2000/svg" xmlns:xlink="http://www.w3.org/1999/xlink">
    <!-- Generator: Sketch 50.2 (55047) - http://www.bohemiancoding.com/sketch -->
    <title>Shape</title>
    <desc>Created with Sketch.</desc>
    <defs></defs>
    <g id="Symbols" stroke="none" stroke-width="1" fill="none" fill-rule="evenodd">
        <g id="icons/homepage" transform="translate(-5.000000, -6.000000)" fill="#FFFFFF" fill-rule="nonzero">
            <g id="Shape">
                <path d="M29.85,17.15 L17.85,6.15 C17.65,5.95 17.35,5.95 17.15,6.15 L5.15,17.15 C4.95,17.35 4.95,17.65 5.15,17.85 C5.35,18.05 5.65,18.05 5.85,17.85 L8.05,15.85 L8.05,27.45 C8.05,28.25 8.75,28.95 9.55,28.95 L18.05,28.95 L18.05,20.95 C18.05,20.35 18.45,19.95 19.05,19.95 L23.05,19.95 C23.65,19.95 24.05,20.35 24.05,20.95 L24.05,28.95 L25.55,28.95 C26.35,28.95 27.05,28.25 27.05,27.45 L27.05,15.85 L29.25,17.85 C29.35,17.95 29.45,17.95 29.55,17.95 C29.65,17.95 29.85,17.85 29.95,17.75 C30.15,17.65 30.05,17.35 29.85,17.15 Z M15.55,24.05 L11.55,24.05 C11.25,24.05 11.05,23.85 11.05,23.55 C11.05,23.25 11.25,23.05 11.55,23.05 L15.55,23.05 C15.85,23.05 16.05,23.25 16.05,23.55 C16.05,23.85 15.85,24.05 15.55,24.05 Z M15.55,21.05 L11.55,21.05 C11.25,21.05 11.05,20.85 11.05,20.55 C11.05,20.25 11.25,20.05 11.55,20.05 L15.55,20.05 C15.85,20.05 16.05,20.25 16.05,20.55 C16.05,20.85 15.85,21.05 15.55,21.05 Z M17.55,15.05 C16.75,15.05 16.05,14.35 16.05,13.55 C16.05,12.75 16.75,12.05 17.55,12.05 C18.35,12.05 19.05,12.75 19.05,13.55 C19.05,14.35 18.35,15.05 17.55,15.05 Z"></path>
            </g>
        </g>
    </g>
</svg>