<?xml version="1.0" encoding="UTF-8"?>
<svg width="24px" height="25px" viewBox="0 0 24 25" version="1.1" xmlns="http://www.w3.org/2000/svg" xmlns:xlink="http://www.w3.org/1999/xlink">
    <!-- Generator: Sketch 50.2 (55047) - http://www.bohemiancoding.com/sketch -->
    <title>Shape</title>
    <desc>Created with Sketch.</desc>
    <defs></defs>
    <g id="Page-1" stroke="none" stroke-width="1" fill="none" fill-rule="evenodd">
        <g id="Set-New-Appointment-Copy" transform="translate(-35.000000, -36.000000)" fill="#01BBAE" fill-rule="nonzero">
            <path d="M58.5,60 L57,60 L57,47.5 C57,46.7 56.3,46 55.5,46 L53,46 L53,60 L52,60 L52,40.5 C52,39.7 51.3,39 50.5,39 L48.7,39 C48.1,37.3 46.4,36 44.5,36 C42.6,36 40.9,37.3 40.3,39 L38.5,39 C37.7,39 37,39.7 37,40.5 L37,60 L35.5,60 C35.2,60 35,60.2 35,60.5 C35,60.8 35.2,61 35.5,61 L58.5,61 C58.8,61 59,60.8 59,60.5 C59,60.2 58.8,60 58.5,60 Z M48,60 L41,60 L41,54 C41,53.4 41.4,53 42,53 L47,53 C47.6,53 48,53.4 48,54 L48,60 Z M47.5,51 L41.5,51 C41.2,51 41,50.8 41,50.5 C41,50.2 41.2,50 41.5,50 L47.5,50 C47.8,50 48,50.2 48,50.5 C48,50.8 47.8,51 47.5,51 Z M47.5,48 L41.5,48 C41.2,48 41,47.8 41,47.5 C41,47.2 41.2,47 41.5,47 L47.5,47 C47.8,47 48,47.2 48,47.5 C48,47.8 47.8,48 47.5,48 Z M44.5,44 C42.6,44 41,42.4 41,40.5 C41,38.6 42.6,37 44.5,37 C46.4,37 48,38.6 48,40.5 C48,42.4 46.4,44 44.5,44 Z M46,40.5 C46,40.8 45.8,41 45.5,41 L45,41 L45,41.5 C45,41.8 44.8,42 44.5,42 C44.2,42 44,41.8 44,41.5 L44,41 L43.5,41 C43.2,41 43,40.8 43,40.5 C43,40.2 43.2,40 43.5,40 L44,40 L44,39.5 C44,39.2 44.2,39 44.5,39 C44.8,39 45,39.2 45,39.5 L45,40 L45.5,40 C45.8,40 46,40.2 46,40.5 Z" id="Shape"></path>
        </g>
    </g>
</svg>