<?xml version="1.0" encoding="UTF-8"?>
<svg width="17px" height="17px" viewBox="0 0 17 17" version="1.1" xmlns="http://www.w3.org/2000/svg" xmlns:xlink="http://www.w3.org/1999/xlink">
    <!-- Generator: Sketch 50.2 (55047) - http://www.bohemiancoding.com/sketch -->
    <title>Shape</title>
    <desc>Created with Sketch.</desc>
    <defs></defs>
    <g id="Page-1" stroke="none" stroke-width="1" fill="none" fill-rule="evenodd">
        <g id="00_Desktop_2_MyAppointment-Hover" transform="translate(-991.000000, -206.000000)" fill="#01BBAE" fill-rule="nonzero">
            <g id="Hover" transform="translate(965.000000, 147.000000)">
                <g id="Hospital-Appointment" transform="translate(26.000000, 59.000000)">
                    <path d="M15.98,16.32 L14.96,16.32 L14.96,7.82 C14.96,7.276 14.484,6.8 13.94,6.8 L12.24,6.8 L12.24,16.32 L11.56,16.32 L11.56,3.06 C11.56,2.516 11.084,2.04 10.54,2.04 L9.316,2.04 C8.908,0.884 7.752,0 6.46,0 C5.168,0 4.012,0.884 3.604,2.04 L2.38,2.04 C1.836,2.04 1.36,2.516 1.36,3.06 L1.36,16.32 L0.34,16.32 C0.136,16.32 0,16.456 0,16.66 C0,16.864 0.136,17 0.34,17 L15.98,17 C16.184,17 16.32,16.864 16.32,16.66 C16.32,16.456 16.184,16.32 15.98,16.32 Z M8.84,16.32 L4.08,16.32 L4.08,12.24 C4.08,11.832 4.352,11.56 4.76,11.56 L8.16,11.56 C8.568,11.56 8.84,11.832 8.84,12.24 L8.84,16.32 Z M8.5,10.2 L4.42,10.2 C4.216,10.2 4.08,10.064 4.08,9.86 C4.08,9.656 4.216,9.52 4.42,9.52 L8.5,9.52 C8.704,9.52 8.84,9.656 8.84,9.86 C8.84,10.064 8.704,10.2 8.5,10.2 Z M8.5,8.16 L4.42,8.16 C4.216,8.16 4.08,8.024 4.08,7.82 C4.08,7.616 4.216,7.48 4.42,7.48 L8.5,7.48 C8.704,7.48 8.84,7.616 8.84,7.82 C8.84,8.024 8.704,8.16 8.5,8.16 Z M6.46,5.44 C5.168,5.44 4.08,4.352 4.08,3.06 C4.08,1.768 5.168,0.68 6.46,0.68 C7.752,0.68 8.84,1.768 8.84,3.06 C8.84,4.352 7.752,5.44 6.46,5.44 Z M7.48,3.06 C7.48,3.264 7.344,3.4 7.14,3.4 L6.8,3.4 L6.8,3.74 C6.8,3.944 6.664,4.08 6.46,4.08 C6.256,4.08 6.12,3.944 6.12,3.74 L6.12,3.4 L5.78,3.4 C5.576,3.4 5.44,3.264 5.44,3.06 C5.44,2.856 5.576,2.72 5.78,2.72 L6.12,2.72 L6.12,2.38 C6.12,2.176 6.256,2.04 6.46,2.04 C6.664,2.04 6.8,2.176 6.8,2.38 L6.8,2.72 L7.14,2.72 C7.344,2.72 7.48,2.856 7.48,3.06 Z" id="Shape"></path>
                </g>
            </g>
        </g>
    </g>
</svg>