<?xml version="1.0" encoding="UTF-8"?>
<svg width="20px" height="21px" viewBox="0 0 20 21" version="1.1" xmlns="http://www.w3.org/2000/svg" xmlns:xlink="http://www.w3.org/1999/xlink">
    <!-- Generator: Sketch 52.1 (67048) - http://www.bohemiancoding.com/sketch -->
    <title>ic_temperature</title>
    <desc>Created with Sketch.</desc>
    <g id="Page-1" stroke="none" stroke-width="1" fill="none" fill-rule="evenodd">
        <g id="00_Desktop_3.1.1_Health-History-Detail-Lab-0" transform="translate(-747.000000, -208.000000)" fill="#01BBAE" fill-rule="nonzero">
            <g id="form-1" transform="translate(132.000000, 152.000000)">
                <g id="temperature" transform="translate(615.000000, 45.000000)">
                    <g id="ic_temperature" transform="translate(0.000000, 11.000000)">
                        <path d="M19,2 C17.6,0.6 15.4,0.6 14.1,2 L10.9,5.2 L12,6.3 C12.2,6.5 12.2,6.8 12,7 C11.8,7.2 11.5,7.2 11.3,7 L10.2,5.9 L8.8,7.3 L9.9,8.4 C10.1,8.6 10.1,8.9 9.9,9.1 C9.7,9.3 9.4,9.3 9.2,9.1 L8.1,8 L6.7,9.4 L7.8,10.5 C8,10.7 8,11 7.8,11.2 C7.6,11.4 7.3,11.4 7.1,11.2 L6,10.1 L3.7,12.4 C3.3,12.8 3.1,13.3 3.1,13.8 L3.1,17.2 L3.1,17.2 L3.1,17.2 L0.3,20 C0.1,20.2 0.1,20.5 0.3,20.7 C0.5,20.9 0.8,20.9 1,20.7 L3.8,17.9 L3.8,17.9 L3.8,17.9 L7.2,17.9 C7.7,17.9 8.2,17.7 8.6,17.3 L19,6.9 C20.3,5.6 20.3,3.4 19,2 Z M16.9,6.3 C16.4,6.8 15.8,6.8 15.2,6.6 L7,14.8 C6.8,15 6.5,15 6.3,14.8 C6.1,14.6 6.1,14.3 6.3,14.1 L14.5,5.9 C14.2,5.3 14.3,4.7 14.8,4.2 C15.4,3.6 16.3,3.6 16.9,4.2 C17.4,4.7 17.4,5.7 16.9,6.3 Z" id="Shape"></path>
                    </g>
                </g>
            </g>
        </g>
    </g>
</svg>