<?xml version="1.0" encoding="UTF-8"?>
<svg width="11px" height="11px" viewBox="0 0 11 11" version="1.1" xmlns="http://www.w3.org/2000/svg" xmlns:xlink="http://www.w3.org/1999/xlink">
    <!-- Generator: Sketch 50.2 (55047) - http://www.bohemiancoding.com/sketch -->
    <title>ic_time_access</title>
    <desc>Created with Sketch.</desc>
    <defs></defs>
    <g id="Page-1" stroke="none" stroke-width="1" fill="none" fill-rule="evenodd">
        <g id="00-Desktop_Notification_hover_not-Yet-Opened" transform="translate(-371.000000, -183.000000)">
            <g id="Notif" transform="translate(297.000000, 141.000000)">
                <g id="1" transform="translate(1.000000, 0.000000)">
                    <g id="time" transform="translate(72.000000, 39.000000)">
                        <g id="ic_time_access" transform="translate(0.000000, 2.000000)">
                            <path d="M6.4945,1 C3.4585,1 1,3.464 1,6.5 C1,9.536 3.4585,12 6.4945,12 C9.536,12 12,9.536 12,6.5 C12,3.464 9.536,1 6.4945,1 Z M6.5,10.9 C4.069,10.9 2.1,8.931 2.1,6.5 C2.1,4.069 4.069,2.1 6.5,2.1 C8.931,2.1 10.9,4.069 10.9,6.5 C10.9,8.931 8.931,10.9 6.5,10.9 Z" id="Shape" fill="#01BBAE" fill-rule="nonzero"></path>
                            <polygon id="Shape" points="0 0 13 0 13 13 0 13"></polygon>
                            <polygon id="Shape" fill="#000000" fill-rule="nonzero" points="6.75 4 6 4 6 7.27868852 8.625 9 9 8.32786885 6.75 6.86885246"></polygon>
                        </g>
                    </g>
                </g>
            </g>
        </g>
    </g>
</svg>