<?xml version="1.0" encoding="UTF-8"?>
<svg width="16px" height="16px" viewBox="0 0 16 16" version="1.1" xmlns="http://www.w3.org/2000/svg" xmlns:xlink="http://www.w3.org/1999/xlink">
    <!-- Generator: Sketch 50.2 (55047) - http://www.bohemiancoding.com/sketch -->
    <title>Icon-Search</title>
    <desc>Created with Sketch.</desc>
    <defs></defs>
    <g id="Page-1" stroke="none" stroke-width="1" fill="none" fill-rule="evenodd">
        <g id="00_Desktop_4.2_Create-Diary" transform="translate(-1158.000000, -262.000000)">
            <g id="3.-Medications" transform="translate(880.000000, 165.000000)">
                <g id="Group-2" transform="translate(0.000000, 32.000000)">
                    <g id="text-area" transform="translate(29.000000, 51.000000)">
                        <g id="Icon-Search" transform="translate(249.000000, 14.000000)">
                            <rect id="16X16" x="0" y="0" width="16" height="16"></rect>
                            <g id="Shape-Search" fill="#353638">
                                <path d="M1,6.5 C1,3.467 3.467,1 6.5,1 C9.532,1 12,3.467 12,6.5 C12,9.532 9.532,12 6.5,12 C3.467,12 1,9.532 1,6.5 M15.853,15.146 L11.431,10.724 C12.406,9.586 13,8.112 13,6.5 C13,2.916 10.084,0 6.5,0 C2.916,0 0,2.916 0,6.5 C0,10.084 2.916,13 6.5,13 C8.112,13 9.586,12.406 10.724,11.431 L15.146,15.854 C15.237,15.944 15.362,16 15.5,16 C15.776,16 16,15.776 16,15.5 C16,15.362 15.944,15.237 15.853,15.146" id="Page-1"></path>
                            </g>
                        </g>
                    </g>
                </g>
            </g>
        </g>
    </g>
</svg>