<?xml version="1.0" encoding="UTF-8"?>
<svg width="59px" height="59px" viewBox="0 0 59 59" version="1.1" xmlns="http://www.w3.org/2000/svg" xmlns:xlink="http://www.w3.org/1999/xlink">
    <!-- Generator: Sketch 50.2 (55047) - http://www.bohemiancoding.com/sketch -->
    <title>Group 8</title>
    <desc>Created with Sketch.</desc>
    <defs></defs>
    <g id="Page-1" stroke="none" stroke-width="1" fill="none" fill-rule="evenodd">
        <g id="00_Desktop_2.2_MyAppointment-Detail" transform="translate(-856.000000, -599.000000)">
            <g id="content" transform="translate(242.000000, 157.000000)">
                <g id="attach" transform="translate(614.000000, 416.000000)">
                    <g id="Group-8" transform="translate(0.000000, 26.000000)">
                        <rect id="Rectangle-8" fill="#444444" x="0" y="0" width="59" height="59" rx="5"></rect>
                        <g id="img_picto-copy" transform="translate(14.000000, 20.000000)" fill="#FFFFFF">
                            <path d="M29.6680498,18.3943662 L22.1161826,9.05633803 C21.8672199,8.76056338 21.4937759,8.54929577 21.0373444,8.54929577 C20.6224066,8.54929577 20.2074689,8.76056338 19.9585062,9.05633803 L18.9626556,10.2816901 C18.9211618,10.3239437 18.879668,10.4084507 18.8381743,10.4507042 C18.5892116,10.7042254 18.2572614,10.8732394 17.8838174,10.8732394 C17.5103734,10.8732394 17.219917,10.7464789 16.9709544,10.4929577 C16.8879668,10.4084507 16.8049793,10.3239437 16.7634855,10.2394366 L13.0705394,5.67605634 C12.7385892,5.25352113 12.2406639,5 11.659751,5 C11.0788382,5 10.5809129,5.25352113 10.2489627,5.67605634 L0.373443983,17.8873239 L0.20746888,18.0985915 C0.0829875519,18.3098592 0,18.5211268 0,18.7746479 C0,19.4507042 0.539419087,20 1.2033195,20 L1.2033195,20 L3.98340249,20 L4.89626556,20 L5.10373444,20 L13.1120332,20 L15.2282158,20 L15.93361,20 L16.0995851,20 L22.1161826,20 L26.0995851,20 L26.2655602,20 L27.5518672,20 L29.0871369,20 C29.5850622,20 30,19.5774648 30,19.0704225 C30,18.8591549 29.9585062,18.6901408 29.8340249,18.5211268 L29.6680498,18.3943662 L29.6680498,18.3943662 Z" id="Shape"></path>
                            <path d="M28,0 C26.3561644,0 25,1.35616438 25,3 C25,4.64383562 26.3561644,6 28,6 C29.6438356,6 31,4.64383562 31,3 C31,1.35616438 29.6438356,0 28,0 L28,0 Z" id="Shape"></path>
                        </g>
                    </g>
                </g>
            </g>
        </g>
    </g>
</svg>