<?xml version="1.0" encoding="UTF-8"?>
<svg width="71px" height="61px" viewBox="0 0 71 61" version="1.1" xmlns="http://www.w3.org/2000/svg" xmlns:xlink="http://www.w3.org/1999/xlink">
    <!-- Generator: Sketch 50.2 (55047) - http://www.bohemiancoding.com/sketch -->
    <title>Shape</title>
    <desc>Created with Sketch.</desc>
    <defs></defs>
    <g id="Page-1" stroke="none" stroke-width="1" fill="none" fill-rule="evenodd">
        <g id="00_Desktop_1_Homepage-(1)" transform="translate(-874.000000, -154.000000)" fill="#F4F4F4" fill-rule="nonzero">
            <g id="Immunization" transform="translate(693.000000, 93.000000)">
                <g id="Shape">
                    <path d="M238.651685,101 C245.629213,101 251.393258,106.4 252,113 L225,113 C225.910112,106.4 231.370787,101 238.651685,101 Z M238.651685,129 C245.629213,129 251.393258,123.6 252,117 L225,117 C225.910112,123.6 231.370787,129 238.651685,129 Z M238.864762,70.8681319 C233.834159,66.032967 225.659429,65.7307692 220,69.9615385 L239.808,89 C244.209778,83.5604396 244.209778,76.0054945 238.864762,70.8681319 Z M237,91.0384615 L217.961538,72 C213.730769,77.4395604 214.032967,84.9945055 218.868132,90.1318681 C224.005495,94.967033 231.862637,95.2692308 237,91.0384615 Z M206,73.3333333 L206,122.666667 C206,129.45 200.375,135 193.5,135 C186.625,135 181,129.45 181,122.666667 L181,73.3333333 C181,66.55 186.625,61 193.5,61 C200.375,61 206,66.55 206,73.3333333 Z M203,73.2201835 C203,67.9954128 198.883333,64 193.5,64 C188.116667,64 184,67.9954128 184,73.2201835 L184,122.394495 C184,126.389908 186.533333,129.770642 190.333333,131 L190.333333,99.3440367 C190.333333,95.0412844 193.816667,91.6605505 198.25,91.6605505 L203,91.6605505 L203,73.2201835 Z"></path>
                </g>
            </g>
        </g>
    </g>
</svg>