<?xml version="1.0" encoding="UTF-8"?>
<svg width="8px" height="12px" viewBox="0 0 8 12" version="1.1" xmlns="http://www.w3.org/2000/svg" xmlns:xlink="http://www.w3.org/1999/xlink">
    <!-- Generator: Sketch 50.2 (55047) - http://www.bohemiancoding.com/sketch -->
    <title>Shape</title>
    <desc>Created with Sketch.</desc>
    <defs></defs>
    <g id="Page-1" stroke="none" stroke-width="1" fill="none" fill-rule="evenodd">
        <g id="00_Desktop_2_MyAppointment" transform="translate(-160.000000, -729.000000)" fill="#FFFFFF" fill-rule="nonzero">
            <g id="page" transform="translate(152.000000, 723.000000)">
                <g id="Group-22">
                    <path d="M15.7285369,11.3529794 L10.9484389,6.67314003 C10.7724026,6.4910215 10.5525819,6.4 10.2885403,6.4 C10.0244987,6.4 9.80467804,6.49112221 9.62864174,6.67314003 L9.07143744,7.21237 C8.89054763,7.38970455 8.80010272,7.60526058 8.80010272,7.85926469 C8.80010272,8.10845964 8.89052195,8.32658391 9.07143744,8.51343606 L12.6346123,12.0000252 L9.07128336,15.4937903 C8.89044491,15.6711248 8.8,15.8866808 8.8,16.1407101 C8.8,16.3898799 8.89041923,16.6080797 9.07128336,16.7948563 L9.62853902,17.3340108 C9.80940315,17.5113453 10.0294549,17.6 10.2884376,17.6 C10.547523,17.6 10.7675234,17.5113453 10.9483361,17.3340108 L15.7285369,12.6541714 C15.909478,12.4672689 16,12.249195 16,12 C16.0000257,11.7459959 15.909478,11.530314 15.7285369,11.3529794 Z" id="Shape" transform="translate(12.400000, 12.000000) scale(-1, 1) translate(-12.400000, -12.000000) "></path>
                </g>
            </g>
        </g>
    </g>
</svg>