<?xml version="1.0" encoding="UTF-8"?>
<svg width="23px" height="24px" viewBox="0 0 23 24" version="1.1" xmlns="http://www.w3.org/2000/svg" xmlns:xlink="http://www.w3.org/1999/xlink">
    <!-- Generator: Sketch 50.2 (55047) - http://www.bohemiancoding.com/sketch -->
    <title>Shape</title>
    <desc>Created with Sketch.</desc>
    <defs></defs>
    <g id="Page-1" stroke="none" stroke-width="1" fill="none" fill-rule="evenodd">
        <g id="Doctor---My-Schedule---5-Reschedule" transform="translate(-730.000000, -326.000000)" fill="#01BBAE" fill-rule="nonzero">
            <g id="Group-11" transform="translate(243.000000, 107.000000)">
                <g id="hospital" transform="translate(487.000000, 216.000000)">
                    <path d="M22.5208333,26.04 L21.0833333,26.04 L21.0833333,14.04 C21.0833333,13.272 20.4125,12.6 19.6458333,12.6 L17.25,12.6 L17.25,26.04 L16.2916667,26.04 L16.2916667,7.32 C16.2916667,6.552 15.6208333,5.88 14.8541667,5.88 L13.1291667,5.88 C12.5541667,4.248 10.925,3 9.10416667,3 C7.28333333,3 5.65416667,4.248 5.07916667,5.88 L3.35416667,5.88 C2.5875,5.88 1.91666667,6.552 1.91666667,7.32 L1.91666667,26.04 L0.479166667,26.04 C0.191666667,26.04 0,26.232 0,26.52 C0,26.808 0.191666667,27 0.479166667,27 L22.5208333,27 C22.8083333,27 23,26.808 23,26.52 C23,26.232 22.8083333,26.04 22.5208333,26.04 Z M13,26 L6,26 L6,20 C6,19.4 6.4,19 7,19 L12,19 C12.6,19 13,19.4 13,20 L13,26 Z M12.5,17 L6.5,17 C6.2,17 6,16.8 6,16.5 C6,16.2 6.2,16 6.5,16 L12.5,16 C12.8,16 13,16.2 13,16.5 C13,16.8 12.8,17 12.5,17 Z M12.5,15 L6.5,15 C6.2,15 6,14.8 6,14.5 C6,14.2 6.2,14 6.5,14 L12.5,14 C12.8,14 13,14.2 13,14.5 C13,14.8 12.8,15 12.5,15 Z M9.5,11 C7.6,11 6,9.4 6,7.5 C6,5.6 7.6,4 9.5,4 C11.4,4 13,5.6 13,7.5 C13,9.4 11.4,11 9.5,11 Z M11,7.5 C11,7.8 10.8,8 10.5,8 L10,8 L10,8.5 C10,8.8 9.8,9 9.5,9 C9.2,9 9,8.8 9,8.5 L9,8 L8.5,8 C8.2,8 8,7.8 8,7.5 C8,7.2 8.2,7 8.5,7 L9,7 L9,6.5 C9,6.2 9.2,6 9.5,6 C9.8,6 10,6.2 10,6.5 L10,7 L10.5,7 C10.8,7 11,7.2 11,7.5 Z" id="Shape"></path>
                </g>
            </g>
        </g>
    </g>
</svg>