<?xml version="1.0" encoding="UTF-8"?>
<svg width="12px" height="17px" viewBox="0 0 12 17" version="1.1" xmlns="http://www.w3.org/2000/svg" xmlns:xlink="http://www.w3.org/1999/xlink">
    <!-- Generator: Sketch 50.2 (55047) - http://www.bohemiancoding.com/sketch -->
    <title>Shape</title>
    <desc>Created with Sketch.</desc>
    <defs></defs>
    <g id="Page-1" stroke="none" stroke-width="1" fill="none" fill-rule="evenodd">
        <g id="Doctor---Search-Patient---3-Medical-Record" transform="translate(-55.000000, -269.000000)" fill="#023532">
            <g id="Group-7" transform="translate(48.000000, 231.000000)">
                <g id="address" transform="translate(7.000000, 32.000000)">
                    <path d="M6,6 C2.65714286,6 0,8.635 0,11.95 C0,16.37 6,23 6,23 C6,23 12,16.37 12,11.95 C12,8.635 9.34285714,6 6,6 L6,6 Z M6,14 C4.88,14 4,13.12 4,12 C4,10.88 4.88,10 6,10 C7.12,10 8,10.88 8,12 C8,13.12 7.12,14 6,14 L6,14 Z" id="Shape"></path>
                </g>
            </g>
        </g>
    </g>
</svg>