<?xml version="1.0" encoding="UTF-8"?>
<svg width="16px" height="22px" viewBox="0 0 16 22" version="1.1" xmlns="http://www.w3.org/2000/svg" xmlns:xlink="http://www.w3.org/1999/xlink">
    <!-- Generator: Sketch 50.2 (55047) - http://www.bohemiancoding.com/sketch -->
    <title>Shape</title>
    <desc>Created with Sketch.</desc>
    <defs></defs>
    <g id="Symbols" stroke="none" stroke-width="1" fill="none" fill-rule="evenodd">
        <g id="icons/password" transform="translate(-9.000000, -5.000000)" fill="#01BBAE" fill-rule="nonzero">
            <path d="M23.52,12.92 L22.2,12.92 L22.2,10.28 C22.2,7.376 19.824,5 16.92,5 C14.016,5 11.64,7.376 11.64,10.28 L11.64,12.92 L10.32,12.92 C9.616,12.92 9,13.536 9,14.24 L9,25.68 C9,26.384 9.616,27 10.32,27 L23.52,27 C24.224,27 24.84,26.384 24.84,25.68 L24.84,14.24 C24.84,13.536 24.224,12.92 23.52,12.92 Z M12.52,10.28 C12.52,7.816 14.456,5.88 16.92,5.88 C19.384,5.88 21.32,7.816 21.32,10.28 L21.32,12.92 L12.52,12.92 L12.52,10.28 Z M12.52,20.84 C11.992,20.84 11.64,20.488 11.64,19.96 C11.64,19.432 11.992,19.08 12.52,19.08 C13.048,19.08 13.4,19.432 13.4,19.96 C13.4,20.488 13.048,20.84 12.52,20.84 Z M16.92,20.84 C16.392,20.84 16.04,20.488 16.04,19.96 C16.04,19.432 16.392,19.08 16.92,19.08 C17.448,19.08 17.8,19.432 17.8,19.96 C17.8,20.488 17.448,20.84 16.92,20.84 Z M21.32,20.84 C20.792,20.84 20.44,20.488 20.44,19.96 C20.44,19.432 20.792,19.08 21.32,19.08 C21.848,19.08 22.2,19.432 22.2,19.96 C22.2,20.488 21.848,20.84 21.32,20.84 Z" id="Shape"></path>
        </g>
    </g>
</svg>