<?xml version="1.0" encoding="UTF-8"?>
<svg width="590px" height="436px" viewBox="0 0 590 436" version="1.1" xmlns="http://www.w3.org/2000/svg" xmlns:xlink="http://www.w3.org/1999/xlink">
    <!-- Generator: Sketch 50.2 (55047) - http://www.bohemiancoding.com/sketch -->
    <title>Login-02</title>
    <desc>Created with Sketch.</desc>
    <defs></defs>
    <g id="Page-1" stroke="none" stroke-width="1" fill="none" fill-rule="evenodd">
        <g id="Login-Doctor" transform="translate(-44.000000, -175.000000)">
            <g id="Login-02" transform="translate(44.000000, 175.000000)">
                <path d="M21.3938463,341.387974 C21.3938463,341.387974 -17.858884,309.724037 9.97411517,261.589452 C37.8071144,213.454866 51.7807126,187.502692 54.9782373,176.733422 C58.175762,165.964153 104.955133,43.7428083 252.466914,45.0097812 C399.978696,46.2767541 448.086908,91.2439069 470.874463,159.317738 C493.662017,227.391568 503.794433,221.700575 516.459953,227.391568 C529.125473,233.082561 572.800754,256.48002 570.942452,293.866105 C569.08415,331.252191 553.854382,349.592143 536.122654,353.393062 C518.390926,357.19398 519.667859,355.927007 517.768031,364.816588 C515.868203,373.706168 543.08869,374.952371 537.389206,394.933157 C531.689722,414.913942 434.196363,428.165233 351.901628,426.91903 C269.606893,425.672827 182.235568,423.803523 156.281634,422.526165 C130.327699,421.248807 66.3875868,416.783247 40.4336525,401.589957 C14.4797182,386.396667 -3.92681207,373.685398 21.3938463,341.387974 Z" id="Shape" fill="#DEEAEC" fill-rule="nonzero"></path>
                <path d="M230.495642,88.5139036 C234.443554,79.1617454 214.003059,86.4356462 211.271475,79.7124836 C208.539891,72.989321 188.202475,71.2124109 179.389251,74.8285788 C170.576027,78.4447466 149.22844,69.3211967 131.354603,63.6163802 C126.006352,62.0299603 120.385172,61.6049598 114.86202,62.3694258 C104.188272,71.9001322 94.5165766,82.5136706 86,94.0420682 C109.491623,95.2578488 226.990968,96.7541941 230.495642,88.5139036 Z" id="Shape" fill="#FFFFFF" fill-rule="nonzero"></path>
                <ellipse id="Oval" fill="#4C90C2" fill-rule="nonzero" cx="302.5" cy="181.5" rx="36.5" ry="24.5"></ellipse>
                <rect id="Rectangle-path" fill="#D1D1D1" fill-rule="nonzero" x="166" y="237" width="171" height="103"></rect>
                <rect id="Rectangle-path" fill="#2C5E8A" fill-rule="nonzero" x="266" y="182" width="73" height="161"></rect>
                <rect id="Rectangle-path" fill="#71E5FF" fill-rule="nonzero" x="275" y="191" width="12" height="12"></rect>
                <rect id="Rectangle-path" fill="#71E5FF" fill-rule="nonzero" x="297" y="191" width="12" height="12"></rect>
                <rect id="Rectangle-path" fill="#71E5FF" fill-rule="nonzero" x="318" y="191" width="12" height="12"></rect>
                <rect id="Rectangle-path" fill="#71E5FF" fill-rule="nonzero" x="275" y="210" width="12" height="12"></rect>
                <rect id="Rectangle-path" fill="#71E5FF" fill-rule="nonzero" x="297" y="210" width="12" height="12"></rect>
                <rect id="Rectangle-path" fill="#71E5FF" fill-rule="nonzero" x="318" y="210" width="12" height="12"></rect>
                <rect id="Rectangle-path" fill="#71E5FF" fill-rule="nonzero" x="275" y="229" width="12" height="12"></rect>
                <rect id="Rectangle-path" fill="#71E5FF" fill-rule="nonzero" x="297" y="229" width="12" height="12"></rect>
                <rect id="Rectangle-path" fill="#71E5FF" fill-rule="nonzero" x="318" y="229" width="12" height="12"></rect>
                <rect id="Rectangle-path" fill="#71E5FF" fill-rule="nonzero" x="275" y="248" width="12" height="12"></rect>
                <rect id="Rectangle-path" fill="#71E5FF" fill-rule="nonzero" x="297" y="248" width="12" height="12"></rect>
                <rect id="Rectangle-path" fill="#FFFFFF" fill-rule="nonzero" x="173" y="250" width="87" height="8"></rect>
                <rect id="Rectangle-path" fill="#FFFFFF" fill-rule="nonzero" x="173" y="270" width="87" height="8"></rect>
                <rect id="Rectangle-path" fill="#FFFFFF" fill-rule="nonzero" x="173" y="289" width="87" height="8"></rect>
                <rect id="Rectangle-path" fill="#FFFFFF" fill-rule="nonzero" x="173" y="307" width="87" height="8"></rect>
                <rect id="Rectangle-path" fill="#71E5FF" fill-rule="nonzero" x="318" y="248" width="12" height="12"></rect>
                <rect id="Rectangle-path" fill="#71E5FF" fill-rule="nonzero" x="275" y="267" width="12" height="12"></rect>
                <rect id="Rectangle-path" fill="#71E5FF" fill-rule="nonzero" x="297" y="267" width="12" height="12"></rect>
                <rect id="Rectangle-path" fill="#71E5FF" fill-rule="nonzero" x="318" y="267" width="12" height="12"></rect>
                <rect id="Rectangle-path" fill="#71E5FF" fill-rule="nonzero" x="275" y="285" width="12" height="12"></rect>
                <rect id="Rectangle-path" fill="#71E5FF" fill-rule="nonzero" x="297" y="285" width="12" height="12"></rect>
                <rect id="Rectangle-path" fill="#71E5FF" fill-rule="nonzero" x="318" y="285" width="12" height="12"></rect>
                <rect id="Rectangle-path" fill="#71E5FF" fill-rule="nonzero" x="275" y="303" width="12" height="12"></rect>
                <rect id="Rectangle-path" fill="#71E5FF" fill-rule="nonzero" x="297" y="303" width="12" height="12"></rect>
                <rect id="Rectangle-path" fill="#71E5FF" fill-rule="nonzero" x="318" y="303" width="12" height="12"></rect>
                <rect id="Rectangle-path" fill="#EAEAEA" fill-rule="nonzero" x="204" y="324" width="24" height="17"></rect>
                <rect id="Rectangle-path" fill="#0E314A" fill-rule="nonzero" x="297" y="324" width="12" height="17"></rect>
                <path d="M343,182.5 C343,184.432997 341.516264,186 339.685983,186 L265.314017,186 C263.483736,186 262,184.432997 262,182.5 C262,180.567003 263.483736,179 265.314017,179 L339.685983,179 C340.564915,179 341.407848,179.368749 342.029347,180.025126 C342.650846,180.681504 343,181.571742 343,182.5 Z" id="Shape" fill="#0E3B5C" fill-rule="nonzero"></path>
                <g id="Group" opacity="0.2" style="mix-blend-mode: multiply;" transform="translate(302.000000, 157.000000)" fill="#4D5A85" fill-rule="nonzero">
                    <path d="M36.3523913,21.9043575 L35.5758696,21.9043575 C33.368913,9.77798883 18.615,0.405251397 0.703913043,0.405251397 L0.00913043478,0.405251397 L0.00913043478,185.283017 L35.9130435,185.283017 L35.9130435,28.4922905 L36.3728261,28.4922905 C38.1616284,28.4922905 39.6117391,27.0175315 39.6117391,25.198324 C39.6117391,23.3791166 38.1616284,21.9043575 36.3728261,21.9043575 L36.3523913,21.9043575 Z" id="Shape"></path>
                </g>
                <rect id="Rectangle-path" fill="#000A10" fill-rule="nonzero" opacity="0.1" x="241" y="237" width="42" height="103"></rect>
                <path d="M498,213.820625 C493.34825,208.06225 488.092918,198.748438 481.734486,183 L481.5992,183 C463.554158,188.625174 442.002093,197.621354 433.104451,194.05567 C424.206809,190.489986 403.64337,192.252335 400.916841,198.871392 C398.190312,205.490449 377.522807,198.359081 381.508534,207.549939 C384.21425,213.820625 454.562857,214.414905 498,213.820625 Z" id="Shape" fill="#FFFFFF" fill-rule="nonzero"></path>
                <g id="Group-21" transform="translate(192.000000, 298.000000)">
                    <path d="M91.9614639,41.5903785 C91.9614639,41.5903785 100.17549,31.7171222 89.5930864,30.5931113 C79.010683,29.4691004 79.2844838,30.155996 76.49856,25.7362741 C73.7126362,21.3165522 70.0916197,14.4753501 59.7830171,15.2038756 C49.4744145,15.9324012 53.0954309,0.63336395 39.1658118,0.0505434824 C25.2361928,-0.532276985 22.1696231,3.93601327 17.4328681,12.9003471 C12.6961131,21.864681 9.90334424,20.0884662 7.40491133,20.6921017 C4.90647842,21.2957372 -4.29323069,24.9938718 2.38751045,35.8523722 C9.0682516,46.7108726 46.1271989,43.5816817 46.1271989,43.5816817 L91.9614639,41.5903785 Z" id="Shape" fill="#339993" fill-rule="nonzero"></path>
                    <path d="M41.7582418,42.952381 C41.7582418,42.952381 33.9297034,26.5809121 35.7765052,12.5714286" id="Shape" stroke="#247C76" stroke-width="2" stroke-linecap="round"></path>
                    <path d="M37.5824176,32.4761905 C37.5824176,32.4761905 49.7511584,24.2526158 50.1098901,19.9047619" id="Shape" stroke="#247C76" stroke-width="2" stroke-linecap="round" stroke-linejoin="round"></path>
                    <path d="M37.5824176,35.6190476 C35.5245714,34.878882 30.9411868,37.1689671 20.8791209,30.3809524" id="Shape" stroke="#247C76" stroke-width="2" stroke-linecap="round" stroke-linejoin="round"></path>
                </g>
                <path d="M535.960934,353.293266 C544.682347,351.431499 552.791184,346.053059 559,336.64079 L518.912647,333 L249.130266,341.491729 L16.8499617,347.304581 C-1.69342398,375.106976 20.6915365,396.527646 44.9661366,410.687422 C70.9227234,425.829798 134.869371,430.235981 160.825958,431.539219 C186.782544,432.842456 274.162798,434.642165 356.465944,435.914372 C438.76909,437.18658 537.20685,424.174894 541.972479,404.057461 C548.773105,375.41727 515.69403,373.462415 517.594053,364.639705 C519.494075,355.816996 518.237776,357.068517 535.960934,353.293266 Z" id="Shape" fill="#F0F5F5" fill-rule="nonzero"></path>
                <path d="M141.874295,362.261663 C141.874295,362.261663 103.949267,362.641079 93.0231236,363.633397 C78.3200416,368.157201 95.1606217,368.157201 95.1606217,368.157201 C95.1606217,368.157201 156.017062,370.462882 156.826406,367.447013 C158.486598,361.288802 147.840612,359.508466 141.874295,362.251934" id="Shape" fill="#000A10" fill-rule="nonzero" opacity="0.16875"></path>
                <rect id="Rectangle-path" fill="#D1D1D1" fill-rule="nonzero" x="428" y="128" width="104" height="207"></rect>
                <rect id="Rectangle-path" fill="#FFFFFF" fill-rule="nonzero" x="434" y="142" width="91" height="12"></rect>
                <rect id="Rectangle-path" fill="#FFFFFF" fill-rule="nonzero" x="434" y="158" width="91" height="12"></rect>
                <rect id="Rectangle-path" fill="#FFFFFF" fill-rule="nonzero" x="434" y="172" width="91" height="12"></rect>
                <rect id="Rectangle-path" fill="#FFFFFF" fill-rule="nonzero" x="434" y="188" width="91" height="12"></rect>
                <rect id="Rectangle-path" fill="#FFFFFF" fill-rule="nonzero" x="434" y="203" width="91" height="12"></rect>
                <rect id="Rectangle-path" fill="#FFFFFF" fill-rule="nonzero" x="434" y="218" width="91" height="12"></rect>
                <rect id="Rectangle-path" fill="#FFFFFF" fill-rule="nonzero" x="434" y="233" width="91" height="12"></rect>
                <rect id="Rectangle-path" fill="#FFFFFF" fill-rule="nonzero" x="434" y="249" width="91" height="12"></rect>
                <rect id="Rectangle-path" fill="#FFFFFF" fill-rule="nonzero" x="434" y="264" width="91" height="12"></rect>
                <rect id="Rectangle-path" fill="#FFFFFF" fill-rule="nonzero" x="434" y="278" width="91" height="12"></rect>
                <rect id="Rectangle-path" fill="#EAEAEA" fill-rule="nonzero" x="436" y="305" width="17" height="17" rx="4.02"></rect>
                <rect id="Rectangle-path" fill="#EAEAEA" fill-rule="nonzero" x="506" y="305" width="17" height="17" rx="4.02"></rect>
                <rect id="Rectangle-path" fill="#FFFFFF" fill-rule="nonzero" x="428" y="296" width="104" height="3"></rect>
                <rect id="Rectangle-path" fill="#EAEAEA" fill-rule="nonzero" x="422" y="128" width="117" height="8"></rect>
                <rect id="Rectangle-path" fill="#D1D1D1" fill-rule="nonzero" x="253" y="29" width="124" height="45"></rect>
                <rect id="Rectangle-path" fill="#D1D1D1" fill-rule="nonzero" x="253" y="76" width="124" height="128"></rect>
                <rect id="Rectangle-path" fill="#000A10" fill-rule="nonzero" opacity="0.1" x="402" y="128" width="42" height="207"></rect>
                <rect id="Rectangle-path" fill="#FFFFFF" fill-rule="nonzero" x="258" y="87" width="33" height="57" rx="2.7"></rect>
                <rect id="Rectangle-path" fill="#FFFFFF" fill-rule="nonzero" x="294" y="87" width="33" height="57" rx="2.7"></rect>
                <rect id="Rectangle-path" fill="#FFFFFF" fill-rule="nonzero" x="330" y="87" width="33" height="57" rx="2.7"></rect>
                <path d="M246,3.46487786 L246,31.9204466 C246,33.8340458 247.543554,35.3853245 249.447624,35.3853245 L361.887657,35.3853245 C363.791727,35.3853245 365.335281,36.9366031 365.335281,38.8502023 L365.335281,63.311825 C365.335281,65.2254242 363.791727,66.7767029 361.887657,66.7767029 L249.447624,66.7767029 C247.543554,66.7767029 246,68.3279815 246,70.2415807 L246,80.1693894 C246,82.0829886 247.543554,83.6342673 249.447624,83.6342673 L362.82698,83.6342673 C363.741347,83.6342673 364.618263,83.9993159 365.264818,84.6491065 C365.911373,85.2988972 366.274604,86.1802024 366.274604,87.0991451 L366.274604,143.066259 C366.274604,144.979858 364.73105,146.531137 362.82698,146.531137 L249.447624,146.531137 C247.543554,146.531137 246,148.082416 246,149.996015 L246,337.535122 C246,339.448721 247.543554,341 249.447624,341 L431.552376,337.203158 C433.456446,337.203158 435,335.651879 435,333.73828 L435,3.46487786 C435,2.54593511 434.636769,1.66462987 433.990214,1.01483923 C433.343659,0.365048583 432.466743,-1.2985786e-14 431.552376,0 L249.447624,0 C247.543554,-8.63799515e-17 246,1.55127866 246,3.46487786 Z" id="Shape" fill="#3D5559" fill-rule="nonzero"></path>
                <g id="Group-19" transform="translate(396.000000, 39.000000)" fill-rule="nonzero">
                    <circle id="Oval" fill="#07AA9E" cx="33.5" cy="33.5" r="33.5"></circle>
                    <path d="M33.7434563,7.16654631e-05 C26.9965681,-0.0139954051 20.406409,2.04314721 14.8552501,5.8960953 C2.00257785,17.7874877 0.496254325,37.6426993 11.4065659,51.3540281 C22.3168776,65.0653569 41.9252097,67.9595039 56.2992754,57.9800941 C66.3610135,48.6462382 69.7015106,34.0707032 64.7160227,21.2554424 C59.7305347,8.44018159 47.4379273,0.00420231683 33.7434563,7.16654631e-05 Z" id="Shape" fill="#01BBAE"></path>
                    <polygon id="Shape" fill="#FFFFFF" points="53.6 28.4612456 40.5928088 28.4612456 40.5928088 15.4615385 28.4612456 15.4615385 28.4612456 28.4612456 15.4615385 28.4612456 15.4615385 40.6002928 28.4612456 40.6002928 28.4612456 53.6 40.5928088 53.6 40.5928088 40.6002928 53.6 40.6002928"></polygon>
                </g>
                <rect id="Rectangle-path" fill="#FFFFFF" fill-rule="nonzero" x="260" y="171" width="108" height="170"></rect>
                <rect id="Rectangle-path" fill="#EAEAEA" fill-rule="nonzero" x="309" y="171" width="3" height="170"></rect>
                <rect id="Rectangle-path" fill="#EAEAEA" fill-rule="nonzero" transform="translate(308.500000, 189.000000) rotate(-90.000000) translate(-308.500000, -189.000000) " x="307" y="130" width="3" height="118"></rect>
                <rect id="Rectangle-path" fill="#D1D1D1" fill-rule="nonzero" x="320" y="251" width="8" height="25" rx="3.66"></rect>
                <rect id="Rectangle-path" fill="#D1D1D1" fill-rule="nonzero" x="293" y="251" width="8" height="25" rx="3.66"></rect>
                <rect id="Rectangle-path" fill="#FFFFFF" fill-rule="nonzero" x="258" y="37" width="33" height="25" rx="2.7"></rect>
                <rect id="Rectangle-path" fill="#FFFFFF" fill-rule="nonzero" x="294" y="37" width="33" height="25" rx="2.7"></rect>
                <rect id="Rectangle-path" fill="#FFFFFF" fill-rule="nonzero" x="330" y="37" width="33" height="25" rx="2.7"></rect>
                <rect id="Rectangle-path" fill="#FFFFFF" fill-rule="nonzero" x="258" y="37" width="33" height="25" rx="2.7"></rect>
                <rect id="Rectangle-path" fill="#FFFFFF" fill-rule="nonzero" x="294" y="37" width="33" height="25" rx="2.7"></rect>
                <rect id="Rectangle-path" fill="#FFFFFF" fill-rule="nonzero" x="330" y="37" width="33" height="25" rx="2.7"></rect>
                <rect id="Rectangle-path" fill="#FFFFFF" fill-rule="nonzero" x="258" y="87" width="33" height="57" rx="2.7"></rect>
                <rect id="Rectangle-path" fill="#FFFFFF" fill-rule="nonzero" x="294" y="87" width="33" height="57" rx="2.7"></rect>
                <rect id="Rectangle-path" fill="#FFFFFF" fill-rule="nonzero" x="330" y="87" width="33" height="57" rx="2.7"></rect>
                <path d="M21.5899085,340.759355 C21.5899085,340.759355 106.670883,330.356917 173.800914,337.930712 C240.930944,345.504506 398.350133,332.345167 412.622862,332.990835 C426.895591,333.636504 538.719594,325.509279 563,333.636504 L561.711053,339.693489 C561.711053,339.693489 510.362762,336.372908 427.712972,339.693489 C427.712972,339.693489 270.356659,351.520497 226.888759,346.949574 C183.420859,342.378651 17,346.949574 17,346.949574 L21.5899085,340.759355 Z" id="Shape" fill="#FFFFFF" fill-rule="nonzero"></path>
                <path d="M308.874295,361.261663 C308.874295,361.261663 270.949267,361.641079 260.023124,362.633397 C245.320042,367.157201 262.160622,367.157201 262.160622,367.157201 C262.160622,367.157201 323.017062,369.462882 323.826406,366.447013 C325.486598,360.288802 314.840612,358.508466 308.874295,361.251934" id="Shape" fill="#000A10" fill-rule="nonzero" opacity="0.16875"></path>
                <rect id="Rectangle-path" stroke="#CDD4D4" fill="#FFFFFF" fill-rule="nonzero" x="139.5" y="105.5" width="144" height="118" rx="9"></rect>
                <path d="M140,120 L140,210.67937 C140,215.827012 144.18392,220 149.345048,220 L273.654952,220 C278.81608,220 283,215.827012 283,210.67937 L283,120 L140,120 Z" id="Shape" fill="#01BBAE" fill-rule="nonzero"></path>
                <path d="M211.041595,170.841706 C211.041595,170.841706 211.639349,177.638814 211.938225,178.700537 C212.237102,179.76226 220.61596,177.659632 220.61596,177.659632 C224.058197,170.852115 220.61596,163.315965 215.380462,149.419887 C210.144964,135.52381 196.984077,148.5143 196.984077,148.5143 C196.984077,148.5143 192.500924,144.735816 188.904095,151.158198 C185.307267,157.58058 193.603676,160.911475 193.603676,160.911475" id="Shape" fill="#000A10" fill-rule="nonzero"></path>
                <path d="M183.000585,210.107466 C183.000585,210.107466 182.576956,184.328746 204.533326,182.203906 C231.459585,179.59797 238,202.830891 238,202.830891 L228.979807,207.341165 L225.880084,202.109248 L227.533269,220 L192.33075,220 L191.845127,210.257809 L183.000585,210.107466 Z" id="Shape" fill="#243C4B" fill-rule="nonzero"></path>
                <path d="M204.818815,175.206681 L203,181.897704 L206.637631,191 C209.010453,191 215,181.605428 215,181.605428 L212.574913,171 L204.818815,175.206681 Z" id="Shape" fill="#FFB38A" fill-rule="nonzero"></path>
                <path d="M205.577053,175.56469 L213.068616,171 L214,175.56469 C214,175.56469 206.913386,180.19785 205,178.702914 L205.577053,175.56469 Z" id="Shape" fill="#000A10" fill-rule="nonzero" opacity="0.2"></path>
                <path d="M233,209.606267 C230.575599,208.20048 222.41489,204.691143 219.882256,201.684606 C219.882256,201.684606 214.470646,187.65752 211.689078,188.006402 C211.689078,188.006402 214.005248,191.402865 212.619875,192.357159 C211.234503,193.311452 204.816333,185.359007 200,189.032524 L214.016071,201.889831 C214.016071,201.889831 227.577566,222.073648 227.978026,220.955175 C229.238052,217.01927 230.920862,213.216374 233,209.606267 Z" id="Shape" fill="#FFB38A" fill-rule="nonzero"></path>
                <path d="M193,159.977725 C193,159.977725 193,175.959763 198.072016,178.550028 C203.144033,181.140293 213,171.702081 213,171.702081 C213,171.702081 211.353909,165.661626 210.314815,164.875108 C210.314815,164.875108 213.401235,162.567989 211.662551,159.977725 C209.923868,157.38746 208.380658,160.743269 208.380658,160.743269 C208.380658,160.743269 207.032922,157.848884 205.397119,158.006187 C203.761317,158.163491 201.518519,161.508812 199.22428,161.959749 C196.930041,162.410686 195.541152,159.673605 193,159.977725 Z" id="Shape" fill="#FFB38A" fill-rule="nonzero"></path>
                <path d="M227,220 L244,220 C244,220 240.892473,207.662406 238.139785,203 L228.752688,207.44509" id="Shape" fill="#FFB38A" fill-rule="nonzero"></path>
                <path d="M229.253086,207 C229.253086,207 236.259259,209.360877 237,214 C237,214 228.512346,207.696459 227,208.23946 L229.253086,207 Z" id="Shape" fill="#000A10" fill-rule="nonzero" opacity="0.2"></path>
                <polygon id="Shape" fill="#FFB38A" fill-rule="nonzero" points="183 210 185.488294 221 192 221 191.528428 210.147651"></polygon>
                <rect id="Rectangle-path" fill="#FFFFFF" fill-rule="nonzero" x="234" y="187" width="42" height="28" rx="3.33"></rect>
                <path d="M237,215 C237,215 239.855649,202.756459 254.5,203.003695 C269.144351,203.25093 272,215 272,215 L237,215 Z" id="Shape" fill="#EAEAEA" fill-rule="nonzero"></path>
                <circle id="Oval" fill="#EAEAEA" fill-rule="nonzero" cx="254.5" cy="197.5" r="9.5"></circle>
                <circle id="Oval" fill="#339993" fill-rule="nonzero" cx="251" cy="113" r="3"></circle>
                <circle id="Oval" fill="#E8BC05" fill-rule="nonzero" cx="262" cy="113" r="3"></circle>
                <circle id="Oval" fill="#FF5050" fill-rule="nonzero" cx="273" cy="113" r="3"></circle>
                <path d="M141.848684,166 L143,165.571429 C141.602658,162.667569 139.485625,160.079781 136.805921,158 L136,158.816327 C138.532381,160.792125 140.53122,163.247208 141.848684,166 Z" id="Shape" fill="#243C4B" fill-rule="nonzero"></path>
                <path d="M114.923622,362.098835 C114.923622,362.098835 126,361.375699 126,363.841475 C126,366.307252 123.672047,372.756206 104.570079,366.022739 C104.570079,366.022739 101.71063,368.547789 99,367.148935 L100.945276,362.098835 L114.923622,362.098835 Z" id="Shape" fill="#020E33" fill-rule="nonzero"></path>
                <path d="M120.863202,158 C120.863202,158 92.6542243,170.771649 89.9206767,199.399188 C87.1151937,228.792611 91.6162983,237 91.6162983,237 L98.9126094,234.060658 C98.9126094,234.060658 97.9363425,203.549456 109.867353,189.825626 C109.620717,190.933054 112.785877,212.740076 111.449933,221.19586 C110.113989,229.651644 138.086607,229.651644 140.162459,225.335779 C140.162459,225.335779 142.597988,200.496266 142.217757,196.418446 C142.217757,196.418446 158.660149,211.125508 167.528764,207.202935 C176.397378,203.280362 165.473465,167.376916 165.473465,167.376916 L158.536831,167.501114 C158.536831,167.501114 158.290195,191.026202 157.683882,191.026202 C157.077569,191.026202 149.770981,170.657802 138.518219,163.506092" id="Shape" fill="#FFFFFF" fill-rule="nonzero"></path>
                <path d="M145.923622,362.098835 C145.923622,362.098835 157,361.375699 157,363.841475 C157,366.307252 154.672047,372.756206 135.570079,366.022739 C135.570079,366.022739 132.71063,368.547789 130,367.148935 L131.945276,362.098835 L145.923622,362.098835 Z" id="Shape" fill="#020E33" fill-rule="nonzero"></path>
                <path d="M142.113555,226.562379 C142.113555,226.562379 146.469372,244.596997 146.83673,272.088666 C147.204088,299.580335 146.83673,362.344529 146.83673,362.344529 C146.83673,362.344529 139.61552,365.769348 133.034563,362.344529 C133.034563,362.344529 126.086247,295.948579 129.371478,269.222579 C129.371478,269.222579 124.312433,297.883446 122.391675,312.834693 C120.470917,327.785939 117.993874,362.251407 117.993874,362.251407 C113.247052,365.889076 106.610291,365.918815 101.830119,362.323836 C101.830119,362.323836 93.2129485,261.379642 113.375658,225 L142.113555,226.562379 Z" id="Shape" fill="#243C4B" fill-rule="nonzero"></path>
                <path d="M127.652876,130.06735 C127.652876,130.06735 132.022073,125.593155 139.914472,127.452152 C139.914472,127.452152 143.780355,128.166342 140.985354,136.064451 C138.190352,143.962559 130.083778,146.021108 130.083778,146.021108 C130.083778,146.021108 130.662054,154.591396 127.52437,154.874972 C127.52437,154.874972 126.07868,155.652179 123.872663,153.33106 C118.796684,147.995635 117.586588,145.117867 116.376491,141.662445 C115.102142,137.975961 117.233197,133.669811 120.210248,131.369697 C125.725289,127.137067 127.652876,130.06735 127.652876,130.06735 Z" id="Shape" fill="#000A10" fill-rule="nonzero"></path>
                <path d="M140.154748,166.964822 C140.154748,166.964822 146.147473,197.887616 140.738655,224.448712 C140.738655,224.448712 130.617608,228.830984 124,222.86451 L126.888801,165 C126.888801,165 135.739595,172.314074 140.154748,166.964822 Z" id="Shape" fill="#01BBAE" fill-rule="nonzero"></path>
                <path d="M118.646734,178 L119.788155,177.731563 C116.934602,167.59292 118.452692,162.730088 120.23331,160.438053 C121.082015,159.224042 122.443102,158.377166 124,158.094395 L123.885858,157 C121.968659,157.308068 120.280629,158.325983 119.228859,159.80826 C116.478034,163.370206 116.261163,169.564897 118.646734,178 Z" id="Shape" fill="#243C4B" fill-rule="nonzero"></path>
                <path d="M139.943012,134.102182 L143,145.040027 C142.100856,145.65834 141.015813,145.92287 139.943012,145.785312 C139.943012,145.785312 141.145427,153.133192 139.943012,153.86798 C138.740596,154.602768 129.691911,152.251446 126.553403,147.286379 C126.553403,147.286379 123.058246,142.688705 126.553403,141.817456 C128.846144,141.439565 128.968424,144.315736 129.610391,144.063808 C130.252359,143.811881 130.333878,136.978352 130.333878,136.978352 C130.333878,136.978352 133.105548,139.466135 135.27601,133 C135.23525,133.052485 138.496037,133.052485 139.943012,134.102182 Z" id="Shape" fill="#C99B93" fill-rule="nonzero"></path>
                <polygon id="Shape" fill="#C99B93" fill-rule="nonzero" points="137 152.880672 137 158.921008 135.443497 160 122 156.238655 127.085288 148"></polygon>
                <path d="M138,157 C137.595376,156.917241 133.179191,154.793103 132,153 C132,153 136.092486,155.050575 138,155.041379 L138,157 Z" id="Shape" fill="#000A10" fill-rule="nonzero" opacity="0.2"></path>
                <polygon id="Shape" fill="#243C4B" fill-rule="nonzero" points="137.203297 161 139 163.921569 138.513736 169 136 162.04902"></polygon>
                <polygon id="Shape" fill="#243C4B" fill-rule="nonzero" points="135 161.823301 122.003082 158 121 158.28835 129.952234 169 131.92604 165.198058"></polygon>
                <path d="M136,252 C136,252 131.501449,266.255016 128,267.679514 L128,271 C128,271 132.394203,265.041183 136,252 Z" id="Shape" fill="#000A10" fill-rule="nonzero" opacity="0.2"></path>
                <path d="M142.086301,167.822916 L150.15506,218.541654 L158.990352,263.677061 C159.242501,265.499977 154.481933,266.80206 152.938782,267.749976 C149.912998,269.760393 146.957814,273.208308 140.835643,271.572892 L139,165 L142.086301,167.822916 Z" id="Shape" fill="#FFFFFF" fill-rule="nonzero"></path>
                <path d="M112.905993,189.827632 C112.905993,189.827632 111.40423,208.305215 109.024677,221.86371 C106.645123,235.422205 97,265.267428 97,265.267428 C97,265.267428 117.189189,274.671567 124.222092,271.250941 C124.222092,271.250941 132.936545,198.91141 133,168.322123 L128.494712,163 L112.905993,189.827632 Z" id="Shape" fill="#FFFFFF" fill-rule="nonzero"></path>
                <path d="M140.393802,196 C141.480947,192.288778 142.239931,188.45573 142.658729,184.561581 C143.309781,178.556681 143.34646,169.932048 139.843617,163 L139,163.582163 C145.418823,176.422084 139.541015,195.45018 139.476827,195.644234 L140.393802,196 Z" id="Shape" fill="#243C4B" fill-rule="nonzero"></path>
                <path d="M120,240.940973 C120,240.940973 111.103275,241.527934 108,239 L120,240.940973 Z" id="Shape" fill="#000A10" fill-rule="nonzero" opacity="0.2"></path>
                <path d="M119,243 C119,243 117.596546,266.193925 115.806907,266.69837 C115.806907,266.69837 112.161695,267.833369 107,265.69999 C107,265.69999 114.252747,267.318416 115.025118,265.447768 C115.797488,263.577121 119,243 119,243 Z" id="Shape" fill="#000A10" fill-rule="nonzero" opacity="0.2"></path>
                <path d="M155.127792,237 C155.127792,237 160.365221,259.937273 158.657819,261.012791 C158.657819,261.012791 155.117317,263.323556 149,262.961501 C149,262.961501 157.180864,262.130903 157.463685,260.065058 C157.746506,257.999212 155.127792,237 155.127792,237 Z" id="Shape" fill="#000A10" fill-rule="nonzero" opacity="0.2"></path>
                <path d="M153.773956,237 C153.773956,237 150,238.923996 146,238.599955 C146,238.599955 148.653563,239.801609 154,238.039633 L153.773956,237 Z" id="Shape" fill="#000A10" fill-rule="nonzero" opacity="0.2"></path>
                <path d="M155.311446,238 C155.311446,238 160.379411,259.023 158.634359,260.081486 C158.634359,260.081486 157.673013,262.041257 149,261.999337 C149,261.999337 157.160992,261.181892 157.443126,259.148761 C157.72526,257.115629 155.311446,238 155.311446,238 Z" id="Shape" fill="#FFFFFF" fill-rule="nonzero"></path>
                <path d="M155.525129,238 C155.525129,238 149.504333,240.803135 146,239.982445 L149.816291,255 L157.999999,253.422571 C157.999999,253.422571 158.010398,248.722257 155.525129,238 Z" id="Shape" fill="#FFFFFF" fill-rule="nonzero"></path>
                <path d="M123.307773,210 C125.022084,206.368969 123.527556,189.045504 119.098918,173 L118,173.263706 C122.252812,188.680373 123.901188,206.105263 122.263801,209.574013 L123.307773,210 Z" id="Shape" fill="#243C4B" fill-rule="nonzero"></path>
                <path d="M146.188427,193 L147,192.335942 C143.519037,187.838457 144.066604,175.181107 144.066604,175.050307 L143.030138,175 C143.02036,175.513136 142.502127,188.190609 146.188427,193 Z" id="Shape" fill="#243C4B" fill-rule="nonzero"></path>
                <circle id="Oval" fill="#243C4B" fill-rule="nonzero" transform="translate(146.000000, 194.000000) rotate(-33.380000) translate(-146.000000, -194.000000) " cx="146" cy="194" r="1"></circle>
                <circle id="Oval" fill="#243C4B" fill-rule="nonzero" transform="translate(140.000000, 193.000000) rotate(-33.380000) translate(-140.000000, -193.000000) " cx="140" cy="193" r="1"></circle>
                <path d="M118.112245,213.938081 L118.112245,213.716304 C118.113971,213.506593 118.134459,213.297443 118.173469,213.091297 C118.244248,212.76251 118.357416,212.444049 118.510204,212.143705 C118.721918,211.734164 118.997378,211.359984 119.326531,211.03482 C119.530531,210.84164 119.756532,210.672496 120,210.530782 C120.277662,210.353557 120.580227,210.217689 120.897959,210.127551 L121.102041,210.067067 L121.204082,210.067067 L121.306122,210.067067 C121.484748,210.034481 121.66546,210.01427 121.846939,210.006582 C122.234801,209.983569 122.623913,210.020989 123,210.117471 C123.401825,210.225618 123.786465,210.388471 124.142857,210.601347 C124.529209,210.832557 124.874031,211.125521 125.163265,211.468293 C125.448879,211.822486 125.673013,212.221051 125.826531,212.647743 C125.910113,212.879501 125.96827,213.119454 126,213.363477 L126,213.565093 C126,213.645739 126,213.65582 126,213.696143 L126,214.008647 C125.992756,214.468184 125.913588,214.923847 125.765306,215.359469 C125.614572,215.785343 125.393938,216.183815 125.112245,216.538919 C124.823011,216.881691 124.478188,217.174655 124.091837,217.405865 C123.735384,217.618625 123.350761,217.781471 122.94898,217.889742 C122.758669,217.941016 122.56396,217.974763 122.367347,217.990549 C122.170274,218.00315 121.972583,218.00315 121.77551,217.990549 C121.613785,217.989233 121.452792,217.968929 121.295918,217.930065 L121.204082,217.930065 L121.142857,217.930065 L121.020408,217.930065 L120.77551,217.859499 C120.206634,217.666283 119.685175,217.357188 119.244898,216.95223 C118.673019,216.403149 118.2728,215.703357 118.091837,214.936077 C118.042148,214.727504 118.011414,214.514964 118,214.300989 L118,214.079212 L118.112245,213.938081 Z M118.295918,213.938081 L118.295918,214.099373 C118.289428,214.183257 118.289428,214.267509 118.295918,214.351393 C118.310994,214.463937 118.334875,214.575159 118.367347,214.684058 C118.450586,214.98161 118.581493,215.264083 118.755102,215.520761 C119.250031,216.254502 120.050896,216.731433 120.938776,216.82118 L121.316327,216.82118 C121.717729,216.810034 122.112991,216.720976 122.479592,216.55908 C122.9912,216.326352 123.426158,215.956041 123.734694,215.490519 C123.888131,215.252199 124.008265,214.994488 124.091837,214.724381 C124.170051,214.448643 124.211221,214.163941 124.214286,213.877597 C124.211821,213.591208 124.17064,213.306427 124.091837,213.030812 C124.008265,212.760706 123.888131,212.502994 123.734694,212.264674 C123.124236,211.339185 122.040668,210.829251 120.928571,210.944094 C120.044392,211.036723 119.247818,211.513325 118.755102,212.244512 C118.581493,212.50119 118.450586,212.783664 118.367347,213.081216 C118.334836,213.190105 118.310954,213.30133 118.295918,213.413881 C118.289506,213.497768 118.289506,213.582014 118.295918,213.6659 L118.295918,213.877597 L118.295918,213.938081 Z" id="Shape" fill="#243C4B" fill-rule="nonzero"></path>
                <path d="M166.994669,168 C166.994669,168 168.798963,154.607487 167.57322,153.719645 C166.97241,153.160203 166.180394,152.908944 165.398258,153.02966 C164.616122,153.150377 163.919092,153.631458 163.48414,154.350762 C162.268202,156.190628 162.876171,160.768899 161.52295,160.672627 C160.169729,160.576355 160.307013,157.677496 159.257776,157.966312 C158.20854,158.255129 160.650221,166.44895 161.434697,168 L166.994669,168 Z" id="Shape" fill="#C99B93" fill-rule="nonzero"></path>
                <path d="M92,236.248111 C92,236.248111 94.8996961,249.500132 96.3696809,249.833584 C97.1378286,250.117771 97.983283,250.035237 98.6904988,249.607023 C99.3977147,249.17881 99.8983536,248.446294 100.06478,247.596229 C100.598404,245.391145 98.4135639,241.303671 99.7929332,240.884167 C101.172303,240.464663 101.987842,243.196817 102.893997,242.5084 C103.800152,241.819983 98.6350685,235.129434 97.3463146,234 L92,236.248111 Z" id="Shape" fill="#C99B93" fill-rule="nonzero"></path>
                <path d="M64.195858,311.682365 C64.195858,311.682365 54.9220663,314.790892 49.3557025,301.558928 C49.3557025,301.558928 32.2910903,286.575827 36.7400039,272.079728 C38.9644607,267.520555 44.5308244,269.043733 45.6378311,265.25133 C46.7448377,261.458927 39.5284075,250.060993 43.0478532,243.96828 C46.5672989,237.875567 48.8021992,242.310399 49.1677203,239.916833 C49.5332413,237.523267 52.1441061,211.722491 68.289694,212.002259 C84.4352818,212.282026 73.5114235,236.062259 73.5114235,236.062259 C73.5114235,236.062259 82.597233,244.154792 79.2657695,253.356032 C75.934306,262.557273 66.6500709,274.338591 69.9919778,279.260426 C73.3338847,284.182261 79.0777872,286.617274 77.4068338,292.513114 C75.7358803,298.408954 71.7986962,310.397507 64.195858,311.682365 Z" id="Shape" fill="#01BBAE" fill-rule="nonzero"></path>
                <path d="M61,317 C60.386193,298.331626 53.2727587,280.109219 59.6126281,236" id="Shape" stroke="#247C76" stroke-width="2" stroke-linecap="round" stroke-linejoin="round"></path>
                <path d="M57,267 L69,255" id="Shape" stroke="#247C76" stroke-width="2" stroke-linecap="round" stroke-linejoin="round"></path>
                <path d="M58,292 L48,283" id="Shape" stroke="#247C76" stroke-width="2" stroke-linecap="round" stroke-linejoin="round"></path>
                <g id="Group-20" transform="translate(531.000000, 227.000000)">
                    <path d="M28.1789843,98.9753784 C28.1789843,98.9753784 18.9107424,102.061859 13.3477099,88.9237408 C13.3477099,88.9237408 -3.70669012,74.0469056 0.739561041,59.653619 C2.96268662,55.1267812 8.52571918,56.6391565 9.63206337,52.8736505 C10.7384076,49.1081445 3.52629592,37.79105 7.04363546,31.7415485 C10.560975,25.6920471 12.7945378,30.0954257 13.1598401,27.7188358 C13.5251424,25.342246 16.1344448,-0.275540742 32.2703703,0.00224248722 C48.4062959,0.280025717 37.488975,23.8916002 37.488975,23.8916002 C37.488975,23.8916002 46.5693471,31.9267374 43.2398773,41.0627191 C39.9104076,50.1987009 30.6317285,61.8964614 33.9716355,66.7833885 C37.3115424,71.6703157 43.0520076,74.0880587 41.3820541,79.942083 C39.7121006,85.7961074 35.7772727,97.6996332 28.1789843,98.9753784 Z" id="Shape-Copy" fill="#D0D9DB" fill-rule="nonzero" opacity="0.687890625"></path>
                    <path d="M26.8833244,102.98556 C26.1214081,84.4666783 17.291529,66.3901919 25.1611848,22.6341891" id="Shape-Copy-2" stroke="#BDC7C9" stroke-width="2" stroke-linecap="round" stroke-linejoin="round"></path>
                    <path d="M21.9181395,55.1245387 L33.8061209,42.1818978" id="Shape-Copy-3" stroke="#BDC7C9" stroke-width="2" stroke-linecap="round" stroke-linejoin="round"></path>
                    <path d="M23.9116465,78.1085289 L13.5683721,68.931394" id="Shape-Copy-4" stroke="#BDC7C9" stroke-width="2" stroke-linecap="round" stroke-linejoin="round"></path>
                </g>
                <g id="Group-20-Copy" transform="translate(571.000000, 303.000000) rotate(22.000000) translate(-571.000000, -303.000000) translate(559.000000, 275.000000)">
                    <path d="M15.3795589,53.7546382 C15.3795589,53.7546382 10.321127,55.4309403 7.28492865,48.2954811 C7.28492865,48.2954811 -2.02304166,40.215705 0.403638487,32.3985496 C1.61697856,29.9399732 4.65317695,30.7613612 5.25699877,28.7162727 C5.86082059,26.6711841 1.9245859,20.5247431 3.84428357,17.2391911 C5.76398124,13.953639 6.98301774,16.3451633 7.18239287,15.0544107 C7.381768,13.7636581 8.80587607,-0.149649268 17.6125603,0.00121791996 C26.4192446,0.152085108 20.4607765,12.9757961 20.4607765,12.9757961 C20.4607765,12.9757961 25.4166725,17.3397692 23.5995106,22.3016234 C21.7823488,27.2634775 16.7182205,33.6166625 18.5410788,36.2708074 C20.3639371,38.9249524 23.4969749,40.2380557 22.5855457,43.417442 C21.6741165,46.5968283 19.5265616,53.0617667 15.3795589,53.7546382 Z" id="Shape-Copy" fill="#C2CFD1" fill-rule="nonzero" opacity="0.600000024"></path>
                    <path d="M14.6086957,56 C14.128325,45.9615877 8.56128938,36.1629819 13.5229263,12.4444444" id="Shape-Copy-2" stroke="#BDC7C9" stroke-width="2" stroke-linecap="round" stroke-linejoin="round"></path>
                    <path d="M11.4782609,30.0740741 L17.7391304,22.8148148" id="Shape-Copy-3" stroke="#BDC7C9" stroke-width="2" stroke-linecap="round" stroke-linejoin="round"></path>
                    <path d="M12.5217391,42.5185185 L7.30434783,37.3333333" id="Shape-Copy-4" stroke="#BDC7C9" stroke-width="2" stroke-linecap="round" stroke-linejoin="round"></path>
                </g>
                <path d="M69.6778872,314.798119 C69.6778872,314.798119 75.3801265,316.743558 78.7973154,308.556067 C78.7973154,308.556067 89.2773872,299.265814 86.5457134,290.266857 C85.1746832,287.437127 81.7574943,288.383838 81.0719792,286.032665 C80.3864641,283.681493 84.8319256,276.669588 82.6715144,272.830727 C80.5111032,268.991865 79.140073,271.790385 78.9115679,270.323503 C78.6830629,268.856621 77.0835276,252.804145 67.1747184,253.00181 C57.2659092,253.199475 63.9860345,267.920313 63.9860345,267.920313 C63.9860345,267.920313 58.3980478,272.945164 60.4545931,278.646238 C62.5111384,284.347311 68.2029911,291.660915 66.1568323,294.740327 C64.1106736,297.819739 60.5896188,299.276218 61.628278,302.927818 C62.6669373,306.579418 65.0039206,313.997055 69.6778872,314.798119 Z" id="Shape" fill="#339993" fill-rule="nonzero"></path>
                <path d="M70,320 C70.3068153,308.277927 73.8726909,296.746114 70.6818118,269" id="Shape" stroke="#247C76" stroke-width="2" stroke-linecap="round" stroke-linejoin="round"></path>
                <path d="M73,287 L65,279" id="Shape" stroke="#247C76" stroke-width="2" stroke-linecap="round" stroke-linejoin="round"></path>
                <path d="M73,303 L80,297" id="Shape" stroke="#247C76" stroke-width="2" stroke-linecap="round" stroke-linejoin="round"></path>
                <path d="M282.425325,356.471138 C282.217402,352.969902 282.410254,349.455952 283,346 L275.5,346 C275.5,346 278.324675,357.887763 271,362.226797 C271.00974,362.226797 278.5,366.110133 282.425325,356.471138 Z" id="Shape" fill="#FFB38A" fill-rule="nonzero"></path>
                <path d="M307.425326,356.471138 C307.217404,352.969902 307.410256,349.455952 308,346 L300.500024,346 C300.500024,346 303.32469,357.887763 296.000038,362.226797 C295.980557,362.226797 303.470794,366.110133 307.425326,356.471138 Z" id="Shape" fill="#FFB38A" fill-rule="nonzero"></path>
                <path d="M259.271195,220.495431 C259.271195,220.495431 266.031677,225.472391 272,221.394629 L272,213.343664 C272,213.343664 264.631834,213.343664 262.819634,211.33615 C261.007434,209.328637 255.549132,216.814989 259.271195,220.495431 Z" id="Shape" fill="#FFB38A" fill-rule="nonzero"></path>
                <path d="M274.03404,242 L273,348.460891 C273,348.460891 277.984075,351.923887 282.792363,348.460891 C287.600651,344.997895 292.098726,314.555012 289.162052,277.280583 L295.748889,348.460891 C295.748889,348.460891 304.693338,351.923887 308.788138,348.460891 C308.788138,348.460891 325.611976,267.416291 307.867842,242 L274.03404,242 Z" id="Shape" fill="#339993" fill-rule="nonzero"></path>
                <path d="M294.219657,142.125069 C294.219657,142.125069 309.063236,140.048224 315.40106,152.820817 C319.954751,161.979701 324.342476,166.974512 311.687572,176.081475 C308.326762,178.500998 298.825212,175.375347 298.825212,175.375347 C298.825212,175.375347 294.676063,174.575762 296.024536,175.499958 C296.024536,175.499958 277.260012,169.269425 291.076677,144.347292 L294.219657,142.125069 Z" id="Shape" fill="#000A10" fill-rule="nonzero"></path>
                <path d="M274,254.955668 C274,254.955668 291.066107,264.945584 312,253.523992 L311.371983,251 L274,254.955668 Z" id="Shape" fill="#000A10" fill-rule="nonzero" opacity="0.2"></path>
                <path d="M292.088608,184.117415 C292.088608,184.117415 282.696785,182.175122 277.905039,194.089941 C273.113292,206.004761 269.205357,209.962444 266.053453,211.194652 C266.053453,211.194652 265.169642,223.809114 270.589639,223.809114 C270.589639,223.809114 274.497574,223.433187 275.509165,222.326288 L269.833608,254.050409 C269.833608,254.050409 293.877526,260.086137 313.789895,250.917679 C313.789895,250.917679 309.040742,227.369985 312.725062,219.642582 C316.409383,211.91518 332.030476,184.503785 307.4009,184.1383 C300.106797,183.992106 292.088608,184.117415 292.088608,184.117415 Z" id="Shape" fill="#339993" fill-rule="nonzero"></path>
                <path d="M289.72221,217 C287.932623,218.616333 272.087971,227.803913 268.906482,229.079966 C268.906482,229.079966 255.64679,229.803063 255.301431,232.16376 C255.301431,232.16376 258.755021,231.164185 259.225965,232.55721 C259.696909,233.950234 251.355966,237.087197 253.292069,242 L267.671562,233.9396 C267.671562,233.9396 296.859629,225.283709 295.980534,224.688218 C290.894338,221.189707 289.72221,217 289.72221,217 Z" id="Shape" fill="#FFB38A" fill-rule="nonzero"></path>
                <path d="M306.463045,357.832209 C306.463045,357.832209 302.398264,362.397546 296.493417,361.881288 C296.493417,361.881288 288.374251,361.931902 288,364.988957 C288,364.988957 288,369.513804 306.463045,364.988957 C306.463045,364.988957 308.864488,367.610736 311.442661,365.849387 C311.442661,365.849387 313.844105,356.738957 308.677363,356 L306.463045,357.832209 Z" id="Shape" fill="#000A10" fill-rule="nonzero"></path>
                <path d="M295.496584,146.000198 C294.680807,145.988419 293.950333,146.504442 293.687529,147.278154 C293.248336,148.535161 292.495435,150.619696 291.669335,152.630907 C290.963955,154.688741 289.92143,156.614554 288.58453,158.329336 C288.188599,158.706855 287.976054,159.238142 288.002149,159.78508 C288.028245,160.332018 288.290402,160.840578 288.72047,161.178551 L288.814583,161.241401 C289.342278,161.572491 289.668422,162.147182 289.682511,162.770759 C289.751217,164.349591 289.716285,165.931239 289.577942,167.505483 C289.448302,168.465166 290.061488,169.368471 291.000089,169.600494 C293.091482,170.113771 296.563195,170.490873 299.449317,168.364437 C299.799841,168.107862 300.051051,167.737797 300.160391,167.316932 C300.359073,166.437028 300.71461,164.844819 300.861007,163.587813 C300.934272,162.969114 301.300025,162.423434 301.843962,162.121305 C303.224282,161.367101 305.587556,159.753943 304.866025,157.931284 C304.613308,157.322248 304.055053,156.894844 303.40205,156.810453 L303.077884,156.810453 C302.073547,156.77246 301.269695,155.962642 301.237458,154.956369 C301.153802,151.237724 300.181305,146.073523 295.496584,146.000198 Z" id="Shape" fill="#FFB38A" fill-rule="nonzero"></path>
                <path d="M295.284675,170.396552 C295.284675,170.396552 295.840052,178.3 291.931451,184.724138 C291.931451,184.724138 289.835686,186.006897 291.931451,193 L307,184.724138 C307,184.724138 302.619852,184.724138 303.97162,174.37931 L301.226168,163 L295.284675,170.396552 Z" id="Shape" fill="#FFB38A" fill-rule="nonzero"></path>
                <path d="M289.667482,278.398263 C289.667482,278.398263 289.403423,277.658362 289.012225,276.284258 C287.586278,271.297391 286.578144,266.182039 286,261 C286,261 289.325183,285.311061 290,289" id="Shape" fill="#000A10" fill-rule="nonzero" opacity="0.2"></path>
                <path d="M279.463045,357.832209 C279.463045,357.832209 275.398264,362.397546 269.493417,361.881288 C269.493417,361.881288 261.374251,361.931902 261,364.988957 C261,364.988957 261,369.513804 279.463045,364.988957 C279.463045,364.988957 281.864488,367.610736 284.442661,365.849387 C284.442661,365.849387 286.844105,356.738957 281.677363,356 L279.463045,357.832209 Z" id="Shape" fill="#000A10" fill-rule="nonzero"></path>
                <path d="M294.025163,142.992692 L293,133.631281 C293,133.631281 311.534949,130.045123 315,139.967559 L310.899348,150 C310.899348,150 303.087605,141.562629 294.025163,142.992692 Z" id="Shape" fill="#52C3BD" fill-rule="nonzero"></path>
                <path d="M261,210.976986 C258.815629,210.238022 243.66596,201.226767 241.089007,199.133035 C241.089007,199.133035 234.113113,188.223053 232.029404,189.044124 C232.029404,189.044124 234.505695,191.497074 233.599735,192.564466 C232.693775,193.631859 226.100397,188.069102 223,192.082087 L236.529007,200.395432 C236.529007,200.395432 258.04053,220.92221 257.738543,219.967715 C256.56136,216.561064 257.931977,212.782739 261,210.976986 Z" id="Shape" fill="#FFB38A" fill-rule="nonzero"></path>
                <path d="M289,217 C289,217 294.903399,224.781941 298.602862,224.502907 C298.602862,224.502907 306.218247,224.068854 311,219.469965 L310.350626,221.536882 C310.350626,221.536882 302.587657,226.704173 299.262075,225.918745 C299.281753,225.877406 292.364937,226.104767 289,217 Z" id="Shape" fill="#297C76" fill-rule="nonzero"></path>
                <path d="M304,199 C304,199 301.657996,213.058524 293,216" id="Shape" fill="#297C76" fill-rule="nonzero"></path>
                <path d="M275,222 L276.715076,214.612471 C276.715076,214.612471 273.771784,204.684527 283,200 C283,200 275.818811,208.484988 279.016598,213.890993 L275,222 Z" id="Shape" fill="#297C76" fill-rule="nonzero"></path>
                <rect id="Rectangle-path" fill="#243C4B" fill-rule="nonzero" x="49" y="311" width="33" height="36" rx="3.97"></rect>
                <ellipse id="Oval" fill="#EFEFEF" fill-rule="nonzero" cx="395.5" cy="369.5" rx="34.5" ry="39.5"></ellipse>
                <path d="M394,328 C373.564197,328 357,347.010976 357,370.5 C357,393.989024 373.564197,413 394,413 C414.435803,413 431,393.989024 431,370.5 C431,347.010976 414.435803,328 394,328 Z M390.526018,407.578659 C372.66431,405.940854 359.741516,387.987195 361.656391,367.493902 C363.571267,347.00061 379.612274,331.710976 397.473982,333.34878 C415.33569,334.986585 428.258484,352.940244 426.343609,373.433537 C424.428733,393.926829 408.387726,409.216463 390.526018,407.578659 Z" id="Shape" fill="#243C4B" fill-rule="nonzero"></path>
                <circle id="Oval" fill="#243C4B" fill-rule="nonzero" cx="393.5" cy="368.5" r="10.5"></circle>
                <path d="M444,354.683112 L452.237617,383.716399 C452.237617,383.716399 452.862168,385.322496 456.361809,384.941563 L459,382.655963 L456.006461,349 L444,354.683112 Z" id="Shape" fill="#FFB38A" fill-rule="nonzero"></path>
                <rect id="Rectangle-path" fill="#3C4E51" fill-rule="nonzero" x="367" y="274" width="28" height="57"></rect>
                <rect id="Rectangle-path" fill="#3C4E51" fill-rule="nonzero" x="365" y="328" width="58" height="12"></rect>
                <path d="M407,256 C407,256 419.638984,299.174795 420.562286,305.369171 L428,308.466358 L422.142159,314 L411.329262,306.855821 L407,256 Z" id="Shape" fill="#FFB38A" fill-rule="nonzero"></path>
                <path d="M400.46608,249 C400.46608,249 410.553125,257.910051 412.270961,259.888923 C413.988796,261.867796 418.555724,293.724561 416.460803,305.925897 L415.528563,315 L384,315 L393.228128,259.571073 L396.600951,254.505981 L400.46608,249 Z" id="Shape" fill="#01BBAE" fill-rule="nonzero"></path>
                <polygon id="Shape" fill="#FFB38A" fill-rule="nonzero" points="398 242.171991 399.204301 254.049521 413 261 411.096774 249.780085 408.247312 242"></polygon>
                <path d="M406.910909,225.196686 C406.910909,225.196686 412.44344,220.845507 405.50168,215.830589 C398.559919,210.81567 385,230.148391 385,230.148391 C385,230.148391 387.244328,236.796318 395.82497,241 L406.910909,225.196686 Z" id="Shape" fill="#000A10" fill-rule="nonzero"></path>
                <path d="M411.268869,232.458378 C412.764679,236.080866 413.82722,240.489951 412.135407,243.65704 C408.751782,249.970519 396.909093,241.524948 396.909093,241.524948 L397.27015,239.517054 C397.27015,239.517054 394.742747,240.935 394,237.198662 C394,237.198662 395.918763,234.321372 397.507417,236.225765 C397.507417,236.225765 394.949066,230.792034 397.909738,229.860537 C400.87041,228.92904 405.038046,229.591438 407.864612,226 C409.192449,228.04463 410.331908,230.206353 411.268869,232.458378" id="Shape" fill="#FFB38A" fill-rule="nonzero"></path>
                <path d="M395.423036,273 L393.485429,274.331389 C393.485429,274.331389 375.659446,279.326677 375.006778,293.940992 C374.354111,308.555306 421.050436,316.110164 421.050436,316.110164 C421.050436,316.110164 430.075605,315.645726 437,319 C437,319 434.430121,311.465784 430.881242,310.80525 C428.255725,310.448466 425.590582,310.521647 422.988043,311.021988 L399.084093,299.080772 C399.084093,299.080772 389.24309,292.960512 392.751178,288.089073 L395.423036,273 Z" id="Shape" fill="#FFB38A" fill-rule="nonzero"></path>
                <path d="M453,354.683112 L461.237617,383.716399 C461.237617,383.716399 461.862168,385.322496 465.361809,384.941563 L468,382.655963 L463.961953,349 L453,354.683112 Z" id="Shape" fill="#FFB38A" fill-rule="nonzero"></path>
                <path d="M461,383.003146 C461,383.003146 461.465882,389.557036 463.501586,389.690788 C465.192941,389.824541 475.1689,390.770365 480.32399,388.50612 C480.78941,388.315234 481.061538,387.853862 480.988108,387.38016 C480.914678,386.906458 480.513901,386.537905 480.010026,386.48072 C476.232328,386.031693 469.608696,384.856579 467.360307,382 L461,383.003146 Z" id="Shape" fill="#FFB38A" fill-rule="nonzero"></path>
                <path d="M392,316.171262 C392,316.171262 394.914964,338.365538 415.810766,339.039048 C436.706569,339.712559 449.055988,340.438687 449.055988,340.438687 C449.055988,340.438687 451.970952,360.528243 452.869471,368 L465.406953,368 C465.406953,368 469.45029,334.324475 456.421758,324.221817 C443.393225,314.11916 423.406391,316.171262 423.406391,316.171262 L392,316.171262 Z" id="Shape" fill="#01BBAE" fill-rule="nonzero"></path>
                <path d="M385,316.171262 C385,316.171262 387.914964,338.365538 408.810766,339.039048 C429.706569,339.712559 442.055988,340.438687 442.055988,340.438687 C442.055988,340.438687 444.970952,360.528243 445.869471,368 L458.406953,368 C458.406953,368 462.45029,334.324475 449.421758,324.221817 C436.393225,314.11916 416.406391,316.171262 416.406391,316.171262 L385,316.171262 Z" id="Shape" fill="#000A10" fill-rule="nonzero" opacity="0.2"></path>
                <rect id="Rectangle-path" fill="#243C4B" fill-rule="nonzero" transform="translate(359.000000, 274.500000) rotate(-90.000000) translate(-359.000000, -274.500000) " x="357" y="266" width="4" height="17" rx="2"></rect>
                <rect id="Rectangle-path" fill="#243C4B" fill-rule="nonzero" x="333" y="269" width="26" height="10" rx="4.92"></rect>
                <path d="M384,316.171262 C384,316.171262 386.914964,338.365538 407.810766,339.039048 C428.706569,339.712559 441.055988,340.438687 441.055988,340.438687 C441.055988,340.438687 443.970952,360.528243 444.869471,368 L457.406953,368 C457.406953,368 461.45029,334.324475 448.421758,324.221817 C435.393225,314.11916 415.406391,316.171262 415.406391,316.171262 L384,316.171262 Z" id="Shape" fill="#01BBAE" fill-rule="nonzero"></path>
                <circle id="Oval" fill="#EFEFEF" fill-rule="nonzero" cx="413.5" cy="398.5" r="10.5"></circle>
                <path d="M415.00019,413 C409.742258,413 405.002055,409.832698 402.989932,404.975002 C400.977808,400.117306 402.090017,394.525856 405.807936,390.807936 C409.525856,387.090017 415.117306,385.977808 419.975002,387.989932 C424.832698,390.002055 428,394.742258 428,400.00019 C427.994177,407.177373 422.177373,412.994177 415.00019,413 Z M415.00019,391.435734 C410.264339,391.435734 406.425173,395.274899 406.425173,400.01075 C406.425173,404.746601 410.264339,408.585767 415.00019,408.585767 C419.736041,408.585767 423.575207,404.746601 423.575207,400.01075 C423.57521,395.273188 419.737749,391.431 415.00019,391.425173 L415.00019,391.435734 Z" id="Shape" fill="#243C4B" fill-rule="nonzero"></path>
                <path d="M412.808046,401 C411.591672,401 410.605605,400.032994 410.605605,398.840132 L410.605605,319.233576 C410.605605,313.864762 409.074384,309.678732 406.053892,306.798909 C401.219009,302.180906 394.150221,302.314612 394.087294,302.314612 L364.354334,302.314612 C363.533118,302.370285 362.748788,301.972206 362.320909,301.282565 C361.89303,300.592924 361.89303,299.726849 362.320909,299.037208 C362.748788,298.347567 363.533118,297.949488 364.354334,298.005161 L394.013879,298.005161 C394.727051,298.005161 403.117304,298.005161 409.126823,303.703098 C413.02829,307.426299 415,312.651122 415,319.233576 L415,398.840132 C415.000014,400.028989 414.020323,400.994339 412.808046,401 Z" id="Shape" fill="#243C4B" fill-rule="nonzero"></path>
                <ellipse id="Oval" fill="#EFEFEF" fill-rule="nonzero" cx="366.5" cy="373.5" rx="34.5" ry="39.5"></ellipse>
                <path d="M366,329 C345.564197,329 329,348.010976 329,371.5 C329,394.989024 345.564197,414 366,414 C386.435803,414 403,394.989024 403,371.5 C403,348.010976 386.414876,329 366,329 Z M366,408.734146 C348.065045,408.734146 333.562217,392.045122 333.562217,371.417073 C333.562217,350.789024 348.1069,334.1 366,334.1 C383.8931,334.1 398.437783,350.789024 398.437783,371.417073 C398.437783,392.045122 383.914027,408.734146 366,408.734146 Z" id="Shape" fill="#243C4B" fill-rule="nonzero"></path>
                <circle id="Oval" fill="#243C4B" fill-rule="nonzero" cx="364.5" cy="370.5" r="10.5"></circle>
                <rect id="Rectangle-path" fill="#243C4B" fill-rule="nonzero" x="362" y="273" width="4" height="98" rx="2"></rect>
                <path d="M459.705295,384 C459.705295,384 459.629636,385.603152 466.482202,386.068584 C473.334767,386.534015 475.334333,389.854092 474.956037,391.291757 C474.956037,391.291757 472.870003,392.79148 464.569104,391.426215 C456.268204,390.06095 459.705295,384 459.705295,384 Z" id="Shape" fill="#000A10" fill-rule="nonzero" opacity="0.2"></path>
                <path d="M355.617204,410.683424 C353.388117,412.31406 328.441097,408.392276 328.003612,413.294506 C327.566128,418.196736 366.991795,419.77577 377.928903,417.887121 C388.86601,415.998473 390.428454,417.546545 409.969418,418.661157 C429.510383,419.77577 448.98885,418.062569 455.926101,414.66713 C462.863352,411.271691 480.508552,414.047901 485.664617,413.294506 C490.820681,412.541111 522.121641,414.677451 525.371524,413.294506 C528.621407,411.911561 532.15253,412.7372 531.975453,409.96099 C531.798376,407.18478 532.829589,407.607919 529.621371,406.947409 C503.726468,401.673641 475.050414,409.011505 458.988491,406.947409 C426.041758,402.819215 423.573097,411.385216 413.219302,410.043554 C402.865507,408.701891 358.585847,408.516122 355.617204,410.683424 Z" id="Shape" fill="#000A10" fill-rule="nonzero" opacity="0.16875"></path>
                <path d="M470.934888,397 L432.157139,397 L410.636718,374.824097 C409.787761,373.949282 409.787761,372.530927 410.636718,371.656111 C411.485675,370.781296 412.862106,370.781296 413.711064,371.656111 L434.001746,392.564819 L470.996375,392.564819 C472.124621,392.645191 473,393.611743 473,394.77713 C473,395.942516 472.124621,396.909069 470.996375,396.98944 L470.934888,397 Z" id="Shape" fill="#243C4B" fill-rule="nonzero"></path>
                <circle id="Oval" fill="#EFEFEF" fill-rule="nonzero" cx="441.5" cy="398.5" r="10.5"></circle>
                <path d="M443.00019,413 C437.742258,413 433.002055,409.832698 430.989932,404.975002 C428.977808,400.117306 430.090017,394.525856 433.807936,390.807936 C437.525856,387.090017 443.117306,385.977808 447.975002,387.989932 C452.832698,390.002055 456,394.742258 456,400.00019 C455.994177,407.177373 450.177373,412.994177 443.00019,413 Z M443.00019,391.435734 C438.264339,391.435734 434.425173,395.274899 434.425173,400.01075 C434.425173,404.746601 438.264339,408.585767 443.00019,408.585767 C447.736041,408.585767 451.575207,404.746601 451.575207,400.01075 C451.57521,395.273188 447.737749,391.431 443.00019,391.425173 L443.00019,391.435734 Z" id="Shape" fill="#243C4B" fill-rule="nonzero"></path>
                <path d="M452,383.003146 C452,383.003146 452.465882,389.557036 454.501586,389.690788 C456.192941,389.824541 466.1689,390.770365 471.32399,388.50612 C471.78941,388.315234 472.061538,387.853862 471.988108,387.38016 C471.914678,386.906458 471.513901,386.537905 471.010026,386.48072 C467.232328,386.031693 460.608696,384.856579 458.360307,382 L452,383.003146 Z" id="Shape" fill="#FFB38A" fill-rule="nonzero"></path>
                <path d="M441.789837,399.999902 C440.580713,399.999902 439.600524,399.030865 439.600524,397.835497 L439.600524,359.278177 C439.600524,353.898085 438.078431,349.703263 435.075945,346.81739 C430.269883,342.189687 423.253657,342.323674 423.18068,342.323674 L364.3403,342.323674 C363.523979,342.379465 362.744325,341.980549 362.318996,341.28946 C361.893668,340.598371 361.893668,339.730476 362.318996,339.039387 C362.744325,338.348297 363.523979,337.949382 364.3403,338.005172 L423.138979,338.005172 C423.837474,338.005172 432.188138,338.005172 438.161833,343.715077 C442.040044,347.446098 444,352.681896 444,359.278177 L444,397.835497 C444.000026,398.413122 443.766507,398.966794 443.351411,399.373297 C442.936315,399.779799 442.374083,400.005403 441.789837,399.999902 Z" id="Shape" fill="#243C4B" fill-rule="nonzero"></path>
                <path d="M376,285.183463 L393.699554,290 L397,254 C397,254 380.98711,272.697674 376,285.183463 Z" id="Shape" fill="#01BBAE" fill-rule="nonzero"></path>
                <polygon id="Shape" fill="#000A10" fill-rule="nonzero" opacity="0.2" points="458 367 456.911917 375 456 367"></polygon>
                <path d="M483.183828,187.167084 C483.183828,187.167084 472.823483,187.435835 476.986401,196.883471 C481.149319,206.331106 486.470342,208.615491 484.905335,215.768405 C483.340329,222.921319 485.030536,225.681186 486.71031,226.838884 C487.252845,227.211 487.565847,227.376386 492.803403,229.371346 C493.84674,229.753799 493.356372,217.815048 494.483176,218.249184 C496.788953,219.127794 505.646891,212.79147 508.662137,217.411921 C510.279311,219.882364 506.16856,234.425934 507.535333,234.98411 C515.996802,238.147104 523.696635,241 523.696635,241 C523.696635,241 540.129206,221.525881 523.696635,207.92294 C514.306595,200.170504 517.154907,191.38441 508.265669,184.551929 C500.409335,178.432673 486.960711,177.719449 483.183828,187.167084 Z" id="Shape" fill="#000A10" fill-rule="nonzero"></path>
                <path d="M481.203816,404.363833 C481.203816,404.363833 476.208153,404.731268 476,409 L489.40503,409 L495.64961,403.25072 L495.64961,409 L498.688638,409 C498.688638,409 498.261925,401.856628 500,399.403458 L497.543799,394 C493.183001,403.153458 481.203816,404.363833 481.203816,404.363833 Z" id="Shape" fill="#243C4B" fill-rule="nonzero"></path>
                <path d="M509.203816,404.363833 C509.203816,404.363833 504.208153,404.731268 504,409 L517.40503,409 L523.64961,403.25072 L523.64961,409 L526.688638,409 C526.688638,409 526.261925,401.856628 528,399.403458 L525.543799,394 C521.172593,403.153458 509.203816,404.363833 509.203816,404.363833 Z" id="Shape" fill="#243C4B" fill-rule="nonzero"></path>
                <polygon id="Shape" fill="#FFFFFF" fill-rule="nonzero" points="493.439527 216.757097 491 287 511 287 507.531137 211 501.005147 216.19928 497.505404 215.999308"></polygon>
                <path d="M518.682333,394.182345 C518.682333,394.182345 519.887245,402.942449 509,405.522111 C509,405.522111 511.764844,409.767806 521.188981,403.866828 C521.188981,403.866828 526.761702,399.481402 525.911808,393 L518.682333,394.182345 Z" id="Shape" fill="#FFB38A" fill-rule="nonzero"></path>
                <path d="M485,278 C485,278 491.990047,389.6956 491.155415,393.187722 C494.107927,397.265348 500.012952,393.187722 500.012952,393.187722 C500.012952,393.187722 505.740617,339.812636 503.069793,313.078044 C501.160571,293.955021 516.173523,389.538769 517.477636,393.187722 C520.97266,395.341545 525.260584,393.187722 525.260584,393.187722 C525.260584,393.187722 535.109248,290.556999 522.84015,281.314378 C489.746972,286.531649 485,278 485,278 Z" id="Shape" fill="#339993" fill-rule="nonzero"></path>
                <path d="M501.880783,312.542222 C501.880783,312.542222 498.346836,296.665185 498.048792,294 C497.716561,301.313374 499.086136,308.592435 502,315 L501.880783,312.542222 Z" id="Shape" fill="#000A10" fill-rule="nonzero" opacity="0.2"></path>
                <path d="M491.677276,393 C491.677276,393 492.881559,401.201285 482,403.616388 C482,403.616388 484.7634,407.591244 494.182615,402.066697 C497.528116,400.699028 499.467257,397.391919 498.902975,394.016356 L491.677276,393 Z" id="Shape" fill="#FFB38A" fill-rule="nonzero"></path>
                <path d="M483,193.336575 C483,193.336575 485.338907,200.412571 484.048837,202.707216 C483.335628,204.011221 486.209442,202.707216 486.209442,202.707216 C486.209442,202.707216 487.562442,207.134768 489.723046,207.913127 C491.883651,208.691487 498.627674,204.011221 498.627674,202.970038 C498.627674,201.928856 499.613581,198.198795 498.627674,196.460122 C498.627674,196.460122 501.396604,195.590785 499.068186,192.295393 C499.068186,192.295393 488.275651,196.288276 484.678139,189 C484.709605,189 484.709605,192.992884 483,193.336575 Z" id="Shape" fill="#FFB38A" fill-rule="nonzero"></path>
                <path d="M494,205.293623 C494,205.293623 496.259082,213.776454 495.886223,215.037842 C495.886223,215.037842 497.388622,219.452698 501.906785,215.037842 L510,208.993693 L498.046607,197 L494,205.293623 Z" id="Shape" fill="#FFB38A" fill-rule="nonzero"></path>
                <path d="M507.878759,208 C506.176379,209.360048 504.88762,211.165928 504.156955,213.215199 L496,253.895815 L496,291 L529,291 C529,291 520.843045,244.619769 520.843045,243.42419 C520.843045,242.22861 521.556391,220.357755 516.583647,215.596051 C511.610902,210.834347 507.878759,208 507.878759,208 Z" id="Shape" fill="#243C4B" fill-rule="nonzero"></path>
                <path d="M482.184652,242.596366 C482.184652,242.596366 477.645959,254.031938 472,256.459251 L473.677343,261 C473.677343,261 487.238607,256.74174 488.751505,251.792952 C489.310619,250.296806 488.751505,242 488.751505,242 L482.184652,242.596366 Z" id="Shape" fill="#FFB38A" fill-rule="nonzero"></path>
                <path d="M494.127459,217 C494.127459,217 488.994867,218.983704 488.142857,222.583759 C487.290847,226.183814 484.447391,234.286563 485.853721,241.854026 C487.260051,249.421489 486.664671,273.341389 485.463644,277.87557 C484.262618,282.40975 483,288.371358 483,288.371358 L493.419162,293 L495,249.232565 L494.127459,217 Z" id="Shape" fill="#243C4B" fill-rule="nonzero"></path>
                <path d="M487,224 C487,224 478,241.592453 478,243.018868 L487,252 L487,224 Z" id="Shape" fill="#243C4B" fill-rule="nonzero"></path>
                <path d="M474.598835,268.999906 L456.679223,268.999906 C455.364678,268.999906 454.299029,267.970101 454.299029,266.699773 L450,242.300132 C450,241.029804 451.065649,240 452.380194,240 L470.299806,240 C471.614351,240 472.68,241.029804 472.68,242.300132 L477,266.740304 C476.97703,268.002704 475.905325,269.011225 474.598835,268.999906 Z" id="Shape" fill="#243C4B" fill-rule="nonzero"></path>
                <path d="M451.273517,261.70313 C451.273517,261.70313 447.965662,256.954415 452.012164,248 C452.012164,248 455.68399,248.095826 456.786609,254.260638 C457.889227,260.425449 454.410091,264.812154 453.393113,264.993159 C452.376135,265.174164 451.273517,261.70313 451.273517,261.70313 Z" id="Shape" fill="#FFB38A" fill-rule="nonzero"></path>
                <path d="M517,249.144168 L510.212716,243 C510.212716,243 501.184149,249.070773 500.972707,249.290957 C497.85394,251.157274 490.094023,256.284404 486.573516,256.840105 C486.573516,256.840105 475.758265,254.145478 474.764488,256.598952 L474.954786,258.224115 C475.145084,259.849279 465.112167,261.201835 466.063656,267 L483.983353,261.757536 C483.983353,261.757536 515.995651,257.049803 517,249.144168 Z" id="Shape" fill="#FFB38A" fill-rule="nonzero"></path>
                <polygon id="Shape" fill="#243C4B" fill-rule="nonzero" points="495.951899 215 494 217.483829 495.739241 223 497 216.73868"></polygon>
                <polygon id="Shape" fill="#243C4B" fill-rule="nonzero" points="496 216.098093 497.994778 224 508 208"></polygon>
            </g>
        </g>
    </g>
</svg>