<?xml version="1.0" encoding="UTF-8"?>
<svg width="14px" height="17px" viewBox="0 0 14 17" version="1.1" xmlns="http://www.w3.org/2000/svg" xmlns:xlink="http://www.w3.org/1999/xlink">
    <!-- Generator: Sketch 50.2 (55047) - http://www.bohemiancoding.com/sketch -->
    <title>Shape</title>
    <desc>Created with Sketch.</desc>
    <defs></defs>
    <g id="Page-1" stroke="none" stroke-width="1" fill="none" fill-rule="evenodd">
        <g id="Doctor---Dashboard-Hover" transform="translate(-1119.000000, -111.000000)" fill="#26C4BA" fill-rule="nonzero">
            <g id="Group-9" transform="translate(1103.000000, 56.000000)">
                <g id="Group-8" transform="translate(16.000000, 22.000000)">
                    <path d="M8.98666667,37.172381 L8.98666667,33.1925714 L13.2232381,37.4291429 L13.2874286,37.4933333 L9.30761905,37.4933333 C9.11504762,37.4933333 8.98666667,37.3649524 8.98666667,37.172381 Z M13.48,38.1352381 L13.48,48.0847619 C13.48,48.5982857 13.0306667,49.047619 12.5171429,49.047619 L0.962857143,49.047619 C0.449333333,49.047619 0,48.5982857 0,48.0847619 L0,33.9628571 C0,33.4493333 0.449333333,33 0.962857143,33 L8.3447619,33 L8.3447619,37.172381 C8.3447619,37.6859048 8.79409524,38.1352381 9.30761905,38.1352381 L13.48,38.1352381 Z M3.20952381,40.3819048 C3.20952381,40.5744762 3.33790476,40.7028571 3.53047619,40.7028571 L7.38190476,40.7028571 C7.57447619,40.7028571 7.70285714,40.5744762 7.70285714,40.3819048 C7.70285714,40.1893333 7.57447619,40.0609524 7.38190476,40.0609524 L3.53047619,40.0609524 C3.33790476,40.0609524 3.20952381,40.1893333 3.20952381,40.3819048 Z M10.2704762,45.5171429 C10.2704762,45.3245714 10.1420952,45.1961905 9.94952381,45.1961905 L3.53047619,45.1961905 C3.33790476,45.1961905 3.20952381,45.3245714 3.20952381,45.5171429 C3.20952381,45.7097143 3.33790476,45.8380952 3.53047619,45.8380952 L9.94952381,45.8380952 C10.1420952,45.8380952 10.2704762,45.7097143 10.2704762,45.5171429 Z M10.2704762,42.9495238 C10.2704762,42.7569524 10.1420952,42.6285714 9.94952381,42.6285714 L3.53047619,42.6285714 C3.33790476,42.6285714 3.20952381,42.7569524 3.20952381,42.9495238 C3.20952381,43.1420952 3.33790476,43.2704762 3.53047619,43.2704762 L9.94952381,43.2704762 C10.1420952,43.2704762 10.2704762,43.1420952 10.2704762,42.9495238 Z" id="Shape"></path>
                </g>
            </g>
        </g>
    </g>
</svg>