<?xml version="1.0" encoding="UTF-8"?>
<svg width="21px" height="16px" viewBox="0 0 21 16" version="1.1" xmlns="http://www.w3.org/2000/svg" xmlns:xlink="http://www.w3.org/1999/xlink">
    <!-- Generator: Sketch 50.2 (55047) - http://www.bohemiancoding.com/sketch -->
    <title>Shape</title>
    <desc>Created with Sketch.</desc>
    <defs></defs>
    <g id="Symbols" stroke="none" stroke-width="1" fill="none" fill-rule="evenodd">
        <g id="icons/email" transform="translate(-7.000000, -9.000000)" fill="#01BBAE" fill-rule="nonzero">
            <path d="M28,10.26 L28,11.352 L18.172,17.232 C17.752,17.484 17.248,17.484 16.912,17.232 L7.084,11.352 L7.084,10.26 C7.084,9.588 7.672,9 8.344,9 L26.824,9 C27.412,9 28,9.588 28,10.26 Z M17.5,18.24 C17.164,18.24 16.744,18.156 16.408,17.904 L7,12.276 L7,23.616 C7,24.288 7.588,24.876 8.26,24.876 L26.74,24.876 C27.412,24.876 28,24.288 28,23.616 L28,12.36 L18.592,17.988 C18.256,18.156 17.836,18.24 17.5,18.24 Z" id="Shape"></path>
        </g>
    </g>
</svg>