<?xml version="1.0" encoding="UTF-8"?>
<svg width="76px" height="68px" viewBox="0 0 76 68" version="1.1" xmlns="http://www.w3.org/2000/svg" xmlns:xlink="http://www.w3.org/1999/xlink">
    <!-- Generator: Sketch 50.2 (55047) - http://www.bohemiancoding.com/sketch -->
    <title>Shape</title>
    <desc>Created with Sketch.</desc>
    <defs></defs>
    <g id="Page-1" stroke="none" stroke-width="1" fill="none" fill-rule="evenodd">
        <g id="00_Desktop_1_Homepage-(1)" transform="translate(-1149.000000, -147.000000)" fill="#F4F4F4" fill-rule="nonzero">
            <g id="Medicines" transform="translate(976.000000, 93.000000)">
                <g id="Shape">
                    <path d="M191,64.5 L191,69 L179,69 L179,64.5 C179,62.1 181.1,60 183.5,60 L186.5,60 C188.9,60 191,62.1 191,64.5 Z M176,72 C174.2,72 173,73.2210526 173,75.0526316 L173,85.7368421 C173,86.6526316 173.6,87.2631579 174.5,87.2631579 C175.4,87.2631579 176,86.6526316 176,85.7368421 L176,75.0526316 L179,75.0526316 L179,125.421053 C179,127.863158 181.1,130 183.5,130 L186.5,130 C188.9,130 191,127.863158 191,125.421053 L191,72 L179,72 L176,72 Z M244.411765,60 L239.823529,60 L239.823529,55.5 C239.823529,54.6 239.211765,54 238.294118,54 C237.376471,54 236.764706,54.6 236.764706,55.5 L236.764706,60 L224.529412,60 L224.529412,55.5 C224.529412,54.6 223.917647,54 223,54 C222.082353,54 221.470588,54.6 221.470588,55.5 L221.470588,60 L209.235294,60 L209.235294,55.5 C209.235294,54.6 208.623529,54 207.705882,54 C206.788235,54 206.176471,54.6 206.176471,55.5 L206.176471,60 L201.588235,60 C199.141176,60 197,62.1 197,64.5 L197,69 L249,69 L249,64.5 C249,62.1 246.858824,60 244.411765,60 Z M197,72 L249,72 L249,125.421053 C249,127.863158 246.858824,130 244.411765,130 L201.588235,130 C199.141176,130 197,127.863158 197,125.421053 L197,72 Z M213,100.5 C213,101.4 213.6,102 214.5,102 L219,102 L219,106.5 C219,107.4 219.6,108 220.5,108 L226.5,108 C227.4,108 228,107.4 228,106.5 L228,102 L232.5,102 C233.4,102 234,101.4 234,100.5 L234,94.5 C234,93.6 233.4,93 232.5,93 L228,93 L228,88.5 C228,87.6 227.4,87 226.5,87 L220.5,87 C219.6,87 219,87.6 219,88.5 L219,93 L214.5,93 C213.6,93 213,93.6 213,94.5 L213,100.5 Z"></path>
                </g>
            </g>
        </g>
    </g>
</svg>