<?xml version="1.0" encoding="UTF-8"?>
<svg width="140px" height="136px" viewBox="0 0 140 136" version="1.1" xmlns="http://www.w3.org/2000/svg" xmlns:xlink="http://www.w3.org/1999/xlink">
    <!-- Generator: Sketch 50.2 (55047) - http://www.bohemiancoding.com/sketch -->
    <title>ic_doctor Big</title>
    <desc>Created with Sketch.</desc>
    <defs></defs>
    <g id="Page-1" stroke="none" stroke-width="1" fill="none" fill-rule="evenodd">
        <g id="00_Desktop_2.1_Hospital-Appointment-Empty" transform="translate(-808.000000, -290.000000)">
            <g id="doctor" transform="translate(508.000000, 157.000000)">
                <g id="ic_doctor-Big" transform="translate(300.000000, 135.000000)">
                    <circle id="Oval-4" fill="#337EC7" opacity="0.100000001" cx="66" cy="68" r="66"></circle>
                    <path d="M72,132 C108.450793,132 138,102.450793 138,66 C138,29.5492065 108.450793,0 72,0 C35.5492065,0 6,29.5492065 6,66 C6,102.450793 35.5492065,132 72,132 Z" id="Oval" stroke="#1F605B" stroke-width="3" stroke-linecap="round" stroke-dasharray="8"></path>
                    <g id="thin-0726_doctor_surgery_hospital" transform="translate(51.000000, 41.000000)" stroke="#1F605B" stroke-linecap="round" stroke-linejoin="round" stroke-width="3">
                        <g id="Group">
                            <path d="M1.12608,22.420069 C1.12608,24.6947119 1.51176,28.3331976 2.22024,30.3723619 C0.99576,30.9104976 0.14136,32.1149976 0.14136,33.5177333 C0.14136,35.4211262 1.7124,36.9643476 3.65064,36.9643476 C3.67128,36.9643476 3.69144,36.961519 3.71208,36.9612833 C4.43856,46.0435905 14.95056,53.7099619 21.6012,53.7099619 C28.42752,53.7099619 38.76408,46.0433548 39.49032,36.9612833 C39.51096,36.961519 39.53088,36.9643476 39.552,36.9643476 C41.49,36.9643476 43.06104,35.4211262 43.06104,33.5177333 C43.06104,32.1152333 42.2064,30.9104976 40.98216,30.3723619 C41.69064,28.3334333 41.91504,24.6949476 41.91504,22.420069" id="Shape"></path>
                            <path d="M7.722,24.0905762 L7.05312,31.7100405 C7.05312,31.7100405 5.13792,29.1112905 2.22024,30.3723619" id="Shape"></path>
                            <path d="M35.41608,24.1457333 L36.216,31.7100405 C36.216,31.7100405 38.1312,29.1112905 41.04888,30.3723619" id="Shape"></path>
                            <path d="M28.36464,25.1696762 C32.61672,24.7607119 37.35552,23.9144976 41.91528,22.420069 L39.24936,9.7605619 C39.24936,9.7605619 38.0556,0.0380547619 21.5208,0.0382904762 C6.05712,0.0380547619 3.792,9.7605619 3.792,9.7605619 L1.12608,22.420069 C1.12608,22.420069 6.47016,24.2836262 14.5572,25.1034405" id="Shape"></path>
                            <ellipse id="Oval" cx="21.52056" cy="19.1914905" rx="8.89512" ry="8.73627857"></ellipse>
                            <ellipse id="Oval" cx="21.52056" cy="19.1914905" rx="2.8464" ry="2.79557143"></ellipse>
                            <path d="M4.09728,39.2083476 L17.82528,37.3172119 C20.19888,36.9902762 22.63344,36.9867405 25.00848,37.3070762 L39.11016,39.2083476" id="Shape"></path>
                        </g>
                    </g>
                </g>
            </g>
        </g>
    </g>
</svg>