<?xml version="1.0" encoding="UTF-8"?>
<svg width="281px" height="281px" viewBox="0 0 281 281" version="1.1" xmlns="http://www.w3.org/2000/svg" xmlns:xlink="http://www.w3.org/1999/xlink">
    <!-- Generator: Sketch 50.2 (55047) - http://www.bohemiancoding.com/sketch -->
    <title>Onboarding 1</title>
    <desc>Created with Sketch.</desc>
    <defs>
        <circle id="path-1" cx="140.5" cy="140.5" r="140.5"></circle>
    </defs>
    <g id="Page-1" stroke="none" stroke-width="1" fill="none" fill-rule="evenodd">
        <g id="Onboarding-1" transform="translate(-499.000000, -189.000000)">
            <g transform="translate(499.000000, 189.000000)">
                <mask id="mask-2" fill="white">
                    <use xlink:href="#path-1"></use>
                </mask>
                <use id="Oval-4" fill="#DEEAEC" xlink:href="#path-1"></use>
                <g id="Group-19" mask="url(#mask-2)" fill-rule="nonzero">
                    <g transform="translate(30.000000, 68.000000)">
                        <path d="M46.1213483,6.00898876 L46.1213483,23.7292135 L182.621348,23.7292135 L182.621348,6.00898876 L46.1213483,6.00898876 Z M65.1550562,17.9955056 C63.0917452,17.9955056 61.4191011,16.3228616 61.4191011,14.2595506 C61.4191011,12.1962396 63.0917452,10.5235955 65.1550562,10.5235955 C67.2183672,10.5235955 68.8910112,12.1962396 68.8910112,14.2595506 C68.8910112,15.2503874 68.4974028,16.2006422 67.7967753,16.9012697 C67.0961479,17.6018972 66.1458931,17.9955056 65.1550562,17.9955056 Z M89.1910112,17.9955056 C87.1277002,17.9955056 85.4550562,16.3228616 85.4550562,14.2595506 C85.4550562,12.1962396 87.1277002,10.5235955 89.1910112,10.5235955 C91.2543222,10.5235955 92.9269663,12.1962396 92.9269663,14.2595506 C92.9269663,15.2503874 92.5333579,16.2006422 91.8327304,16.9012697 C91.1321029,17.6018972 90.1818481,17.9955056 89.1910112,17.9955056 Z M113.997753,17.9955056 C111.934442,17.9955056 110.261798,16.3228616 110.261798,14.2595506 C110.261798,12.1962396 111.934442,10.5235955 113.997753,10.5235955 C116.061064,10.5235955 117.733708,12.1962396 117.733708,14.2595506 C117.733708,15.2503874 117.340099,16.2006422 116.639472,16.9012697 C115.938844,17.6018972 114.98859,17.9955056 113.997753,17.9955056 Z M138.033708,17.9955056 C135.970397,17.9955056 134.297753,16.3228616 134.297753,14.2595506 C134.297753,12.1962396 135.970397,10.5235955 138.033708,10.5235955 C140.097019,10.5235955 141.769663,12.1962396 141.769663,14.2595506 C141.769663,15.2503874 141.376055,16.2006422 140.675427,16.9012697 C139.9748,17.6018972 139.024545,17.9955056 138.033708,17.9955056 Z M162.329213,17.9955056 C160.265902,17.9955056 158.593258,16.3228616 158.593258,14.2595506 C158.593258,12.1962396 160.265902,10.5235955 162.329213,10.5235955 C164.392524,10.5235955 166.065169,12.1962396 166.065169,14.2595506 C166.065169,16.3228616 164.392524,17.9955056 162.329213,17.9955056 Z" id="Shape" fill="#01BBAE"></path>
                        <rect id="Rectangle-path" fill="#FFFFFF" x="46.1213483" y="23.7292135" width="136.5" height="86.2966292"></rect>
                        <rect id="Rectangle-path" fill="#E0DFDE" x="54.6078652" y="32.4044944" width="13.7719101" height="13.7719101"></rect>
                        <rect id="Rectangle-path" fill="#E0DFDE" x="75.7573034" y="32.4044944" width="13.7719101" height="13.7719101"></rect>
                        <rect id="Rectangle-path" fill="#E0DFDE" x="96.9067416" y="32.4044944" width="13.7719101" height="13.7719101"></rect>
                        <rect id="Rectangle-path" fill="#E0DFDE" x="118.05618" y="32.4044944" width="13.7719101" height="13.7719101"></rect>
                        <rect id="Rectangle-path" fill="#E0DFDE" x="139.205618" y="32.4044944" width="13.7719101" height="13.7719101"></rect>
                        <rect id="Rectangle-path" fill="#E0DFDE" x="160.355056" y="32.4044944" width="13.7719101" height="13.7719101"></rect>
                        <rect id="Rectangle-path" fill="#BE313E" x="54.6078652" y="51.4382022" width="13.7719101" height="13.7719101"></rect>
                        <rect id="Rectangle-path" fill="#D4D2D0" opacity="0.300000012" x="75.7573034" y="51.4382022" width="13.7719101" height="13.7719101"></rect>
                        <rect id="Rectangle-path" fill="#D4D2D0" opacity="0.300000012" x="96.9067416" y="51.4382022" width="13.7719101" height="13.7719101"></rect>
                        <rect id="Rectangle-path" fill="#D4D2D0" opacity="0.300000012" x="118.05618" y="51.4382022" width="13.7719101" height="13.7719101"></rect>
                        <rect id="Rectangle-path" fill="#D4D2D0" opacity="0.300000012" x="139.205618" y="51.4382022" width="13.7719101" height="13.7719101"></rect>
                        <rect id="Rectangle-path" fill="#D4D2D0" opacity="0.300000012" x="160.355056" y="51.4382022" width="13.7719101" height="13.7719101"></rect>
                        <rect id="Rectangle-path" fill="#BE313E" x="54.6078652" y="70.4719101" width="13.7719101" height="13.7719101"></rect>
                        <rect id="Rectangle-path" fill="#D4D2D0" opacity="0.300000012" x="75.7573034" y="70.4719101" width="13.7719101" height="13.7719101"></rect>
                        <rect id="Rectangle-path" fill="#D4D2D0" opacity="0.300000012" x="96.9067416" y="70.4719101" width="13.7719101" height="13.7719101"></rect>
                        <rect id="Rectangle-path" fill="#D4D2D0" opacity="0.300000012" x="118.05618" y="70.4719101" width="13.7719101" height="13.7719101"></rect>
                        <rect id="Rectangle-path" fill="#D4D2D0" opacity="0.300000012" x="139.205618" y="70.4719101" width="13.7719101" height="13.7719101"></rect>
                        <rect id="Rectangle-path" fill="#D4D2D0" x="160.355056" y="70.4719101" width="13.7719101" height="13.7719101"></rect>
                        <rect id="Rectangle-path" fill="#BE313E" x="54.6078652" y="89.505618" width="13.7719101" height="13.7719101"></rect>
                        <rect id="Rectangle-path" fill="#D4D2D0" opacity="0.300000012" x="75.7573034" y="89.505618" width="13.7719101" height="13.7719101"></rect>
                        <rect id="Rectangle-path" fill="#D4D2D0" opacity="0.300000012" x="96.9067416" y="89.505618" width="13.7719101" height="13.7719101"></rect>
                        <rect id="Rectangle-path" fill="#D4D2D0" opacity="0.300000012" x="118.05618" y="89.505618" width="13.7719101" height="13.7719101"></rect>
                        <rect id="Rectangle-path" fill="#D4D2D0" opacity="0.300000012" x="139.205618" y="89.505618" width="13.7719101" height="13.7719101"></rect>
                        <rect id="Rectangle-path" fill="#D4D2D0" x="160.355056" y="89.505618" width="13.7719101" height="13.7719101"></rect>
                        <path d="M65.1550562,15.8797753 C64.2862937,15.8797753 63.5820225,15.1755041 63.5820225,14.3067416 L63.5820225,1.57303371 C63.5820225,0.70427118 64.2862937,1.59589087e-16 65.1550562,0 C66.0238187,5.31963624e-17 66.7280899,0.70427118 66.7280899,1.57303371 L66.7280899,14.3224719 C66.7194633,15.1850851 66.0177125,15.8798184 65.1550562,15.8797753 Z" id="Shape" fill="#0B545B"></path>
                        <path d="M89.4033708,15.8797753 C88.5346083,15.8797753 87.8303371,15.1755041 87.8303371,14.3067416 L87.8303371,1.57303371 C87.8303371,0.70427118 88.5346083,1.59589087e-16 89.4033708,0 C90.2721333,5.31963624e-17 90.9764045,0.70427118 90.9764045,1.57303371 L90.9764045,14.3224719 C90.9677779,15.1850851 90.2660271,15.8798184 89.4033708,15.8797753 Z" id="Shape" fill="#0B545B"></path>
                        <path d="M113.659551,15.8797753 C112.790788,15.8797753 112.086517,15.1755041 112.086517,14.3067416 L112.086517,1.57303371 C112.086517,0.70427118 112.790788,1.59589087e-16 113.659551,0 C114.528313,5.31963624e-17 115.232584,0.70427118 115.232584,1.57303371 L115.232584,14.3224719 C115.223958,15.1850851 114.522207,15.8798184 113.659551,15.8797753 Z" id="Shape" fill="#0B545B"></path>
                        <path d="M137.907865,15.8797753 C137.039103,15.8797753 136.334831,15.1755041 136.334831,14.3067416 L136.334831,1.57303371 C136.334831,0.70427118 137.039103,1.59589087e-16 137.907865,0 C138.776628,5.31963624e-17 139.480899,0.70427118 139.480899,1.57303371 L139.480899,14.3224719 C139.472272,15.1850851 138.770522,15.8798184 137.907865,15.8797753 Z" id="Shape" fill="#0B545B"></path>
                        <path d="M162.164045,15.8797753 C161.295282,15.8797753 160.591011,15.1755041 160.591011,14.3067416 L160.591011,1.57303371 C160.591011,0.70427118 161.295282,1.59589087e-16 162.164045,0 C163.032807,5.31963624e-17 163.737079,0.70427118 163.737079,1.57303371 L163.737079,14.3224719 C163.728452,15.1850851 163.026701,15.8798184 162.164045,15.8797753 Z" id="Shape" fill="#0B545B"></path>
                        <polygon id="Shape" fill="#FFFFFF" points="47.5134831 91.9595506 44.9494382 111.237079 69.6539326 111.237079 64.588764 94.5314607 58.4224719 93.6977528"></polygon>
                        <path d="M46.852809,99.7224719 C46.852809,99.7224719 56.3382022,111.244944 67.4202247,105.794382 L77.5977528,217.94382 L36.1797753,217.94382 L46.852809,99.7224719 Z" id="Shape" fill="#01BBAE"></path>
                        <path d="M97.4730337,147.597753 L104.166292,143.193258 C104.166292,143.193258 111.189888,185.798876 96.6629213,191.870787 C82.1359551,197.942697 97.4730337,147.597753 97.4730337,147.597753 Z" id="Shape" fill="#FFFFFF"></path>
                        <path d="M50.6438202,92.8089888 L44.9494382,209.213483 L44.9494382,217.652809 L7.03932584,217.652809 C7.03932584,217.652809 6.25280899,106.38427 47.5134831,91.9988764 L50.6438202,92.8089888 Z" id="Shape" fill="#FFFFFF"></path>
                        <path d="M75.8752809,117.088764 L74.6247191,116.829213 C79.3438202,94.1303371 64.5494382,89.3011236 64.4,89.2146067 L64.7775281,87.9876404 C64.9426966,88.0426966 80.8539326,93.2651685 75.8752809,117.088764 Z" id="Shape" fill="#243C4B"></path>
                        <path d="M78.8640449,100.383146 C78.8640449,100.383146 99.8719101,128.107865 104.166292,143.201124 L90.4494382,154.078652 C90.4494382,154.078652 97.6224719,206.366292 96.5685393,217.951685 L71.958427,217.951685 L64.588764,94.5314607 C69.5749619,95.8720971 74.3714839,97.8382748 78.8640449,100.383146 Z" id="Shape" fill="#FFFFFF"></path>
                        <path d="M7.77078652,199.657303 C7.77078652,199.657303 44.3044944,219.650562 95.9550562,202.197753 L95.9550562,195.119101 L7.77078652,192.382022 L7.77078652,199.657303 Z" id="Shape" fill="#000A10" opacity="0.2"></path>
                        <path d="M81.058427,193.734831 C81.058427,193.734831 101.507865,204.219101 103.788764,201.6 C106.069663,198.980899 107.721348,195.016854 105.582022,191.170787 C103.442697,187.324719 95.5382022,186.750562 96.7258427,183.360674 C97.9134831,179.970787 102.41236,181.685393 102.67191,178.964045 C102.931461,176.242697 87.9640449,178.602247 84.9123596,179.844944 L81.058427,193.734831 Z" id="Shape" fill="#C99B93"></path>
                        <path d="M85.8483146,202.197753 L88.5539326,185.232584 C88.5539326,185.232584 35.188764,176.746067 31.1382022,171.279775 C29.5179775,169.077528 32.0505618,154.668539 32.0505618,154.668539 L47.4898876,91.9674157 C47.4898876,91.9674157 29.2426966,91.7314607 18.4752809,111.386517 C7.70786517,131.041573 -6.29213483,165.168539 3.75955056,189.291011 C13.811236,213.413483 85.8483146,202.197753 85.8483146,202.197753 Z" id="Shape" fill="#FFFFFF"></path>
                        <path d="M83.9370787,61.7730337 C83.9370787,61.7730337 93.2966292,51.9101124 90.4494382,46.5460674 C87.6022472,41.1820225 73.4134831,42.7 66.5550562,46.5460674 C66.5550562,46.5460674 64.258427,39.0505618 58.4539326,41.8269663 C52.6494382,44.6033708 38.6966292,54.8438202 52.0202247,79.6820225 C65.3438202,104.520225 83.9370787,61.7730337 83.9370787,61.7730337 Z" id="Shape" fill="#000A10"></path>
                        <path d="M70.9123596,103.033708 C70.9123596,103.033708 84.2831461,172.68764 95.0426966,191.910112 C95.0426966,191.910112 101.570787,186.404494 101.680899,187.977528 C101.72809,188.701124 102.467416,192.067416 100.980899,194.348315 C99.3292135,196.920225 95.4752809,198.398876 95.4752809,198.674157 C95.4752809,198.674157 67.4202247,207.522472 65.3359551,104.51236 L70.9123596,103.033708 Z" id="Shape" fill="#000A10" opacity="0.2"></path>
                        <polygon id="Shape" fill="#000A10" opacity="0.2" points="89.5292135 115.562921 103.253933 167.78764 84.3775281 107.996629"></polygon>
                        <path d="M35.1808989,108.122472 C31.688764,90.1662921 49.1179775,85.1719101 49.2988764,85.1247191 L49.6370787,86.3595506 C48.9606742,86.5483146 33.1752809,91.0786517 36.4393258,107.878652 L35.1808989,108.122472 Z" id="Shape" fill="#243C4B"></path>
                        <polygon id="Shape" fill="#C99B93" points="55.8662921 70.5505618 46.852809 91.9595506 63.9359551 94.5314607 65.8314607 85.5808989"></polygon>
                        <path d="M65.8314607,85.5808989 C65.8314607,85.5808989 57.9898876,81.4280899 55.8426966,70.5505618 L53.8764045,74.0898876 C53.8764045,74.0898876 52.3033708,82.3797753 65.5247191,88.3022472 C65.1,89.6629213 65.8314607,85.5808989 65.8314607,85.5808989 Z" id="Shape" fill="#000A10" opacity="0.2"></path>
                        <path d="M27.6932584,156.107865 C27.6932584,156.107865 26.9617978,169.88764 48.0719101,177.524719 C48.0719101,177.524719 22.5651685,171.814607 27.6932584,156.107865 Z" id="Shape" fill="#000A10" opacity="0.2"></path>
                        <polygon id="Shape" fill="#243C4B" points="40.5213483 93.1 51.9808989 103.560674 58.4224719 93.6977528 48.6775281 87.6179775"></polygon>
                        <polygon id="Shape" fill="#243C4B" points="58.4224719 93.6977528 65.3359551 104.520225 67.4202247 95.5932584 64.7932584 90.488764"></polygon>
                        <path d="M40.1831461,157.688764 L38.9640449,157.303371 C43.7460674,142.626966 41.0561798,132.134831 37.941573,119.920225 C36.9820225,116.176404 35.9910112,112.298876 35.1808989,108.122472 L36.4393258,107.878652 C37.2258427,112.007865 38.2247191,115.861798 39.1842697,119.589888 C42.3460674,131.969663 45.0831461,142.658427 40.1831461,157.688764 Z" id="Shape" fill="#243C4B"></path>
                        <path d="M33.3483146,162.431461 L33.3483146,162.148315 C33.3618832,161.883421 33.3987294,161.620234 33.458427,161.361798 C33.5479609,160.944163 33.6906988,160.539739 33.8831461,160.158427 C34.1482045,159.638529 34.4932275,159.163459 34.905618,158.750562 C35.1602135,158.503708 35.4426318,158.287275 35.747191,158.105618 C36.0950668,157.881098 36.4740112,157.708851 36.8719101,157.594382 L37.1314607,157.51573 L37.2573034,157.51573 L37.3202247,157.51573 L37.4539326,157.51573 C37.6773002,157.473834 37.9033157,157.447553 38.1303371,157.437079 C38.6149717,157.411449 39.1006305,157.461872 39.5696629,157.586517 C40.0733397,157.726198 40.5551176,157.935322 41.0011236,158.207865 C41.4667374,158.506442 41.8810628,158.878272 42.2280899,159.308989 C42.5846017,159.76059 42.8636757,160.268238 43.0539326,160.811236 C43.1593141,161.10404 43.2331406,161.407255 43.2741573,161.71573 L43.2741573,161.967416 C43.2741573,162.061798 43.2741573,162.077528 43.2741573,162.132584 L43.2741573,162.525843 C43.2669548,163.111607 43.16878,163.692696 42.9831461,164.248315 C42.8044314,164.788512 42.5387686,165.295928 42.1966292,165.750562 C41.852796,166.1387 41.4524176,166.472791 41.0089888,166.741573 C40.5628887,167.013935 40.0811367,167.223047 39.5775281,167.362921 C39.3383737,167.430042 39.0935016,167.474804 38.8460674,167.496629 C38.5842025,167.514583 38.3214155,167.514583 38.0595506,167.496629 C37.857926,167.49365 37.6573303,167.467256 37.4617978,167.417978 L37.3438202,167.417978 L37.2651685,167.417978 L37.1078652,167.378652 C37.005618,167.378652 36.9033708,167.331461 36.8011236,167.292135 C36.0876712,167.045054 35.4339193,166.651196 34.8820225,166.135955 C34.1577306,165.421487 33.6575334,164.511292 33.4426966,163.516854 C33.3832758,163.258367 33.3464331,162.995204 33.3325843,162.730337 L33.3325843,162.455056 L33.3483146,162.431461 Z M33.5764045,162.431461 L33.5764045,162.706742 C33.5811353,162.815089 33.5942835,162.922905 33.6157303,163.029213 C33.6360961,163.173026 33.6676526,163.31503 33.7101124,163.453933 C33.8150901,163.831571 33.9797104,164.190018 34.1977528,164.51573 C34.8181587,165.446906 35.8218174,166.052562 36.9348315,166.167416 C37.0921348,166.167416 37.2573034,166.167416 37.4067416,166.167416 C37.9113089,166.154164 38.4083592,166.041926 38.8696629,165.837079 C39.5112976,165.540111 40.0564177,165.068582 40.4426966,164.476404 C40.6360491,164.170548 40.7868716,163.839796 40.8910112,163.493258 C40.9878556,163.142189 41.0380993,162.779905 41.0404494,162.41573 C41.0388394,162.051502 40.9885822,161.689122 40.8910112,161.338202 C40.7868716,160.991664 40.6360491,160.660913 40.4426966,160.355056 C39.6784602,159.204024 38.3413596,158.56875 36.9662921,158.703371 C35.8564888,158.821537 34.8565555,159.426684 34.2370787,160.355056 C34.0190362,160.680768 33.8544159,161.039216 33.7494382,161.416854 C33.7069474,161.555748 33.6753904,161.697755 33.6550562,161.841573 C33.6337633,161.947907 33.6206165,162.05571 33.6157303,162.164045 L33.6157303,162.431461 L33.5764045,162.431461 Z" id="Shape" fill="#243C4B"></path>
                        <path d="M83.9370787,61.7730337 C83.9370787,61.7730337 83.2370787,85.9898876 74.4988764,86.6898876 C65.7606742,87.3898876 54.8123596,82.4820225 55.8426966,70.5505618 C55.8426966,70.5505618 52.5393258,63.8808989 55.7719101,61.7730337 C59.0044944,59.6651685 60.758427,63.5269663 60.758427,63.5269663 L63.3932584,58.988764 C63.3932584,58.988764 65.1707865,61.7022472 67.7977528,60.8449438 C70.4247191,59.9876404 70.6213483,57.0617978 70.6213483,57.0617978 C74.4280899,59.0910112 79.8393258,61.5685393 83.9370787,61.7730337 Z" id="Shape" fill="#C99B93"></path>
                        <path d="M80.0123596,82.7101124 C80.0123596,82.7101124 69.7011236,76.1426966 66.9089888,80.7202247 C64.9820225,83.8662921 66.2168539,85.7460674 66.2168539,85.7460674 C66.2168539,85.7460674 78.1797753,87.2089888 80.0123596,82.7101124 Z" id="Shape" fill="#000A10" opacity="0.2"></path>
                        <path d="M78.8640449,100.383146 C78.8640449,100.383146 81.4438202,86.6505618 80.5,85.1719101 C79.5561798,83.6932584 73.1460674,78.2820225 68.5685393,80.0280899 C63.9910112,81.7741573 68.5685393,90.0325843 68.5685393,90.0325843 C68.5685393,90.0325843 70.2044944,97.811236 70.9280899,99.211236 C70.9280899,99.211236 72.8,146.001124 75.1359551,157.232584 C77.4719101,168.464045 82.1516854,194.898876 92.2191011,193.262921 C102.286517,191.626966 108.130337,182.731461 101.106742,158.868539 C94.0831461,135.005618 78.8640449,100.383146 78.8640449,100.383146 Z" id="Shape" fill="#C99B93"></path>
                        <path d="M67.4202247,105.794382 L81.8921348,100.689888 C81.8921348,100.689888 106.077528,164.091011 104.174157,177.217978 C104.174157,177.217978 104.897753,193.262921 92.2033708,193.270787 C72.4775281,193.270787 69.0089888,139.724719 67.4202247,105.794382 Z" id="Shape" fill="#FFFFFF"></path>
                        <path d="M157.704494,179.569663 C157.704494,179.569663 154.353933,178.885393 148.659551,171.995506 C142.965169,165.105618 125.850562,141.502247 125.850562,141.502247 C125.850562,141.502247 124.741573,126.935955 122.570787,126.605618 C120.4,126.275281 121.78427,135.744944 121.78427,135.744944 C121.78427,135.744944 115.020225,132.417978 112.448315,128.076404 C109.876404,123.734831 108.389888,123.294382 107.438202,124.301124 C106.486517,125.307865 107.689888,136.350562 112.408989,140.031461 C117.12809,143.71236 120.478652,144.404494 120.478652,144.404494 C120.478652,144.404494 134.950562,180.14382 137.703371,183.88764 C139.842565,186.626623 142.210635,189.178875 144.782022,191.516854 L157.704494,179.569663 Z" id="Shape" fill="#FFB38A"></path>
                        <polygon id="Shape" fill="#FFB38A" points="163.273034 115.295506 163.273034 129.01236 171.397753 127.801124 178.138202 109.498876"></polygon>
                        <path d="M163.273034,128.988764 C163.273034,128.988764 144.962921,149.438202 146.52809,159.969663 C148.093258,170.501124 157.075281,203.802247 158.325843,217.432584 L200.797753,217.432584 C200.797753,217.432584 197.651685,202.410112 188.079775,191.257303 C188.079775,191.257303 179.719101,172.050562 188.079775,151.601124 L181.260674,123.41236 L163.273034,128.988764 Z" id="Shape" fill="#01BBAE"></path>
                        <path d="M171.01236,67.3651685 C171.01236,67.3651685 151.18427,64.2662921 146.535955,80.0674157 C146.535955,80.0674157 145.914607,83.8426966 152.733708,87.1932584 C159.552809,90.5438202 159.898876,95.247191 166.537079,93.3910112 C173.175281,91.5348315 177.202247,97.7247191 177.202247,97.7247191 L175.031461,111.048315 C169.913599,124.221413 170.023331,138.852338 175.338202,151.947191 C184.320225,173.631461 189.589888,172.703371 192.374157,172.703371 C195.158427,172.703371 199.806742,167.748315 196.707865,158.766292 C193.608989,149.78427 193.491011,146.378652 197.730337,136.460674 C201.969663,126.542697 202.28427,115.397753 195.158427,105.173034 C188.032584,94.9483146 188.960674,90.3 191.438202,79.147191 C193.91573,67.994382 171.01236,67.3651685 171.01236,67.3651685 Z" id="Shape" fill="#3F220B"></path>
                        <path d="M157.025163,68.9926921 L156,59.6312807 C156,59.6312807 174.534949,56.0451231 178,65.9675592 L173.899348,76 C173.899348,76 166.087605,67.5626292 157.025163,68.9926921 Z" id="Shape" fill="#52C3BD"></path>
                        <path d="M163.273034,174.425843 L158.750562,187.37191 C146.457303,181.98427 132.575281,175.755056 132.575281,175.755056 C132.575281,175.755056 129.429213,165.042697 127.069663,164.311236 C124.710112,163.579775 127.282022,172.003371 127.282022,172.003371 C127.282022,172.003371 118.724719,158.805618 116.270787,159.340449 C113.816854,159.875281 114.044944,170.674157 115.248315,172.003371 C116.451685,173.332584 115.665169,177.973034 130.396629,181.732584 C130.396629,181.732584 142.941573,190.848315 154.896629,199.106742 C154.896629,199.106742 166.442697,208.820225 169.557303,201.568539 C172.67191,194.316854 178.146067,180.655056 178.146067,180.655056 L163.273034,174.425843 Z" id="Shape" fill="#FFB38A"></path>
                        <path d="M152.733708,87.1932584 C152.733708,87.1932584 149.32809,111.355056 155.832584,114.453933 C162.337079,117.552809 175.039326,111.048315 175.039326,111.048315 L177.210112,97.7247191 C177.210112,97.7247191 180.930337,98.652809 181.237079,92.7696629 C181.237079,89.3640449 177.831461,90.2921348 177.831461,90.2921348 C177.831461,90.2921348 177.831461,87.8146067 174.111236,87.1932584 C170.391011,86.5719101 166.985393,91.841573 162.313483,91.2202247 C157.641573,90.5988764 152.733708,87.1932584 152.733708,87.1932584 Z" id="Shape" fill="#FFB38A"></path>
                        <path d="M168.141573,151.797753 C168.141573,151.797753 159.946067,169.258427 160.229213,171.130337 C160.51236,173.002247 169.329213,176.950562 169.329213,176.950562 C169.329213,176.950562 160.276404,175.479775 157.71236,171.130337 C157.704494,171.146067 164.460674,155.486517 168.141573,151.797753 Z" id="Shape" fill="#000A10" opacity="0.2"></path>
                        <path d="M178.138202,180.655056 L181.237079,181.78764 L184.532584,169.88764 L182.47191,183.085393 C182.47191,183.085393 181.237079,183.667416 178.138202,180.655056 Z" id="Shape" fill="#000A10" opacity="0.2"></path>
                        <path d="M163.273034,119.259551 C163.273034,119.259551 176.014607,115.51573 175.070787,111.048315 L163.273034,115.295506 L163.273034,119.259551 Z" id="Shape" fill="#000A10" opacity="0.2"></path>
                        <polygon id="Shape" fill="#000A10" opacity="0.2" points="132.575281 175.755056 158.750562 187.37191 159.875281 183.667416"></polygon>
                    </g>
                </g>
            </g>
        </g>
    </g>
</svg>