<?xml version="1.0" encoding="UTF-8"?>
<svg width="16px" height="2px" viewBox="0 0 16 2" version="1.1" xmlns="http://www.w3.org/2000/svg" xmlns:xlink="http://www.w3.org/1999/xlink">
    <!-- Generator: Sketch 50.2 (55047) - http://www.bohemiancoding.com/sketch -->
    <title>Shape</title>
    <desc>Created with Sketch.</desc>
    <defs></defs>
    <g id="Page-1" stroke="none" stroke-width="1" fill="none" fill-rule="evenodd">
        <g id="Doctor---Search-Patient---1-Search-Result" transform="translate(-1190.000000, -330.000000)" fill="#353638" fill-rule="nonzero">
            <g id="Group-9-Copy-3" transform="translate(268.000000, 296.000000)">
                <g id="Group-7" transform="translate(910.000000, 15.000000)">
                    <path d="M14,20 C14,20.6 13.6,21 13,21 C12.4,21 12,20.6 12,20 C12,19.4 12.4,19 13,19 C13.6,19 14,19.4 14,20 Z M20,19 C19.4,19 19,19.4 19,20 C19,20.6 19.4,21 20,21 C20.6,21 21,20.6 21,20 C21,19.4 20.6,19 20,19 Z M27,19 C26.4,19 26,19.4 26,20 C26,20.6 26.4,21 27,21 C27.6,21 28,20.6 28,20 C28,19.4 27.6,19 27,19 Z" id="Shape"></path>
                </g>
            </g>
        </g>
    </g>
</svg>