<?xml version="1.0" encoding="UTF-8"?>
<svg width="23px" height="23px" viewBox="0 0 23 23" version="1.1" xmlns="http://www.w3.org/2000/svg" xmlns:xlink="http://www.w3.org/1999/xlink">
    <!-- Generator: Sketch 50.2 (55047) - http://www.bohemiancoding.com/sketch -->
    <title>icons/Phone</title>
    <desc>Created with Sketch.</desc>
    <defs></defs>
    <g id="Symbols" stroke="none" stroke-width="1" fill="none" fill-rule="evenodd">
        <g id="TopNavigation" transform="translate(-1107.000000, -19.000000)">
            <g id="Top-Navigation">
                <g id="icons/Phone" transform="translate(1101.000000, 13.000000)">
                    <rect id="Rectangle" fill="#01BBAE" fill-rule="evenodd" opacity="0" x="0" y="0" width="34" height="34"></rect>
                    <path d="M27.6350508,23.8401256 C28.2097662,24.4148411 28.2097662,25.3727002 27.6350508,25.8516297 L26.0066903,27.4799902 C24.3783299,29.1083507 21.7921103,29.3957084 19.7806062,28.0547057 C17.3859585,26.4263452 14.2250235,24.1274834 12.5008771,22.403337 C10.7767307,20.6791906 8.47786889,17.5182556 6.84950843,15.1236079 C5.50850569,13.2078897 5.79586342,10.6216701 7.42422388,8.89752376 L9.05258434,7.2691633 C9.6272998,6.69444784 10.5851589,6.69444784 11.0640884,7.2691633 L13.8418798,10.0469547 C14.4165953,10.6216701 14.4165953,11.5795292 13.8418798,12.0584588 L12.6924489,13.2078897 C12.4050912,13.4952474 12.3093053,13.974177 12.596663,14.3573206 C13.2671644,15.4109656 14.5123812,17.4224697 15.9491698,18.8592584 C17.3859585,20.296047 19.3974626,21.6370497 20.4511076,22.2117652 C20.8342512,22.403337 21.3131808,22.403337 21.6005385,22.1159793 L22.7499694,20.9665484 C23.3246849,20.3918329 24.282544,20.3918329 24.7614735,20.9665484 L27.6350508,23.8401256 Z M23.9951862,17.0393261 C24.0909721,17.135112 24.186758,17.135112 24.3783299,17.135112 C24.5699017,17.135112 24.6656876,17.135112 24.7614735,17.0393261 C25.6235467,16.1772529 26.1982621,14.9320361 26.1982621,13.6868192 C26.1982621,12.4416024 25.7193326,11.1963856 24.7614735,10.3343124 C23.8036144,9.47223922 22.6541835,8.89752376 21.4089667,8.89752376 C20.1637498,8.89752376 18.918533,9.37645331 18.0564598,10.3343124 C17.864888,10.5258842 17.864888,10.813242 18.0564598,11.0048138 C18.2480317,11.1963856 18.5353894,11.1963856 18.7269612,11.0048138 C19.4932485,10.2385265 20.4511076,9.85538286 21.4089667,9.85538286 C22.3668258,9.85538286 23.4204708,10.2385265 24.0909721,11.0048138 C24.8572594,11.771101 25.2404031,12.7289601 25.2404031,13.6868192 C25.2404031,14.6446783 24.8572594,15.6983233 24.0909721,16.3688247 C23.8036144,16.5603965 23.8036144,16.8477543 23.9951862,17.0393261 Z M16.5238853,8.89752376 C19.1101048,6.31130421 23.4204708,6.31130421 26.0066903,8.89752376 C28.5929099,11.4837433 28.5929099,15.7941092 26.0066903,18.3803288 C25.8151185,18.5719006 25.8151185,18.8592584 26.0066903,19.0508302 C26.1024762,19.1466161 26.1982621,19.1466161 26.389834,19.1466161 C26.5814058,19.1466161 26.6771917,19.1466161 26.7729776,19.0508302 C29.7423408,16.081467 29.7423408,11.1963856 26.7729776,8.2270224 C23.8036144,5.2576592 18.918533,5.2576592 15.9491698,8.2270224 C15.757598,8.41859422 15.757598,8.70595194 15.9491698,8.89752376 C16.1407416,9.08909558 16.4280994,9.08909558 16.5238853,8.89752376 Z" id="Shape" fill="#353638" fill-rule="nonzero"></path>
                </g>
            </g>
        </g>
    </g>
</svg>