<?xml version="1.0" encoding="UTF-8"?>
<svg width="23px" height="22px" viewBox="0 0 23 22" version="1.1" xmlns="http://www.w3.org/2000/svg" xmlns:xlink="http://www.w3.org/1999/xlink">
    <!-- Generator: Sketch 50.2 (55047) - http://www.bohemiancoding.com/sketch -->
    <title>Shape</title>
    <desc>Created with Sketch.</desc>
    <defs></defs>
    <g id="Page-1" stroke="none" stroke-width="1" fill="none" fill-rule="evenodd">
        <g id="Doctor---Dashboard" transform="translate(-288.000000, -184.000000)" fill="#26C4BA" fill-rule="nonzero">
            <g id="Group-4-Copy-2" transform="translate(267.000000, 163.000000)">
                <path d="M43.2916667,23.675 L43.2916667,27.2416667 L21,27.2416667 L21,23.675 C21,23.14 21.3566667,22.7833333 21.8916667,22.7833333 L26.35,22.7833333 L26.35,21.4458333 C26.35,21.1783333 26.5283333,21 26.7958333,21 C27.0633333,21 27.2416667,21.1783333 27.2416667,21.4458333 L27.2416667,22.7833333 L37.05,22.7833333 L37.05,21.4458333 C37.05,21.1783333 37.2283333,21 37.4958333,21 C37.7633333,21 37.9416667,21.1783333 37.9416667,21.4458333 L37.9416667,22.7833333 L42.4,22.7833333 C42.935,22.7833333 43.2916667,23.14 43.2916667,23.675 Z M21,28.1333333 L43.2916667,28.1333333 L43.2916667,41.5083333 C43.2916667,42.0433333 42.935,42.4 42.4,42.4 L21.8916667,42.4 C21.3566667,42.4 21,42.0433333 21,41.5083333 L21,28.1333333 Z M29.025,34.8208333 C29.025,35.0883333 29.2033333,35.2666667 29.4708333,35.2666667 L31.7,35.2666667 L31.7,37.4958333 C31.7,37.7633333 31.8783333,37.9416667 32.1458333,37.9416667 C32.4133333,37.9416667 32.5916667,37.7633333 32.5916667,37.4958333 L32.5916667,35.2666667 L34.8208333,35.2666667 C35.0883333,35.2666667 35.2666667,35.0883333 35.2666667,34.8208333 C35.2666667,34.5533333 35.0883333,34.375 34.8208333,34.375 L32.5916667,34.375 L32.5916667,32.1458333 C32.5916667,31.8783333 32.4133333,31.7 32.1458333,31.7 C31.8783333,31.7 31.7,31.8783333 31.7,32.1458333 L31.7,34.375 L29.4708333,34.375 C29.2033333,34.375 29.025,34.5533333 29.025,34.8208333 Z" id="Shape"></path>
            </g>
        </g>
    </g>
</svg>