<?xml version="1.0" encoding="UTF-8"?>
<svg width="22px" height="21px" viewBox="0 0 22 21" version="1.1" xmlns="http://www.w3.org/2000/svg" xmlns:xlink="http://www.w3.org/1999/xlink">
    <!-- Generator: Sketch 50.2 (55047) - http://www.bohemiancoding.com/sketch -->
    <title>Shape</title>
    <desc>Created with Sketch.</desc>
    <defs></defs>
    <g id="Page-1" stroke="none" stroke-width="1" fill="none" fill-rule="evenodd">
        <g id="Doctor---Setup-Availability" transform="translate(-816.000000, -62.000000)" fill="#FFFFFF" fill-rule="nonzero">
            <g id="Group-11" transform="translate(416.000000, 38.000000)">
                <g id="illustration__2x">
                    <path d="M420.818992,43.5228682 C421.143023,43.8468992 421.143023,44.3329457 420.818992,44.6569767 C420.494961,44.9810078 420.008915,44.9810078 419.684884,44.6569767 L410.612016,35.5841085 L401.539147,44.6569767 C401.377132,44.8189922 401.215116,44.8189922 400.891085,44.8189922 C400.567054,44.8189922 400.405039,44.8189922 400.243023,44.6569767 C399.918992,44.3329457 399.918992,43.8468992 400.243023,43.5228682 L409.315891,34.45 L400.243023,25.3771318 C399.918992,25.0531008 399.918992,24.5670543 400.243023,24.2430233 C400.405039,24.0810078 400.567054,24.0810078 400.891085,24.0810078 C401.215116,24.0810078 401.377132,24.0810078 401.539147,24.2430233 L410.612016,33.3158915 L419.684884,24.2430233 C420.008915,23.9189922 420.494961,23.9189922 420.818992,24.2430233 C421.143023,24.5670543 421.143023,25.0531008 420.818992,25.3771318 L411.746124,34.45 L420.818992,43.5228682 Z" id="Shape"></path>
                </g>
            </g>
        </g>
    </g>
</svg>