<?xml version="1.0" encoding="UTF-8"?>
<svg width="19px" height="18px" viewBox="0 0 19 18" version="1.1" xmlns="http://www.w3.org/2000/svg" xmlns:xlink="http://www.w3.org/1999/xlink">
    <!-- Generator: Sketch 50.2 (55047) - http://www.bohemiancoding.com/sketch -->
    <title>Shape</title>
    <desc>Created with Sketch.</desc>
    <defs></defs>
    <g id="Page-1" stroke="none" stroke-width="1" fill="none" fill-rule="evenodd">
        <g id="00_Desktop_1.2_Homepage-Immunization-Popup" transform="translate(-317.000000, -568.000000)" fill="#FFFFFF" fill-rule="nonzero">
            <g id="Group" transform="translate(262.000000, 153.000000)">
                <g id="Btn-Print" transform="translate(34.000000, 402.000000)">
                    <g id="Group-3" transform="translate(21.000000, 13.000000)">
                        <path d="M14.7272727,4.09090909 L4.09090909,4.09090909 L4.09090909,1.22727273 C4.09090909,0.572727273 4.66363636,0 5.31818182,0 L13.5,0 C14.1545455,0 14.7272727,0.572727273 14.7272727,1.22727273 L14.7272727,4.09090909 Z M18.8181818,7.36363636 L18.8181818,15.1363636 C18.8181818,15.7909091 18.2454545,16.3636364 17.5909091,16.3636364 L16.3636364,16.3636364 L16.3636364,13.0909091 L16.7727273,13.0909091 C17.0181818,13.0909091 17.1818182,12.9272727 17.1818182,12.6818182 C17.1818182,12.4363636 17.0181818,12.2727273 16.7727273,12.2727273 L2.04545455,12.2727273 C1.8,12.2727273 1.63636364,12.4363636 1.63636364,12.6818182 C1.63636364,12.9272727 1.8,13.0909091 2.04545455,13.0909091 L2.45454545,13.0909091 L2.45454545,16.3636364 L1.22727273,16.3636364 C0.572727273,16.3636364 0,15.7909091 0,15.1363636 L0,7.36363636 C0,5.97272727 1.06363636,4.90909091 2.45454545,4.90909091 L16.3636364,4.90909091 C17.7545455,4.90909091 18.8181818,5.97272727 18.8181818,7.36363636 Z M4.90909091,9.40909091 C4.90909091,9.16363636 4.74545455,9 4.5,9 L2.86363636,9 C2.61818182,9 2.45454545,9.16363636 2.45454545,9.40909091 C2.45454545,9.65454545 2.61818182,9.81818182 2.86363636,9.81818182 L4.5,9.81818182 C4.74545455,9.81818182 4.90909091,9.65454545 4.90909091,9.40909091 Z M3.27272727,17.5909091 C3.27272727,17.8363636 3.43636364,18 3.68181818,18 L15.1363636,18 C15.3818182,18 15.5454545,17.8363636 15.5454545,17.5909091 L15.5454545,13.0909091 L3.27272727,13.0909091 L3.27272727,17.5909091 Z" id="Shape"></path>
                    </g>
                </g>
            </g>
        </g>
    </g>
</svg>