<?xml version="1.0" encoding="UTF-8"?>
<svg width="8px" height="12px" viewBox="0 0 8 12" version="1.1" xmlns="http://www.w3.org/2000/svg" xmlns:xlink="http://www.w3.org/1999/xlink">
    <!-- Generator: Sketch 50.2 (55047) - http://www.bohemiancoding.com/sketch -->
    <title>Shape</title>
    <desc>Created with Sketch.</desc>
    <defs></defs>
    <g id="Page-1" stroke="none" stroke-width="1" fill="none" fill-rule="evenodd">
        <g id="00_Desktop_2_MyAppointment" transform="translate(-917.000000, -729.000000)" fill="#F3F3F3" fill-rule="nonzero">
            <g id="page" transform="translate(152.000000, 723.000000)">
                <g id="Group-22-Copy" transform="translate(757.000000, 0.000000)">
                    <path d="M15.3767765,11.3369044 L10.5274018,6.54079568 C10.3488142,6.35415247 10.1258077,6.26086957 9.85793944,6.26086957 C9.59007115,6.26086957 9.36706467,6.35425568 9.18847713,6.54079568 L8.6231974,7.09342267 C8.439686,7.27516305 8.3479303,7.49607451 8.3479303,7.75638928 C8.3479303,8.01177541 8.43965994,8.23531891 8.6231974,8.42681335 L12.2380125,12.0000258 L8.62304109,15.5805925 C8.43958179,15.7623329 8.34782609,15.9832443 8.34782609,16.2435849 C8.34782609,16.4989452 8.43955574,16.7225662 8.62304109,16.9139832 L9.18837292,17.4665328 C9.37185827,17.6482731 9.59509922,17.7391304 9.85783523,17.7391304 C10.1206755,17.7391304 10.3438643,17.6482731 10.5272975,17.4665328 L15.3767765,12.6704241 C15.56034,12.478878 15.6521739,12.2553861 15.6521739,12 C15.6522,11.7396852 15.56034,11.5186448 15.3767765,11.3369044 Z" id="Shape"></path>
                </g>
            </g>
        </g>
    </g>
</svg>