<?xml version="1.0" encoding="UTF-8"?>
<svg width="15px" height="15px" viewBox="0 0 15 15" version="1.1" xmlns="http://www.w3.org/2000/svg" xmlns:xlink="http://www.w3.org/1999/xlink">
    <!-- Generator: Sketch 50.2 (55047) - http://www.bohemiancoding.com/sketch -->
    <title>Shape</title>
    <desc>Created with Sketch.</desc>
    <defs></defs>
    <g id="Page-1" stroke="none" stroke-width="1" fill="none" fill-rule="evenodd">
        <g id="Doctor---Search-Patient---1-Search-Result" transform="translate(-1034.000000, -523.000000)" fill="#49AEF4" fill-rule="nonzero">
            <g id="Group-9-Copy-4" transform="translate(268.000000, 374.000000)">
                <g id="Group-9" transform="translate(749.000000, 62.000000)">
                    <g id="Group-8" transform="translate(17.000000, 22.000000)">
                        <path d="M14.7318236,68.8259833 L13.9451728,69.6126341 L10.4410012,66.1084625 L11.227652,65.3218117 C11.6567342,64.8927294 12.3003576,64.8927294 12.7294398,65.3218117 L14.7318236,67.3241955 C15.0893921,67.7532777 15.0893921,68.3969011 14.7318236,68.8259833 Z M0.286054827,76.1203814 C0.0715137068,76.3349225 0,76.6209774 0,76.9070322 L0,79.2669845 C0,79.4815256 0.0715137068,79.624553 0.21454112,79.7675805 C0.357568534,79.9106079 0.500595948,79.9821216 0.715137068,79.9821216 L3.07508939,79.9821216 C3.36114422,79.9821216 3.64719905,79.8390942 3.86174017,79.6960667 L13.4445769,70.11323 L9.94040524,66.6090584 L0.286054827,76.1203814 Z" id="Shape"></path>
                    </g>
                </g>
            </g>
        </g>
    </g>
</svg>