<?xml version="1.0" encoding="UTF-8"?>
<svg width="18px" height="16px" viewBox="0 0 18 16" version="1.1" xmlns="http://www.w3.org/2000/svg" xmlns:xlink="http://www.w3.org/1999/xlink">
    <!-- Generator: Sketch 50.2 (55047) - http://www.bohemiancoding.com/sketch -->
    <title>Shape</title>
    <desc>Created with Sketch.</desc>
    <defs></defs>
    <g id="Page-1" stroke="none" stroke-width="1" fill="none" fill-rule="evenodd">
        <g id="00_Desktop_1.1_Homepage-Menu-Dropdown" transform="translate(-863.000000, -98.000000)" fill="#01BBAE" fill-rule="nonzero">
            <g id="Group-2" transform="translate(838.000000, 46.000000)">
                <path d="M32.6190476,58.4761905 C32.6190476,57.8666667 33.152381,57.3333333 33.7619048,57.3333333 C34.3714286,57.3333333 34.9047619,57.8666667 34.9047619,58.4761905 C34.9047619,59.0857143 34.3714286,59.6190476 33.7619048,59.6190476 C33.152381,59.6190476 32.6190476,59.0857143 32.6190476,58.4761905 Z M33.7619048,61.9047619 C32.3904762,61.9047619 31.3238095,62.8952381 31.0952381,64.1904762 L36.352381,64.1904762 C36.2,62.8952381 35.1333333,61.9047619 33.7619048,61.9047619 Z M42.5238095,54.2857143 L42.5238095,67.2380952 C42.5238095,67.6952381 42.2190476,68 41.7619048,68 L25.7619048,68 C25.3047619,68 25,67.6952381 25,67.2380952 L25,54.2857143 C25,53.8285714 25.3047619,53.5238095 25.7619048,53.5238095 L41.7619048,53.5238095 C42.2190476,53.5238095 42.5238095,53.8285714 42.5238095,54.2857143 Z M31.8571429,58.4761905 C31.8571429,59.5428571 32.6952381,60.3809524 33.7619048,60.3809524 C34.8285714,60.3809524 35.6666667,59.5428571 35.6666667,58.4761905 C35.6666667,57.4095238 34.8285714,56.5714286 33.7619048,56.5714286 C32.6952381,56.5714286 31.8571429,57.4095238 31.8571429,58.4761905 Z M37.1904762,64.5714286 C37.1904762,62.6666667 35.6666667,61.1428571 33.7619048,61.1428571 C31.8571429,61.1428571 30.3333333,62.6666667 30.3333333,64.5714286 C30.3333333,64.7238095 30.3333333,64.8 30.4095238,64.952381 L37.1904762,64.952381 L37.1904762,64.5714286 Z M31.4761905,52.7619048 L36.047619,52.7619048 C36.2761905,52.7619048 36.4285714,52.6095238 36.4285714,52.3809524 C36.4285714,52.152381 36.2761905,52 36.047619,52 L31.4761905,52 C31.247619,52 31.0952381,52.152381 31.0952381,52.3809524 C31.0952381,52.6095238 31.247619,52.7619048 31.4761905,52.7619048 Z" id="Shape"></path>
            </g>
        </g>
    </g>
</svg>