<?xml version="1.0" encoding="UTF-8"?>
<svg width="23px" height="23px" viewBox="0 0 23 23" version="1.1" xmlns="http://www.w3.org/2000/svg" xmlns:xlink="http://www.w3.org/1999/xlink">
    <!-- Generator: Sketch 50.2 (55047) - http://www.bohemiancoding.com/sketch -->
    <title>Shape</title>
    <desc>Created with Sketch.</desc>
    <defs></defs>
    <g id="Page-1" stroke="none" stroke-width="1" fill="none" fill-rule="evenodd">
        <g id="Doctor---Dashboard" transform="translate(-559.000000, -184.000000)" fill="#FFFFFF" fill-rule="nonzero">
            <g id="Group-4-Copy-3" transform="translate(539.000000, 163.000000)">
                <path d="M31.5,21 C25.152,21 20,26.152 20,32.5 C20,38.848 25.152,44 31.5,44 C37.848,44 43,38.848 43,32.5 C43,26.152 37.848,21 31.5,21 Z M31.04,23.3 C31.04,23.024 31.224,22.84 31.5,22.84 C31.776,22.84 31.96,23.024 31.96,23.3 L31.96,24.22 C31.96,24.496 31.776,24.68 31.5,24.68 C31.224,24.68 31.04,24.496 31.04,24.22 L31.04,23.3 Z M23.22,32.96 L22.3,32.96 C22.024,32.96 21.84,32.776 21.84,32.5 C21.84,32.224 22.024,32.04 22.3,32.04 L23.22,32.04 C23.496,32.04 23.68,32.224 23.68,32.5 C23.68,32.776 23.496,32.96 23.22,32.96 Z M25.98,38.664 L25.336,39.308 C25.152,39.492 24.876,39.492 24.692,39.308 C24.508,39.124 24.508,38.848 24.692,38.664 L25.336,38.02 C25.52,37.836 25.796,37.836 25.98,38.02 C26.164,38.204 26.164,38.48 25.98,38.664 Z M25.98,26.98 C25.796,27.164 25.52,27.164 25.336,26.98 L24.692,26.336 C24.508,26.152 24.508,25.876 24.692,25.692 C24.876,25.508 25.152,25.508 25.336,25.692 L25.98,26.336 C26.164,26.52 26.164,26.796 25.98,26.98 Z M31.96,41.7 C31.96,41.976 31.776,42.16 31.5,42.16 C31.224,42.16 31.04,41.976 31.04,41.7 L31.04,40.78 C31.04,40.504 31.224,40.32 31.5,40.32 C31.776,40.32 31.96,40.504 31.96,40.78 L31.96,41.7 Z M36.1,32.96 L31.5,32.96 C31.224,32.96 31.04,32.776 31.04,32.5 L31.04,27.9 C31.04,27.624 31.224,27.44 31.5,27.44 C31.776,27.44 31.96,27.624 31.96,27.9 L31.96,32.04 L36.1,32.04 C36.376,32.04 36.56,32.224 36.56,32.5 C36.56,32.776 36.376,32.96 36.1,32.96 Z M38.308,39.308 C38.124,39.492 37.848,39.492 37.664,39.308 L37.02,38.664 C36.836,38.48 36.836,38.204 37.02,38.02 C37.204,37.836 37.48,37.836 37.664,38.02 L38.308,38.664 C38.492,38.848 38.492,39.124 38.308,39.308 Z M38.308,26.336 L37.664,26.98 C37.48,27.164 37.204,27.164 37.02,26.98 C36.836,26.796 36.836,26.52 37.02,26.336 L37.664,25.692 C37.848,25.508 38.124,25.508 38.308,25.692 C38.492,25.876 38.492,26.152 38.308,26.336 Z M40.7,32.96 L39.78,32.96 C39.504,32.96 39.32,32.776 39.32,32.5 C39.32,32.224 39.504,32.04 39.78,32.04 L40.7,32.04 C40.976,32.04 41.16,32.224 41.16,32.5 C41.16,32.776 40.976,32.96 40.7,32.96 Z" id="Shape"></path>
            </g>
        </g>
    </g>
</svg>