<?xml version="1.0" encoding="UTF-8"?>
<svg width="86px" height="61px" viewBox="0 0 86 61" version="1.1" xmlns="http://www.w3.org/2000/svg" xmlns:xlink="http://www.w3.org/1999/xlink">
    <!-- Generator: Sketch 50.2 (55047) - http://www.bohemiancoding.com/sketch -->
    <title>Shape</title>
    <desc>Created with Sketch.</desc>
    <defs></defs>
    <g id="Page-1" stroke="none" stroke-width="1" fill="none" fill-rule="evenodd">
        <g id="00_Desktop_1_Homepage-(1)" transform="translate(-575.000000, -154.000000)" fill="#F4F4F4" fill-rule="nonzero">
            <g id="Social-History" transform="translate(410.000000, 93.000000)">
                <g id="Shape">
                    <path d="M228.64,61 C219.352,61 211.784,67.9565217 208,72.4782609 C204.216,67.9565217 196.648,61 187.36,61 C173.944,61 165,70.7391304 165,85.3478261 C165,111.086957 204.216,138.565217 205.936,139.608696 L208,141 L210.064,139.956522 C211.784,138.913043 251,111.434783 251,85.3478261 C251,70.7391304 242.056,61 228.64,61 Z M222,104.555556 C222,105.622222 221.333333,106.333333 220.333333,106.333333 L212,106.333333 L212,115.222222 C212,116.288889 211.333333,117 210.333333,117 L203.666667,117 C202.666667,117 202,116.288889 202,115.222222 L202,106.333333 L193.666667,106.333333 C192.666667,106.333333 192,105.622222 192,104.555556 L192,97.4444444 C192,96.3777778 192.666667,95.6666667 193.666667,95.6666667 L202,95.6666667 L202,86.7777778 C202,85.7111111 202.666667,85 203.666667,85 L210.333333,85 C211.333333,85 212,85.7111111 212,86.7777778 L212,95.6666667 L220.333333,95.6666667 C221.333333,95.6666667 222,96.3777778 222,97.4444444 L222,104.555556 Z"></path>
                </g>
            </g>
        </g>
    </g>
</svg>