<?xml version="1.0" encoding="UTF-8"?>
<svg width="16px" height="9px" viewBox="0 0 16 9" version="1.1" xmlns="http://www.w3.org/2000/svg" xmlns:xlink="http://www.w3.org/1999/xlink">
    <!-- Generator: Sketch 50.2 (55047) - http://www.bohemiancoding.com/sketch -->
    <title>Shape</title>
    <desc>Created with Sketch.</desc>
    <defs></defs>
    <g id="Symbols" stroke="none" stroke-width="1" fill="none" fill-rule="evenodd">
        <g id="card-list/teleconsultan-appointment" transform="translate(-235.000000, -21.000000)" fill="#49AEF4" fill-rule="nonzero">
            <path d="M249.933333,21.1307683 L247,23.2641016 L247,22.0641016 C247,21.5307683 246.533333,21.0641016 246,21.0641016 L236,21.0641016 C235.466667,21.0641016 235,21.5307683 235,22.0641016 L235,28.7307683 C235,29.2641016 235.466667,29.7307683 236,29.7307683 L246,29.7307683 C246.533333,29.7307683 247,29.2641016 247,28.7307683 L247,27.5307683 L249.933333,29.6641016 C250.4,29.9974349 251,29.6641016 251,29.1307683 L251,21.7974349 C251,21.1307683 250.4,20.7974349 249.933333,21.1307683 Z M239.333333,23.6641016 L237.333333,23.6641016 C237.133333,23.6641016 237,23.5307683 237,23.3307683 C237,23.1307683 237.133333,22.9974349 237.333333,22.9974349 L239.333333,22.9974349 C239.533333,22.9974349 239.666667,23.1307683 239.666667,23.3307683 C239.666667,23.5307683 239.533333,23.6641016 239.333333,23.6641016 Z" id="Shape"></path>
        </g>
    </g>
</svg>