<?xml version="1.0" encoding="UTF-8"?>
<svg width="16px" height="16px" viewBox="0 0 16 16" version="1.1" xmlns="http://www.w3.org/2000/svg" xmlns:xlink="http://www.w3.org/1999/xlink">
    <!-- Generator: Sketch 50.2 (55047) - http://www.bohemiancoding.com/sketch -->
    <title>Shape</title>
    <desc>Created with Sketch.</desc>
    <defs></defs>
    <g id="Page-1" stroke="none" stroke-width="1" fill="none" fill-rule="evenodd">
        <g id="00_Desktop_2_MyAppointment-Hover" transform="translate(-989.000000, -172.000000)" fill="#01BBAE" fill-rule="nonzero">
            <g id="Hover" transform="translate(965.000000, 147.000000)">
                <g id="Telemedical-Appointment" transform="translate(24.000000, 23.000000)">
                    <path d="M14.9879043,14.3423416 C15.3860443,14.7404817 15.3860443,15.4040484 14.9879043,15.7358318 L13.8598408,16.8638953 C12.7317773,17.9919588 10.9401471,18.1910288 9.54665689,17.2620353 C7.88774001,16.1339719 5.69796972,14.5414117 4.50354956,13.3469915 C3.3091294,12.1525713 1.71656919,9.96280105 0.588505711,8.30388416 C-0.340487744,6.97675066 -0.141417718,5.18512042 0.986645764,3.99070026 L2.11470925,2.86263678 C2.5128493,2.46449673 3.17641605,2.46449673 3.50819943,2.86263678 L5.43254302,4.78698037 C5.83068307,5.18512042 5.83068307,5.84868717 5.43254302,6.18047055 L4.63626291,6.97675066 C4.43719289,7.17582068 4.37083621,7.50760406 4.56990624,7.77303076 C5.03440296,8.50295419 5.89703974,9.89644437 6.89238988,10.8917945 C7.88774001,11.8871446 9.28123019,12.8161381 10.0111536,13.2142781 C10.2765803,13.3469915 10.6083637,13.3469915 10.8074337,13.1479215 L11.6037138,12.3516414 C12.0018539,11.9535013 12.6654206,11.9535013 12.997204,12.3516414 L14.9879043,14.3423416 Z M15.9168977,2.2654267 L15.9168977,2.19907003 C15.9168977,2.19907003 15.9168977,2.13271335 15.8505411,2.13271335 C15.8505411,2.13271335 15.8505411,2.13271335 15.8505411,2.06635668 L15.8505411,2.06635668 C15.8505411,2.06635668 15.7841844,2.06635668 15.7841844,2 C15.7841844,2 15.7841844,2 15.7178277,2 C15.7178277,2 15.7178277,2 15.651471,2 L15.5851144,2 L15.5851144,2 L11.6037138,2 C11.4046438,2 11.2719305,2.13271335 11.2719305,2.33178338 C11.2719305,2.5308534 11.4046438,2.66356675 11.6037138,2.66356675 L14.7224776,2.66356675 L8.08681003,8.70202422 C7.95409668,8.83473757 7.95409668,9.03380759 8.08681003,9.16652094 C8.15316671,9.23287762 8.21952338,9.2992343 8.35223673,9.2992343 C8.41859341,9.2992343 8.48495009,9.2992343 8.55130676,9.23287762 L15.3196877,3.12806348 L15.3196877,6.37954058 C15.3196877,6.5786106 15.452401,6.71132395 15.651471,6.71132395 C15.8505411,6.71132395 15.9832544,6.5786106 15.9832544,6.37954058 L15.9168977,2.2654267 C15.9168977,2.33178338 15.9168977,2.33178338 15.9168977,2.2654267 Z" id="Shape"></path>
                </g>
            </g>
        </g>
    </g>
</svg>