<?xml version="1.0" encoding="UTF-8"?>
<svg width="25px" height="24px" viewBox="0 0 25 24" version="1.1" xmlns="http://www.w3.org/2000/svg" xmlns:xlink="http://www.w3.org/1999/xlink">
    <!-- Generator: Sketch 50.2 (55047) - http://www.bohemiancoding.com/sketch -->
    <title>Shape</title>
    <desc>Created with Sketch.</desc>
    <defs></defs>
    <g id="Page-1" stroke="none" stroke-width="1" fill="none" fill-rule="evenodd">
        <g id="00_Desktop_2.2_MyAppointment-Detail" transform="translate(-926.000000, -219.000000)" fill="#01BBAE" fill-rule="nonzero">
            <g id="content" transform="translate(242.000000, 157.000000)">
                <g id="date" transform="translate(684.000000, 59.000000)">
                    <path d="M25,6 L25,10 L0,10 L0,6 C0,5.4 0.4,5 1,5 L6,5 L6,3.5 C6,3.2 6.2,3 6.5,3 C6.8,3 7,3.2 7,3.5 L7,5 L18,5 L18,3.5 C18,3.2 18.2,3 18.5,3 C18.8,3 19,3.2 19,3.5 L19,5 L24,5 C24.6,5 25,5.4 25,6 Z M8,18.5 C8,16 10,14 12.5,14 C15,14 17,16 17,18.5 C17,21 15,23 12.5,23 C10,23 8,21 8,18.5 Z M12,19 C12,19.2 12.0997003,19.3 12.1994007,19.4 L14.1934074,20.9 C14.2931077,21 14.392808,21 14.4925084,21 C14.691909,21 14.7916094,20.9 14.8913097,20.8 C15.0907104,20.6 14.99101,20.3 14.7916094,20.1 L12.9970033,18.8 L12.9970033,16.5 C12.9970033,16.2 12.7976027,16 12.4985017,16 C12.1994007,16 12,16.2 12,16.5 L12,19 L12,19 Z M0,11 L25,11 L25,26 C25,26.6 24.6,27 24,27 L1,27 C0.4,27 0,26.6 0,26 L0,11 Z M7,18.5 C7,21.5 9.5,24 12.5,24 C15.5,24 18,21.5 18,18.5 C18,15.5 15.5,13 12.5,13 C9.5,13 7,15.5 7,18.5 Z" id="Shape"></path>
                </g>
            </g>
        </g>
    </g>
</svg>