<?xml version="1.0" encoding="UTF-8"?>
<svg width="21px" height="21px" viewBox="0 0 21 21" version="1.1" xmlns="http://www.w3.org/2000/svg" xmlns:xlink="http://www.w3.org/1999/xlink">
    <!-- Generator: Sketch 52.1 (67048) - http://www.bohemiancoding.com/sketch -->
    <title>Shape</title>
    <desc>Created with Sketch.</desc>
    <g id="Page-1" stroke="none" stroke-width="1" fill="none" fill-rule="evenodd">
        <g id="00_Desktop_3.1.1_Health-History-Detail-Lab-0" transform="translate(-961.000000, -457.000000)" fill="#FFFFFF" fill-rule="nonzero">
            <g id="btn-Follow-up" transform="translate(940.000000, 446.000000)">
                <path d="M31.5,11 C25.704,11 21,15.704 21,21.5 C21,27.296 25.704,32 31.5,32 C37.296,32 42,27.296 42,21.5 C42,15.704 37.296,11 31.5,11 Z M31.08,13.1 C31.08,12.848 31.248,12.68 31.5,12.68 C31.752,12.68 31.92,12.848 31.92,13.1 L31.92,13.94 C31.92,14.192 31.752,14.36 31.5,14.36 C31.248,14.36 31.08,14.192 31.08,13.94 L31.08,13.1 Z M23.94,21.92 L23.1,21.92 C22.848,21.92 22.68,21.752 22.68,21.5 C22.68,21.248 22.848,21.08 23.1,21.08 L23.94,21.08 C24.192,21.08 24.36,21.248 24.36,21.5 C24.36,21.752 24.192,21.92 23.94,21.92 Z M26.46,27.128 L25.872,27.716 C25.704,27.884 25.452,27.884 25.284,27.716 C25.116,27.548 25.116,27.296 25.284,27.128 L25.872,26.54 C26.04,26.372 26.292,26.372 26.46,26.54 C26.628,26.708 26.628,26.96 26.46,27.128 Z M26.46,16.46 C26.292,16.628 26.04,16.628 25.872,16.46 L25.284,15.872 C25.116,15.704 25.116,15.452 25.284,15.284 C25.452,15.116 25.704,15.116 25.872,15.284 L26.46,15.872 C26.628,16.04 26.628,16.292 26.46,16.46 Z M31.92,29.9 C31.92,30.152 31.752,30.32 31.5,30.32 C31.248,30.32 31.08,30.152 31.08,29.9 L31.08,29.06 C31.08,28.808 31.248,28.64 31.5,28.64 C31.752,28.64 31.92,28.808 31.92,29.06 L31.92,29.9 Z M35.7,21.92 L31.5,21.92 C31.248,21.92 31.08,21.752 31.08,21.5 L31.08,17.3 C31.08,17.048 31.248,16.88 31.5,16.88 C31.752,16.88 31.92,17.048 31.92,17.3 L31.92,21.08 L35.7,21.08 C35.952,21.08 36.12,21.248 36.12,21.5 C36.12,21.752 35.952,21.92 35.7,21.92 Z M37.716,27.716 C37.548,27.884 37.296,27.884 37.128,27.716 L36.54,27.128 C36.372,26.96 36.372,26.708 36.54,26.54 C36.708,26.372 36.96,26.372 37.128,26.54 L37.716,27.128 C37.884,27.296 37.884,27.548 37.716,27.716 Z M37.716,15.872 L37.128,16.46 C36.96,16.628 36.708,16.628 36.54,16.46 C36.372,16.292 36.372,16.04 36.54,15.872 L37.128,15.284 C37.296,15.116 37.548,15.116 37.716,15.284 C37.884,15.452 37.884,15.704 37.716,15.872 Z M39.9,21.92 L39.06,21.92 C38.808,21.92 38.64,21.752 38.64,21.5 C38.64,21.248 38.808,21.08 39.06,21.08 L39.9,21.08 C40.152,21.08 40.32,21.248 40.32,21.5 C40.32,21.752 40.152,21.92 39.9,21.92 Z" id="Shape"></path>
            </g>
        </g>
    </g>
</svg>