<?xml version="1.0" encoding="UTF-8"?>
<svg width="73px" height="64px" viewBox="0 0 73 64" version="1.1" xmlns="http://www.w3.org/2000/svg" xmlns:xlink="http://www.w3.org/1999/xlink">
    <!-- Generator: Sketch 50.2 (55047) - http://www.bohemiancoding.com/sketch -->
    <title>Shape</title>
    <desc>Created with Sketch.</desc>
    <defs></defs>
    <g id="Page-1" stroke="none" stroke-width="1" fill="none" fill-rule="evenodd">
        <g id="0-Desktop_Teleconsultation-Popup-1" transform="translate(-456.000000, -329.000000)" fill="#01BBAE" fill-rule="nonzero">
            <g id="form" transform="translate(353.000000, 203.000000)">
                <g id="VideoCall" transform="translate(42.000000, 126.000000)">
                    <path d="M128.936364,0 L97.1363636,0 C94.8236364,0 92.8,2.02363636 92.8,4.33636364 L92.8,11.5636364 L68.2272727,11.5636364 C65.9145455,11.5636364 63.8909091,13.5872727 63.8909091,15.9 L63.8909091,54.9272727 L61,54.9272727 L61,56.3727273 C61,60.42 64.18,63.6 68.2272727,63.6 L117.372727,63.6 C121.42,63.6 124.6,60.42 124.6,56.3727273 L124.6,54.9272727 L121.709091,54.9272727 L121.709091,34.6909091 L128.936364,34.6909091 C131.249091,34.6909091 133.272727,32.6672727 133.272727,30.3545455 L133.272727,4.33636364 C133.272727,2.02363636 131.249091,0 128.936364,0 Z M118.818182,54.9272727 L98.5818182,54.9272727 L98.5818182,57.8181818 L87.0181818,57.8181818 L87.0181818,54.9272727 L66.7818182,54.9272727 L66.7818182,15.9 C66.7818182,15.0327273 67.36,14.4545455 68.2272727,14.4545455 L92.8,14.4545455 L92.8,34.6909091 L92.8,37.5818182 C92.8,39.3163636 94.2454545,40.4727273 95.6909091,40.4727273 C96.2690909,40.4727273 96.8472727,40.1836364 97.4254545,39.8945455 L103.207273,35.5581818 C104.074545,34.98 104.941818,34.6909091 105.809091,34.6909091 L118.818182,34.6909091 L118.818182,54.9272727 Z M120.263636,23.1272727 L105.809091,23.1272727 C104.941818,23.1272727 104.363636,22.5490909 104.363636,21.6818182 C104.363636,20.8145455 104.941818,20.2363636 105.809091,20.2363636 L120.263636,20.2363636 C121.130909,20.2363636 121.709091,20.8145455 121.709091,21.6818182 C121.709091,22.5490909 121.130909,23.1272727 120.263636,23.1272727 Z M120.263636,14.4545455 L105.809091,14.4545455 C104.941818,14.4545455 104.363636,13.8763636 104.363636,13.0090909 C104.363636,12.1418182 104.941818,11.5636364 105.809091,11.5636364 L120.263636,11.5636364 C121.130909,11.5636364 121.709091,12.1418182 121.709091,13.0090909 C121.709091,13.8763636 121.130909,14.4545455 120.263636,14.4545455 Z" id="Shape"></path>
                </g>
            </g>
        </g>
    </g>
</svg>