<?xml version="1.0" encoding="UTF-8"?>
<svg width="23px" height="19px" viewBox="0 0 23 19" version="1.1" xmlns="http://www.w3.org/2000/svg" xmlns:xlink="http://www.w3.org/1999/xlink">
    <!-- Generator: Sketch 52.1 (67048) - http://www.bohemiancoding.com/sketch -->
    <title>Shape</title>
    <desc>Created with Sketch.</desc>
    <g id="Page-1" stroke="none" stroke-width="1" fill="none" fill-rule="evenodd">
        <g id="00_Desktop_3.1.1_Health-History-Detail-Lab-0" transform="translate(-960.000000, -403.000000)" fill="#FFFFFF" fill-rule="nonzero">
            <g id="btn-View-Original-Records" transform="translate(940.000000, 389.000000)">
                <path d="M41.2619048,14 L30.4047619,14 C29.6809524,14 29.047619,14.6333333 29.047619,15.3571429 L29.047619,17.6190476 L29.047619,20.3333333 L29.047619,28.0238095 C29.047619,30.2857143 27.2380952,32.0952381 24.9761905,32.0952381 C22.7142857,32.0952381 20.9047619,30.2857143 20.9047619,28.0238095 L20.9047619,19.8809524 C20.9047619,18.3428571 22.0809524,17.1666667 23.6190476,17.1666667 C25.1571429,17.1666667 26.3333333,18.3428571 26.3333333,19.8809524 L26.3333333,27.1190476 C26.3333333,27.8428571 25.7,28.4761905 24.9761905,28.4761905 C24.252381,28.4761905 23.6190476,27.8428571 23.6190476,27.1190476 L23.6190476,20.3333333 C23.6190476,20.0619048 23.4380952,19.8809524 23.1666667,19.8809524 C22.8952381,19.8809524 22.7142857,20.0619048 22.7142857,20.3333333 L22.7142857,27.1190476 C22.7142857,28.3857143 23.7095238,29.3809524 24.9761905,29.3809524 C26.2428571,29.3809524 27.2380952,28.3857143 27.2380952,27.1190476 L27.2380952,19.8809524 C27.2380952,17.8904762 25.6095238,16.2619048 23.6190476,16.2619048 C21.6285714,16.2619048 20,17.8904762 20,19.8809524 L20,28.0238095 C20,30.7380952 22.2619048,33 24.9761905,33 L25.4285714,33 L25.4285714,33 L38.547619,33 C40.8095238,33 42.6190476,31.1904762 42.6190476,28.9285714 L42.6190476,15.3571429 C42.6190476,14.6333333 41.9857143,14 41.2619048,14 Z M37.6428571,29.3809524 L32.2142857,29.3809524 C31.9428571,29.3809524 31.7619048,29.2 31.7619048,28.9285714 C31.7619048,28.6571429 31.9428571,28.4761905 32.2142857,28.4761905 L37.6428571,28.4761905 C37.9142857,28.4761905 38.0952381,28.6571429 38.0952381,28.9285714 C38.0952381,29.2 37.9142857,29.3809524 37.6428571,29.3809524 Z M39.452381,26.6666667 L32.2142857,26.6666667 C31.9428571,26.6666667 31.7619048,26.4857143 31.7619048,26.2142857 C31.7619048,25.9428571 31.9428571,25.7619048 32.2142857,25.7619048 L39.452381,25.7619048 C39.7238095,25.7619048 39.9047619,25.9428571 39.9047619,26.2142857 C39.9047619,26.4857143 39.7238095,26.6666667 39.452381,26.6666667 Z M39.452381,23.952381 L32.2142857,23.952381 C31.9428571,23.952381 31.7619048,23.7714286 31.7619048,23.5 C31.7619048,23.2285714 31.9428571,23.047619 32.2142857,23.047619 L39.452381,23.047619 C39.7238095,23.047619 39.9047619,23.2285714 39.9047619,23.5 C39.9047619,23.7714286 39.7238095,23.952381 39.452381,23.952381 Z M39.9047619,20.3333333 C39.9047619,20.8761905 39.5428571,21.2380952 39,21.2380952 L32.6666667,21.2380952 C32.1238095,21.2380952 31.7619048,20.8761905 31.7619048,20.3333333 L31.7619048,17.6190476 C31.7619048,17.0761905 32.1238095,16.7142857 32.6666667,16.7142857 L39,16.7142857 C39.5428571,16.7142857 39.9047619,17.0761905 39.9047619,17.6190476 L39.9047619,20.3333333 Z" id="Shape"></path>
            </g>
        </g>
    </g>
</svg>