<?xml version="1.0" encoding="UTF-8"?>
<svg width="35px" height="25px" viewBox="0 0 35 25" version="1.1" xmlns="http://www.w3.org/2000/svg" xmlns:xlink="http://www.w3.org/1999/xlink">
    <!-- Generator: Sketch 52.1 (67048) - http://www.bohemiancoding.com/sketch -->
    <title>visa</title>
    <desc>Created with Sketch.</desc>
    <g id="Page-1" stroke="none" stroke-width="1" fill="none" fill-rule="evenodd">
        <g id="00_Desktop_5.1_Billings-Details-Paybill" transform="translate(-799.000000, -284.000000)">
            <g id="modal" transform="translate(353.000000, 153.000000)">
                <g id="35x25" transform="translate(446.000000, 131.000000)">
                    <g id="visa">
                        <rect id="visa-bg" fill="#224DBA" x="0" y="0" width="35" height="25" rx="3.31578947"></rect>
                        <path d="M11.925,16.674 L9.874,16.674 L8.336,10.674 C8.263,10.398 8.108,10.154 7.88,10.039 C7.311,9.75 6.684,9.52 6,9.404 L6,9.173 L9.304,9.173 C9.76,9.173 10.102,9.52 10.159,9.923 L10.957,14.251 L13.007,9.173 L15.001,9.173 L11.925,16.674 Z M16.141,16.674 L14.204,16.674 L15.799,9.173 L17.736,9.173 L16.141,16.674 Z M20.242,11.251 C20.299,10.847 20.641,10.616 21.04,10.616 C21.667,10.558 22.35,10.674 22.92,10.962 L23.262,9.347 C22.692,9.116 22.065,9 21.496,9 C19.616,9 18.248,10.039 18.248,11.481 C18.248,12.578 19.217,13.154 19.901,13.501 C20.641,13.847 20.926,14.078 20.869,14.424 C20.869,14.943 20.299,15.174 19.73,15.174 C19.046,15.174 18.362,15.001 17.736,14.712 L17.394,16.328 C18.078,16.616 18.818,16.732 19.502,16.732 C21.61,16.789 22.92,15.751 22.92,14.193 C22.92,12.231 20.242,12.116 20.242,11.251 L20.242,11.251 Z M29.699,16.674 L28.161,9.173 L26.509,9.173 C26.167,9.173 25.825,9.404 25.711,9.75 L22.863,16.674 L24.857,16.674 L25.255,15.578 L27.705,15.578 L27.933,16.674 L29.699,16.674 Z M26.794,11.193 L27.363,14.02 L25.768,14.02 L26.794,11.193 Z" id="visa-logo" fill="#FFFFFF"></path>
                    </g>
                </g>
            </g>
        </g>
    </g>
</svg>