<?xml version="1.0" encoding="UTF-8"?>
<svg width="11px" height="11px" viewBox="0 0 11 11" version="1.1" xmlns="http://www.w3.org/2000/svg" xmlns:xlink="http://www.w3.org/1999/xlink">
    <!-- Generator: Sketch 50.2 (55047) - http://www.bohemiancoding.com/sketch -->
    <title>Shape</title>
    <desc>Created with Sketch.</desc>
    <defs></defs>
    <g id="Page-1" stroke="none" stroke-width="1" fill="none" fill-rule="evenodd">
        <g id="Register" transform="translate(-446.000000, -613.000000)" fill="#023532" fill-rule="nonzero">
            <g id="Group-3-Copy-6" transform="translate(109.000000, 509.000000)">
                <g id="English" transform="translate(170.000000, 93.000000)">
                    <path d="M177.873077,21.1961538 C178.042308,21.3653846 178.042308,21.6192308 177.873077,21.7884615 C177.703846,21.9576923 177.45,21.9576923 177.280769,21.7884615 L172.542308,17.05 L167.803846,21.7884615 C167.719231,21.8730769 167.634615,21.8730769 167.465385,21.8730769 C167.296154,21.8730769 167.211538,21.8730769 167.126923,21.7884615 C166.957692,21.6192308 166.957692,21.3653846 167.126923,21.1961538 L171.865385,16.4576923 L167.126923,11.7192308 C166.957692,11.55 166.957692,11.2961538 167.126923,11.1269231 C167.211538,11.0423077 167.296154,11.0423077 167.465385,11.0423077 C167.634615,11.0423077 167.719231,11.0423077 167.803846,11.1269231 L172.542308,15.8653846 L177.280769,11.1269231 C177.45,10.9576923 177.703846,10.9576923 177.873077,11.1269231 C178.042308,11.2961538 178.042308,11.55 177.873077,11.7192308 L173.134615,16.4576923 L177.873077,21.1961538 Z" id="Shape"></path>
                </g>
            </g>
        </g>
    </g>
</svg>