<?xml version="1.0" encoding="UTF-8"?>
<svg width="14px" height="12px" viewBox="0 0 14 12" version="1.1" xmlns="http://www.w3.org/2000/svg" xmlns:xlink="http://www.w3.org/1999/xlink">
    <!-- Generator: Sketch 50.2 (55047) - http://www.bohemiancoding.com/sketch -->
    <title>Shape</title>
    <desc>Created with Sketch.</desc>
    <defs></defs>
    <g id="Page-1" stroke="none" stroke-width="1" fill="none" fill-rule="evenodd">
        <g id="Doctor---My-Schedule---0-Hospital-Appoint" transform="translate(-459.000000, -115.000000)" fill="#FFFFFF" fill-rule="nonzero" stroke="#FFFFFF">
            <g id="Group-6" transform="translate(452.000000, 107.000000)">
                <path d="M20,14 C20,14.2117647 19.8588235,14.3529412 19.6470588,14.3529412 L14.3529412,14.3529412 L14.3529412,19.6470588 C14.3529412,19.8588235 14.2117647,20 14,20 C13.7882353,20 13.6470588,19.8588235 13.6470588,19.6470588 L13.6470588,14.3529412 L8.35294118,14.3529412 C8.14117647,14.3529412 8,14.2117647 8,14 C8,13.7882353 8.14117647,13.6470588 8.35294118,13.6470588 L13.6470588,13.6470588 L13.6470588,8.35294118 C13.6470588,8.14117647 13.7882353,8 14,8 C14.2117647,8 14.3529412,8.14117647 14.3529412,8.35294118 L14.3529412,13.6470588 L19.6470588,13.6470588 C19.8588235,13.6470588 20,13.7882353 20,14 Z" id="Shape"></path>
            </g>
        </g>
    </g>
</svg>