<?xml version="1.0" encoding="UTF-8"?>
<svg width="18px" height="18px" viewBox="0 0 18 18" version="1.1" xmlns="http://www.w3.org/2000/svg" xmlns:xlink="http://www.w3.org/1999/xlink">
    <!-- Generator: Sketch 50.2 (55047) - http://www.bohemiancoding.com/sketch -->
    <title>Group 6</title>
    <desc>Created with Sketch.</desc>
    <defs></defs>
    <g id="Page-1" stroke="none" stroke-width="1" fill="none" fill-rule="evenodd">
        <g id="Doctor---Search-Patient---8-Add-Billing" transform="translate(-234.000000, -453.000000)">
            <g id="Group-11" transform="translate(161.000000, 99.000000)">
                <g id="illustration__2x">
                    <g id="Group-17" transform="translate(48.000000, 130.000000)">
                        <g id="Group-18" transform="translate(25.000000, 224.000000)">
                            <g id="Group-6">
                                <circle id="Oval-2" fill="#329A93" cx="9" cy="9" r="9"></circle>
                                <path d="M12.8571429,9 C12.8571429,9.13613445 12.7663866,9.22689076 12.6302521,9.22689076 L9.22689076,9.22689076 L9.22689076,12.6302521 C9.22689076,12.7663866 9.13613445,12.8571429 9,12.8571429 C8.86386555,12.8571429 8.77310924,12.7663866 8.77310924,12.6302521 L8.77310924,9.22689076 L5.3697479,9.22689076 C5.23361345,9.22689076 5.14285714,9.13613445 5.14285714,9 C5.14285714,8.86386555 5.23361345,8.77310924 5.3697479,8.77310924 L8.77310924,8.77310924 L8.77310924,5.3697479 C8.77310924,5.23361345 8.86386555,5.14285714 9,5.14285714 C9.13613445,5.14285714 9.22689076,5.23361345 9.22689076,5.3697479 L9.22689076,8.77310924 L12.6302521,8.77310924 C12.7663866,8.77310924 12.8571429,8.86386555 12.8571429,9 Z" id="Shape" stroke="#FFFFFF" fill="#FFFFFF" fill-rule="nonzero"></path>
                            </g>
                        </g>
                    </g>
                </g>
            </g>
        </g>
    </g>
</svg>