<?xml version="1.0" encoding="UTF-8"?>
<svg width="15px" height="17px" viewBox="0 0 15 17" version="1.1" xmlns="http://www.w3.org/2000/svg" xmlns:xlink="http://www.w3.org/1999/xlink">
    <!-- Generator: Sketch 50.2 (55047) - http://www.bohemiancoding.com/sketch -->
    <title>Shape</title>
    <desc>Created with Sketch.</desc>
    <defs></defs>
    <g id="Page-1" stroke="none" stroke-width="1" fill="none" fill-rule="evenodd">
        <g id="Doctor---Search-Patient---1-Search-Result" transform="translate(-1035.000000, -458.000000)" fill="#49AEF4" fill-rule="nonzero">
            <g id="Group-9-Copy-4" transform="translate(268.000000, 374.000000)">
                <g id="Group-9" transform="translate(749.000000, 62.000000)">
                    <g id="Group-8" transform="translate(17.000000, 22.000000)">
                        <path d="M15.2732733,14.2562813 L15.2732733,15.6156406 C15.2732733,16.3632883 14.6615616,16.975 13.9139139,16.975 L2.6991992,16.975 C3.65075075,16.975 4.3983984,16.2273524 4.3983984,15.2758008 L4.3983984,14.2562813 L15.2732733,14.2562813 Z M2.35935936,16.2953203 C1.61171171,16.2953203 1,15.6836086 1,14.935961 L1,0.322847848 C1,0.186911912 1.06796797,0.050975976 1.2039039,0.050975976 C1.33983984,-0.016991992 1.47577578,-0.016991992 1.54374374,0.050975976 L3.37887888,1.2743994 L5.21401401,0.050975976 C5.34994995,-0.016991992 5.48588589,-0.016991992 5.62182182,0.050975976 L7.45695696,1.2743994 L9.29209209,0.050975976 C9.42802803,-0.016991992 9.56396396,-0.016991992 9.6998999,0.050975976 L11.535035,1.2743994 L13.3701702,0.050975976 C13.5061061,-0.016991992 13.642042,-0.016991992 13.71001,0.050975976 C13.777978,0.118943944 13.9139139,0.25487988 13.9139139,0.322847848 L13.9139139,13.5766016 L3.71871872,13.5766016 L3.71871872,14.935961 C3.71871872,15.6836086 3.10700701,16.2953203 2.35935936,16.2953203 Z M9.15615616,8.479004 L9.15615616,9.15868368 C9.15615616,9.36258759 9.02022022,9.49852352 8.81631632,9.49852352 L5.41791792,9.49852352 C5.21401401,9.49852352 5.07807808,9.63445946 5.07807808,9.83836336 C5.07807808,10.0422673 5.21401401,10.1782032 5.41791792,10.1782032 L7.11711712,10.1782032 L7.11711712,10.518043 C7.11711712,10.7219469 7.25305305,10.8578829 7.45695696,10.8578829 C7.66086086,10.8578829 7.7967968,10.7219469 7.7967968,10.518043 L7.7967968,10.1782032 L8.81631632,10.1782032 C9.36006006,10.1782032 9.83583584,9.70242743 9.83583584,9.15868368 L9.83583584,8.479004 C9.83583584,7.93526026 9.36006006,7.45948448 8.81631632,7.45948448 L6.0975976,7.45948448 C5.89369369,7.45948448 5.75775776,7.32354855 5.75775776,7.11964464 L5.75775776,6.43996496 C5.75775776,6.23606106 5.89369369,6.10012513 6.0975976,6.10012513 L9.495996,6.10012513 C9.6998999,6.10012513 9.83583584,5.96418919 9.83583584,5.76028529 C9.83583584,5.55638138 9.6998999,5.42044545 9.495996,5.42044545 L7.7967968,5.42044545 L7.7967968,5.08060561 C7.7967968,4.8767017 7.66086086,4.74076577 7.45695696,4.74076577 C7.25305305,4.74076577 7.11711712,4.8767017 7.11711712,5.08060561 L7.11711712,5.42044545 L6.0975976,5.42044545 C5.55385385,5.42044545 5.07807808,5.89622122 5.07807808,6.43996496 L5.07807808,7.11964464 C5.07807808,7.66338839 5.55385385,8.13916416 6.0975976,8.13916416 L8.81631632,8.13916416 C9.02022022,8.13916416 9.15615616,8.2751001 9.15615616,8.479004 Z" id="Shape"></path>
                    </g>
                </g>
            </g>
        </g>
    </g>
</svg>