<?xml version="1.0" encoding="UTF-8"?>
<svg width="16px" height="19px" viewBox="0 0 16 19" version="1.1" xmlns="http://www.w3.org/2000/svg" xmlns:xlink="http://www.w3.org/1999/xlink">
    <!-- Generator: Sketch 50.2 (55047) - http://www.bohemiancoding.com/sketch -->
    <title>Shape</title>
    <desc>Created with Sketch.</desc>
    <defs></defs>
    <g id="Page-1" stroke="none" stroke-width="1" fill="none" fill-rule="evenodd">
        <g id="Doctor---Search-Patient---3-Medical-Record" transform="translate(-74.000000, -440.000000)" fill="#49AEF4" fill-rule="nonzero">
            <g id="Group-11" transform="translate(48.000000, 430.000000)">
                <path d="M36.1066667,14.692381 L36.1066667,10.2165714 L40.8712381,14.9811429 L40.9434286,15.0533333 L36.467619,15.0533333 C36.2510476,15.0533333 36.1066667,14.9089524 36.1066667,14.692381 Z M41.16,15.7752381 L41.16,26.9647619 C41.16,27.5422857 40.6546667,28.047619 40.0771429,28.047619 L27.0828571,28.047619 C26.5053333,28.047619 26,27.5422857 26,26.9647619 L26,11.0828571 C26,10.5053333 26.5053333,10 27.0828571,10 L35.3847619,10 L35.3847619,14.692381 C35.3847619,15.2699048 35.8900952,15.7752381 36.467619,15.7752381 L41.16,15.7752381 Z M29.6095238,18.3019048 C29.6095238,18.5184762 29.7539048,18.6628571 29.9704762,18.6628571 L34.3019048,18.6628571 C34.5184762,18.6628571 34.6628571,18.5184762 34.6628571,18.3019048 C34.6628571,18.0853333 34.5184762,17.9409524 34.3019048,17.9409524 L29.9704762,17.9409524 C29.7539048,17.9409524 29.6095238,18.0853333 29.6095238,18.3019048 Z M37.5504762,24.0771429 C37.5504762,23.8605714 37.4060952,23.7161905 37.1895238,23.7161905 L29.9704762,23.7161905 C29.7539048,23.7161905 29.6095238,23.8605714 29.6095238,24.0771429 C29.6095238,24.2937143 29.7539048,24.4380952 29.9704762,24.4380952 L37.1895238,24.4380952 C37.4060952,24.4380952 37.5504762,24.2937143 37.5504762,24.0771429 Z M37.5504762,21.1895238 C37.5504762,20.9729524 37.4060952,20.8285714 37.1895238,20.8285714 L29.9704762,20.8285714 C29.7539048,20.8285714 29.6095238,20.9729524 29.6095238,21.1895238 C29.6095238,21.4060952 29.7539048,21.5504762 29.9704762,21.5504762 L37.1895238,21.5504762 C37.4060952,21.5504762 37.5504762,21.4060952 37.5504762,21.1895238 Z" id="Shape"></path>
            </g>
        </g>
    </g>
</svg>