<?xml version="1.0" encoding="UTF-8"?>
<svg width="17px" height="17px" viewBox="0 0 17 17" version="1.1" xmlns="http://www.w3.org/2000/svg" xmlns:xlink="http://www.w3.org/1999/xlink">
    <!-- Generator: Sketch 50.2 (55047) - http://www.bohemiancoding.com/sketch -->
    <title>Shape</title>
    <desc>Created with Sketch.</desc>
    <defs></defs>
    <g id="Symbols" stroke="none" stroke-width="1" fill="none" fill-rule="evenodd">
        <g id="icon/call" transform="translate(-3.000000, -4.000000)" fill="#49AEF4" fill-rule="nonzero">
            <path d="M19.0005313,17.1939366 C19.4255708,17.6189761 19.4255708,18.3273754 19.0005313,18.6815751 L17.7962525,19.8858538 C16.5919737,21.0901326 14.6792957,21.3026524 13.1916572,20.3108934 C11.420659,19.1066146 9.08294134,17.4064564 7.80782264,16.1313377 C6.53270394,14.856219 4.83254567,12.5185013 3.62826689,10.7475031 C2.6365079,9.33070458 2.84902768,7.41802652 4.05330646,6.14290782 L5.25758523,4.93862905 C5.6826248,4.51358948 6.39102408,4.51358948 6.74522372,4.93862905 L8.79958163,6.99298696 C9.2246212,7.41802652 9.2246212,8.1264258 8.79958163,8.48062544 L7.9495025,9.33070458 C7.73698271,9.54322436 7.66614278,9.897424 7.87866257,10.1807837 C8.37454206,10.9600229 9.29546113,12.4476614 10.35806,13.5102603 C11.420659,14.5728592 12.9082975,15.5646182 13.6875367,15.9896578 C13.9708964,16.1313377 14.325096,16.1313377 14.5376158,15.9188179 L15.3876949,15.0687387 C15.8127345,14.6436992 16.5211338,14.6436992 16.8753334,15.0687387 L19.0005313,17.1939366 Z M16.308614,12.1643017 C16.3794539,12.2351416 16.4502938,12.2351416 16.5919737,12.2351416 C16.7336536,12.2351416 16.8044935,12.2351416 16.8753334,12.1643017 C17.5128928,11.5267423 17.9379323,10.6058233 17.9379323,9.68490422 C17.9379323,8.76398515 17.5837327,7.84306609 16.8753334,7.20550674 C16.1669341,6.56794739 15.316855,6.14290782 14.3959359,6.14290782 C13.4750169,6.14290782 12.5540978,6.49710746 11.9165385,7.20550674 C11.7748586,7.3471866 11.7748586,7.55970638 11.9165385,7.70138624 C12.0582183,7.84306609 12.2707381,7.84306609 12.412418,7.70138624 C12.9791374,7.13466681 13.6875367,6.8513071 14.3959359,6.8513071 C15.1043352,6.8513071 15.8835744,7.13466681 16.3794539,7.70138624 C16.9461733,8.26810566 17.2295331,8.97650494 17.2295331,9.68490422 C17.2295331,10.3933035 16.9461733,11.1725427 16.3794539,11.6684222 C16.1669341,11.8101021 16.1669341,12.0226218 16.308614,12.1643017 Z M10.7830996,6.14290782 C12.6957777,4.23022977 15.8835744,4.23022977 17.7962525,6.14290782 C19.7089305,8.05558587 19.7089305,11.2433826 17.7962525,13.1560607 C17.6545726,13.2977405 17.6545726,13.5102603 17.7962525,13.6519402 C17.8670924,13.7227801 17.9379323,13.7227801 18.0796122,13.7227801 C18.221292,13.7227801 18.292132,13.7227801 18.3629719,13.6519402 C20.5590097,11.4559024 20.5590097,7.84306609 18.3629719,5.64702832 C16.1669341,3.45099056 12.5540978,3.45099056 10.35806,5.64702832 C10.2163802,5.78870818 10.2163802,6.00122796 10.35806,6.14290782 C10.4997399,6.28458768 10.7122597,6.28458768 10.7830996,6.14290782 Z" id="Shape"></path>
        </g>
    </g>
</svg>