<?xml version="1.0" encoding="UTF-8"?>
<svg width="18px" height="18px" viewBox="0 0 18 18" version="1.1" xmlns="http://www.w3.org/2000/svg" xmlns:xlink="http://www.w3.org/1999/xlink">
    <!-- Generator: Sketch 50.2 (55047) - http://www.bohemiancoding.com/sketch -->
    <title>Shape</title>
    <desc>Created with Sketch.</desc>
    <defs></defs>
    <g id="Page-1" stroke="none" stroke-width="1" fill="none" fill-rule="evenodd">
        <g id="Doctor---Dashboard" transform="translate(-42.000000, -741.000000)" fill="#353638" fill-rule="nonzero">
            <path d="M58.8790579,754.899682 C59.3274348,755.348059 59.3274348,756.095353 58.8790579,756.469001 L57.6086569,757.739402 C56.3382559,759.009803 54.3205602,759.233991 52.7512412,758.187778 C50.8830045,756.917377 48.4169319,755.12387 47.0718014,753.77874 C45.7266709,752.433609 43.9331636,749.967537 42.6627626,748.0993 C41.61655,746.60471 41.8407384,744.587015 43.1111394,743.241884 L44.3815404,741.971483 C44.8299173,741.523106 45.577212,741.523106 45.9508593,741.971483 L48.118014,744.138638 C48.5663908,744.587015 48.5663908,745.334309 48.118014,745.707957 L47.2212603,746.60471 C46.9970719,746.828899 46.9223425,747.202546 47.1465309,747.501464 C47.6696372,748.323488 48.6411203,749.892807 49.7620624,751.013749 C50.8830045,752.134691 52.4523234,753.180904 53.2743475,753.629281 C53.5732654,753.77874 53.9469128,753.77874 54.1711012,753.554551 L55.0678549,752.657798 C55.5162317,752.209421 56.2635264,752.209421 56.6371738,752.657798 L58.8790579,754.899682 Z M59.9252705,741.298918 L59.9252705,741.224188 C59.9252705,741.224188 59.9252705,741.149459 59.8505411,741.149459 C59.8505411,741.149459 59.8505411,741.149459 59.8505411,741.074729 L59.8505411,741.074729 C59.8505411,741.074729 59.7758116,741.074729 59.7758116,741 C59.7758116,741 59.7758116,741 59.7010821,741 C59.7010821,741 59.7010821,741 59.6263526,741 L59.5516232,741 L59.5516232,741 L55.0678549,741 C54.8436665,741 54.6942075,741.149459 54.6942075,741.373647 C54.6942075,741.597836 54.8436665,741.747295 55.0678549,741.747295 L58.58014,741.747295 L51.1071929,748.547677 C50.9577339,748.697136 50.9577339,748.921324 51.1071929,749.070783 C51.1819223,749.145512 51.2566518,749.220242 51.4061108,749.220242 C51.4808402,749.220242 51.5555697,749.220242 51.6302992,749.145512 L59.2527053,742.270401 L59.2527053,745.932145 C59.2527053,746.156334 59.4021642,746.305792 59.6263526,746.305792 C59.8505411,746.305792 60,746.156334 60,745.932145 L59.9252705,741.298918 C59.9252705,741.373647 59.9252705,741.373647 59.9252705,741.298918 Z" id="Shape"></path>
        </g>
    </g>
</svg>