<?xml version="1.0" encoding="UTF-8"?>
<svg width="17px" height="17px" viewBox="0 0 17 17" version="1.1" xmlns="http://www.w3.org/2000/svg" xmlns:xlink="http://www.w3.org/1999/xlink">
    <!-- Generator: Sketch 50.2 (55047) - http://www.bohemiancoding.com/sketch -->
    <title>Shape</title>
    <desc>Created with Sketch.</desc>
    <defs></defs>
    <g id="Page-1" stroke="none" stroke-width="1" fill="none" fill-rule="evenodd">
        <g id="Admin---Manage-hospital-2" transform="translate(-44.000000, -320.000000)" fill="#353638" fill-rule="nonzero">
            <g id="address-copy" transform="translate(44.000000, 317.000000)">
                <path d="M16.6946522,17.6347826 L15.4381305,18.8913043 C14.6990001,19.6304348 13.7381305,20 12.7772609,20 C12.0381305,20 11.2990001,19.7782609 10.6337827,19.3347826 C8.7859566,18.0782609 6.34682616,16.3043478 5.01639138,14.973913 C3.6859566,13.6434783 1.91204355,11.2043478 0.655521814,9.35652174 C-0.379260795,7.87826087 -0.157521664,5.8826087 1.09900007,4.55217391 L2.35552181,3.29565217 C2.57726094,3.07391304 2.87291312,3 3.16856529,3 C3.46421747,3 3.75986964,3.07391304 3.98160877,3.29565217 L6.12508703,5.43913043 C6.56856529,5.8826087 6.56856529,6.62173913 6.12508703,6.99130435 L5.23813051,7.87826087 C5.01639138,8.1 4.94247834,8.46956522 5.16421747,8.76521739 C5.68160877,9.57826087 6.64247834,11.1304348 7.75117399,12.2391304 C8.85986964,13.3478261 10.4120436,14.3826087 11.225087,14.826087 C11.3729131,14.9 11.4468262,14.973913 11.5946522,14.973913 C11.8163914,14.973913 11.9642175,14.9 12.1120436,14.7521739 L12.9990001,13.8652174 C13.2207392,13.6434783 13.5163914,13.5695652 13.8120436,13.5695652 C14.1076957,13.5695652 14.4033479,13.6434783 14.625087,13.8652174 L16.7685653,16.0086957 C17.0642175,16.4521739 17.0642175,17.1913043 16.6946522,17.6347826 Z" id="Shape"></path>
            </g>
        </g>
    </g>
</svg>