<?xml version="1.0" encoding="UTF-8"?>
<svg width="14px" height="16px" viewBox="0 0 14 16" version="1.1" xmlns="http://www.w3.org/2000/svg" xmlns:xlink="http://www.w3.org/1999/xlink">
    <!-- Generator: Sketch 50.2 (55047) - http://www.bohemiancoding.com/sketch -->
    <title>Shape</title>
    <desc>Created with Sketch.</desc>
    <defs></defs>
    <g id="Page-1" stroke="none" stroke-width="1" fill="none" fill-rule="evenodd">
        <g id="Admin---Manage-hospital-2" transform="translate(-1067.000000, -486.000000)" fill="#DA1D1D" fill-rule="nonzero">
            <g id="Group-9-Copy-5" transform="translate(338.000000, 380.000000)">
                <g id="Group-3" transform="translate(729.000000, 106.000000)">
                    <path d="M13.8666667,2 L10.6666667,2 L10.3333333,0.733333333 C10.2,0.266666667 9.8,0 9.33333333,0 L4.86666667,0 C4.4,0 4,0.333333333 3.86666667,0.733333333 L3.53333333,2 L0.333333333,2 C0.133333333,2 0,2.13333333 0,2.33333333 C0,2.53333333 0.133333333,2.66666667 0.333333333,2.66666667 L1.33333333,2.66666667 L1.93333333,15.0666667 C1.93333333,15.6 2.4,16 2.93333333,16 L11,16 C11.5333333,16 12,15.6 12,15.0666667 L12.6,2.66666667 L13.6,2.66666667 C13.8,2.66666667 13.9333333,2.53333333 13.9333333,2.33333333 C13.9333333,2.13333333 14.0666667,2 13.8666667,2 Z M4.4,2 L4.66666667,0.933333333 C4.73333333,0.8 4.86666667,0.666666667 5,0.666666667 L9.46666667,0.666666667 C9.6,0.666666667 9.73333333,0.8 9.8,0.933333333 L10.0666667,2 L4.4,2 Z" id="Shape"></path>
                </g>
            </g>
        </g>
    </g>
</svg>