<?xml version="1.0" encoding="UTF-8"?>
<svg width="14px" height="17px" viewBox="0 0 14 17" version="1.1" xmlns="http://www.w3.org/2000/svg" xmlns:xlink="http://www.w3.org/1999/xlink">
    <!-- Generator: Sketch 50.2 (55047) - http://www.bohemiancoding.com/sketch -->
    <title>Shape</title>
    <desc>Created with Sketch.</desc>
    <defs></defs>
    <g id="Page-1" stroke="none" stroke-width="1" fill="none" fill-rule="evenodd">
        <g id="Doctor---Search-Patient---1-Search-Result" transform="translate(-1035.000000, -491.000000)" fill="#49AEF4" fill-rule="nonzero">
            <g id="Group-9-Copy-4" transform="translate(268.000000, 374.000000)">
                <g id="Group-9" transform="translate(749.000000, 62.000000)">
                    <g id="Group-8" transform="translate(17.000000, 22.000000)">
                        <path d="M9.98666667,37.172381 L9.98666667,33.1925714 L14.2232381,37.4291429 L14.2874286,37.4933333 L10.307619,37.4933333 C10.1150476,37.4933333 9.98666667,37.3649524 9.98666667,37.172381 Z M14.48,38.1352381 L14.48,48.0847619 C14.48,48.5982857 14.0306667,49.047619 13.5171429,49.047619 L1.96285714,49.047619 C1.44933333,49.047619 1,48.5982857 1,48.0847619 L1,33.9628571 C1,33.4493333 1.44933333,33 1.96285714,33 L9.3447619,33 L9.3447619,37.172381 C9.3447619,37.6859048 9.79409524,38.1352381 10.307619,38.1352381 L14.48,38.1352381 Z M4.20952381,40.3819048 C4.20952381,40.5744762 4.33790476,40.7028571 4.53047619,40.7028571 L8.38190476,40.7028571 C8.57447619,40.7028571 8.70285714,40.5744762 8.70285714,40.3819048 C8.70285714,40.1893333 8.57447619,40.0609524 8.38190476,40.0609524 L4.53047619,40.0609524 C4.33790476,40.0609524 4.20952381,40.1893333 4.20952381,40.3819048 Z M11.2704762,45.5171429 C11.2704762,45.3245714 11.1420952,45.1961905 10.9495238,45.1961905 L4.53047619,45.1961905 C4.33790476,45.1961905 4.20952381,45.3245714 4.20952381,45.5171429 C4.20952381,45.7097143 4.33790476,45.8380952 4.53047619,45.8380952 L10.9495238,45.8380952 C11.1420952,45.8380952 11.2704762,45.7097143 11.2704762,45.5171429 Z M11.2704762,42.9495238 C11.2704762,42.7569524 11.1420952,42.6285714 10.9495238,42.6285714 L4.53047619,42.6285714 C4.33790476,42.6285714 4.20952381,42.7569524 4.20952381,42.9495238 C4.20952381,43.1420952 4.33790476,43.2704762 4.53047619,43.2704762 L10.9495238,43.2704762 C11.1420952,43.2704762 11.2704762,43.1420952 11.2704762,42.9495238 Z" id="Shape"></path>
                    </g>
                </g>
            </g>
        </g>
    </g>
</svg>