<?xml version="1.0" encoding="UTF-8"?>
<svg width="17px" height="12px" viewBox="0 0 17 12" version="1.1" xmlns="http://www.w3.org/2000/svg" xmlns:xlink="http://www.w3.org/1999/xlink">
    <!-- Generator: Sketch 50.2 (55047) - http://www.bohemiancoding.com/sketch -->
    <title>Shape</title>
    <desc>Created with Sketch.</desc>
    <defs></defs>
    <g id="Page-1" stroke="none" stroke-width="1" fill="none" fill-rule="evenodd">
        <g id="Doctor---Search-Patient---6.1-Add-MR" transform="translate(-298.000000, -190.000000)" fill="#FFFFFF" fill-rule="nonzero" stroke="#FFFFFF">
            <g id="Group-3" transform="translate(35.000000, 168.000000)">
                <g id="Mask">
                    <path d="M279.05,28.0280682 C279.05,28.0964773 279.05,28.2332955 278.981591,28.3017046 L274.192955,33.090341 C274.056136,33.2271592 273.850909,33.2271592 273.714091,33.090341 C273.577273,32.9535229 273.577273,32.7482956 273.714091,32.6114774 L277.887046,28.4385228 L264.342045,28.4385228 C264.136818,28.4385228 264,28.3017046 264,28.0964773 C264,27.8912501 264.136818,27.7544319 264.342045,27.7544319 L277.887046,27.7544319 L273.714091,23.5814773 C273.577273,23.4446591 273.577273,23.2394318 273.714091,23.1026136 C273.850909,22.9657955 274.056136,22.9657955 274.192955,23.1026136 L278.981591,27.8912501 C279.05,27.822841 279.05,27.9596592 279.05,28.0280682 Z" id="Shape"></path>
                </g>
            </g>
        </g>
    </g>
</svg>