<?xml version="1.0" encoding="UTF-8"?>
<svg width="15px" height="17px" viewBox="0 0 15 17" version="1.1" xmlns="http://www.w3.org/2000/svg" xmlns:xlink="http://www.w3.org/1999/xlink">
    <!-- Generator: Sketch 50.2 (55047) - http://www.bohemiancoding.com/sketch -->
    <title>Shape</title>
    <desc>Created with Sketch.</desc>
    <defs></defs>
    <g id="Page-1" stroke="none" stroke-width="1" fill="none" fill-rule="evenodd">
        <g id="Doctor---Dashboard-Hover" transform="translate(-1119.000000, -78.000000)" fill="#26C4BA" fill-rule="nonzero">
            <g id="Group-9" transform="translate(1103.000000, 56.000000)">
                <g id="Group-8" transform="translate(16.000000, 22.000000)">
                    <path d="M14.2732733,14.2562813 L14.2732733,15.6156406 C14.2732733,16.3632883 13.6615616,16.975 12.9139139,16.975 L1.6991992,16.975 C2.65075075,16.975 3.3983984,16.2273524 3.3983984,15.2758008 L3.3983984,14.2562813 L14.2732733,14.2562813 Z M1.35935936,16.2953203 C0.611711712,16.2953203 0,15.6836086 0,14.935961 L0,0.322847848 C0,0.186911912 0.067967968,0.050975976 0.203903904,0.050975976 C0.33983984,-0.016991992 0.475775776,-0.016991992 0.543743744,0.050975976 L2.37887888,1.2743994 L4.21401401,0.050975976 C4.34994995,-0.016991992 4.48588589,-0.016991992 4.62182182,0.050975976 L6.45695696,1.2743994 L8.29209209,0.050975976 C8.42802803,-0.016991992 8.56396396,-0.016991992 8.6998999,0.050975976 L10.535035,1.2743994 L12.3701702,0.050975976 C12.5061061,-0.016991992 12.642042,-0.016991992 12.71001,0.050975976 C12.777978,0.118943944 12.9139139,0.25487988 12.9139139,0.322847848 L12.9139139,13.5766016 L2.71871872,13.5766016 L2.71871872,14.935961 C2.71871872,15.6836086 2.10700701,16.2953203 1.35935936,16.2953203 Z M8.15615616,8.479004 L8.15615616,9.15868368 C8.15615616,9.36258759 8.02022022,9.49852352 7.81631632,9.49852352 L4.41791792,9.49852352 C4.21401401,9.49852352 4.07807808,9.63445946 4.07807808,9.83836336 C4.07807808,10.0422673 4.21401401,10.1782032 4.41791792,10.1782032 L6.11711712,10.1782032 L6.11711712,10.518043 C6.11711712,10.7219469 6.25305305,10.8578829 6.45695696,10.8578829 C6.66086086,10.8578829 6.7967968,10.7219469 6.7967968,10.518043 L6.7967968,10.1782032 L7.81631632,10.1782032 C8.36006006,10.1782032 8.83583584,9.70242743 8.83583584,9.15868368 L8.83583584,8.479004 C8.83583584,7.93526026 8.36006006,7.45948448 7.81631632,7.45948448 L5.0975976,7.45948448 C4.89369369,7.45948448 4.75775776,7.32354855 4.75775776,7.11964464 L4.75775776,6.43996496 C4.75775776,6.23606106 4.89369369,6.10012513 5.0975976,6.10012513 L8.495996,6.10012513 C8.6998999,6.10012513 8.83583584,5.96418919 8.83583584,5.76028529 C8.83583584,5.55638138 8.6998999,5.42044545 8.495996,5.42044545 L6.7967968,5.42044545 L6.7967968,5.08060561 C6.7967968,4.8767017 6.66086086,4.74076577 6.45695696,4.74076577 C6.25305305,4.74076577 6.11711712,4.8767017 6.11711712,5.08060561 L6.11711712,5.42044545 L5.0975976,5.42044545 C4.55385385,5.42044545 4.07807808,5.89622122 4.07807808,6.43996496 L4.07807808,7.11964464 C4.07807808,7.66338839 4.55385385,8.13916416 5.0975976,8.13916416 L7.81631632,8.13916416 C8.02022022,8.13916416 8.15615616,8.2751001 8.15615616,8.479004 Z" id="Shape"></path>
                </g>
            </g>
        </g>
    </g>
</svg>