<?xml version="1.0" encoding="UTF-8"?>
<svg width="25px" height="23px" viewBox="0 0 25 23" version="1.1" xmlns="http://www.w3.org/2000/svg" xmlns:xlink="http://www.w3.org/1999/xlink">
    <!-- Generator: Sketch 50.2 (55047) - http://www.bohemiancoding.com/sketch -->
    <title>ic_pulse rate</title>
    <desc>Created with Sketch.</desc>
    <defs></defs>
    <g id="Page-1" stroke="none" stroke-width="1" fill="none" fill-rule="evenodd">
        <g id="Doctor---Search-Patient---3-Medical-Record" transform="translate(-365.000000, -288.000000)" fill="#01BBAE" fill-rule="nonzero">
            <g id="Group-12" transform="translate(321.000000, 158.000000)">
                <g id="Group-6" transform="translate(38.000000, 90.000000)">
                    <g id="pulse-rate" transform="translate(6.000000, 34.000000)">
                        <g id="ic_pulse-rate" transform="translate(0.000000, 6.000000)">
                            <path d="M23.5,0 L1.5,0 C0.7,0 0,0.7 0,1.5 L0,21.5 C0,22.3 0.7,23 1.5,23 L23.5,23 C24.3,23 25,22.3 25,21.5 L25,1.5 C25,0.7 24.3,0 23.5,0 Z M3.5,20 C3.2,20 3,19.8 3,19.5 C3,19.2 3.2,19 3.5,19 C3.8,19 4,19.2 4,19.5 C4,19.8 3.8,20 3.5,20 Z M6.5,20 C6.2,20 6,19.8 6,19.5 C6,19.2 6.2,19 6.5,19 C6.8,19 7,19.2 7,19.5 C7,19.8 6.8,20 6.5,20 Z M9.5,20 C9.2,20 9,19.8 9,19.5 C9,19.2 9.2,19 9.5,19 C9.8,19 10,19.2 10,19.5 C10,19.8 9.8,20 9.5,20 Z M24,16 L1,16 L1,10 L8,10 C8.2,10 8.4,9.9 8.5,9.7 L10.5,5.4 L13.1,13.7 C13.2,13.9 13.3,14 13.5,14 L13.6,14 C13.8,14 13.9,13.9 14,13.8 L16.4,10 L24.1,10 L24.1,16 L24,16 Z M24,9 L16,9 C15.8,9 15.7,9.1 15.6,9.2 L13.7,12.3 L11,3.8 C10.9,3.6 10.8,3.5 10.6,3.5 C10.4,3.5 10.2,3.6 10.1,3.8 L7.7,9 L1,9 L1,1.5 C1,1.2 1.2,1 1.5,1 L23.5,1 C23.8,1 24,1.2 24,1.5 L24,9 L24,9 Z" id="Shape"></path>
                        </g>
                    </g>
                </g>
            </g>
        </g>
    </g>
</svg>