<?xml version="1.0" encoding="UTF-8"?>
<svg width="30px" height="24px" viewBox="0 0 30 24" version="1.1" xmlns="http://www.w3.org/2000/svg" xmlns:xlink="http://www.w3.org/1999/xlink">
    <!-- Generator: Sketch 50.2 (55047) - http://www.bohemiancoding.com/sketch -->
    <title>ic_respiratory</title>
    <desc>Created with Sketch.</desc>
    <defs></defs>
    <g id="Page-1" stroke="none" stroke-width="1" fill="none" fill-rule="evenodd">
        <g id="Doctor---Search-Patient---3-Medical-Record" transform="translate(-360.000000, -398.000000)" fill="#01BBAE" fill-rule="nonzero">
            <g id="Group-12" transform="translate(321.000000, 158.000000)">
                <g id="Group-6" transform="translate(38.000000, 90.000000)">
                    <g id="respiratory" transform="translate(1.000000, 144.000000)">
                        <g id="ic_respiratory" transform="translate(0.000000, 6.000000)">
                            <path d="M18.8814275,5.625 C18.2911367,5.625 17.812619,6.09689589 17.812619,6.67888713 L17.812619,11.5141621 L21.6725426,14.3933667 L23.4754353,13.048572 C23.9460967,12.6973937 24.6164381,12.7890029 24.9726481,13.2533282 C25.3287985,13.7174775 25.2357733,14.3784604 24.7649928,14.7296388 L23.4441293,15.7149217 L24.7649928,16.7002046 C25.8914139,17.5403566 24.6029872,19.2223623 23.4753163,18.3812714 L17.8125,14.1573308 L17.8125,21.3080705 C17.8125,22.4822644 18.7812602,23.4375 19.9720788,23.4375 L27.8404212,23.4375 C29.0312398,23.4375 30,22.4822644 30,21.3080705 L30,16.5887595 C30.0001786,10.5432573 25.012346,5.625 18.8814275,5.625 Z" id="Shape"></path>
                            <path d="M5.23512621,16.7001159 L6.55598974,15.7148199 L5.23512621,14.7295827 C4.76434576,14.3783997 4.67143953,13.7174081 5.02747097,13.2532527 C5.38374047,12.7890973 6.05414135,12.6974869 6.52474325,13.0486698 L8.32757645,14.3934823 L12.1875,11.5142397 L12.1875,6.67890102 C12.1875,6.09684342 11.7089228,5.625 11.1186915,5.625 C4.98783256,5.62494131 0,10.5432634 0,16.5886106 L0,21.3079838 C0,22.4821931 0.968760225,23.4375 2.15957884,23.4375 L10.0279212,23.4375 C11.2187398,23.4375 12.1875,22.4822518 12.1875,21.3079838 L12.1875,14.1572085 L6.52468374,18.3812048 C5.39856023,19.2213091 4.10727672,17.5414526 5.23512621,16.7001159 Z" id="Shape"></path>
                            <path d="M15.9859439,1.08302509 C15.9859439,0.484882599 15.5444584,0 14.9999725,0 C14.4554317,0 14.0140012,0.484942908 14.0140012,1.08302509 L14.0140012,9.82870296 L12.1875,11.3464337 L12.1875,14.0625 L14.9999725,11.7254744 L17.8125,14.0625 L17.8125,11.3464337 L15.9859988,9.82870296 L15.9859988,1.08302509 L15.9859439,1.08302509 Z" id="Shape"></path>
                        </g>
                    </g>
                </g>
            </g>
        </g>
    </g>
</svg>