<?xml version="1.0" encoding="UTF-8"?>
<svg width="29px" height="29px" viewBox="0 0 29 29" version="1.1" xmlns="http://www.w3.org/2000/svg" xmlns:xlink="http://www.w3.org/1999/xlink">
    <!-- Generator: Sketch 50.2 (55047) - http://www.bohemiancoding.com/sketch -->
    <title>Shape</title>
    <desc>Created with Sketch.</desc>
    <defs></defs>
    <g id="Page-1" stroke="none" stroke-width="1" fill="none" fill-rule="evenodd">
        <g id="Doctor---Search-Patient---3-Medical-Record" transform="translate(-360.000000, -450.000000)" fill="#01BBAE" fill-rule="nonzero">
            <g id="Group-12" transform="translate(321.000000, 158.000000)">
                <g id="Group-6" transform="translate(38.000000, 90.000000)">
                    <g id="temperature" transform="translate(1.000000, 199.000000)">
                        <path d="M27.4026227,4.52640604 C25.3674146,2.49119799 22.1692305,2.49119799 20.2793945,4.52640604 L15.6274904,9.17831015 L17.2265824,10.7774022 C17.5173264,11.0681462 17.5173264,11.5042622 17.2265824,11.7950062 C16.9358384,12.0857502 16.4997224,12.0857502 16.2089784,11.7950062 L14.6098864,10.1959142 L12.5746783,12.2311222 L14.1737703,13.8302143 C14.4645143,14.1209583 14.4645143,14.5570743 14.1737703,14.8478183 C13.8830263,15.1385623 13.4469103,15.1385623 13.1561663,14.8478183 L11.5570743,13.2487262 L9.52186623,15.2839343 L11.1209583,16.8830263 C11.4117023,17.1737703 11.4117023,17.6098864 11.1209583,17.9006304 C10.8302143,18.1913744 10.3940983,18.1913744 10.1033542,17.9006304 L8.50426221,16.3015383 L5.16070612,19.6450944 C4.57921811,20.2265824 4.2884741,20.9534424 4.2884741,21.6803025 L4.2884741,26.6229506 L4.2884741,26.6229506 L4.2884741,26.6229506 L0.218058005,30.6933667 C-0.0726860018,30.9841107 -0.0726860018,31.4202267 0.218058005,31.7109707 C0.508802012,32.0017147 0.944918023,32.0017147 1.23566203,31.7109707 L5.30607813,27.6405546 L5.30607813,27.6405546 L5.30607813,27.6405546 L10.2487262,27.6405546 C10.9755863,27.6405546 11.7024463,27.3498106 12.2839343,26.7683226 L27.4026227,11.6496342 C29.2924587,9.75979816 29.2924587,6.56161409 27.4026227,4.52640604 Z M24.3498106,10.7774022 C23.6229506,11.5042622 22.7507185,11.5042622 21.8784865,11.2135182 L9.95798224,23.1340225 C9.66723823,23.4247665 9.23112222,23.4247665 8.94037822,23.1340225 C8.64963421,22.8432785 8.64963421,22.4071625 8.94037822,22.1164185 L20.8608825,10.1959142 C20.4247665,9.32368215 20.5701385,8.45145013 21.2969985,7.72459011 C22.1692305,6.85235809 23.4775786,6.85235809 24.3498106,7.72459011 C25.0766706,8.45145013 25.0766706,9.90517017 24.3498106,10.7774022 Z" id="Shape"></path>
                    </g>
                </g>
            </g>
        </g>
    </g>
</svg>