<?xml version="1.0" encoding="UTF-8"?>
<svg width="21px" height="19px" viewBox="0 0 21 19" version="1.1" xmlns="http://www.w3.org/2000/svg" xmlns:xlink="http://www.w3.org/1999/xlink">
    <!-- Generator: Sketch 50.2 (55047) - http://www.bohemiancoding.com/sketch -->
    <title>Shape</title>
    <desc>Created with Sketch.</desc>
    <defs></defs>
    <g id="Symbols" stroke="none" stroke-width="1" fill="none" fill-rule="evenodd">
        <g id="Sidebar/manage-employee" transform="translate(-9.000000, -110.000000)" fill="#FFFFFF" fill-rule="nonzero">
            <path d="M11.8636364,114.75 C11.8636364,112.09 13.9636364,110 16.6363636,110 C19.3090909,110 21.4090909,112.09 21.4090909,114.75 C21.4090909,117.41 19.3090909,119.5 16.6363636,119.5 C13.9636364,119.5 11.8636364,117.41 11.8636364,114.75 Z M16.6363636,120.45 C12.4363636,120.45 9,123.87 9,128.05 L9,128.525 C9,128.81 9.19090909,129 9.47727273,129 L23.7954545,129 C24.0818182,129 24.2727273,128.81 24.2727273,128.525 L24.2727273,128.05 C24.2727273,123.87 20.8363636,120.45 16.6363636,120.45 Z M25.2272727,117.6 C26.85,117.6 28.0909091,116.365 28.0909091,114.75 C28.0909091,113.135 26.85,111.9 25.2272727,111.9 C23.6045455,111.9 22.3636364,113.135 22.3636364,114.75 C22.3636364,116.365 23.6045455,117.6 25.2272727,117.6 Z M23.7954545,123.3 L30,123.3 C30,120.64 27.9,118.55 25.2272727,118.55 C23.5090909,118.55 21.9818182,119.5 21.2181818,120.83 C22.1727273,121.495 23.1272727,122.255 23.7954545,123.3 Z" id="Shape"></path>
        </g>
    </g>
</svg>