<?xml version="1.0" encoding="UTF-8"?>
<svg width="22px" height="16px" viewBox="0 0 22 16" version="1.1" xmlns="http://www.w3.org/2000/svg" xmlns:xlink="http://www.w3.org/1999/xlink">
    <!-- Generator: Sketch 50.2 (55047) - http://www.bohemiancoding.com/sketch -->
    <title>Shape</title>
    <desc>Created with Sketch.</desc>
    <defs></defs>
    <g id="Symbols" stroke="none" stroke-width="1" fill="none" fill-rule="evenodd">
        <g id="Sidebar/manage-user" transform="translate(-9.000000, -470.000000)" fill="#353638" fill-rule="nonzero">
            <g id="Group-14" transform="translate(0.000000, 458.000000)">
                <path d="M30.0526316,15.7894737 L30.0526316,26.7368421 C30.0526316,27.4105263 29.4631579,28 28.7894737,28 L12.7894737,28 C12.1157895,28 11.5263158,27.4105263 11.5263158,26.7368421 L11.5263158,26.3157895 L27.5263158,26.3157895 C28.0315789,26.3157895 28.3684211,25.9789474 28.3684211,25.4736842 L28.3684211,14.5263158 L28.7894737,14.5263158 C29.4631579,14.5263158 30.0526316,15.1157895 30.0526316,15.7894737 Z M26.2631579,25.4736842 L10.2631579,25.4736842 C9.58947368,25.4736842 9,24.8842105 9,24.2105263 L9,13.2631579 C9,12.5894737 9.58947368,12 10.2631579,12 L26.2631579,12 C26.9368421,12 27.5263158,12.5894737 27.5263158,13.2631579 L27.5263158,24.2105263 C27.5263158,24.8842105 26.9368421,25.4736842 26.2631579,25.4736842 Z M13.2105263,23.3684211 C13.2105263,23.1157895 13.0421053,22.9473684 12.7894737,22.9473684 L11.1052632,22.9473684 C10.8526316,22.9473684 10.6842105,23.1157895 10.6842105,23.3684211 C10.6842105,23.6210526 10.8526316,23.7894737 11.1052632,23.7894737 L12.7894737,23.7894737 C13.0421053,23.7894737 13.2105263,23.6210526 13.2105263,23.3684211 Z M20.7894737,18.7368421 C20.7894737,16.8842105 19.6947368,15.3684211 18.2631579,15.3684211 C16.8315789,15.3684211 15.7368421,16.8842105 15.7368421,18.7368421 C15.7368421,20.5894737 16.8315789,22.1052632 18.2631579,22.1052632 C19.6947368,22.1052632 20.7894737,20.5894737 20.7894737,18.7368421 Z M25.8421053,14.1052632 C25.8421053,13.8526316 25.6736842,13.6842105 25.4210526,13.6842105 L23.7368421,13.6842105 C23.4842105,13.6842105 23.3157895,13.8526316 23.3157895,14.1052632 C23.3157895,14.3578947 23.4842105,14.5263158 23.7368421,14.5263158 L25.4210526,14.5263158 C25.6736842,14.5263158 25.8421053,14.3578947 25.8421053,14.1052632 Z" id="Shape"></path>
            </g>
        </g>
    </g>
</svg>