<?xml version="1.0" encoding="UTF-8"?>
<svg width="181px" height="181px" viewBox="0 0 181 181" version="1.1" xmlns="http://www.w3.org/2000/svg" xmlns:xlink="http://www.w3.org/1999/xlink">
    <!-- Generator: Sketch 50.2 (55047) - http://www.bohemiancoding.com/sketch -->
    <title>Group 11</title>
    <desc>Created with Sketch.</desc>
    <defs>
        <filter x="-10.4%" y="-13.5%" width="120.8%" height="127.0%" filterUnits="objectBoundingBox" id="filter-1">
            <feOffset dx="0" dy="0" in="SourceAlpha" result="shadowOffsetOuter1"></feOffset>
            <feGaussianBlur stdDeviation="5" in="shadowOffsetOuter1" result="shadowBlurOuter1"></feGaussianBlur>
            <feColorMatrix values="0 0 0 0 0   0 0 0 0 0   0 0 0 0 0  0 0 0 0.0797101449 0" type="matrix" in="shadowBlurOuter1" result="shadowMatrixOuter1"></feColorMatrix>
            <feMerge>
                <feMergeNode in="shadowMatrixOuter1"></feMergeNode>
                <feMergeNode in="SourceGraphic"></feMergeNode>
            </feMerge>
        </filter>
    </defs>
    <g id="Page-1" stroke="none" stroke-width="1" fill="none" fill-rule="evenodd">
        <g id="Doctor---Search-Patient---5-Detail-Patient-with-No-Record" transform="translate(-664.000000, -343.000000)">
            <g id="Group-12" transform="translate(263.000000, 192.000000)">
                <g id="Group-7" transform="translate(221.000000, 151.000000)">
                    <g id="Group-11" transform="translate(180.000000, 0.000000)">
                        <circle id="Oval-3" fill="#FAFAFA" cx="90.5" cy="90.5" r="90.5"></circle>
                        <g id="empty-state" filter="url(#filter-1)" transform="translate(18.000000, 35.000000)" fill-rule="nonzero">
                            <path d="M138.678884,110.999965 L5.3018367,110.999965 C3.88986559,110.999993 2.53621179,110.438512 1.54096915,109.439997 C0.545726506,108.441482 -0.00887776993,107.088431 0.000107501048,105.680804 L0.000107501048,10.0608362 C0.000107501048,7.13457691 143.999892,7.13457691 143.999892,10.0608362 L143.999892,105.680804 C144.008908,107.091768 143.451665,108.447755 142.452243,109.446831 C141.45282,110.445907 140.094194,111.005124 138.678884,110.999965 Z" id="Shape" fill="#FFFFFF"></path>
                            <g id="Group-9" transform="translate(52.363636, 41.078740)">
                                <rect id="Rectangle-path" fill="#01BBAE" transform="translate(19.191230, 18.800035) rotate(0.572939) translate(-19.191230, -18.800035) " x="0.863956803" y="0.882711771" width="36.6545455" height="35.8346457" rx="10"></rect>
                                <path d="M21.399161,17.0633582 L27.2006597,17.1129745 C28.1008509,17.1206732 28.824359,17.8566634 28.8166603,18.7568547 L28.8146856,18.9877553 C28.8069868,19.8879465 28.0709966,20.6114547 27.1708054,20.6037559 L21.3693068,20.5541396 L21.3196905,26.3556383 C21.3119917,27.2558295 20.5760015,27.9793376 19.6758103,27.9716389 L19.4449097,27.9696642 C18.5447184,27.9619654 17.8212103,27.2259752 17.828909,26.325784 L17.8785253,20.5242854 L12.0770267,20.4746691 C11.1768355,20.4669704 10.4533273,19.7309801 10.4610261,18.8307889 L10.4630008,18.5998883 C10.4706995,17.699697 11.2066897,16.9761889 12.106881,16.9838876 L17.9083796,17.0335039 L17.9579959,11.2320053 C17.9656946,10.3318141 18.7016848,9.60830594 19.6018761,9.61600466 L19.8327767,9.6179794 C20.7329679,9.62567813 21.456476,10.3616683 21.4487773,11.2618596 L21.399161,17.0633582 Z" id="Combined-Shape" fill="#FFFFFF"></path>
                            </g>
                            <path d="M134.398964,0 L9.60095878,0 C4.29849566,-3.33641577e-16 6.49364449e-16,4.4171093 0,9.86588976 L0,14.8582677 L144,14.8582677 L143.999922,9.90551181 C144.010176,7.28205687 143.003177,4.76243822 141.201536,2.90364663 C139.399894,1.04485503 136.951991,-2.11568097e-05 134.398964,0 Z" id="Shape" fill="#01BBAE"></path>
                            <path d="M10.4322697,24.4344403 C9.97261984,24.4344403 9.6,24.0516368 9.6,23.5794249 C9.6,23.1072129 9.97261984,22.7244094 10.4322697,22.7244094 L12.0968092,22.7244094 C12.556459,22.7244094 12.9290789,23.1072129 12.9290789,23.5794249 C12.9290789,24.0516368 12.556459,24.4344403 12.0968092,24.4344403 L10.4322697,24.4344403 Z M13.7613486,24.4344403 C13.3016987,24.4344403 12.9290789,24.0516368 12.9290789,23.5794249 C12.9290789,23.1072129 13.3016987,22.7244094 13.7613486,22.7244094 L15.425888,22.7244094 C15.8855379,22.7244094 16.2581577,23.1072129 16.2581577,23.5794249 C16.2581577,24.0516368 15.8855379,24.4344403 15.425888,24.4344403 L13.7613486,24.4344403 Z M16.2581577,24.4344403 C15.7985079,24.4344403 15.425888,24.0516368 15.425888,23.5794249 C15.425888,23.1072129 15.7985079,22.7244094 16.2581577,22.7244094 L17.9226972,22.7244094 C18.382347,22.7244094 18.7549669,23.1072129 18.7549669,23.5794249 C18.7549669,24.0516368 18.382347,24.4344403 17.9226972,24.4344403 L16.2581577,24.4344403 Z M20.4195063,24.4344403 C19.9598564,24.4344403 19.5872366,24.0516368 19.5872366,23.5794249 C19.5872366,23.1072129 19.9598564,22.7244094 20.4195063,22.7244094 L22.0840458,22.7244094 C22.5436956,22.7244094 22.9163155,23.1072129 22.9163155,23.5794249 C22.9163155,24.0516368 22.5436956,24.4344403 22.0840458,24.4344403 L20.4195063,24.4344403 Z M23.7485852,24.4344403 C23.2889353,24.4344403 22.9163155,24.0516368 22.9163155,23.5794249 C22.9163155,23.1072129 23.2889353,22.7244094 23.7485852,22.7244094 L25.4131246,22.7244094 C25.8727745,22.7244094 26.2453943,23.1072129 26.2453943,23.5794249 C26.2453943,24.0516368 25.8727745,24.4344403 25.4131246,24.4344403 L23.7485852,24.4344403 Z M26.2453943,24.4344403 C25.7857445,24.4344403 25.4131246,24.0516368 25.4131246,23.5794249 C25.4131246,23.1072129 25.7857445,22.7244094 26.2453943,22.7244094 L27.9099338,22.7244094 C28.3695836,22.7244094 28.7422035,23.1072129 28.7422035,23.5794249 C28.7422035,24.0516368 28.3695836,24.4344403 27.9099338,24.4344403 L26.2453943,24.4344403 Z M30.4067429,24.4344403 C29.9470931,24.4344403 29.5744732,24.0516368 29.5744732,23.5794249 C29.5744732,23.1072129 29.9470931,22.7244094 30.4067429,22.7244094 L32.0712824,22.7244094 C32.5309322,22.7244094 32.9035521,23.1072129 32.9035521,23.5794249 C32.9035521,24.0516368 32.5309322,24.4344403 32.0712824,24.4344403 L30.4067429,24.4344403 Z M33.7358218,24.4344403 C33.2761719,24.4344403 32.9035521,24.0516368 32.9035521,23.5794249 C32.9035521,23.1072129 33.2761719,22.7244094 33.7358218,22.7244094 L35.4003612,22.7244094 C35.8600111,22.7244094 36.2326309,23.1072129 36.2326309,23.5794249 C36.2326309,24.0516368 35.8600111,24.4344403 35.4003612,24.4344403 L33.7358218,24.4344403 Z M36.2326309,24.4344403 C35.7729811,24.4344403 35.4003612,24.0516368 35.4003612,23.5794249 C35.4003612,23.1072129 35.7729811,22.7244094 36.2326309,22.7244094 L37.8971704,22.7244094 C38.3568203,22.7244094 38.7294401,23.1072129 38.7294401,23.5794249 C38.7294401,24.0516368 38.3568203,24.4344403 37.8971704,24.4344403 L36.2326309,24.4344403 Z M39.5617098,24.4344403 C39.1020599,24.4344403 38.7294401,24.0516368 38.7294401,23.5794249 C38.7294401,23.1072129 39.1020599,22.7244094 39.5617098,22.7244094 L41.2262492,22.7244094 C41.6858991,22.7244094 42.058519,23.1072129 42.058519,23.5794249 C42.058519,24.0516368 41.6858991,24.4344403 41.2262492,24.4344403 L39.5617098,24.4344403 Z M43.7230584,24.4344403 C43.2634085,24.4344403 42.8907887,24.0516368 42.8907887,23.5794249 C42.8907887,23.1072129 43.2634085,22.7244094 43.7230584,22.7244094 L45.3875978,22.7244094 C45.8472477,22.7244094 46.2198675,23.1072129 46.2198675,23.5794249 C46.2198675,24.0516368 45.8472477,24.4344403 45.3875978,24.4344403 L43.7230584,24.4344403 Z M46.2198675,24.4344403 C45.7602177,24.4344403 45.3875978,24.0516368 45.3875978,23.5794249 C45.3875978,23.1072129 45.7602177,22.7244094 46.2198675,22.7244094 L47.884407,22.7244094 C48.3440569,22.7244094 48.7166767,23.1072129 48.7166767,23.5794249 C48.7166767,24.0516368 48.3440569,24.4344403 47.884407,24.4344403 L46.2198675,24.4344403 Z M49.5489464,24.4344403 C49.0892965,24.4344403 48.7166767,24.0516368 48.7166767,23.5794249 C48.7166767,23.1072129 49.0892965,22.7244094 49.5489464,22.7244094 L51.2134859,22.7244094 C51.6731357,22.7244094 52.0457556,23.1072129 52.0457556,23.5794249 C52.0457556,24.0516368 51.6731357,24.4344403 51.2134859,24.4344403 L49.5489464,24.4344403 Z M52.8780253,24.4344403 C52.4183754,24.4344403 52.0457556,24.0516368 52.0457556,23.5794249 C52.0457556,23.1072129 52.4183754,22.7244094 52.8780253,22.7244094 L54.5425647,22.7244094 C55.0022146,22.7244094 55.3748344,23.1072129 55.3748344,23.5794249 C55.3748344,24.0516368 55.0022146,24.4344403 54.5425647,24.4344403 L52.8780253,24.4344403 Z M56.2071042,24.4344403 C55.7474543,24.4344403 55.3748344,24.0516368 55.3748344,23.5794249 C55.3748344,23.1072129 55.7474543,22.7244094 56.2071042,22.7244094 L57.8716436,22.7244094 C58.3312935,22.7244094 58.7039133,23.1072129 58.7039133,23.5794249 C58.7039133,24.0516368 58.3312935,24.4344403 57.8716436,24.4344403 L56.2071042,24.4344403 Z M59.536183,24.4344403 C59.0765331,24.4344403 58.7039133,24.0516368 58.7039133,23.5794249 C58.7039133,23.1072129 59.0765331,22.7244094 59.536183,22.7244094 L61.2007225,22.7244094 C61.6603723,22.7244094 62.0329922,23.1072129 62.0329922,23.5794249 C62.0329922,24.0516368 61.6603723,24.4344403 61.2007225,24.4344403 L59.536183,24.4344403 Z M62.8652619,24.4344403 C62.405612,24.4344403 62.0329922,24.0516368 62.0329922,23.5794249 C62.0329922,23.1072129 62.405612,22.7244094 62.8652619,22.7244094 L64.5298013,22.7244094 C64.9894512,22.7244094 65.362071,23.1072129 65.362071,23.5794249 C65.362071,24.0516368 64.9894512,24.4344403 64.5298013,24.4344403 L62.8652619,24.4344403 Z M65.362071,24.4344403 C64.9024212,24.4344403 64.5298013,24.0516368 64.5298013,23.5794249 C64.5298013,23.1072129 64.9024212,22.7244094 65.362071,22.7244094 L67.0266105,22.7244094 C67.4862603,22.7244094 67.8588802,23.1072129 67.8588802,23.5794249 C67.8588802,24.0516368 67.4862603,24.4344403 67.0266105,24.4344403 L65.362071,24.4344403 Z M69.5234196,24.4344403 C69.0637698,24.4344403 68.6911499,24.0516368 68.6911499,23.5794249 C68.6911499,23.1072129 69.0637698,22.7244094 69.5234196,22.7244094 L71.1879591,22.7244094 C71.6476089,22.7244094 72.0202288,23.1072129 72.0202288,23.5794249 C72.0202288,24.0516368 71.6476089,24.4344403 71.1879591,24.4344403 L69.5234196,24.4344403 Z M72.8524985,24.4344403 C72.3928486,24.4344403 72.0202288,24.0516368 72.0202288,23.5794249 C72.0202288,23.1072129 72.3928486,22.7244094 72.8524985,22.7244094 L74.5170379,22.7244094 C74.9766878,22.7244094 75.3493076,23.1072129 75.3493076,23.5794249 C75.3493076,24.0516368 74.9766878,24.4344403 74.5170379,24.4344403 L72.8524985,24.4344403 Z M75.3493076,24.4344403 C74.8896578,24.4344403 74.5170379,24.0516368 74.5170379,23.5794249 C74.5170379,23.1072129 74.8896578,22.7244094 75.3493076,22.7244094 L77.0138471,22.7244094 C77.473497,22.7244094 77.8461168,23.1072129 77.8461168,23.5794249 C77.8461168,24.0516368 77.473497,24.4344403 77.0138471,24.4344403 L75.3493076,24.4344403 Z M78.6783865,24.4344403 C78.2187366,24.4344403 77.8461168,24.0516368 77.8461168,23.5794249 C77.8461168,23.1072129 78.2187366,22.7244094 78.6783865,22.7244094 L80.3429259,22.7244094 C80.8025758,22.7244094 81.1751957,23.1072129 81.1751957,23.5794249 C81.1751957,24.0516368 80.8025758,24.4344403 80.3429259,24.4344403 L78.6783865,24.4344403 Z M82.8397351,24.4344403 C82.3800852,24.4344403 82.0074654,24.0516368 82.0074654,23.5794249 C82.0074654,23.1072129 82.3800852,22.7244094 82.8397351,22.7244094 L84.5042745,22.7244094 C84.9639244,22.7244094 85.3365443,23.1072129 85.3365443,23.5794249 C85.3365443,24.0516368 84.9639244,24.4344403 84.5042745,24.4344403 L82.8397351,24.4344403 Z M85.3365443,24.4344403 C84.8768944,24.4344403 84.5042745,24.0516368 84.5042745,23.5794249 C84.5042745,23.1072129 84.8768944,22.7244094 85.3365443,22.7244094 L87.0010837,22.7244094 C87.4607336,22.7244094 87.8333534,23.1072129 87.8333534,23.5794249 C87.8333534,24.0516368 87.4607336,24.4344403 87.0010837,24.4344403 L85.3365443,24.4344403 Z M88.6656231,24.4344403 C88.2059732,24.4344403 87.8333534,24.0516368 87.8333534,23.5794249 C87.8333534,23.1072129 88.2059732,22.7244094 88.6656231,22.7244094 L90.3301626,22.7244094 C90.7898124,22.7244094 91.1624323,23.1072129 91.1624323,23.5794249 C91.1624323,24.0516368 90.7898124,24.4344403 90.3301626,24.4344403 L88.6656231,24.4344403 Z M92.8269717,24.4344403 C92.3673218,24.4344403 91.994702,24.0516368 91.994702,23.5794249 C91.994702,23.1072129 92.3673218,22.7244094 92.8269717,22.7244094 L94.4915111,22.7244094 C94.951161,22.7244094 95.3237809,23.1072129 95.3237809,23.5794249 C95.3237809,24.0516368 94.951161,24.4344403 94.4915111,24.4344403 L92.8269717,24.4344403 Z M95.3237809,24.4344403 C94.864131,24.4344403 94.4915111,24.0516368 94.4915111,23.5794249 C94.4915111,23.1072129 94.864131,22.7244094 95.3237809,22.7244094 L96.9883203,22.7244094 C97.4479702,22.7244094 97.82059,23.1072129 97.82059,23.5794249 C97.82059,24.0516368 97.4479702,24.4344403 96.9883203,24.4344403 L95.3237809,24.4344403 Z M98.6528597,24.4344403 C98.1932099,24.4344403 97.82059,24.0516368 97.82059,23.5794249 C97.82059,23.1072129 98.1932099,22.7244094 98.6528597,22.7244094 L100.317399,22.7244094 C100.777049,22.7244094 101.149669,23.1072129 101.149669,23.5794249 C101.149669,24.0516368 100.777049,24.4344403 100.317399,24.4344403 L98.6528597,24.4344403 Z M101.981939,24.4344403 C101.522289,24.4344403 101.149669,24.0516368 101.149669,23.5794249 C101.149669,23.1072129 101.522289,22.7244094 101.981939,22.7244094 L103.646478,22.7244094 C104.106128,22.7244094 104.478748,23.1072129 104.478748,23.5794249 C104.478748,24.0516368 104.106128,24.4344403 103.646478,24.4344403 L101.981939,24.4344403 Z M105.311017,24.4344403 C104.851368,24.4344403 104.478748,24.0516368 104.478748,23.5794249 C104.478748,23.1072129 104.851368,22.7244094 105.311017,22.7244094 L106.975557,22.7244094 C107.435207,22.7244094 107.807827,23.1072129 107.807827,23.5794249 C107.807827,24.0516368 107.435207,24.4344403 106.975557,24.4344403 L105.311017,24.4344403 Z M108.640096,24.4344403 C108.180446,24.4344403 107.807827,24.0516368 107.807827,23.5794249 C107.807827,23.1072129 108.180446,22.7244094 108.640096,22.7244094 L110.304636,22.7244094 C110.764286,22.7244094 111.136905,23.1072129 111.136905,23.5794249 C111.136905,24.0516368 110.764286,24.4344403 110.304636,24.4344403 L108.640096,24.4344403 Z M111.136905,24.4344403 C110.677256,24.4344403 110.304636,24.0516368 110.304636,23.5794249 C110.304636,23.1072129 110.677256,22.7244094 111.136905,22.7244094 L112.801445,22.7244094 C113.261095,22.7244094 113.633715,23.1072129 113.633715,23.5794249 C113.633715,24.0516368 113.261095,24.4344403 112.801445,24.4344403 L111.136905,24.4344403 Z M114.465984,24.4344403 C114.006334,24.4344403 113.633715,24.0516368 113.633715,23.5794249 C113.633715,23.1072129 114.006334,22.7244094 114.465984,22.7244094 L116.130524,22.7244094 C116.590174,22.7244094 116.962793,23.1072129 116.962793,23.5794249 C116.962793,24.0516368 116.590174,24.4344403 116.130524,24.4344403 L114.465984,24.4344403 Z M118.627333,24.4344403 C118.167683,24.4344403 117.795063,24.0516368 117.795063,23.5794249 C117.795063,23.1072129 118.167683,22.7244094 118.627333,22.7244094 L120.291872,22.7244094 C120.751522,22.7244094 121.124142,23.1072129 121.124142,23.5794249 C121.124142,24.0516368 120.751522,24.4344403 120.291872,24.4344403 L118.627333,24.4344403 Z M121.124142,24.4344403 C120.664492,24.4344403 120.291872,24.0516368 120.291872,23.5794249 C120.291872,23.1072129 120.664492,22.7244094 121.124142,22.7244094 L122.788682,22.7244094 C123.248331,22.7244094 123.620951,23.1072129 123.620951,23.5794249 C123.620951,24.0516368 123.248331,24.4344403 122.788682,24.4344403 L121.124142,24.4344403 Z M124.453221,24.4344403 C123.993571,24.4344403 123.620951,24.0516368 123.620951,23.5794249 C123.620951,23.1072129 123.993571,22.7244094 124.453221,22.7244094 L126.11776,22.7244094 C126.57741,22.7244094 126.95003,23.1072129 126.95003,23.5794249 C126.95003,24.0516368 126.57741,24.4344403 126.11776,24.4344403 L124.453221,24.4344403 Z M127.7823,24.4344403 C127.32265,24.4344403 126.95003,24.0516368 126.95003,23.5794249 C126.95003,23.1072129 127.32265,22.7244094 127.7823,22.7244094 L129.446839,22.7244094 C129.906489,22.7244094 130.279109,23.1072129 130.279109,23.5794249 C130.279109,24.0516368 129.906489,24.4344403 129.446839,24.4344403 L127.7823,24.4344403 Z M131.111379,24.4344403 C130.651729,24.4344403 130.279109,24.0516368 130.279109,23.5794249 C130.279109,23.1072129 130.651729,22.7244094 131.111379,22.7244094 L132.775918,22.7244094 C133.235568,22.7244094 133.608188,23.1072129 133.608188,23.5794249 C133.608188,24.0516368 133.235568,24.4344403 132.775918,24.4344403 L131.111379,24.4344403 Z M133.608188,23.5939166 C133.608188,23.1137011 133.968788,22.7244094 134.41361,22.7244094 L134.467305,22.7244094 C134.912127,22.7244094 135.272727,23.1137011 135.272727,23.5939166 L135.272727,25.2749639 C135.272727,25.7551794 134.912127,26.1444711 134.467305,26.1444711 C134.022483,26.1444711 133.661883,25.7551794 133.661883,25.2749639 L133.661883,23.906731 C133.627202,23.8096621 133.608188,23.7041865 133.608188,23.5939166 Z M133.608188,26.9994865 C133.608188,26.5272745 133.980808,26.1444711 134.440458,26.1444711 C134.900107,26.1444711 135.272727,26.5272745 135.272727,26.9994865 L135.272727,28.7095173 C135.272727,29.1817293 134.900107,29.5645327 134.440458,29.5645327 C133.980808,29.5645327 133.608188,29.1817293 133.608188,28.7095173 L133.608188,26.9994865 Z M133.608188,30.4195481 C133.608188,29.9473361 133.980808,29.5645327 134.440458,29.5645327 C134.900107,29.5645327 135.272727,29.9473361 135.272727,30.4195481 L135.272727,32.1295789 C135.272727,32.6017909 134.900107,32.9845943 134.440458,32.9845943 C133.980808,32.9845943 133.608188,32.6017909 133.608188,32.1295789 L133.608188,30.4195481 Z M133.608188,33.8396097 C133.608188,33.3673978 133.980808,32.9845943 134.440458,32.9845943 C134.900107,32.9845943 135.272727,33.3673978 135.272727,33.8396097 L135.272727,35.5496405 C135.272727,36.0218525 134.900107,36.4046559 134.440458,36.4046559 C133.980808,36.4046559 133.608188,36.0218525 133.608188,35.5496405 L133.608188,33.8396097 Z M133.608188,37.2596713 C133.608188,36.7874594 133.980808,36.4046559 134.440458,36.4046559 C134.900107,36.4046559 135.272727,36.7874594 135.272727,37.2596713 L135.272727,38.9697022 C135.272727,39.4419141 134.900107,39.8247176 134.440458,39.8247176 C133.980808,39.8247176 133.608188,39.4419141 133.608188,38.9697022 L133.608188,37.2596713 Z M133.608188,40.679733 C133.608188,40.207521 133.980808,39.8247176 134.440458,39.8247176 C134.900107,39.8247176 135.272727,40.207521 135.272727,40.679733 L135.272727,42.3897638 C135.272727,42.8619757 134.900107,43.2447792 134.440458,43.2447792 C133.980808,43.2447792 133.608188,42.8619757 133.608188,42.3897638 L133.608188,40.679733 Z M133.608188,44.95481 C133.608188,44.482598 133.980808,44.0997946 134.440458,44.0997946 C134.900107,44.0997946 135.272727,44.482598 135.272727,44.95481 L135.272727,46.6648408 C135.272727,47.1370528 134.900107,47.5198562 134.440458,47.5198562 C133.980808,47.5198562 133.608188,47.1370528 133.608188,46.6648408 L133.608188,44.95481 Z M133.608188,48.3748716 C133.608188,47.9026596 133.980808,47.5198562 134.440458,47.5198562 C134.900107,47.5198562 135.272727,47.9026596 135.272727,48.3748716 L135.272727,50.0849024 C135.272727,50.5571144 134.900107,50.9399178 134.440458,50.9399178 C133.980808,50.9399178 133.608188,50.5571144 133.608188,50.0849024 L133.608188,48.3748716 Z M133.608188,51.7949332 C133.608188,51.3227213 133.980808,50.9399178 134.440458,50.9399178 C134.900107,50.9399178 135.272727,51.3227213 135.272727,51.7949332 L135.272727,53.5049641 C135.272727,53.977176 134.900107,54.3599795 134.440458,54.3599795 C133.980808,54.3599795 133.608188,53.977176 133.608188,53.5049641 L133.608188,51.7949332 Z M133.608188,55.2149949 C133.608188,54.7427829 133.980808,54.3599795 134.440458,54.3599795 C134.900107,54.3599795 135.272727,54.7427829 135.272727,55.2149949 L135.272727,56.9250257 C135.272727,57.3972376 134.900107,57.7800411 134.440458,57.7800411 C133.980808,57.7800411 133.608188,57.3972376 133.608188,56.9250257 L133.608188,55.2149949 Z M133.608188,58.6350565 C133.608188,58.1628445 133.980808,57.7800411 134.440458,57.7800411 C134.900107,57.7800411 135.272727,58.1628445 135.272727,58.6350565 L135.272727,60.3450873 C135.272727,60.8172993 134.900107,61.2001027 134.440458,61.2001027 C133.980808,61.2001027 133.608188,60.8172993 133.608188,60.3450873 L133.608188,58.6350565 Z M133.608188,62.0551181 C133.608188,61.5829061 133.980808,61.2001027 134.440458,61.2001027 C134.900107,61.2001027 135.272727,61.5829061 135.272727,62.0551181 L135.272727,63.7651489 C135.272727,64.2373609 134.900107,64.6201643 134.440458,64.6201643 C133.980808,64.6201643 133.608188,64.2373609 133.608188,63.7651489 L133.608188,62.0551181 Z M133.608188,65.4751797 C133.608188,65.0029678 133.980808,64.6201643 134.440458,64.6201643 C134.900107,64.6201643 135.272727,65.0029678 135.272727,65.4751797 L135.272727,67.1852105 C135.272727,67.6574225 134.900107,68.040226 134.440458,68.040226 C133.980808,68.040226 133.608188,67.6574225 133.608188,67.1852105 L133.608188,65.4751797 Z M133.608188,68.8952414 C133.608188,68.4230294 133.980808,68.040226 134.440458,68.040226 C134.900107,68.040226 135.272727,68.4230294 135.272727,68.8952414 L135.272727,70.6052722 C135.272727,71.0774841 134.900107,71.4602876 134.440458,71.4602876 C133.980808,71.4602876 133.608188,71.0774841 133.608188,70.6052722 L133.608188,68.8952414 Z M133.608188,72.315303 C133.608188,71.843091 133.980808,71.4602876 134.440458,71.4602876 C134.900107,71.4602876 135.272727,71.843091 135.272727,72.315303 L135.272727,74.0253338 C135.272727,74.4975458 134.900107,74.8803492 134.440458,74.8803492 C133.980808,74.8803492 133.608188,74.4975458 133.608188,74.0253338 L133.608188,72.315303 Z M133.608188,75.7353646 C133.608188,75.2631526 133.980808,74.8803492 134.440458,74.8803492 C134.900107,74.8803492 135.272727,75.2631526 135.272727,75.7353646 L135.272727,77.4453954 C135.272727,77.9176074 134.900107,78.3004108 134.440458,78.3004108 C133.980808,78.3004108 133.608188,77.9176074 133.608188,77.4453954 L133.608188,75.7353646 Z M133.608188,79.1554262 C133.608188,78.6832143 133.980808,78.3004108 134.440458,78.3004108 C134.900107,78.3004108 135.272727,78.6832143 135.272727,79.1554262 L135.272727,80.865457 C135.272727,81.337669 134.900107,81.7204724 134.440458,81.7204724 C133.980808,81.7204724 133.608188,81.337669 133.608188,80.865457 L133.608188,79.1554262 Z M133.608188,83.4305033 C133.608188,82.9582913 133.980808,82.5754878 134.440458,82.5754878 C134.900107,82.5754878 135.272727,82.9582913 135.272727,83.4305033 L135.272727,85.1405341 C135.272727,85.612746 134.900107,85.9955495 134.440458,85.9955495 C133.980808,85.9955495 133.608188,85.612746 133.608188,85.1405341 L133.608188,83.4305033 Z M133.608188,86.8505649 C133.608188,86.3783529 133.980808,85.9955495 134.440458,85.9955495 C134.900107,85.9955495 135.272727,86.3783529 135.272727,86.8505649 L135.272727,88.5605957 C135.272727,89.0328077 134.900107,89.4156111 134.440458,89.4156111 C133.980808,89.4156111 133.608188,89.0328077 133.608188,88.5605957 L133.608188,86.8505649 Z M133.608188,90.2706265 C133.608188,89.7984145 133.980808,89.4156111 134.440458,89.4156111 C134.900107,89.4156111 135.272727,89.7984145 135.272727,90.2706265 L135.272727,91.9806573 C135.272727,92.4528693 134.900107,92.8356727 134.440458,92.8356727 C133.980808,92.8356727 133.608188,92.4528693 133.608188,91.9806573 L133.608188,90.2706265 Z M133.608188,93.6906881 C133.608188,93.2184762 133.980808,92.8356727 134.440458,92.8356727 C134.900107,92.8356727 135.272727,93.2184762 135.272727,93.6906881 L135.272727,95.4007189 C135.272727,95.8729309 134.900107,96.2557343 134.440458,96.2557343 C133.980808,96.2557343 133.608188,95.8729309 133.608188,95.4007189 L133.608188,93.6906881 Z M133.608188,97.1107497 C133.608188,96.6385378 133.980808,96.2557343 134.440458,96.2557343 C134.900107,96.2557343 135.272727,96.6385378 135.272727,97.1107497 L135.272727,98.8207806 C135.272727,99.2929925 134.900107,99.675796 134.440458,99.675796 C133.980808,99.675796 133.608188,99.2929925 133.608188,98.8207806 L133.608188,97.1107497 Z M134.440458,99.675796 C134.900107,99.675796 135.272727,100.058599 135.272727,100.530811 C135.272727,101.003023 134.900107,101.385827 134.440458,101.385827 L132.775918,101.385827 C132.316268,101.385827 131.943648,101.003023 131.943648,100.530811 C131.943648,100.058599 132.316268,99.675796 132.775918,99.675796 L134.440458,99.675796 Z M131.943648,99.675796 C132.403298,99.675796 132.775918,100.058599 132.775918,100.530811 C132.775918,101.003023 132.403298,101.385827 131.943648,101.385827 L130.279109,101.385827 C129.819459,101.385827 129.446839,101.003023 129.446839,100.530811 C129.446839,100.058599 129.819459,99.675796 130.279109,99.675796 L131.943648,99.675796 Z M127.7823,99.675796 C128.24195,99.675796 128.61457,100.058599 128.61457,100.530811 C128.61457,101.003023 128.24195,101.385827 127.7823,101.385827 L126.11776,101.385827 C125.658111,101.385827 125.285491,101.003023 125.285491,100.530811 C125.285491,100.058599 125.658111,99.675796 126.11776,99.675796 L127.7823,99.675796 Z M124.453221,99.675796 C124.912871,99.675796 125.285491,100.058599 125.285491,100.530811 C125.285491,101.003023 124.912871,101.385827 124.453221,101.385827 L122.788682,101.385827 C122.329032,101.385827 121.956412,101.003023 121.956412,100.530811 C121.956412,100.058599 122.329032,99.675796 122.788682,99.675796 L124.453221,99.675796 Z M121.956412,99.675796 C122.416062,99.675796 122.788682,100.058599 122.788682,100.530811 C122.788682,101.003023 122.416062,101.385827 121.956412,101.385827 L120.291872,101.385827 C119.832222,101.385827 119.459603,101.003023 119.459603,100.530811 C119.459603,100.058599 119.832222,99.675796 120.291872,99.675796 L121.956412,99.675796 Z M117.795063,99.675796 C118.254713,99.675796 118.627333,100.058599 118.627333,100.530811 C118.627333,101.003023 118.254713,101.385827 117.795063,101.385827 L116.130524,101.385827 C115.670874,101.385827 115.298254,101.003023 115.298254,100.530811 C115.298254,100.058599 115.670874,99.675796 116.130524,99.675796 L117.795063,99.675796 Z M114.465984,99.675796 C114.925634,99.675796 115.298254,100.058599 115.298254,100.530811 C115.298254,101.003023 114.925634,101.385827 114.465984,101.385827 L112.801445,101.385827 C112.341795,101.385827 111.969175,101.003023 111.969175,100.530811 C111.969175,100.058599 112.341795,99.675796 112.801445,99.675796 L114.465984,99.675796 Z M111.969175,99.675796 C112.428825,99.675796 112.801445,100.058599 112.801445,100.530811 C112.801445,101.003023 112.428825,101.385827 111.969175,101.385827 L110.304636,101.385827 C109.844986,101.385827 109.472366,101.003023 109.472366,100.530811 C109.472366,100.058599 109.844986,99.675796 110.304636,99.675796 L111.969175,99.675796 Z M108.640096,99.675796 C109.099746,99.675796 109.472366,100.058599 109.472366,100.530811 C109.472366,101.003023 109.099746,101.385827 108.640096,101.385827 L106.975557,101.385827 C106.515907,101.385827 106.143287,101.003023 106.143287,100.530811 C106.143287,100.058599 106.515907,99.675796 106.975557,99.675796 L108.640096,99.675796 Z M104.478748,99.675796 C104.938398,99.675796 105.311017,100.058599 105.311017,100.530811 C105.311017,101.003023 104.938398,101.385827 104.478748,101.385827 L102.814208,101.385827 C102.354558,101.385827 101.981939,101.003023 101.981939,100.530811 C101.981939,100.058599 102.354558,99.675796 102.814208,99.675796 L104.478748,99.675796 Z M101.981939,99.675796 C102.441588,99.675796 102.814208,100.058599 102.814208,100.530811 C102.814208,101.003023 102.441588,101.385827 101.981939,101.385827 L100.317399,101.385827 C99.8577493,101.385827 99.4851294,101.003023 99.4851294,100.530811 C99.4851294,100.058599 99.8577493,99.675796 100.317399,99.675796 L101.981939,99.675796 Z M98.6528597,99.675796 C99.1125096,99.675796 99.4851294,100.058599 99.4851294,100.530811 C99.4851294,101.003023 99.1125096,101.385827 98.6528597,101.385827 L96.9883203,101.385827 C96.5286704,101.385827 96.1560506,101.003023 96.1560506,100.530811 C96.1560506,100.058599 96.5286704,99.675796 96.9883203,99.675796 L98.6528597,99.675796 Z M95.3237809,99.675796 C95.7834307,99.675796 96.1560506,100.058599 96.1560506,100.530811 C96.1560506,101.003023 95.7834307,101.385827 95.3237809,101.385827 L93.6592414,101.385827 C93.1995915,101.385827 92.8269717,101.003023 92.8269717,100.530811 C92.8269717,100.058599 93.1995915,99.675796 93.6592414,99.675796 L95.3237809,99.675796 Z M91.994702,99.675796 C92.4543519,99.675796 92.8269717,100.058599 92.8269717,100.530811 C92.8269717,101.003023 92.4543519,101.385827 91.994702,101.385827 L90.3301626,101.385827 C89.8705127,101.385827 89.4978928,101.003023 89.4978928,100.530811 C89.4978928,100.058599 89.8705127,99.675796 90.3301626,99.675796 L91.994702,99.675796 Z M88.6656231,99.675796 C89.125273,99.675796 89.4978928,100.058599 89.4978928,100.530811 C89.4978928,101.003023 89.125273,101.385827 88.6656231,101.385827 L87.0010837,101.385827 C86.5414338,101.385827 86.168814,101.003023 86.168814,100.530811 C86.168814,100.058599 86.5414338,99.675796 87.0010837,99.675796 L88.6656231,99.675796 Z M85.3365443,99.675796 C85.7961941,99.675796 86.168814,100.058599 86.168814,100.530811 C86.168814,101.003023 85.7961941,101.385827 85.3365443,101.385827 L83.6720048,101.385827 C83.2123549,101.385827 82.8397351,101.003023 82.8397351,100.530811 C82.8397351,100.058599 83.2123549,99.675796 83.6720048,99.675796 L85.3365443,99.675796 Z M82.8397351,99.675796 C83.299385,99.675796 83.6720048,100.058599 83.6720048,100.530811 C83.6720048,101.003023 83.299385,101.385827 82.8397351,101.385827 L81.1751957,101.385827 C80.7155458,101.385827 80.3429259,101.003023 80.3429259,100.530811 C80.3429259,100.058599 80.7155458,99.675796 81.1751957,99.675796 L82.8397351,99.675796 Z M78.6783865,99.675796 C79.1380364,99.675796 79.5106562,100.058599 79.5106562,100.530811 C79.5106562,101.003023 79.1380364,101.385827 78.6783865,101.385827 L77.0138471,101.385827 C76.5541972,101.385827 76.1815774,101.003023 76.1815774,100.530811 C76.1815774,100.058599 76.5541972,99.675796 77.0138471,99.675796 L78.6783865,99.675796 Z M75.3493076,99.675796 C75.8089575,99.675796 76.1815774,100.058599 76.1815774,100.530811 C76.1815774,101.003023 75.8089575,101.385827 75.3493076,101.385827 L73.6847682,101.385827 C73.2251183,101.385827 72.8524985,101.003023 72.8524985,100.530811 C72.8524985,100.058599 73.2251183,99.675796 73.6847682,99.675796 L75.3493076,99.675796 Z M72.8524985,99.675796 C73.3121484,99.675796 73.6847682,100.058599 73.6847682,100.530811 C73.6847682,101.003023 73.3121484,101.385827 72.8524985,101.385827 L71.1879591,101.385827 C70.7283092,101.385827 70.3556893,101.003023 70.3556893,100.530811 C70.3556893,100.058599 70.7283092,99.675796 71.1879591,99.675796 L72.8524985,99.675796 Z M69.5234196,99.675796 C69.9830695,99.675796 70.3556893,100.058599 70.3556893,100.530811 C70.3556893,101.003023 69.9830695,101.385827 69.5234196,101.385827 L67.8588802,101.385827 C67.3992303,101.385827 67.0266105,101.003023 67.0266105,100.530811 C67.0266105,100.058599 67.3992303,99.675796 67.8588802,99.675796 L69.5234196,99.675796 Z M65.362071,99.675796 C65.8217209,99.675796 66.1943408,100.058599 66.1943408,100.530811 C66.1943408,101.003023 65.8217209,101.385827 65.362071,101.385827 L63.6975316,101.385827 C63.2378817,101.385827 62.8652619,101.003023 62.8652619,100.530811 C62.8652619,100.058599 63.2378817,99.675796 63.6975316,99.675796 L65.362071,99.675796 Z M62.8652619,99.675796 C63.3249118,99.675796 63.6975316,100.058599 63.6975316,100.530811 C63.6975316,101.003023 63.3249118,101.385827 62.8652619,101.385827 L61.2007225,101.385827 C60.7410726,101.385827 60.3684527,101.003023 60.3684527,100.530811 C60.3684527,100.058599 60.7410726,99.675796 61.2007225,99.675796 L62.8652619,99.675796 Z M59.536183,99.675796 C59.9958329,99.675796 60.3684527,100.058599 60.3684527,100.530811 C60.3684527,101.003023 59.9958329,101.385827 59.536183,101.385827 L57.8716436,101.385827 C57.4119937,101.385827 57.0393739,101.003023 57.0393739,100.530811 C57.0393739,100.058599 57.4119937,99.675796 57.8716436,99.675796 L59.536183,99.675796 Z M55.3748344,99.675796 C55.8344843,99.675796 56.2071042,100.058599 56.2071042,100.530811 C56.2071042,101.003023 55.8344843,101.385827 55.3748344,101.385827 L53.710295,101.385827 C53.2506451,101.385827 52.8780253,101.003023 52.8780253,100.530811 C52.8780253,100.058599 53.2506451,99.675796 53.710295,99.675796 L55.3748344,99.675796 Z M52.8780253,99.675796 C53.3376752,99.675796 53.710295,100.058599 53.710295,100.530811 C53.710295,101.003023 53.3376752,101.385827 52.8780253,101.385827 L51.2134859,101.385827 C50.753836,101.385827 50.3812161,101.003023 50.3812161,100.530811 C50.3812161,100.058599 50.753836,99.675796 51.2134859,99.675796 L52.8780253,99.675796 Z M49.5489464,99.675796 C50.0085963,99.675796 50.3812161,100.058599 50.3812161,100.530811 C50.3812161,101.003023 50.0085963,101.385827 49.5489464,101.385827 L47.884407,101.385827 C47.4247571,101.385827 47.0521373,101.003023 47.0521373,100.530811 C47.0521373,100.058599 47.4247571,99.675796 47.884407,99.675796 L49.5489464,99.675796 Z M46.2198675,99.675796 C46.6795174,99.675796 47.0521373,100.058599 47.0521373,100.530811 C47.0521373,101.003023 46.6795174,101.385827 46.2198675,101.385827 L44.5553281,101.385827 C44.0956782,101.385827 43.7230584,101.003023 43.7230584,100.530811 C43.7230584,100.058599 44.0956782,99.675796 44.5553281,99.675796 L46.2198675,99.675796 Z M42.8907887,99.675796 C43.3504386,99.675796 43.7230584,100.058599 43.7230584,100.530811 C43.7230584,101.003023 43.3504386,101.385827 42.8907887,101.385827 L41.2262492,101.385827 C40.7665994,101.385827 40.3939795,101.003023 40.3939795,100.530811 C40.3939795,100.058599 40.7665994,99.675796 41.2262492,99.675796 L42.8907887,99.675796 Z M39.5617098,99.675796 C40.0213597,99.675796 40.3939795,100.058599 40.3939795,100.530811 C40.3939795,101.003023 40.0213597,101.385827 39.5617098,101.385827 L37.8971704,101.385827 C37.4375205,101.385827 37.0649007,101.003023 37.0649007,100.530811 C37.0649007,100.058599 37.4375205,99.675796 37.8971704,99.675796 L39.5617098,99.675796 Z M36.2326309,99.675796 C36.6922808,99.675796 37.0649007,100.058599 37.0649007,100.530811 C37.0649007,101.003023 36.6922808,101.385827 36.2326309,101.385827 L34.5680915,101.385827 C34.1084416,101.385827 33.7358218,101.003023 33.7358218,100.530811 C33.7358218,100.058599 34.1084416,99.675796 34.5680915,99.675796 L36.2326309,99.675796 Z M33.7358218,99.675796 C34.1954717,99.675796 34.5680915,100.058599 34.5680915,100.530811 C34.5680915,101.003023 34.1954717,101.385827 33.7358218,101.385827 L32.0712824,101.385827 C31.6116325,101.385827 31.2390126,101.003023 31.2390126,100.530811 C31.2390126,100.058599 31.6116325,99.675796 32.0712824,99.675796 L33.7358218,99.675796 Z M29.5744732,99.675796 C30.0341231,99.675796 30.4067429,100.058599 30.4067429,100.530811 C30.4067429,101.003023 30.0341231,101.385827 29.5744732,101.385827 L27.9099338,101.385827 C27.4502839,101.385827 27.0776641,101.003023 27.0776641,100.530811 C27.0776641,100.058599 27.4502839,99.675796 27.9099338,99.675796 L29.5744732,99.675796 Z M26.2453943,99.675796 C26.7050442,99.675796 27.0776641,100.058599 27.0776641,100.530811 C27.0776641,101.003023 26.7050442,101.385827 26.2453943,101.385827 L24.5808549,101.385827 C24.121205,101.385827 23.7485852,101.003023 23.7485852,100.530811 C23.7485852,100.058599 24.121205,99.675796 24.5808549,99.675796 L26.2453943,99.675796 Z M23.7485852,99.675796 C24.2082351,99.675796 24.5808549,100.058599 24.5808549,100.530811 C24.5808549,101.003023 24.2082351,101.385827 23.7485852,101.385827 L22.0840458,101.385827 C21.6243959,101.385827 21.251776,101.003023 21.251776,100.530811 C21.251776,100.058599 21.6243959,99.675796 22.0840458,99.675796 L23.7485852,99.675796 Z M20.4195063,99.675796 C20.8791562,99.675796 21.251776,100.058599 21.251776,100.530811 C21.251776,101.003023 20.8791562,101.385827 20.4195063,101.385827 L18.7549669,101.385827 C18.295317,101.385827 17.9226972,101.003023 17.9226972,100.530811 C17.9226972,100.058599 18.295317,99.675796 18.7549669,99.675796 L20.4195063,99.675796 Z M16.2581577,99.675796 C16.7178076,99.675796 17.0904275,100.058599 17.0904275,100.530811 C17.0904275,101.003023 16.7178076,101.385827 16.2581577,101.385827 L14.5936183,101.385827 C14.1339684,101.385827 13.7613486,101.003023 13.7613486,100.530811 C13.7613486,100.058599 14.1339684,99.675796 14.5936183,99.675796 L16.2581577,99.675796 Z M13.7613486,99.675796 C14.2209985,99.675796 14.5936183,100.058599 14.5936183,100.530811 C14.5936183,101.003023 14.2209985,101.385827 13.7613486,101.385827 L12.0968092,101.385827 C11.6371593,101.385827 11.2645394,101.003023 11.2645394,100.530811 C11.2645394,100.058599 11.6371593,99.675796 12.0968092,99.675796 L13.7613486,99.675796 Z M11.2645394,100.530811 C11.2645394,101.003023 10.8919196,101.385827 10.4322697,101.385827 C9.97261984,101.385827 9.6,101.003023 9.6,100.530811 L9.6,98.8207806 C9.6,98.3485686 9.97261984,97.9657651 10.4322697,97.9657651 C10.8919196,97.9657651 11.2645394,98.3485686 11.2645394,98.8207806 L11.2645394,100.530811 Z M11.2645394,97.1107497 C11.2645394,97.5829617 10.8919196,97.9657651 10.4322697,97.9657651 C9.97261984,97.9657651 9.6,97.5829617 9.6,97.1107497 L9.6,95.4007189 C9.6,94.928507 9.97261984,94.5457035 10.4322697,94.5457035 C10.8919196,94.5457035 11.2645394,94.928507 11.2645394,95.4007189 L11.2645394,97.1107497 Z M11.2645394,93.6906881 C11.2645394,94.1629001 10.8919196,94.5457035 10.4322697,94.5457035 C9.97261984,94.5457035 9.6,94.1629001 9.6,93.6906881 L9.6,91.9806573 C9.6,91.5084453 9.97261984,91.1256419 10.4322697,91.1256419 C10.8919196,91.1256419 11.2645394,91.5084453 11.2645394,91.9806573 L11.2645394,93.6906881 Z M11.2645394,90.2706265 C11.2645394,90.7428385 10.8919196,91.1256419 10.4322697,91.1256419 C9.97261984,91.1256419 9.6,90.7428385 9.6,90.2706265 L9.6,88.5605957 C9.6,88.0883837 9.97261984,87.7055803 10.4322697,87.7055803 C10.8919196,87.7055803 11.2645394,88.0883837 11.2645394,88.5605957 L11.2645394,90.2706265 Z M11.2645394,86.8505649 C11.2645394,87.3227768 10.8919196,87.7055803 10.4322697,87.7055803 C9.97261984,87.7055803 9.6,87.3227768 9.6,86.8505649 L9.6,85.1405341 C9.6,84.6683221 9.97261984,84.2855187 10.4322697,84.2855187 C10.8919196,84.2855187 11.2645394,84.6683221 11.2645394,85.1405341 L11.2645394,86.8505649 Z M11.2645394,82.5754878 C11.2645394,83.0476998 10.8919196,83.4305033 10.4322697,83.4305033 C9.97261984,83.4305033 9.6,83.0476998 9.6,82.5754878 L9.6,80.865457 C9.6,80.3932451 9.97261984,80.0104416 10.4322697,80.0104416 C10.8919196,80.0104416 11.2645394,80.3932451 11.2645394,80.865457 L11.2645394,82.5754878 Z M11.2645394,79.1554262 C11.2645394,79.6276382 10.8919196,80.0104416 10.4322697,80.0104416 C9.97261984,80.0104416 9.6,79.6276382 9.6,79.1554262 L9.6,77.4453954 C9.6,76.9731834 9.97261984,76.59038 10.4322697,76.59038 C10.8919196,76.59038 11.2645394,76.9731834 11.2645394,77.4453954 L11.2645394,79.1554262 Z M11.2645394,75.7353646 C11.2645394,76.2075766 10.8919196,76.59038 10.4322697,76.59038 C9.97261984,76.59038 9.6,76.2075766 9.6,75.7353646 L9.6,74.0253338 C9.6,73.5531218 9.97261984,73.1703184 10.4322697,73.1703184 C10.8919196,73.1703184 11.2645394,73.5531218 11.2645394,74.0253338 L11.2645394,75.7353646 Z M11.2645394,71.4602876 C11.2645394,71.9324995 10.8919196,72.315303 10.4322697,72.315303 C9.97261984,72.315303 9.6,71.9324995 9.6,71.4602876 L9.6,69.7502568 C9.6,69.2780448 9.97261984,68.8952414 10.4322697,68.8952414 C10.8919196,68.8952414 11.2645394,69.2780448 11.2645394,69.7502568 L11.2645394,71.4602876 Z M11.2645394,68.8952414 C11.2645394,69.3674533 10.8919196,69.7502568 10.4322697,69.7502568 C9.97261984,69.7502568 9.6,69.3674533 9.6,68.8952414 L9.6,67.1852105 C9.6,66.7129986 9.97261984,66.3301951 10.4322697,66.3301951 C10.8919196,66.3301951 11.2645394,66.7129986 11.2645394,67.1852105 L11.2645394,68.8952414 Z M11.2645394,65.4751797 C11.2645394,65.9473917 10.8919196,66.3301951 10.4322697,66.3301951 C9.97261984,66.3301951 9.6,65.9473917 9.6,65.4751797 L9.6,63.7651489 C9.6,63.292937 9.97261984,62.9101335 10.4322697,62.9101335 C10.8919196,62.9101335 11.2645394,63.292937 11.2645394,63.7651489 L11.2645394,65.4751797 Z M11.2645394,62.0551181 C11.2645394,62.5273301 10.8919196,62.9101335 10.4322697,62.9101335 C9.97261984,62.9101335 9.6,62.5273301 9.6,62.0551181 L9.6,60.3450873 C9.6,59.8728753 9.97261984,59.4900719 10.4322697,59.4900719 C10.8919196,59.4900719 11.2645394,59.8728753 11.2645394,60.3450873 L11.2645394,62.0551181 Z M11.2645394,58.6350565 C11.2645394,59.1072685 10.8919196,59.4900719 10.4322697,59.4900719 C9.97261984,59.4900719 9.6,59.1072685 9.6,58.6350565 L9.6,56.9250257 C9.6,56.4528137 9.97261984,56.0700103 10.4322697,56.0700103 C10.8919196,56.0700103 11.2645394,56.4528137 11.2645394,56.9250257 L11.2645394,58.6350565 Z M11.2645394,54.3599795 C11.2645394,54.8321914 10.8919196,55.2149949 10.4322697,55.2149949 C9.97261984,55.2149949 9.6,54.8321914 9.6,54.3599795 L9.6,52.6499486 C9.6,52.1777367 9.97261984,51.7949332 10.4322697,51.7949332 C10.8919196,51.7949332 11.2645394,52.1777367 11.2645394,52.6499486 L11.2645394,54.3599795 Z M11.2645394,51.7949332 C11.2645394,52.2671452 10.8919196,52.6499486 10.4322697,52.6499486 C9.97261984,52.6499486 9.6,52.2671452 9.6,51.7949332 L9.6,50.0849024 C9.6,49.6126905 9.97261984,49.229887 10.4322697,49.229887 C10.8919196,49.229887 11.2645394,49.6126905 11.2645394,50.0849024 L11.2645394,51.7949332 Z M11.2645394,48.3748716 C11.2645394,48.8470836 10.8919196,49.229887 10.4322697,49.229887 C9.97261984,49.229887 9.6,48.8470836 9.6,48.3748716 L9.6,46.6648408 C9.6,46.1926288 9.97261984,45.8098254 10.4322697,45.8098254 C10.8919196,45.8098254 11.2645394,46.1926288 11.2645394,46.6648408 L11.2645394,48.3748716 Z M11.2645394,44.0997946 C11.2645394,44.5720066 10.8919196,44.95481 10.4322697,44.95481 C9.97261984,44.95481 9.6,44.5720066 9.6,44.0997946 L9.6,42.3897638 C9.6,41.9175518 9.97261984,41.5347484 10.4322697,41.5347484 C10.8919196,41.5347484 11.2645394,41.9175518 11.2645394,42.3897638 L11.2645394,44.0997946 Z M11.2645394,40.679733 C11.2645394,41.1519449 10.8919196,41.5347484 10.4322697,41.5347484 C9.97261984,41.5347484 9.6,41.1519449 9.6,40.679733 L9.6,38.9697022 C9.6,38.4974902 9.97261984,38.1146868 10.4322697,38.1146868 C10.8919196,38.1146868 11.2645394,38.4974902 11.2645394,38.9697022 L11.2645394,40.679733 Z M11.2645394,36.4046559 C11.2645394,36.8768679 10.8919196,37.2596713 10.4322697,37.2596713 C9.97261984,37.2596713 9.6,36.8768679 9.6,36.4046559 L9.6,34.6946251 C9.6,34.2224132 9.97261984,33.8396097 10.4322697,33.8396097 C10.8919196,33.8396097 11.2645394,34.2224132 11.2645394,34.6946251 L11.2645394,36.4046559 Z M11.2645394,33.8396097 C11.2645394,34.3118217 10.8919196,34.6946251 10.4322697,34.6946251 C9.97261984,34.6946251 9.6,34.3118217 9.6,33.8396097 L9.6,32.1295789 C9.6,31.6573669 9.97261984,31.2745635 10.4322697,31.2745635 C10.8919196,31.2745635 11.2645394,31.6573669 11.2645394,32.1295789 L11.2645394,33.8396097 Z M11.2645394,30.4195481 C11.2645394,30.8917601 10.8919196,31.2745635 10.4322697,31.2745635 C9.97261984,31.2745635 9.6,30.8917601 9.6,30.4195481 L9.6,28.7095173 C9.6,28.2373053 9.97261984,27.8545019 10.4322697,27.8545019 C10.8919196,27.8545019 11.2645394,28.2373053 11.2645394,28.7095173 L11.2645394,30.4195481 Z M11.2645394,26.9994865 C11.2645394,27.4716984 10.8919196,27.8545019 10.4322697,27.8545019 C9.97261984,27.8545019 9.6,27.4716984 9.6,26.9994865 L9.6,25.2894557 C9.6,24.8172437 9.97261984,24.4344403 10.4322697,24.4344403 C10.8919196,24.4344403 11.2645394,24.8172437 11.2645394,25.2894557 L11.2645394,26.9994865 Z" id="Rectangle-path" fill="#D1D1D1" opacity="0.200000003"></path>
                            <ellipse id="Oval" fill="#FFFFFF" cx="135.272727" cy="6.99212598" rx="2.61818182" ry="2.62204724"></ellipse>
                            <ellipse id="Oval" fill="#FFFFFF" cx="126.545455" cy="6.99212598" rx="2.61818182" ry="2.62204724"></ellipse>
                            <ellipse id="Oval" fill="#FFFFFF" cx="116.945455" cy="6.99212598" rx="2.61818182" ry="2.62204724"></ellipse>
                        </g>
                    </g>
                </g>
            </g>
        </g>
    </g>
</svg>