<?xml version="1.0" encoding="UTF-8"?>
<svg width="19px" height="22px" viewBox="0 0 19 22" version="1.1" xmlns="http://www.w3.org/2000/svg" xmlns:xlink="http://www.w3.org/1999/xlink">
    <!-- Generator: Sketch 50.2 (55047) - http://www.bohemiancoding.com/sketch -->
    <title>Shape</title>
    <desc>Created with Sketch.</desc>
    <defs></defs>
    <g id="Symbols" stroke="none" stroke-width="1" fill="none" fill-rule="evenodd">
        <g id="icons/Notifications" transform="translate(-8.000000, -6.000000)" fill="#353638" fill-rule="nonzero">
            <path d="M14.65,25.95 L20.35,25.95 C19.875,27.09 18.735,27.85 17.5,27.85 C16.265,27.85 15.125,27.09 14.65,25.95 Z M26.62,22.72 L25.67,21.77 C25.29,21.39 25.1,20.915 25.1,20.44 L25.1,13.6 C25.1,9.42 21.68,6 17.5,6 C13.32,6 9.9,9.42 9.9,13.6 L9.9,20.44 C9.9,20.915 9.71,21.39 9.33,21.77 L8.38,22.72 C8.095,23.005 8,23.385 8,23.765 L8,25.095 L27,25.095 L27,23.765 C27,23.29 26.81,22.91 26.62,22.72 Z" id="Shape"></path>
        </g>
    </g>
</svg>