<?xml version="1.0" encoding="UTF-8"?>
<svg width="281px" height="281px" viewBox="0 0 281 281" version="1.1" xmlns="http://www.w3.org/2000/svg" xmlns:xlink="http://www.w3.org/1999/xlink">
    <!-- Generator: Sketch 50.2 (55047) - http://www.bohemiancoding.com/sketch -->
    <title>Onboarding 1</title>
    <desc>Created with Sketch.</desc>
    <defs>
        <circle id="path-1" cx="140.5" cy="140.5" r="140.5"></circle>
    </defs>
    <g id="Page-1" stroke="none" stroke-width="1" fill="none" fill-rule="evenodd">
        <g id="Onboarding-2" transform="translate(-499.000000, -189.000000)">
            <g id="Onboarding-1" transform="translate(499.000000, 189.000000)">
                <mask id="mask-2" fill="white">
                    <use xlink:href="#path-1"></use>
                </mask>
                <use id="Oval-4" fill="#DEEAEC" xlink:href="#path-1"></use>
                <g id="Onboarding-2" mask="url(#mask-2)">
                    <g transform="translate(23.000000, 45.000000)">
                        <g id="Layer_6">
                            <path d="M29.55,6.15 L109,6.15 C117.284271,6.15 124,12.8657288 124,21.15 L124,148.15 L44.59,148.15 C36.3057288,148.15 29.59,141.434271 29.59,133.15 L29.59,6.15 L29.55,6.15 Z" id="Shape" fill="#FFFFFF" fill-rule="nonzero"></path>
                            <rect id="Rectangle-path" fill="#01BBAE" fill-rule="nonzero" x="40.05" y="14.8" width="29.18" height="40.24"></rect>
                            <circle id="Oval" fill="#243C4B" fill-rule="nonzero" cx="54.63" cy="29.64" r="9.56"></circle>
                            <path d="M69.22,51.38 C67.9361025,44.3304939 61.7954678,39.2072166 54.63,39.2072166 C47.4645322,39.2072166 41.3238975,44.3304939 40.04,51.38 L40.04,55 L69.22,55 L69.22,51.38 Z" id="Shape" fill="#243C4B" fill-rule="nonzero"></path>
                            <rect id="Rectangle-path" fill="#D8D8D8" fill-rule="nonzero" x="76.13" y="24.72" width="37.79" height="3.47" rx="1.2"></rect>
                            <rect id="Rectangle-path" fill="#D8D8D8" fill-rule="nonzero" x="76.13" y="31.88" width="37.79" height="3.47" rx="1.2"></rect>
                            <rect id="Rectangle-path" fill="#D8D8D8" fill-rule="nonzero" x="76.13" y="39.05" width="37.79" height="3.47" rx="1.2"></rect>
                            <rect id="Rectangle-path" fill="#D8D8D8" fill-rule="nonzero" x="42.69" y="62.34" width="70.36" height="2.12"></rect>
                            <rect id="Rectangle-path" fill="#D8D8D8" fill-rule="nonzero" x="42.69" y="68.86" width="70.36" height="2.12"></rect>
                            <rect id="Rectangle-path" fill="#D8D8D8" fill-rule="nonzero" x="42.69" y="75.37" width="70.36" height="2.12"></rect>
                            <rect id="Rectangle-path" fill="#D8D8D8" fill-rule="nonzero" x="42.69" y="81.89" width="70.36" height="2.12"></rect>
                            <path d="M62.1,125.13 L62.1,132.53 C62.1,141.129074 55.1290736,148.1 46.53,148.1 L130.09,148.1 C138.689074,148.1 145.66,141.129074 145.66,132.53 L145.66,125.13 L62.1,125.13 Z" id="Shape" fill="#01BBAE" fill-rule="nonzero"></path>
                            <rect id="Rectangle-path" fill="#01BBAE" fill-rule="nonzero" x="42.58" y="93.67" width="18.13" height="15.96"></rect>
                            <rect id="Rectangle-path" fill="#243C4B" fill-rule="nonzero" x="68.75" y="93.67" width="18.13" height="15.96"></rect>
                            <circle id="Oval" fill="#BCBCBC" fill-rule="nonzero" cx="103.91" cy="101.65" r="9.62"></circle>
                            <path d="M103.91,92 C98.5970207,92 94.29,96.3070207 94.29,101.62 C94.29,106.932979 98.5970207,111.24 103.91,111.24 C109.222979,111.24 113.53,106.932979 113.53,101.62 C113.543387,99.064537 112.534153,96.6098668 110.727143,94.8028568 C108.920133,92.9958468 106.465463,91.9866133 103.91,92 Z" id="Shape" fill="#01BBAE" fill-rule="nonzero"></path>
                            <polygon id="Shape" fill="#FFFFFF" fill-rule="nonzero" points="109.31 99.93 105.63 99.93 105.63 96.25 102.19 96.25 102.19 99.93 98.51 99.93 98.51 103.37 102.19 103.37 102.19 107.05 105.63 107.05 105.63 103.37 109.31 103.37"></polygon>
                            <circle id="Oval" fill="#F1F1F1" fill-rule="nonzero" opacity="0.4" transform="translate(51.973768, 35.379625) rotate(-78.350000) translate(-51.973768, -35.379625) " cx="51.9737679" cy="35.379625" r="29.31"></circle>
                            <rect id="Rectangle-path" fill="#01BBAE" fill-rule="nonzero" transform="translate(31.429389, 66.603048) rotate(34.510000) translate(-31.429389, -66.603048) " x="29.0043892" y="58.5380481" width="4.85" height="16.13"></rect>
                            <path d="M58.55,4.25 C41.7853686,0.80697023 25.4023296,11.6011395 21.9505868,28.3639791 C18.498844,45.1268186 29.2844966,61.5154658 46.0455399,64.9759207 C62.8065832,68.4363755 79.200834,57.6592424 82.67,40.9 C84.3382624,32.8407678 82.7332931,24.4489279 78.2088339,17.5740758 C73.6843746,10.6992237 66.6118236,5.90569395 58.55,4.25 Z M46.72,61.66 C35.7902079,59.4076627 27.2935175,50.7929765 25.1921255,39.8331622 C23.0907335,28.8733479 27.7984994,17.7268907 37.1200868,11.591633 C46.4416741,5.4563753 58.541239,5.54062794 67.7764835,11.805102 C77.0117281,18.0695761 81.5638133,29.2805122 79.31,40.21 C76.2328524,55.1321088 61.6425243,64.7351324 46.72,61.66 Z" id="Shape" fill="#243C4B" fill-rule="nonzero"></path>
                            <rect id="Rectangle-path" fill="#243C4B" fill-rule="nonzero" transform="translate(15.450124, 90.084692) rotate(34.510000) translate(-15.450124, -90.084692) " x="11.7001245" y="69.3746924" width="7.5" height="41.42" rx="3.09"></rect>
                            <circle id="Oval" fill="#FFFFFF" fill-rule="nonzero" transform="translate(36.326497, 23.097492) rotate(-78.350000) translate(-36.326497, -23.097492) " cx="36.3264967" cy="23.0974923" r="1.84"></circle>
                            <circle id="Oval" fill="#FFFFFF" fill-rule="nonzero" transform="translate(43.152425, 18.878058) rotate(-78.350000) translate(-43.152425, -18.878058) " cx="43.1524255" cy="18.8780578" r="4"></circle>
                        </g>
                        <g id="Layer_8" transform="translate(47.000000, 36.000000)">
                            <path d="M30.43,203.83 C30.43,203.83 37.63,206.3 41.99,195.94 C41.99,195.94 55.29,184.24 51.87,172.87 C50.15,169.29 45.87,170.47 44.97,167.49 C44.07,164.51 49.77,155.64 47.04,150.82 C44.31,146 42.57,149.51 42.29,147.63 C42.01,145.75 40.05,125.49 27.51,125.7 C14.97,125.91 23.41,144.54 23.41,144.54 C23.41,144.54 16.32,150.86 18.9,158.08 C21.48,165.3 28.65,174.55 26.05,178.43 C23.45,182.31 18.97,184.18 20.25,188.79 C21.53,193.4 24.53,202.8 30.43,203.83 Z" id="Shape" fill="#01BBAE" fill-rule="nonzero"></path>
                            <path d="M31.73,206.74 C32.37,192.16 39.29,177.88 33.27,143.33" id="Shape" stroke="#247C76" stroke-width="2" stroke-linecap="round" stroke-linejoin="round"></path>
                            <path d="M35.38,169.15 L26.16,158.91" id="Shape" stroke="#247C76" stroke-width="2" stroke-linecap="round" stroke-linejoin="round"></path>
                            <path d="M34.36,187.53 L42.43,180.31" id="Shape" stroke="#247C76" stroke-width="2" stroke-linecap="round" stroke-linejoin="round"></path>
                            <path d="M193.34,202.59 C193.34,202.59 201.62,187.41 175.4,140.04 L154.24,152.04 C154.24,152.04 173.11,208.57 193.34,202.59 Z" id="Shape" fill="#FFB38A" fill-rule="nonzero"></path>
                            <path d="M120.18,73.78 C120.18,73.78 133.93,63.37 134.82,42.1 C135.71,20.83 123.11,24.71 123.11,24.71 C123.11,24.71 92.27,10.12 81.65,21.3 C71.03,32.48 85.57,57.91 85.57,57.91 L120.18,73.78 Z" id="Shape" fill="#000A10" fill-rule="nonzero"></path>
                            <path d="M41.32,150.44 C41.32,150.44 47.18,117.67 62.71,107.32 C78.24,96.97 98.58,93.87 107.17,93.87 C164.81,91.52 177.57,141.13 177.57,141.13 L155.15,152.86 L158.94,203.86 L63.39,203.58 L69.39,151.84 L41.32,150.44 Z" id="Shape" fill="#243C4B" fill-rule="nonzero"></path>
                            <rect id="Rectangle-path" fill="#AECCD4" fill-rule="nonzero" x="102.2" y="134.26" width="25.87" height="43.2" rx="3.28"></rect>
                            <path d="M175,176.83 L139.58,171.31 C139.58,171.31 132.91,157.51 128.31,155.9 L128.31,166.36 C128.31,166.36 116.58,151.07 113.36,154.29 C110.14,157.51 114,175.59 126,179.13 C139.48,183.13 179.35,208.13 193.38,202.59 C193.34,202.59 195.42,178.67 175,176.83 Z" id="Shape" fill="#FFB38A" fill-rule="nonzero"></path>
                            <path d="M96.3,81.3 L94.69,94.05 C94.69,94.05 95.94,102.21 108.26,103.76 C120.58,105.31 119.56,96.84 119.56,96.84 L115.87,73.77 L96.3,81.3 Z" id="Shape" fill="#FFB38A" fill-rule="nonzero"></path>
                            <path d="M95.78,85.39 C97.4790373,86.374781 99.3604085,87.0041728 101.31,87.24 C107.246486,88.0913433 113.20271,85.823745 117.07,81.24 L115.87,73.76 L96.3,81.3 L95.78,85.39 Z" id="Shape" fill="#000A10" fill-rule="nonzero" opacity="0.2"></path>
                            <path d="M85.49,44.57 C85.49,44.57 81.98,80.63 101.82,83.14 C121.66,85.65 126.15,58.4 126.15,58.4 C126.15,58.4 129.66,58.15 130.78,52.03 C130.78,52.03 131.64,45.19 125.86,49.67 C125.86,49.67 130.2,37.35 120.32,35.76 C110.44,34.17 105.77,49.21 85.49,44.57 Z" id="Shape" fill="#FFB38A" fill-rule="nonzero"></path>
                            <polygon id="Shape" fill="#FFB38A" fill-rule="nonzero" points="41.32 150.44 33.36 203.56 54.77 203.56 69.35 151.82"></polygon>
                            <polyline id="Shape" stroke="#01BBAE" stroke-width="2" stroke-linecap="round" stroke-linejoin="round" points="128.07 145.02 144.33 145.02 144.33 3.16 77.02 3.16"></polyline>
                            <circle id="Oval" fill="#01BBAE" fill-rule="nonzero" cx="115.14" cy="3.16" r="2.3"></circle>
                            <path d="M17.39,205 C17.39,205 11.9,206.87 8.61,199 C8.61,199 -1.48,190.07 1.15,181.42 C2.47,178.7 5.76,179.61 6.42,177.35 C7.08,175.09 2.8,168.35 4.88,164.66 C6.96,160.97 8.28,163.66 8.5,162.25 C8.72,160.84 10.26,145.41 19.8,145.6 C29.34,145.79 22.88,160 22.88,160 C22.88,160 28.26,164.83 26.28,170.31 C24.3,175.79 18.82,182.82 20.79,185.78 C22.76,188.74 26.17,190.17 25.18,193.68 C24.19,197.19 21.89,204.27 17.39,205 Z" id="Shape" fill="#339993" fill-rule="nonzero"></path>
                            <path d="M16.4,207.26 C15.95,196.17 10.72,185.26 15.4,159.01" id="Shape" stroke="#247C76" stroke-width="2" stroke-linecap="round" stroke-linejoin="round"></path>
                            <path d="M13.71,178.65 L20.75,170.88" id="Shape" stroke="#247C76" stroke-width="2" stroke-linecap="round" stroke-linejoin="round"></path>
                            <path d="M14.45,192.63 L8.32,187.12" id="Shape" stroke="#247C76" stroke-width="2" stroke-linecap="round" stroke-linejoin="round"></path>
                        </g>
                    </g>
                </g>
            </g>
        </g>
    </g>
</svg>