<?xml version="1.0" encoding="UTF-8"?>
<svg width="281px" height="281px" viewBox="0 0 281 281" version="1.1" xmlns="http://www.w3.org/2000/svg" xmlns:xlink="http://www.w3.org/1999/xlink">
    <!-- Generator: Sketch 50.2 (55047) - http://www.bohemiancoding.com/sketch -->
    <title>Onboarding 1</title>
    <desc>Created with Sketch.</desc>
    <defs>
        <circle id="path-1" cx="140.5" cy="140.5" r="140.5"></circle>
    </defs>
    <g id="Page-1" stroke="none" stroke-width="1" fill="none" fill-rule="evenodd">
        <g id="Onboarding-3" transform="translate(-499.000000, -189.000000)">
            <g id="Onboarding-1" transform="translate(499.000000, 189.000000)">
                <mask id="mask-2" fill="white">
                    <use xlink:href="#path-1"></use>
                </mask>
                <use id="Oval-4" fill="#DEEAEC" xlink:href="#path-1"></use>
                <g id="Onboarding-3" mask="url(#mask-2)">
                    <g transform="translate(26.000000, 42.000000)">
                        <rect id="Rectangle-path" stroke="none" fill="#FFFFFF" fill-rule="nonzero" x="61.9454545" y="0.672727273" width="147.418182" height="100.436364" rx="9"></rect>
                        <path d="M61.9454545,17.0181818 L61.9454545,91.5090909 C61.9454545,96.8060037 66.2394508,101.1 71.5363636,101.1 L199.763636,101.1 C205.060549,101.1 209.354545,96.8060037 209.354545,91.5090909 L209.354545,17.0181818 L61.9454545,17.0181818 Z" id="Shape" stroke="none" fill="#01BBAE" fill-rule="nonzero"></path>
                        <circle id="Oval" stroke="none" fill="#339993" fill-rule="nonzero" cx="176.472727" cy="9.55454545" r="2.83636364"></circle>
                        <circle id="Oval" stroke="none" fill="#E8BC05" fill-rule="nonzero" cx="187.172727" cy="9.55454545" r="2.83636364"></circle>
                        <circle id="Oval" stroke="none" fill="#FF5050" fill-rule="nonzero" cx="197.881818" cy="9.55454545" r="2.83636364"></circle>
                        <path d="M85.2,82.6363636 C72.1090909,83.0454545 52.2909091,72.0909091 32.8181818,98.5 C18.8272727,117.481818 -3.05454545,183.954545 22.0909091,209.636364 C28.7636364,216.463636 51.5909091,213.136364 51.5909091,213.136364 C51.5909091,213.136364 61.2636364,212.963636 57.9,214.536364 C57.9,214.536364 104.581818,166.6 95.8727273,94.7727273 C95.8818182,94.7727273 98.3,82.2363636 85.2,82.6363636 Z" id="Shape" stroke="none" fill="#000A10" fill-rule="nonzero"></path>
                        <path d="M85.9636364,95.0454545 C87.6861525,95.7503226 88.7632486,97.4795382 88.6363636,99.3363636 C88.4454545,102.363636 88.1727273,107.427273 88.1181818,112.390909 C88.0636364,118.245455 88.1909091,123.672727 89.5363636,127.136364 C90.0306266,128.283305 90.0029627,129.58827 89.4605378,130.713235 C88.9181128,131.8382 87.9142912,132.67249 86.7090909,133 L86.4636364,133.045455 C85.0563229,133.271872 83.8572177,134.190845 83.2727273,135.490909 C81.7258357,138.733671 80.3926874,142.074134 79.2818182,145.490909 C78.6719825,147.590015 76.5951161,148.907053 74.4363636,148.563636 C69.6454545,147.8 61.9272727,145.481818 57.7181818,138.427273 C57.1954626,137.540242 57.008369,136.495099 57.1909091,135.481818 C57.5454545,133.454545 58.2363636,129.781818 59.0090909,127 C59.4057062,125.631481 59.1179936,124.155684 58.2363636,123.036364 C56.0090909,120.227273 52.4454545,114.718182 55.6363636,111.445455 C56.7083262,110.385536 58.2652765,109.979828 59.7181818,110.381818 C59.9545455,110.445455 60.1909091,110.518182 60.4363636,110.609091 C62.5874746,111.4237 65.0026653,110.440174 65.9727273,108.354545 C69.3727273,101.063636 76.0181818,91.0454545 85.9636364,95.0454545 Z" id="Shape" stroke="none" fill="#FFB38A" fill-rule="nonzero"></path>
                        <path d="M59.8090909,158.554545 C59.8090909,158.554545 19.8090909,159.827273 10.2545455,190 C0.7,220.172727 -2.13636364,236.063636 1.68181818,248.454545 L13.7454545,248.454545 C13.7454545,248.454545 12.4727273,236.063636 19.7818182,235.427273 L27.0545455,234.790909 L31.5,226.218182 C31.5,226.218182 34.6727273,230.981818 34.3545455,234.790909 L34.3545455,248.427273 L102.018182,248.427273 C102.018182,248.427273 113.136364,166.145455 82.3181818,160.745455 C51.5,155.345455 59.8090909,158.554545 59.8090909,158.554545 Z" id="Shape" stroke="none" fill="#F2F2F2" fill-rule="nonzero"></path>
                        <path d="M34.4,248.454545 L63.0454545,248.454545 C66.9818182,210.736364 52.5,176.454545 44.6272727,161.063636 C32.2363636,164.4 15.9,172.127273 10.2545455,190.009091 C0.727272727,220.190909 -2.13636364,236.072727 1.68181818,248.463636 L13.7454545,248.463636 C13.7454545,248.463636 12.4727273,236.072727 19.7818182,235.436364 L27.0545455,234.8 L31.5,226.227273 C31.5,226.227273 34.6727273,230.990909 34.3545455,234.8 L34.4,248.454545 Z" id="Shape" stroke="none" fill="#243C4B" fill-rule="nonzero"></path>
                        <path d="M82.3636364,160.781818 C82.3636364,160.781818 96.9727273,176.627273 95.4727273,248.054545 L107.781818,248.054545 C107.781818,248.054545 112.918182,164.763636 82.3636364,160.781818 Z" id="Shape" stroke="none" fill="#243C4B" fill-rule="nonzero"></path>
                        <path d="M114.7,230 C114.7,230 107.836364,230.909091 105.8,220.909091 C105.8,220.909091 96.0181818,208.109091 101.1,198.581818 C103.272727,195.7 106.918182,197.518182 108.209091,195.018182 C109.5,192.518182 106.045455,183.6 109.327273,179.790909 C112.609091,175.981818 113.545455,179.418182 114.127273,177.790909 C114.709091,176.163636 120.063636,158.445455 131.209091,160.872727 C142.354545,163.3 131.509091,178.4 131.509091,178.4 C131.509091,178.4 136.7,185.3 133.127273,191.272727 C129.554545,197.245455 121.5,204.218182 123.127273,208.145455 C124.754545,212.072727 128.418182,214.509091 126.454545,218.418182 C124.490909,222.327273 120.145455,230.090909 114.7,230 Z" id="Shape" stroke="none" fill="#01BBAE" fill-rule="nonzero"></path>
                        <path d="M113.027273,232.327273 C115.045455,219.218182 111.427273,205.254545 122.936364,175.527273" id="Shape" stroke="#247C76" stroke-width="2" fill="none" stroke-linecap="round" stroke-linejoin="round"></path>
                        <path d="M116.463636,198.163636 L126.5,190.672727" id="Shape" stroke="#247C76" stroke-width="2" fill="none" stroke-linecap="round" stroke-linejoin="round"></path>
                        <path d="M114.1,214.736364 L108.181818,206.863636" id="Shape" stroke="#247C76" stroke-width="2" fill="none" stroke-linecap="round" stroke-linejoin="round"></path>
                        <path d="M74.4181818,139.090909 C74.4181818,139.090909 71.2181818,144.854545 80.1454545,159.727273 C80.1454545,159.727273 83.9909091,165.872727 83.9909091,178.818182 L49.5727273,159.727273 L60.8181818,122.090909 L74.4181818,139.090909 Z" id="Shape" stroke="none" fill="#FFB38A" fill-rule="nonzero"></path>
                        <path d="M88.1818182,162.981818 C88.1818182,162.981818 117.272727,183.527273 112.309091,221.281818 L111.4,243.827273 L99.2636364,241.454545 L88.1818182,162.981818 Z" id="Shape" stroke="none" fill="#243C4B" fill-rule="nonzero"></path>
                        <path d="M12.7272727,248.454545 C17.8636364,248.454545 69.6090909,248.818182 77.8818182,247.545455 C77.8818182,247.545455 95.7,248.518182 97.8818182,247.809091 C100.063636,247.1 111.963636,247.672727 112.427273,239.554545 L86.8454545,241.272727 C86.8454545,241.272727 23.4272727,234.427273 21.7818182,234.409091 C12.9272727,234.290909 12.7272727,248.454545 12.7272727,248.454545 Z" id="Shape" stroke="none" fill="#FFB38A" fill-rule="nonzero"></path>
                        <path d="M185.290909,248.454545 L111.909091,248.454545 C110.812059,248.454545 109.759959,248.018751 108.98424,247.243033 C108.208521,246.467314 107.772727,245.415214 107.772727,244.318182 L125.254545,196.363636 C125.254545,194.079186 127.106459,192.227273 129.390909,192.227273 L202.727273,192.227273 C205.011723,192.227273 206.863636,194.079186 206.863636,196.363636 L189.390909,244.327273 C189.386015,246.594053 187.557607,248.434623 185.290909,248.454545 Z" id="Shape" stroke="none" fill="#AECCD4" fill-rule="nonzero"></path>
                        <path d="M74.4272727,148.609091 C74.4272727,148.609091 67.3181818,149.154545 62.5181818,143.818182 C62.5181818,143.818182 64.0545455,151.327273 76.2090909,152.118182 L74.4272727,148.609091 Z" id="Shape" stroke="none" fill="#000A10" fill-rule="nonzero" opacity="0.2"></path>
                        <polygon id="Shape" stroke="none" fill="#FFFFFF" fill-rule="nonzero" points="176.8 31.6636364 181.463636 31.6636364 181.463636 39.8818182 172.618182 39.8818182"></polygon>
                        <path d="M186.154545,69.8818182 C186.166032,69.6910819 186.166032,69.4998272 186.154545,69.3090909 L186.154545,36.3636364 C186.154545,33.7528357 184.038073,31.6363636 181.427273,31.6363636 C178.816472,31.6363636 176.7,33.7528357 176.7,36.3636364 L176.7,37.7727273 L153,37.7727273 L153,68.9090909 C153,71.7408054 155.295558,74.0363636 158.127273,74.0363636 L190.690909,74.0363636 C188.361345,73.9592477 186.43566,72.1956442 186.154545,69.8818182 Z" id="Shape" stroke="none" fill="#243C4B" fill-rule="nonzero"></path>
                        <path d="M134.545455,107.027273 C134.545455,110.436376 131.78183,113.2 128.372727,113.200029 L169.954545,113.2 C173.68617,113.210754 176.738906,110.230798 176.818182,106.5 L176.818182,31.6636364 L134.545455,31.6636364 L134.545455,107.027273 Z" id="Shape" stroke="none" fill="#F2F2F2" fill-rule="nonzero"></path>
                        <path d="M134.545455,107.027273 C134.545455,110.436376 131.78183,113.2 128.372727,113.200029 L169.954545,113.2 C173.68617,113.210754 176.738906,110.230798 176.818182,106.5 L176.818182,31.6636364 L134.545455,31.6636364 L134.545455,107.027273 Z" id="Shape" stroke="none" fill="#FFFFFF" fill-rule="nonzero"></path>
                        <path d="M163.872727,107.772727 C163.903144,107.522365 163.918324,107.270385 163.918182,107.018182 L163.918182,29.8181818 C163.920595,28.1794982 163.271322,26.6071044 162.113449,25.4475265 C160.955577,24.2879487 159.38414,23.6363619 157.745455,23.6363636 C154.336351,23.6363636 151.572727,26.3999878 151.572727,29.8090909 L151.572727,31.6272727 L120.527273,31.6272727 L120.527273,106.463636 C120.527273,110.163944 123.526965,113.163636 127.227273,113.163636 L169.8,113.163636 C166.767994,113.067245 164.255414,110.78203 163.872727,107.772727 Z" id="Shape" stroke="none" fill="#243C4B" fill-rule="nonzero"></path>
                        <path d="M151.563636,29.8181818 C151.561219,28.1779218 152.211739,26.6041471 153.37158,25.4443069 C154.53142,24.2844666 156.105195,23.6339462 157.745455,23.6363346 L116.163636,23.6363636 C112.432012,23.6256101 109.379276,26.6055657 109.3,30.3363636 L109.3,89.7636364 L151.563636,89.7636364 L151.563636,29.8181818 Z" id="Shape" stroke="none" fill="#F2F2F2" fill-rule="nonzero"></path>
                        <path d="M151.563636,29.8181818 C151.561219,28.1779218 152.211739,26.6041471 153.37158,25.4443069 C154.53142,24.2844666 156.105195,23.6339462 157.745455,23.6363346 L116.163636,23.6363636 C112.432012,23.6256101 109.379276,26.6055657 109.3,30.3363636 L109.3,89.7636364 L151.563636,89.7636364 L151.563636,29.8181818 Z" id="Shape" stroke="none" fill="#FFFFFF" fill-rule="nonzero"></path>
                        <path d="M133.309091,76.7818182 C133.817768,76.8482962 134.289351,76.5046 134.381818,76 L135.036364,76 L135.036364,82.1818182 L134.063636,82.1818182 L134.063636,77.4636364 L133.309091,77.4636364 L133.309091,76.7818182 Z" id="Shape" stroke="none" fill="#BC2A2A" fill-rule="nonzero"></path>
                        <path d="M137.627273,76.8181818 C137.318182,76.8181818 137.127273,76.9909091 137.127273,77.4272727 L137.127273,78.0909091 L136.218182,78.0909091 L136.218182,77.4909091 C136.218182,76.5 136.709091,75.9363636 137.663636,75.9363636 C138.618182,75.9363636 139.109091,76.5 139.109091,77.4909091 C139.109091,79.4363636 137.172727,80.1636364 137.172727,81.1727273 C137.16817,81.2180676 137.16817,81.2637506 137.172727,81.3090909 L138.990909,81.3090909 L138.990909,82.2181818 L136.181818,82.2181818 L136.181818,81.4545455 C136.181818,79.6363636 138.109091,79.3363636 138.109091,77.5545455 C138.136364,76.9636364 137.936364,76.8181818 137.627273,76.8181818 Z" id="Shape" stroke="none" fill="#BC2A2A" fill-rule="nonzero"></path>
                        <path d="M139.627273,77.4818182 C139.627273,76.665943 140.28867,76.0045455 141.104545,76.0045455 C141.920421,76.0045455 142.581818,76.665943 142.581818,77.4818182 L142.581818,80.7 C142.581818,81.5158752 141.920421,82.1772727 141.104545,82.1772727 C140.28867,82.1772727 139.627273,81.5158752 139.627273,80.7 L139.627273,77.4818182 Z M140.6,80.7545455 C140.6,81.2 140.790909,81.3636364 141.1,81.3636364 C141.409091,81.3636364 141.6,81.2 141.6,80.7545455 L141.6,77.4272727 C141.6,76.9818182 141.409091,76.8181818 141.1,76.8181818 C140.790909,76.8181818 140.6,76.9909091 140.6,77.4272727 L140.6,80.7545455 Z" id="Shape" stroke="none" fill="#BC2A2A" fill-rule="nonzero"></path>
                        <path d="M143.481818,77.4818182 C143.481818,76.665943 144.143216,76.0045455 144.959091,76.0045455 C145.774966,76.0045455 146.436364,76.665943 146.436364,77.4818182 L146.436364,80.7 C146.436364,81.5158752 145.774966,82.1772727 144.959091,82.1772727 C144.143216,82.1772727 143.481818,81.5158752 143.481818,80.7 L143.481818,77.4818182 Z M144.454545,80.7545455 C144.454545,81.2 144.645455,81.3636364 144.954545,81.3636364 C145.263636,81.3636364 145.454545,81.2 145.454545,80.7545455 L145.454545,77.4272727 C145.454545,76.9818182 145.263636,76.8181818 144.954545,76.8181818 C144.645455,76.8181818 144.454545,76.9909091 144.454545,77.4272727 L144.454545,80.7545455 Z" id="Shape" stroke="none" fill="#BC2A2A" fill-rule="nonzero"></path>
                        <rect id="Rectangle-path" stroke="none" fill="#D8D8D8" fill-rule="nonzero" x="114.818182" y="75.6" width="10.0272727" height="6.65454545"></rect>
                        <rect id="Rectangle-path" stroke="none" fill="#D8D8D8" fill-rule="nonzero" x="114.754545" y="43.8454545" width="12.8363636" height="1.43636364" rx="0.718181818"></rect>
                        <rect id="Rectangle-path" stroke="none" fill="#D8D8D8" fill-rule="nonzero" x="114.754545" y="47.7" width="19" height="1.43636364" rx="0.718181818"></rect>
                        <rect id="Rectangle-path" stroke="none" fill="#D8D8D8" fill-rule="nonzero" x="114.754545" y="51.5545455" width="19" height="1.43636364" rx="0.718181818"></rect>
                        <rect id="Rectangle-path" stroke="none" fill="#D8D8D8" fill-rule="nonzero" x="137.890909" y="47.7" width="8.20909091" height="1.43636364" rx="0.718181818"></rect>
                        <rect id="Rectangle-path" stroke="none" fill="#D8D8D8" fill-rule="nonzero" x="137.890909" y="51.5545455" width="8.20909091" height="1.43636364" rx="0.718181818"></rect>
                        <rect id="Rectangle-path" stroke="none" fill="#D8D8D8" fill-rule="nonzero" x="114.754545" y="59.2636364" width="12.8363636" height="1.43636364" rx="0.718181818"></rect>
                        <rect id="Rectangle-path" stroke="none" fill="#D8D8D8" fill-rule="nonzero" x="114.754545" y="63.1181818" width="19" height="1.43636364" rx="0.718181818"></rect>
                        <rect id="Rectangle-path" stroke="none" fill="#D8D8D8" fill-rule="nonzero" x="114.754545" y="66.9818182" width="19" height="1.43636364" rx="0.718181818"></rect>
                        <rect id="Rectangle-path" stroke="none" fill="#D8D8D8" fill-rule="nonzero" x="137.890909" y="63.1181818" width="8.20909091" height="1.43636364" rx="0.718181818"></rect>
                        <rect id="Rectangle-path" stroke="none" fill="#D8D8D8" fill-rule="nonzero" x="137.890909" y="66.9818182" width="8.20909091" height="1.43636364" rx="0.718181818"></rect>
                        <rect id="Rectangle-path" stroke="none" fill="#D8D8D8" fill-rule="nonzero" transform="translate(139.672727, 29.972727) rotate(-180.000000) translate(-139.672727, -29.972727) " x="133.254545" y="29.2545455" width="12.8363636" height="1.43636364" rx="0.718181818"></rect>
                        <rect id="Rectangle-path" stroke="none" fill="#D8D8D8" fill-rule="nonzero" transform="translate(136.600000, 33.827273) rotate(180.000000) translate(-136.600000, -33.827273) " x="127.1" y="33.1090909" width="19" height="1.43636364" rx="0.718181818"></rect>
                        <rect id="Rectangle-path" stroke="none" fill="#D8D8D8" fill-rule="nonzero" transform="translate(136.600000, 37.681818) rotate(-180.000000) translate(-136.600000, -37.681818) " x="127.1" y="36.9636364" width="19" height="1.43636364" rx="0.718181818"></rect>
                        <polyline id="Shape" stroke="#01BBAE" stroke-width="2" fill="none" points="148.172727 192.227273 148.172727 142.827273 182.872727 142.827273 182.872727 99.7727273"></polyline>
                        <circle id="Oval" stroke="none" fill="#01BBAE" fill-rule="nonzero" cx="164.236364" cy="142.7" r="2.09090909"></circle>
                        <circle id="Oval" stroke="none" fill="#243C4B" fill-rule="nonzero" cx="114.081818" cy="26" r="12.4818182"></circle>
                        <circle id="Oval" stroke="none" fill="#FFFFFF" fill-rule="nonzero" cx="114.454545" cy="23.5545455" r="5.62727273"></circle>
                        <path d="M114.454545,29.1727273 C110.54532,29.1732208 107.113294,31.7732405 106.054545,35.5363636 C110.921185,39.6300758 118.088474,39.4068324 122.690909,35.0181818 C121.468609,31.515895 118.163996,29.1705687 114.454545,29.1727273 Z" id="Shape" stroke="none" fill="#FFFFFF" fill-rule="nonzero"></path>
                        <path d="M72.4629277,37.2270845 L70.500038,35.561211 C69.9075539,35.0332431 69.0134086,35.0332431 68.4209245,35.561211 L67.3361697,36.5813971 C66.4150133,36.1364959 65.4374696,35.8193373 64.4305764,35.6386935 L64.1206464,34.1406987 C63.9774612,33.3474729 63.2586511,32.7902558 62.4547729,32.8493239 L59.8720233,33.0688576 C59.0792988,33.1342442 58.4622,33.7846998 58.4385973,34.5797661 L58.4385973,36.1035884 C57.4541375,36.4593492 56.5240224,36.9504847 55.6750552,37.5628419 L54.3836804,36.6976208 C53.72278,36.2624295 52.8408795,36.39 52.3303945,36.994637 L50.6257797,39.0737504 C50.0978118,39.6662345 50.0978118,40.5603798 50.6257797,41.1528639 L51.7621895,42.3667562 C51.3675508,43.2535593 51.0855574,44.1863065 50.9227959,45.143212 L49.2956637,45.4789695 C48.5024379,45.6221547 47.9452208,46.3409648 48.0042889,47.144843 L48.2238226,49.7275926 C48.2892092,50.5203171 48.9396648,51.137416 49.7347311,51.1610186 L51.4910008,51.1610186 C51.8261213,52.0012764 52.2595999,52.7988771 52.7823756,53.5371483 L51.8009308,55.0222293 C51.3657395,55.6831297 51.49331,56.5650302 52.097947,57.0755152 L54.0608367,58.7413887 C54.6533208,59.2693567 55.547466,59.2693567 56.1399501,58.7413887 L57.4313249,57.5404102 C58.2541085,57.9321418 59.1213533,58.2226688 60.0140746,58.4056313 L60.3756595,60.161901 C60.5188447,60.9551268 61.2376548,61.5123439 62.041533,61.4532758 L64.6242826,61.2337421 C65.4720523,61.1988087 66.1370214,60.4937121 66.1222774,59.6453511 L66.1222774,57.9149089 C67.0335286,57.5934883 67.9011398,57.1596827 68.705027,56.6235341 L70.1255393,57.5662377 C70.7864397,58.001429 71.6683402,57.8738585 72.1788252,57.2692215 L73.8446987,55.3063318 C74.3726666,54.7138477 74.3726666,53.8197024 73.8446987,53.2272183 L72.6953751,52.013326 C73.1169791,51.126908 73.4208756,50.1891704 73.5993375,49.2239564 L75.161901,48.9011127 C75.9551268,48.7579275 76.5123439,48.0391174 76.4532758,47.2352392 L76.2337421,44.6524896 C76.1683555,43.8597651 75.5178999,43.2426663 74.7228336,43.2190636 L73.1602701,43.2190636 C72.8416471,42.3066276 72.4076703,41.4386739 71.8688953,40.636314 L72.7212026,39.3449392 C73.1734946,38.6859944 73.0504545,37.7911578 72.4371002,37.2787395 L72.4629277,37.2270845 Z M62.7905304,52.0778947 C60.0120934,52.3036462 57.5763684,50.2351 57.3491449,47.456783 C57.1219213,44.678466 59.1891768,42.2416454 61.967373,42.0129499 C64.7455692,41.7842544 67.1834848,43.8502184 67.4136522,46.6282931 C67.6443683,49.4058887 65.5808662,51.8450984 62.8034441,52.0778947 L62.7905304,52.0778947 Z" id="Shape" stroke="none" fill="#FFFFFF" fill-rule="nonzero"></path>
                        <path d="M192.027422,119.690947 C191.448255,119.75099 191.006288,120.235981 191.000149,120.81822 L191.000149,121.981856 C190.990805,122.565217 191.421427,123.062389 192.000149,123.136402 L192.854695,123.245493 C192.996969,123.762275 193.201498,124.259859 193.463786,124.727311 L192.918331,125.409129 C192.554975,125.860704 192.586201,126.512536 192.991058,126.927311 L193.800149,127.754584 C194.205392,128.170531 194.857782,128.217409 195.318331,127.863674 L196.000149,127.336402 C196.476717,127.619744 196.986697,127.84267 197.518331,128.000038 L197.60924,128.909129 C197.669283,129.488296 198.154274,129.930263 198.736513,129.936402 L199.900149,129.936402 C200.48351,129.945746 200.980682,129.515124 201.054695,128.936402 L201.163786,128.100038 C201.737704,127.956414 202.290737,127.739478 202.80924,127.454584 L203.454695,127.972765 C203.90627,128.336121 204.558102,128.304896 204.972876,127.900038 L205.800149,127.090947 C206.216097,126.685704 206.262975,126.033315 205.90924,125.572765 L205.418331,124.936402 C205.721033,124.436184 205.956399,123.898206 206.118331,123.336402 L206.881967,123.254584 C207.453452,123.172194 207.874276,122.677336 207.863786,122.100038 L207.863786,120.91822 C207.868478,120.33831 207.439022,119.846388 206.863786,119.772765 L206.118331,119.672765 C205.976735,119.115375 205.76601,118.577874 205.491058,118.072765 L205.954695,117.500038 C206.31805,117.048463 206.286825,116.396631 205.881967,115.981856 L205.072876,115.154584 C204.667634,114.738636 204.015244,114.691758 203.554695,115.045493 L203.000149,115.472765 C202.480965,115.156376 201.921337,114.91173 201.336513,114.745493 L201.263786,114.027311 C201.203742,113.448144 200.718751,113.006176 200.136513,113.000038 L198.972876,113.000038 C198.392967,112.995346 197.901045,113.424802 197.827422,114.000038 L197.736513,114.71822 C197.131358,114.875445 196.55031,115.11398 196.00924,115.427311 L195.436513,114.963674 C194.984937,114.600319 194.333106,114.631544 193.918331,115.036402 L193.081967,115.854584 C192.66602,116.259826 192.619141,116.912216 192.972876,117.372765 L193.463786,118.009129 C193.177426,118.511959 192.957414,119.049768 192.80924,119.609129 L192.027422,119.690947 Z M199.50924,118.381856 C201.175956,118.402058 202.510743,119.769533 202.490622,121.43625 C202.470501,123.102968 201.10309,124.437821 199.436372,124.41778 C197.769654,124.397739 196.434735,123.030394 196.454695,121.363674 C196.464281,120.563184 196.791498,119.799295 197.364349,119.240083 C197.9372,118.680872 198.708751,118.372154 199.50924,118.381856 Z" id="Shape" stroke="none" fill="#01BBAE" fill-rule="nonzero"></path>
                    </g>
                </g>
            </g>
        </g>
    </g>
</svg>