<?xml version="1.0" encoding="UTF-8"?>
<svg width="22px" height="21px" viewBox="0 0 22 21" version="1.1" xmlns="http://www.w3.org/2000/svg" xmlns:xlink="http://www.w3.org/1999/xlink">
    <!-- Generator: Sketch 50.2 (55047) - http://www.bohemiancoding.com/sketch -->
    <title>Shape</title>
    <desc>Created with Sketch.</desc>
    <defs></defs>
    <g id="Page-1" stroke="none" stroke-width="1" fill="none" fill-rule="evenodd">
        <g id="Onboarding-1" transform="translate(-908.000000, -170.000000)" fill="#353638" fill-rule="nonzero">
            <g id="Group-22" transform="translate(326.000000, 147.000000)">
                <g id="illustration__2x">
                    <path d="M602.818992,42.5228682 C603.143023,42.8468992 603.143023,43.3329457 602.818992,43.6569767 C602.494961,43.9810078 602.008915,43.9810078 601.684884,43.6569767 L592.612016,34.5841085 L583.539147,43.6569767 C583.377132,43.8189922 583.215116,43.8189922 582.891085,43.8189922 C582.567054,43.8189922 582.405039,43.8189922 582.243023,43.6569767 C581.918992,43.3329457 581.918992,42.8468992 582.243023,42.5228682 L591.315891,33.45 L582.243023,24.3771318 C581.918992,24.0531008 581.918992,23.5670543 582.243023,23.2430233 C582.405039,23.0810078 582.567054,23.0810078 582.891085,23.0810078 C583.215116,23.0810078 583.377132,23.0810078 583.539147,23.2430233 L592.612016,32.3158915 L601.684884,23.2430233 C602.008915,22.9189922 602.494961,22.9189922 602.818992,23.2430233 C603.143023,23.5670543 603.143023,24.0531008 602.818992,24.3771318 L593.746124,33.45 L602.818992,42.5228682 Z" id="Shape"></path>
                </g>
            </g>
        </g>
    </g>
</svg>