<?xml version="1.0" encoding="UTF-8"?>
<svg width="16px" height="16px" viewBox="0 0 16 16" version="1.1" xmlns="http://www.w3.org/2000/svg" xmlns:xlink="http://www.w3.org/1999/xlink">
    <!-- Generator: Sketch 50.2 (55047) - http://www.bohemiancoding.com/sketch -->
    <title>Shape</title>
    <desc>Created with Sketch.</desc>
    <defs></defs>
    <g id="Symbols" stroke="none" stroke-width="1" fill="none" fill-rule="evenodd">
        <g id="Topnav/With-Search" transform="translate(-278.000000, -27.000000)" fill="#353638" fill-rule="nonzero">
            <g id="Group-7">
                <g id="Search" transform="translate(265.000000, 15.000000)">
                    <path d="M28.8,26.8666667 L24.2666667,22.3333333 C25.1333333,21.2666667 25.6666667,19.8666667 25.6666667,18.3333333 C25.6666667,14.8666667 22.8,12 19.3333333,12 C15.8666667,12 13,14.8666667 13,18.3333333 C13,21.8 15.8666667,24.6666667 19.3333333,24.6666667 C20.8666667,24.6666667 22.2,24.1333333 23.3333333,23.2666667 L27.8666667,27.8 C28,27.9333333 28.2,28 28.3333333,28 C28.4666667,28 28.6666667,27.9333333 28.8,27.8 C29.0666667,27.5333333 29.0666667,27.1333333 28.8,26.8666667 Z M19.3333333,23.3333333 C16.6,23.3333333 14.3333333,21.0666667 14.3333333,18.3333333 C14.3333333,15.6 16.6,13.3333333 19.3333333,13.3333333 C22.0666667,13.3333333 24.3333333,15.6 24.3333333,18.3333333 C24.3333333,21.0666667 22.0666667,23.3333333 19.3333333,23.3333333 Z" id="Shape"></path>
                </g>
            </g>
        </g>
    </g>
</svg>