<?xml version="1.0" encoding="UTF-8"?>
<svg width="21px" height="21px" viewBox="0 0 21 21" version="1.1" xmlns="http://www.w3.org/2000/svg" xmlns:xlink="http://www.w3.org/1999/xlink">
    <!-- Generator: Sketch 50.2 (55047) - http://www.bohemiancoding.com/sketch -->
    <title>Shape</title>
    <desc>Created with Sketch.</desc>
    <defs></defs>
    <g id="Page-1" stroke="none" stroke-width="1" fill="none" fill-rule="evenodd">
        <g id="Doctor---My-Schedule---4-Add-Appoint" transform="translate(-370.000000, -279.000000)" fill="#FFFFFF" fill-rule="nonzero">
            <g id="Group-11" transform="translate(326.000000, 147.000000)">
                <g id="Group-2" transform="translate(30.000000, 117.000000)">
                    <path d="M34.7375,34.5125 L28.7875,28.5625 C29.925,27.1625 30.625,25.325 30.625,23.3125 C30.625,18.7625 26.8625,15 22.3125,15 C17.7625,15 14,18.7625 14,23.3125 C14,27.8625 17.7625,31.625 22.3125,31.625 C24.325,31.625 26.075,30.925 27.5625,29.7875 L33.5125,35.7375 C33.6875,35.9125 33.95,36 34.125,36 C34.3,36 34.5625,35.9125 34.7375,35.7375 C35.0875,35.3875 35.0875,34.8625 34.7375,34.5125 Z M22.3125,29.875 C18.725,29.875 15.75,26.9 15.75,23.3125 C15.75,19.725 18.725,16.75 22.3125,16.75 C25.9,16.75 28.875,19.725 28.875,23.3125 C28.875,26.9 25.9,29.875 22.3125,29.875 Z" id="Shape"></path>
                </g>
            </g>
        </g>
    </g>
</svg>