<?xml version="1.0" encoding="UTF-8"?>
<svg width="100px" height="100px" viewBox="0 0 100 100" version="1.1" xmlns="http://www.w3.org/2000/svg" xmlns:xlink="http://www.w3.org/1999/xlink">
    <!-- Generator: Sketch 52.1 (67048) - http://www.bohemiancoding.com/sketch -->
    <title>Group 2</title>
    <desc>Created with Sketch.</desc>
    <defs>
        <rect id="path-1" x="0" y="0" width="100" height="100" rx="8"></rect>
        <mask id="mask-2" maskContentUnits="userSpaceOnUse" maskUnits="objectBoundingBox" x="0" y="0" width="100" height="100" fill="white">
            <use xlink:href="#path-1"></use>
        </mask>
    </defs>
    <g id="Page-1" stroke="none" stroke-width="1" fill="none" fill-rule="evenodd">
        <g id="Admin---Add-Employee" transform="translate(-651.000000, -490.000000)">
            <g id="Group">
                <g id="Group-2" transform="translate(651.000000, 490.000000)">
                    <use id="Rectangle" stroke="#E4E4E4" mask="url(#mask-2)" stroke-width="4" fill="#FAFAFA" stroke-dasharray="5" xlink:href="#path-1"></use>
                    <path d="M70,46.5 C70,47 69.6666667,47.3333333 69.1666667,47.3333333 L65,47.3333333 L65,51.5 C65,52 64.6666667,52.3333333 64.1666667,52.3333333 C63.6666667,52.3333333 63.3333333,52 63.3333333,51.5 L63.3333333,47.3333333 L59.1666667,47.3333333 C58.6666667,47.3333333 58.3333333,47 58.3333333,46.5 C58.3333333,46 58.6666667,45.6666667 59.1666667,45.6666667 L63.3333333,45.6666667 L63.3333333,41.5 C63.3333333,41 63.6666667,40.6666667 64.1666667,40.6666667 C64.6666667,40.6666667 65,41 65,41.5 L65,45.6666667 L69.1666667,45.6666667 C69.6666667,45.6666667 70,46 70,46.5 Z M45.8333333,54 C49.8333333,54 53.3333333,48.5 53.3333333,42.3333333 C53.3333333,37 50.6666667,34 45.8333333,34 C41,34 38.3333333,37 38.3333333,42.3333333 C38.3333333,48.5 41.8333333,54 45.8333333,54 Z M60.5,58.3333333 C58.3333333,57 53.8333333,54.3333333 51.1666667,53.1666667 C49.6666667,54.8333333 47.8333333,55.8333333 45.8333333,55.8333333 C43.8333333,55.8333333 42,54.8333333 40.5,53.1666667 C37.8333333,54.5 33.3333333,57.1666667 31.1666667,58.3333333 C30.5,58.8333333 30,59.6666667 30,60.5 L30,62 C30,63.1666667 30.8333333,64.3333333 32.1666667,64.5 C35.1666667,65 41,65.8333333 45.8333333,65.8333333 C50.6666667,65.8333333 56.5,65 59.5,64.5 C60.6666667,64.3333333 61.6666667,63.3333333 61.6666667,62 L61.6666667,60.5 C61.6666667,59.5 61.1666667,58.6666667 60.5,58.3333333 Z" id="Shape" fill="#353638" fill-rule="nonzero"></path>
                </g>
            </g>
        </g>
    </g>
</svg>